%TF.GenerationSoftware,KiCad,Pcbnew,8.0.5+1*%
%TF.CreationDate,2024-10-02T06:07:40-04:00*%
%TF.ProjectId,breadboard-power-supply,62726561-6462-46f6-9172-642d706f7765,rev?*%
%TF.SameCoordinates,Original*%
%TF.FileFunction,Copper,L1,Top*%
%TF.FilePolarity,Positive*%
%FSLAX46Y46*%
G04 Gerber Fmt 4.6, Leading zero omitted, Abs format (unit mm)*
G04 Created by KiCad (PCBNEW 8.0.5+1) date 2024-10-02 06:07:40*
%MOMM*%
%LPD*%
G01*
G04 APERTURE LIST*
%TA.AperFunction,SMDPad,CuDef*%
%ADD10R,1.700000X2.500000*%
%TD*%
%TA.AperFunction,ComponentPad*%
%ADD11C,1.400000*%
%TD*%
%TA.AperFunction,SMDPad,CuDef*%
%ADD12R,1.465000X1.115000*%
%TD*%
%TA.AperFunction,SMDPad,CuDef*%
%ADD13R,2.500000X1.700000*%
%TD*%
%TA.AperFunction,ComponentPad*%
%ADD14C,1.800000*%
%TD*%
%TA.AperFunction,SMDPad,CuDef*%
%ADD15R,0.870000X1.420000*%
%TD*%
%TA.AperFunction,SMDPad,CuDef*%
%ADD16R,1.420000X0.870000*%
%TD*%
%TA.AperFunction,ComponentPad*%
%ADD17O,4.500000X2.000000*%
%TD*%
%TA.AperFunction,ComponentPad*%
%ADD18O,2.000000X4.250000*%
%TD*%
%TA.AperFunction,SMDPad,CuDef*%
%ADD19R,0.950000X2.150000*%
%TD*%
%TA.AperFunction,SMDPad,CuDef*%
%ADD20R,3.250000X2.150000*%
%TD*%
%TA.AperFunction,SMDPad,CuDef*%
%ADD21R,1.115000X1.465000*%
%TD*%
%TA.AperFunction,ComponentPad*%
%ADD22C,1.700000*%
%TD*%
%TA.AperFunction,ViaPad*%
%ADD23C,0.650000*%
%TD*%
%TA.AperFunction,Conductor*%
%ADD24C,0.350000*%
%TD*%
%TA.AperFunction,Conductor*%
%ADD25C,0.200000*%
%TD*%
%TA.AperFunction,Conductor*%
%ADD26C,0.500000*%
%TD*%
G04 APERTURE END LIST*
D10*
%TO.P,D2,1*%
%TO.N,/ADJ*%
X132500000Y-102000000D03*
%TO.P,D2,2*%
%TO.N,Net-(C2-Pad1)*%
X132500000Y-106000000D03*
%TD*%
D11*
%TO.P,SW1,1*%
%TO.N,/VIN1*%
X113500000Y-101900000D03*
%TO.P,SW1,2*%
%TO.N,Net-(J1-Pad1)*%
X116000000Y-101900000D03*
%TO.P,SW1,3*%
%TO.N,unconnected-(SW1-Pad3)_1*%
X118500000Y-101900000D03*
%TO.P,SW1,4*%
%TO.N,/VIN1*%
X113500000Y-105100000D03*
%TO.P,SW1,5*%
%TO.N,Net-(J1-Pad1)*%
X116000000Y-105100000D03*
%TO.P,SW1,6*%
%TO.N,unconnected-(SW1-Pad3)*%
X118500000Y-105100000D03*
%TD*%
D12*
%TO.P,C1,1*%
%TO.N,Net-(U1-IN)*%
X121700000Y-101100000D03*
%TO.P,C1,2*%
%TO.N,GND*%
X121700000Y-102800000D03*
%TD*%
D13*
%TO.P,D1,1*%
%TO.N,Net-(C2-Pad1)*%
X126500000Y-111000000D03*
%TO.P,D1,2*%
%TO.N,Net-(U1-IN)*%
X122500000Y-111000000D03*
%TD*%
D14*
%TO.P,SW3,*%
%TO.N,*%
X140600000Y-95250000D03*
X128400000Y-95250000D03*
D11*
%TO.P,SW3,1,1*%
%TO.N,unconnected-(SW3-Pad1)*%
X138500000Y-94000000D03*
%TO.P,SW3,2,2*%
%TO.N,VCC1*%
X134500000Y-94000000D03*
%TO.P,SW3,3,3*%
%TO.N,VCC2*%
X132500000Y-94000000D03*
%TO.P,SW3,4,4*%
%TO.N,unconnected-(SW3-Pad4)*%
X130500000Y-94000000D03*
%TO.P,SW3,5,5*%
%TO.N,unconnected-(SW3-Pad5)*%
X138500000Y-96500000D03*
%TO.P,SW3,6,6*%
%TO.N,Net-(J2-Pad1)*%
X134500000Y-96500000D03*
%TO.P,SW3,7,7*%
%TO.N,unconnected-(SW3-Pad7)*%
X132500000Y-96500000D03*
%TO.P,SW3,8,8*%
%TO.N,VCC2*%
X130500000Y-96500000D03*
%TD*%
D15*
%TO.P,R2,1*%
%TO.N,Net-(R2-Pad1)*%
X114500000Y-99800000D03*
%TO.P,R2,2*%
%TO.N,GND*%
X112640000Y-99800000D03*
%TD*%
D12*
%TO.P,C3,1*%
%TO.N,/ADJ*%
X135500000Y-103100000D03*
%TO.P,C3,2*%
%TO.N,GND*%
X135500000Y-101400000D03*
%TD*%
D16*
%TO.P,R1,1*%
%TO.N,Net-(C2-Pad1)*%
X135500000Y-106580000D03*
%TO.P,R1,2*%
%TO.N,/ADJ*%
X135500000Y-104720000D03*
%TD*%
D17*
%TO.P,J1,1*%
%TO.N,Net-(J1-Pad1)*%
X106500000Y-104000000D03*
%TO.P,J1,2*%
%TO.N,GND*%
X106500000Y-98000000D03*
D18*
%TO.P,J1,3*%
X101800000Y-101000000D03*
%TD*%
D14*
%TO.P,SW2,*%
%TO.N,*%
X124600000Y-95250000D03*
X112400000Y-95250000D03*
D11*
%TO.P,SW2,1,1*%
%TO.N,VCC1*%
X122500000Y-94000000D03*
%TO.P,SW2,2,2*%
%TO.N,/VIN1*%
X118500000Y-94000000D03*
%TO.P,SW2,3,3*%
%TO.N,Net-(U1-IN)*%
X116500000Y-94000000D03*
%TO.P,SW2,4,4*%
X114500000Y-94000000D03*
%TO.P,SW2,5,5*%
%TO.N,unconnected-(SW2-Pad5)*%
X122500000Y-96500000D03*
%TO.P,SW2,6,6*%
%TO.N,/ADJ*%
X118500000Y-96500000D03*
%TO.P,SW2,7,7*%
%TO.N,Net-(R5-Pad1)*%
X116500000Y-96500000D03*
%TO.P,SW2,8,8*%
%TO.N,Net-(R2-Pad1)*%
X114500000Y-96500000D03*
%TD*%
D19*
%TO.P,U1,1,Adj*%
%TO.N,/ADJ*%
X128800000Y-101100000D03*
%TO.P,U1,2,OUT*%
%TO.N,Net-(C2-Pad1)*%
X126500000Y-101100000D03*
%TO.P,U1,3,IN*%
%TO.N,Net-(U1-IN)*%
X124200000Y-101100000D03*
D20*
%TO.P,U1,4,OUT*%
%TO.N,Net-(C2-Pad1)*%
X126500000Y-106900000D03*
%TD*%
D15*
%TO.P,R5,1*%
%TO.N,Net-(R5-Pad1)*%
X116440000Y-99800000D03*
%TO.P,R5,2*%
%TO.N,GND*%
X118300000Y-99800000D03*
%TD*%
D17*
%TO.P,J2,1*%
%TO.N,Net-(J2-Pad1)*%
X146500000Y-104000000D03*
%TO.P,J2,2*%
%TO.N,GND*%
X146500000Y-98000000D03*
D18*
%TO.P,J2,3*%
X141800000Y-101000000D03*
%TD*%
D21*
%TO.P,C2,1*%
%TO.N,Net-(C2-Pad1)*%
X132500000Y-109000000D03*
%TO.P,C2,2*%
%TO.N,GND*%
X130800000Y-109000000D03*
%TD*%
D13*
%TO.P,D4,1*%
%TO.N,Net-(C2-Pad1)*%
X126500000Y-115000000D03*
%TO.P,D4,2*%
%TO.N,VCC1*%
X122500000Y-115000000D03*
%TD*%
D22*
%TO.P,J6,1*%
%TO.N,VCC2*%
X147160000Y-117970000D03*
%TO.P,J6,2*%
%TO.N,GND*%
X149700000Y-117970000D03*
%TD*%
%TO.P,J3,1*%
%TO.N,unconnected-(J3-Pad1)*%
X105840000Y-107810000D03*
%TO.P,J3,2*%
%TO.N,unconnected-(J3-Pad2)*%
X103300000Y-107810000D03*
%TD*%
%TO.P,J4,1*%
%TO.N,VCC1*%
X103300000Y-117970000D03*
%TO.P,J4,2*%
%TO.N,GND*%
X105840000Y-117970000D03*
%TD*%
%TO.P,J5,1*%
%TO.N,unconnected-(J5-Pad1)*%
X149700000Y-107810000D03*
%TO.P,J5,2*%
%TO.N,unconnected-(J5-Pad2)*%
X147160000Y-107810000D03*
%TD*%
D23*
%TO.N,GND*%
X111500000Y-99800000D03*
X135500000Y-100200000D03*
X129600000Y-109000000D03*
X119400000Y-99800000D03*
X121700000Y-104100000D03*
%TO.N,/ADJ*%
X120700000Y-98700000D03*
%TD*%
D24*
%TO.N,Net-(U1-IN)*%
X119170280Y-95300000D02*
X117800000Y-95300000D01*
D25*
X116500000Y-94000000D02*
X116500000Y-94100000D01*
D24*
X121700000Y-101100000D02*
X119837500Y-99237500D01*
X119837500Y-99237500D02*
X119837500Y-95967220D01*
D26*
X124200000Y-101100000D02*
X121700000Y-101100000D01*
D24*
X119837500Y-95967220D02*
X119170280Y-95300000D01*
X114500000Y-94000000D02*
X116500000Y-94000000D01*
D26*
X122500000Y-111000000D02*
X122600000Y-111000000D01*
D24*
X117800000Y-95300000D02*
X116500000Y-94000000D01*
D25*
X121550000Y-101100000D02*
X121700000Y-101100000D01*
D26*
X122600000Y-111000000D02*
X124200000Y-109400000D01*
X124200000Y-109400000D02*
X124200000Y-101100000D01*
D24*
%TO.N,GND*%
X130800000Y-109000000D02*
X129600000Y-109000000D01*
X112640000Y-99800000D02*
X111500000Y-99800000D01*
X121700000Y-102800000D02*
X121700000Y-104100000D01*
X118360000Y-99800000D02*
X119400000Y-99800000D01*
X135500000Y-101400000D02*
X135500000Y-100200000D01*
D26*
%TO.N,Net-(C2-Pad1)*%
X132500000Y-106000000D02*
X132500000Y-109000000D01*
X126500000Y-106900000D02*
X126900000Y-106500000D01*
X126500000Y-111000000D02*
X126500000Y-115000000D01*
X135500000Y-106580000D02*
X133080000Y-106580000D01*
X132000000Y-106500000D02*
X132500000Y-106000000D01*
X126900000Y-106500000D02*
X132000000Y-106500000D01*
X126500000Y-101100000D02*
X126500000Y-106900000D01*
X133080000Y-106580000D02*
X132500000Y-106000000D01*
X126500000Y-111000000D02*
X126500000Y-106900000D01*
%TO.N,/ADJ*%
X132500000Y-101500000D02*
X132000000Y-101000000D01*
X128900000Y-101000000D02*
X128800000Y-101100000D01*
X135500000Y-103100000D02*
X135500000Y-104720000D01*
D24*
X127000000Y-98700000D02*
X128800000Y-100500000D01*
D26*
X132500000Y-102000000D02*
X132500000Y-101500000D01*
D24*
X120700000Y-98700000D02*
X127000000Y-98700000D01*
X128800000Y-100500000D02*
X128800000Y-101100000D01*
D26*
X132000000Y-101000000D02*
X128900000Y-101000000D01*
X133900000Y-102000000D02*
X132500000Y-102000000D01*
X135000000Y-103100000D02*
X133900000Y-102000000D01*
X135500000Y-103100000D02*
X135000000Y-103100000D01*
%TO.N,VCC1*%
X106270000Y-115000000D02*
X103300000Y-117970000D01*
X126500000Y-92500000D02*
X126500000Y-96600000D01*
X129300000Y-99400000D02*
X135900000Y-99400000D01*
X126500000Y-96600000D02*
X129300000Y-99400000D01*
X133000000Y-92500000D02*
X134500000Y-94000000D01*
X124500000Y-116900000D02*
X122600000Y-115000000D01*
X122600000Y-115000000D02*
X122500000Y-115000000D01*
X122500000Y-115000000D02*
X106270000Y-115000000D01*
X124000000Y-92500000D02*
X126500000Y-92500000D01*
X138000000Y-101500000D02*
X138000000Y-109825000D01*
X135900000Y-99400000D02*
X138000000Y-101500000D01*
X126500000Y-92500000D02*
X133000000Y-92500000D01*
X130925000Y-116900000D02*
X124500000Y-116900000D01*
X138000000Y-109825000D02*
X130925000Y-116900000D01*
X122500000Y-94000000D02*
X124000000Y-92500000D01*
%TO.N,Net-(J2-Pad1)*%
X140000000Y-100200000D02*
X136300000Y-96500000D01*
X146500000Y-104000000D02*
X141000000Y-104000000D01*
X140000000Y-103000000D02*
X140000000Y-100200000D01*
X141000000Y-104000000D02*
X140000000Y-103000000D01*
X136300000Y-96500000D02*
X134500000Y-96500000D01*
%TO.N,VCC2*%
X130500000Y-96500000D02*
X130500000Y-96000000D01*
X139000000Y-109810000D02*
X147160000Y-117970000D01*
X130500000Y-96500000D02*
X132200000Y-98200000D01*
X130500000Y-96000000D02*
X132500000Y-94000000D01*
X132200000Y-98200000D02*
X136500000Y-98200000D01*
X139000000Y-100700000D02*
X139000000Y-109810000D01*
X136500000Y-98200000D02*
X139000000Y-100700000D01*
D24*
%TO.N,Net-(R2-Pad1)*%
X114500000Y-96500000D02*
X114500000Y-99800000D01*
D26*
%TO.N,/VIN1*%
X117000000Y-92500000D02*
X118500000Y-94000000D01*
X113500000Y-101900000D02*
X112300000Y-101900000D01*
X110000000Y-95000000D02*
X112500000Y-92500000D01*
X113500000Y-105100000D02*
X113500000Y-101900000D01*
X112500000Y-92500000D02*
X117000000Y-92500000D01*
X112300000Y-101900000D02*
X110000000Y-99600000D01*
X110000000Y-99600000D02*
X110000000Y-95000000D01*
%TO.N,Net-(J1-Pad1)*%
X108950000Y-103950000D02*
X112000000Y-107000000D01*
X106550000Y-103950000D02*
X108950000Y-103950000D01*
X116000000Y-105100000D02*
X116000000Y-101900000D01*
X106500000Y-104000000D02*
X106550000Y-103950000D01*
X112000000Y-107000000D02*
X114100000Y-107000000D01*
X114100000Y-107000000D02*
X116000000Y-105100000D01*
D24*
%TO.N,Net-(R5-Pad1)*%
X116500000Y-96500000D02*
X116500000Y-99800000D01*
%TD*%
M02*
