%TF.GenerationSoftware,KiCad,Pcbnew,8.0.5-8.0.5-0~ubuntu24.04.1*%
%TF.CreationDate,2024-10-03T16:57:35-04:00*%
%TF.ProjectId,breadboard-power-supply,62726561-6462-46f6-9172-642d706f7765,rev?*%
%TF.SameCoordinates,Original*%
%TF.FileFunction,Copper,L2,Bot*%
%TF.FilePolarity,Positive*%
%FSLAX46Y46*%
G04 Gerber Fmt 4.6, Leading zero omitted, Abs format (unit mm)*
G04 Created by KiCad (PCBNEW 8.0.5-8.0.5-0~ubuntu24.04.1) date 2024-10-03 16:57:35*
%MOMM*%
%LPD*%
G01*
G04 APERTURE LIST*
%TA.AperFunction,ComponentPad*%
%ADD10C,1.400000*%
%TD*%
%TA.AperFunction,ComponentPad*%
%ADD11C,1.800000*%
%TD*%
%TA.AperFunction,ComponentPad*%
%ADD12O,4.500000X2.000000*%
%TD*%
%TA.AperFunction,ComponentPad*%
%ADD13O,2.000000X4.250000*%
%TD*%
%TA.AperFunction,ComponentPad*%
%ADD14C,1.700000*%
%TD*%
%TA.AperFunction,ViaPad*%
%ADD15C,0.650000*%
%TD*%
%TA.AperFunction,Conductor*%
%ADD16C,0.350000*%
%TD*%
G04 APERTURE END LIST*
D10*
%TO.P,SW1,1*%
%TO.N,/VIN1*%
X113500000Y-103700000D03*
%TO.P,SW1,2*%
%TO.N,Net-(J1-Pad1)*%
X116000000Y-103700000D03*
%TO.P,SW1,3*%
%TO.N,unconnected-(SW1-Pad3)_1*%
X118500000Y-103700000D03*
%TO.P,SW1,4*%
%TO.N,/VIN1*%
X113500000Y-106900000D03*
%TO.P,SW1,5*%
%TO.N,Net-(J1-Pad1)*%
X116000000Y-106900000D03*
%TO.P,SW1,6*%
%TO.N,unconnected-(SW1-Pad3)*%
X118500000Y-106900000D03*
%TD*%
D11*
%TO.P,SW3,*%
%TO.N,*%
X140300000Y-97050000D03*
X128100000Y-97050000D03*
D10*
%TO.P,SW3,1,1*%
%TO.N,unconnected-(SW3-Pad1)*%
X138200000Y-95800000D03*
%TO.P,SW3,2,2*%
%TO.N,VCC1*%
X134200000Y-95800000D03*
%TO.P,SW3,3,3*%
%TO.N,VCC2*%
X132200000Y-95800000D03*
%TO.P,SW3,4,4*%
%TO.N,unconnected-(SW3-Pad4)*%
X130200000Y-95800000D03*
%TO.P,SW3,5,5*%
%TO.N,unconnected-(SW3-Pad5)*%
X138200000Y-98300000D03*
%TO.P,SW3,6,6*%
%TO.N,Net-(J2-Pad1)*%
X134200000Y-98300000D03*
%TO.P,SW3,7,7*%
%TO.N,unconnected-(SW3-Pad7)*%
X132200000Y-98300000D03*
%TO.P,SW3,8,8*%
%TO.N,VCC2*%
X130200000Y-98300000D03*
%TD*%
D12*
%TO.P,J1,1*%
%TO.N,Net-(J1-Pad1)*%
X106500000Y-104000000D03*
%TO.P,J1,2*%
%TO.N,GND*%
X106500000Y-98000000D03*
D13*
%TO.P,J1,3*%
X101800000Y-101000000D03*
%TD*%
D11*
%TO.P,SW2,*%
%TO.N,*%
X124900000Y-97050000D03*
X112700000Y-97050000D03*
D10*
%TO.P,SW2,1,1*%
%TO.N,VCC1*%
X122800000Y-95800000D03*
%TO.P,SW2,2,2*%
%TO.N,/VIN1*%
X118800000Y-95800000D03*
%TO.P,SW2,3,3*%
%TO.N,Net-(U1-IN)*%
X116800000Y-95800000D03*
%TO.P,SW2,4,4*%
X114800000Y-95800000D03*
%TO.P,SW2,5,5*%
%TO.N,unconnected-(SW2-Pad5)*%
X122800000Y-98300000D03*
%TO.P,SW2,6,6*%
%TO.N,/ADJ*%
X118800000Y-98300000D03*
%TO.P,SW2,7,7*%
%TO.N,Net-(R3-Pad1)*%
X116800000Y-98300000D03*
%TO.P,SW2,8,8*%
%TO.N,Net-(R2-Pad1)*%
X114800000Y-98300000D03*
%TD*%
D12*
%TO.P,J2,1*%
%TO.N,Net-(J2-Pad1)*%
X146500000Y-104000000D03*
%TO.P,J2,2*%
%TO.N,GND*%
X146500000Y-98000000D03*
D13*
%TO.P,J2,3*%
X141800000Y-101000000D03*
%TD*%
D14*
%TO.P,J6,1*%
%TO.N,VCC2*%
X147160000Y-117970000D03*
%TO.P,J6,2*%
%TO.N,GND*%
X149700000Y-117970000D03*
%TD*%
%TO.P,J3,1*%
%TO.N,unconnected-(J3-Pad1)*%
X105840000Y-107810000D03*
%TO.P,J3,2*%
%TO.N,unconnected-(J3-Pad2)*%
X103300000Y-107810000D03*
%TD*%
%TO.P,J4,1*%
%TO.N,VCC1*%
X103300000Y-117970000D03*
%TO.P,J4,2*%
%TO.N,GND*%
X105840000Y-117970000D03*
%TD*%
%TO.P,J5,1*%
%TO.N,unconnected-(J5-Pad1)*%
X149700000Y-107810000D03*
%TO.P,J5,2*%
%TO.N,unconnected-(J5-Pad2)*%
X147160000Y-107810000D03*
%TD*%
D15*
%TO.N,GND*%
X111760000Y-101600000D03*
X135500000Y-102000000D03*
X129600000Y-110800000D03*
X118700000Y-100400000D03*
X121700000Y-105900000D03*
%TO.N,/ADJ*%
X121000000Y-100500000D03*
%TD*%
D16*
%TO.N,/ADJ*%
X121000000Y-100500000D02*
X118800000Y-98300000D01*
%TD*%
%TA.AperFunction,Conductor*%
%TO.N,GND*%
G36*
X152006922Y-90501280D02*
G01*
X152097266Y-90511459D01*
X152124331Y-90517636D01*
X152203540Y-90545352D01*
X152228553Y-90557398D01*
X152299606Y-90602043D01*
X152321313Y-90619355D01*
X152380644Y-90678686D01*
X152397957Y-90700395D01*
X152442600Y-90771444D01*
X152454648Y-90796462D01*
X152482362Y-90875666D01*
X152488540Y-90902735D01*
X152498720Y-90993076D01*
X152499500Y-91006961D01*
X152499500Y-118993038D01*
X152498720Y-119006921D01*
X152497576Y-119017075D01*
X152488540Y-119097264D01*
X152482362Y-119124333D01*
X152454648Y-119203537D01*
X152442600Y-119228555D01*
X152397957Y-119299604D01*
X152380644Y-119321313D01*
X152321313Y-119380644D01*
X152299604Y-119397957D01*
X152228555Y-119442600D01*
X152203537Y-119454648D01*
X152124333Y-119482362D01*
X152097264Y-119488540D01*
X152017075Y-119497576D01*
X152006921Y-119498720D01*
X151993038Y-119499500D01*
X150149703Y-119499500D01*
X150082664Y-119479815D01*
X150036909Y-119427011D01*
X150026965Y-119357853D01*
X150055990Y-119294297D01*
X150114768Y-119256523D01*
X150117610Y-119255725D01*
X150163483Y-119243433D01*
X150163492Y-119243429D01*
X150377578Y-119143600D01*
X150377582Y-119143598D01*
X150461373Y-119084926D01*
X150461373Y-119084925D01*
X149870234Y-118493787D01*
X149912292Y-118482518D01*
X150037708Y-118410110D01*
X150140110Y-118307708D01*
X150212518Y-118182292D01*
X150223787Y-118140234D01*
X150814925Y-118731373D01*
X150814926Y-118731373D01*
X150873598Y-118647582D01*
X150873600Y-118647578D01*
X150973429Y-118433492D01*
X150973433Y-118433483D01*
X151034567Y-118205326D01*
X151034569Y-118205315D01*
X151055157Y-117970001D01*
X151055157Y-117969998D01*
X151034569Y-117734684D01*
X151034567Y-117734673D01*
X150973433Y-117506516D01*
X150973429Y-117506507D01*
X150873600Y-117292423D01*
X150873599Y-117292421D01*
X150814925Y-117208626D01*
X150814925Y-117208625D01*
X150223787Y-117799764D01*
X150212518Y-117757708D01*
X150140110Y-117632292D01*
X150037708Y-117529890D01*
X149912292Y-117457482D01*
X149870234Y-117446212D01*
X150461373Y-116855073D01*
X150461373Y-116855072D01*
X150377583Y-116796402D01*
X150377579Y-116796400D01*
X150163492Y-116696570D01*
X150163483Y-116696566D01*
X149935326Y-116635432D01*
X149935315Y-116635430D01*
X149700002Y-116614843D01*
X149699998Y-116614843D01*
X149464684Y-116635430D01*
X149464673Y-116635432D01*
X149236516Y-116696566D01*
X149236507Y-116696570D01*
X149022419Y-116796401D01*
X148938625Y-116855072D01*
X149529765Y-117446212D01*
X149487708Y-117457482D01*
X149362292Y-117529890D01*
X149259890Y-117632292D01*
X149187482Y-117757708D01*
X149176212Y-117799765D01*
X148585073Y-117208626D01*
X148531881Y-117284594D01*
X148477304Y-117328219D01*
X148407806Y-117335413D01*
X148345451Y-117303891D01*
X148328730Y-117284594D01*
X148198494Y-117098597D01*
X148031402Y-116931506D01*
X148031395Y-116931501D01*
X147837834Y-116795967D01*
X147837830Y-116795965D01*
X147837828Y-116795964D01*
X147623663Y-116696097D01*
X147623659Y-116696096D01*
X147623655Y-116696094D01*
X147395413Y-116634938D01*
X147395403Y-116634936D01*
X147160001Y-116614341D01*
X147159999Y-116614341D01*
X146924596Y-116634936D01*
X146924586Y-116634938D01*
X146696344Y-116696094D01*
X146696335Y-116696098D01*
X146482171Y-116795964D01*
X146482169Y-116795965D01*
X146288597Y-116931505D01*
X146121505Y-117098597D01*
X145985965Y-117292169D01*
X145985964Y-117292171D01*
X145886098Y-117506335D01*
X145886094Y-117506344D01*
X145824938Y-117734586D01*
X145824936Y-117734596D01*
X145804341Y-117969999D01*
X145804341Y-117970000D01*
X145824936Y-118205403D01*
X145824938Y-118205413D01*
X145886094Y-118433655D01*
X145886096Y-118433659D01*
X145886097Y-118433663D01*
X145908879Y-118482518D01*
X145985965Y-118647830D01*
X145985967Y-118647834D01*
X146044462Y-118731373D01*
X146121505Y-118841401D01*
X146288599Y-119008495D01*
X146385384Y-119076265D01*
X146482165Y-119144032D01*
X146482167Y-119144033D01*
X146482170Y-119144035D01*
X146696337Y-119243903D01*
X146696343Y-119243904D01*
X146696344Y-119243905D01*
X146740457Y-119255725D01*
X146800118Y-119292090D01*
X146830647Y-119354936D01*
X146822353Y-119424312D01*
X146777868Y-119478190D01*
X146711316Y-119499465D01*
X146708364Y-119499500D01*
X106289703Y-119499500D01*
X106222664Y-119479815D01*
X106176909Y-119427011D01*
X106166965Y-119357853D01*
X106195990Y-119294297D01*
X106254768Y-119256523D01*
X106257610Y-119255725D01*
X106303483Y-119243433D01*
X106303492Y-119243429D01*
X106517578Y-119143600D01*
X106517582Y-119143598D01*
X106601373Y-119084926D01*
X106601373Y-119084925D01*
X106010234Y-118493787D01*
X106052292Y-118482518D01*
X106177708Y-118410110D01*
X106280110Y-118307708D01*
X106352518Y-118182292D01*
X106363787Y-118140235D01*
X106954925Y-118731373D01*
X106954926Y-118731373D01*
X107013598Y-118647582D01*
X107013600Y-118647578D01*
X107113429Y-118433492D01*
X107113433Y-118433483D01*
X107174567Y-118205326D01*
X107174569Y-118205315D01*
X107195157Y-117970001D01*
X107195157Y-117969998D01*
X107174569Y-117734684D01*
X107174567Y-117734673D01*
X107113433Y-117506516D01*
X107113429Y-117506507D01*
X107013600Y-117292423D01*
X107013599Y-117292421D01*
X106954925Y-117208626D01*
X106954925Y-117208625D01*
X106363787Y-117799764D01*
X106352518Y-117757708D01*
X106280110Y-117632292D01*
X106177708Y-117529890D01*
X106052292Y-117457482D01*
X106010234Y-117446212D01*
X106601373Y-116855073D01*
X106601373Y-116855072D01*
X106517583Y-116796402D01*
X106517579Y-116796400D01*
X106303492Y-116696570D01*
X106303483Y-116696566D01*
X106075326Y-116635432D01*
X106075315Y-116635430D01*
X105840002Y-116614843D01*
X105839998Y-116614843D01*
X105604684Y-116635430D01*
X105604673Y-116635432D01*
X105376516Y-116696566D01*
X105376507Y-116696570D01*
X105162419Y-116796401D01*
X105078625Y-116855072D01*
X105669765Y-117446212D01*
X105627708Y-117457482D01*
X105502292Y-117529890D01*
X105399890Y-117632292D01*
X105327482Y-117757708D01*
X105316212Y-117799765D01*
X104725073Y-117208626D01*
X104671881Y-117284594D01*
X104617304Y-117328219D01*
X104547806Y-117335413D01*
X104485451Y-117303891D01*
X104468730Y-117284594D01*
X104338494Y-117098597D01*
X104171402Y-116931506D01*
X104171395Y-116931501D01*
X103977834Y-116795967D01*
X103977830Y-116795965D01*
X103977828Y-116795964D01*
X103763663Y-116696097D01*
X103763659Y-116696096D01*
X103763655Y-116696094D01*
X103535413Y-116634938D01*
X103535403Y-116634936D01*
X103300001Y-116614341D01*
X103299999Y-116614341D01*
X103064596Y-116634936D01*
X103064586Y-116634938D01*
X102836344Y-116696094D01*
X102836335Y-116696098D01*
X102622171Y-116795964D01*
X102622169Y-116795965D01*
X102428597Y-116931505D01*
X102261505Y-117098597D01*
X102125965Y-117292169D01*
X102125964Y-117292171D01*
X102026098Y-117506335D01*
X102026094Y-117506344D01*
X101964938Y-117734586D01*
X101964936Y-117734596D01*
X101944341Y-117969999D01*
X101944341Y-117970000D01*
X101964936Y-118205403D01*
X101964938Y-118205413D01*
X102026094Y-118433655D01*
X102026096Y-118433659D01*
X102026097Y-118433663D01*
X102048879Y-118482518D01*
X102125965Y-118647830D01*
X102125967Y-118647834D01*
X102184462Y-118731373D01*
X102261505Y-118841401D01*
X102428599Y-119008495D01*
X102525384Y-119076265D01*
X102622165Y-119144032D01*
X102622167Y-119144033D01*
X102622170Y-119144035D01*
X102836337Y-119243903D01*
X102836343Y-119243904D01*
X102836344Y-119243905D01*
X102880457Y-119255725D01*
X102940118Y-119292090D01*
X102970647Y-119354936D01*
X102962353Y-119424312D01*
X102917868Y-119478190D01*
X102851316Y-119499465D01*
X102848364Y-119499500D01*
X101006962Y-119499500D01*
X100993078Y-119498720D01*
X100980553Y-119497308D01*
X100902735Y-119488540D01*
X100875666Y-119482362D01*
X100796462Y-119454648D01*
X100771444Y-119442600D01*
X100700395Y-119397957D01*
X100678686Y-119380644D01*
X100619355Y-119321313D01*
X100602042Y-119299604D01*
X100598707Y-119294297D01*
X100557398Y-119228553D01*
X100545351Y-119203537D01*
X100524378Y-119143599D01*
X100517636Y-119124331D01*
X100511459Y-119097263D01*
X100501280Y-119006922D01*
X100500500Y-118993038D01*
X100500500Y-107809999D01*
X101944341Y-107809999D01*
X101944341Y-107810000D01*
X101964936Y-108045403D01*
X101964938Y-108045413D01*
X102026094Y-108273655D01*
X102026096Y-108273659D01*
X102026097Y-108273663D01*
X102030000Y-108282032D01*
X102125965Y-108487830D01*
X102125967Y-108487834D01*
X102234281Y-108642521D01*
X102261505Y-108681401D01*
X102428599Y-108848495D01*
X102525384Y-108916265D01*
X102622165Y-108984032D01*
X102622167Y-108984033D01*
X102622170Y-108984035D01*
X102836337Y-109083903D01*
X103064592Y-109145063D01*
X103252918Y-109161539D01*
X103299999Y-109165659D01*
X103300000Y-109165659D01*
X103300001Y-109165659D01*
X103339234Y-109162226D01*
X103535408Y-109145063D01*
X103763663Y-109083903D01*
X103977830Y-108984035D01*
X104171401Y-108848495D01*
X104338495Y-108681401D01*
X104468425Y-108495842D01*
X104523002Y-108452217D01*
X104592500Y-108445023D01*
X104654855Y-108476546D01*
X104671575Y-108495842D01*
X104801500Y-108681395D01*
X104801505Y-108681401D01*
X104968599Y-108848495D01*
X105065384Y-108916265D01*
X105162165Y-108984032D01*
X105162167Y-108984033D01*
X105162170Y-108984035D01*
X105376337Y-109083903D01*
X105604592Y-109145063D01*
X105792918Y-109161539D01*
X105839999Y-109165659D01*
X105840000Y-109165659D01*
X105840001Y-109165659D01*
X105879234Y-109162226D01*
X106075408Y-109145063D01*
X106303663Y-109083903D01*
X106517830Y-108984035D01*
X106711401Y-108848495D01*
X106878495Y-108681401D01*
X107014035Y-108487830D01*
X107113903Y-108273663D01*
X107175063Y-108045408D01*
X107195659Y-107810000D01*
X107175063Y-107574592D01*
X107113903Y-107346337D01*
X107014035Y-107132171D01*
X107008425Y-107124158D01*
X106878494Y-106938597D01*
X106839896Y-106899999D01*
X112294357Y-106899999D01*
X112294357Y-106900000D01*
X112314884Y-107121535D01*
X112314885Y-107121537D01*
X112375769Y-107335523D01*
X112375775Y-107335538D01*
X112474938Y-107534683D01*
X112474943Y-107534691D01*
X112609020Y-107712238D01*
X112773437Y-107862123D01*
X112773439Y-107862125D01*
X112962595Y-107979245D01*
X112962596Y-107979245D01*
X112962599Y-107979247D01*
X113170060Y-108059618D01*
X113388757Y-108100500D01*
X113388759Y-108100500D01*
X113611241Y-108100500D01*
X113611243Y-108100500D01*
X113829940Y-108059618D01*
X114037401Y-107979247D01*
X114226562Y-107862124D01*
X114390981Y-107712236D01*
X114525058Y-107534689D01*
X114624229Y-107335528D01*
X114630734Y-107312661D01*
X114668012Y-107253571D01*
X114731322Y-107224013D01*
X114800561Y-107233375D01*
X114853748Y-107278684D01*
X114869264Y-107312658D01*
X114875770Y-107335523D01*
X114875772Y-107335530D01*
X114875775Y-107335538D01*
X114974938Y-107534683D01*
X114974943Y-107534691D01*
X115109020Y-107712238D01*
X115273437Y-107862123D01*
X115273439Y-107862125D01*
X115462595Y-107979245D01*
X115462596Y-107979245D01*
X115462599Y-107979247D01*
X115670060Y-108059618D01*
X115888757Y-108100500D01*
X115888759Y-108100500D01*
X116111241Y-108100500D01*
X116111243Y-108100500D01*
X116329940Y-108059618D01*
X116537401Y-107979247D01*
X116726562Y-107862124D01*
X116890981Y-107712236D01*
X117025058Y-107534689D01*
X117124229Y-107335528D01*
X117130734Y-107312661D01*
X117168012Y-107253571D01*
X117231322Y-107224013D01*
X117300561Y-107233375D01*
X117353748Y-107278684D01*
X117369264Y-107312658D01*
X117375770Y-107335523D01*
X117375772Y-107335530D01*
X117375775Y-107335538D01*
X117474938Y-107534683D01*
X117474943Y-107534691D01*
X117609020Y-107712238D01*
X117773437Y-107862123D01*
X117773439Y-107862125D01*
X117962595Y-107979245D01*
X117962596Y-107979245D01*
X117962599Y-107979247D01*
X118170060Y-108059618D01*
X118388757Y-108100500D01*
X118388759Y-108100500D01*
X118611241Y-108100500D01*
X118611243Y-108100500D01*
X118829940Y-108059618D01*
X119037401Y-107979247D01*
X119226562Y-107862124D01*
X119283740Y-107809999D01*
X145804341Y-107809999D01*
X145804341Y-107810000D01*
X145824936Y-108045403D01*
X145824938Y-108045413D01*
X145886094Y-108273655D01*
X145886096Y-108273659D01*
X145886097Y-108273663D01*
X145890000Y-108282032D01*
X145985965Y-108487830D01*
X145985967Y-108487834D01*
X146094281Y-108642521D01*
X146121505Y-108681401D01*
X146288599Y-108848495D01*
X146385384Y-108916265D01*
X146482165Y-108984032D01*
X146482167Y-108984033D01*
X146482170Y-108984035D01*
X146696337Y-109083903D01*
X146924592Y-109145063D01*
X147112918Y-109161539D01*
X147159999Y-109165659D01*
X147160000Y-109165659D01*
X147160001Y-109165659D01*
X147199234Y-109162226D01*
X147395408Y-109145063D01*
X147623663Y-109083903D01*
X147837830Y-108984035D01*
X148031401Y-108848495D01*
X148198495Y-108681401D01*
X148328425Y-108495842D01*
X148383002Y-108452217D01*
X148452500Y-108445023D01*
X148514855Y-108476546D01*
X148531575Y-108495842D01*
X148661500Y-108681395D01*
X148661505Y-108681401D01*
X148828599Y-108848495D01*
X148925384Y-108916265D01*
X149022165Y-108984032D01*
X149022167Y-108984033D01*
X149022170Y-108984035D01*
X149236337Y-109083903D01*
X149464592Y-109145063D01*
X149652918Y-109161539D01*
X149699999Y-109165659D01*
X149700000Y-109165659D01*
X149700001Y-109165659D01*
X149739234Y-109162226D01*
X149935408Y-109145063D01*
X150163663Y-109083903D01*
X150377830Y-108984035D01*
X150571401Y-108848495D01*
X150738495Y-108681401D01*
X150874035Y-108487830D01*
X150973903Y-108273663D01*
X151035063Y-108045408D01*
X151055659Y-107810000D01*
X151035063Y-107574592D01*
X150973903Y-107346337D01*
X150874035Y-107132171D01*
X150868425Y-107124158D01*
X150738494Y-106938597D01*
X150571402Y-106771506D01*
X150571395Y-106771501D01*
X150377834Y-106635967D01*
X150377830Y-106635965D01*
X150377828Y-106635964D01*
X150163663Y-106536097D01*
X150163659Y-106536096D01*
X150163655Y-106536094D01*
X149935413Y-106474938D01*
X149935403Y-106474936D01*
X149700001Y-106454341D01*
X149699999Y-106454341D01*
X149464596Y-106474936D01*
X149464586Y-106474938D01*
X149236344Y-106536094D01*
X149236335Y-106536098D01*
X149022171Y-106635964D01*
X149022169Y-106635965D01*
X148828597Y-106771505D01*
X148661505Y-106938597D01*
X148531575Y-107124158D01*
X148476998Y-107167783D01*
X148407500Y-107174977D01*
X148345145Y-107143454D01*
X148328425Y-107124158D01*
X148198494Y-106938597D01*
X148031402Y-106771506D01*
X148031395Y-106771501D01*
X147837834Y-106635967D01*
X147837830Y-106635965D01*
X147837828Y-106635964D01*
X147623663Y-106536097D01*
X147623659Y-106536096D01*
X147623655Y-106536094D01*
X147395413Y-106474938D01*
X147395403Y-106474936D01*
X147160001Y-106454341D01*
X147159999Y-106454341D01*
X146924596Y-106474936D01*
X146924586Y-106474938D01*
X146696344Y-106536094D01*
X146696335Y-106536098D01*
X146482171Y-106635964D01*
X146482169Y-106635965D01*
X146288597Y-106771505D01*
X146121505Y-106938597D01*
X145985965Y-107132169D01*
X145985964Y-107132171D01*
X145886098Y-107346335D01*
X145886094Y-107346344D01*
X145824938Y-107574586D01*
X145824936Y-107574596D01*
X145804341Y-107809999D01*
X119283740Y-107809999D01*
X119390981Y-107712236D01*
X119525058Y-107534689D01*
X119624229Y-107335528D01*
X119685115Y-107121536D01*
X119705643Y-106900000D01*
X119693736Y-106771506D01*
X119685115Y-106678464D01*
X119685114Y-106678462D01*
X119673023Y-106635967D01*
X119624229Y-106464472D01*
X119624224Y-106464461D01*
X119525061Y-106265316D01*
X119525056Y-106265308D01*
X119390979Y-106087761D01*
X119226562Y-105937876D01*
X119226560Y-105937874D01*
X119037404Y-105820754D01*
X119037398Y-105820752D01*
X118829940Y-105740382D01*
X118611243Y-105699500D01*
X118388757Y-105699500D01*
X118170060Y-105740382D01*
X118038864Y-105791207D01*
X117962601Y-105820752D01*
X117962595Y-105820754D01*
X117773439Y-105937874D01*
X117773437Y-105937876D01*
X117609020Y-106087761D01*
X117474943Y-106265308D01*
X117474938Y-106265316D01*
X117375775Y-106464461D01*
X117375769Y-106464476D01*
X117369266Y-106487335D01*
X117331987Y-106546429D01*
X117268677Y-106575986D01*
X117199438Y-106566624D01*
X117146251Y-106521314D01*
X117130734Y-106487335D01*
X117127207Y-106474938D01*
X117124229Y-106464472D01*
X117124224Y-106464461D01*
X117025061Y-106265316D01*
X117025056Y-106265308D01*
X116890979Y-106087761D01*
X116726562Y-105937876D01*
X116726560Y-105937874D01*
X116537404Y-105820754D01*
X116537398Y-105820752D01*
X116329940Y-105740382D01*
X116111243Y-105699500D01*
X115888757Y-105699500D01*
X115670060Y-105740382D01*
X115538864Y-105791207D01*
X115462601Y-105820752D01*
X115462595Y-105820754D01*
X115273439Y-105937874D01*
X115273437Y-105937876D01*
X115109020Y-106087761D01*
X114974943Y-106265308D01*
X114974938Y-106265316D01*
X114875775Y-106464461D01*
X114875769Y-106464476D01*
X114869266Y-106487335D01*
X114831987Y-106546429D01*
X114768677Y-106575986D01*
X114699438Y-106566624D01*
X114646251Y-106521314D01*
X114630734Y-106487335D01*
X114627207Y-106474938D01*
X114624229Y-106464472D01*
X114624224Y-106464461D01*
X114525061Y-106265316D01*
X114525056Y-106265308D01*
X114390979Y-106087761D01*
X114226562Y-105937876D01*
X114226560Y-105937874D01*
X114037404Y-105820754D01*
X114037398Y-105820752D01*
X113829940Y-105740382D01*
X113611243Y-105699500D01*
X113388757Y-105699500D01*
X113170060Y-105740382D01*
X113038864Y-105791207D01*
X112962601Y-105820752D01*
X112962595Y-105820754D01*
X112773439Y-105937874D01*
X112773437Y-105937876D01*
X112609020Y-106087761D01*
X112474943Y-106265308D01*
X112474938Y-106265316D01*
X112375775Y-106464461D01*
X112375769Y-106464476D01*
X112314885Y-106678462D01*
X112314884Y-106678464D01*
X112294357Y-106899999D01*
X106839896Y-106899999D01*
X106711402Y-106771506D01*
X106711395Y-106771501D01*
X106517834Y-106635967D01*
X106517830Y-106635965D01*
X106517828Y-106635964D01*
X106303663Y-106536097D01*
X106303659Y-106536096D01*
X106303655Y-106536094D01*
X106075413Y-106474938D01*
X106075403Y-106474936D01*
X105840001Y-106454341D01*
X105839999Y-106454341D01*
X105604596Y-106474936D01*
X105604586Y-106474938D01*
X105376344Y-106536094D01*
X105376335Y-106536098D01*
X105162171Y-106635964D01*
X105162169Y-106635965D01*
X104968597Y-106771505D01*
X104801505Y-106938597D01*
X104671575Y-107124158D01*
X104616998Y-107167783D01*
X104547500Y-107174977D01*
X104485145Y-107143454D01*
X104468425Y-107124158D01*
X104338494Y-106938597D01*
X104171402Y-106771506D01*
X104171395Y-106771501D01*
X103977834Y-106635967D01*
X103977830Y-106635965D01*
X103977828Y-106635964D01*
X103763663Y-106536097D01*
X103763659Y-106536096D01*
X103763655Y-106536094D01*
X103535413Y-106474938D01*
X103535403Y-106474936D01*
X103300001Y-106454341D01*
X103299999Y-106454341D01*
X103064596Y-106474936D01*
X103064586Y-106474938D01*
X102836344Y-106536094D01*
X102836335Y-106536098D01*
X102622171Y-106635964D01*
X102622169Y-106635965D01*
X102428597Y-106771505D01*
X102261505Y-106938597D01*
X102125965Y-107132169D01*
X102125964Y-107132171D01*
X102026098Y-107346335D01*
X102026094Y-107346344D01*
X101964938Y-107574586D01*
X101964936Y-107574596D01*
X101944341Y-107809999D01*
X100500500Y-107809999D01*
X100500500Y-103881902D01*
X103749500Y-103881902D01*
X103749500Y-104118097D01*
X103786446Y-104351368D01*
X103859433Y-104575996D01*
X103962996Y-104779247D01*
X103966657Y-104786433D01*
X104105483Y-104977510D01*
X104272490Y-105144517D01*
X104463567Y-105283343D01*
X104562991Y-105334002D01*
X104674003Y-105390566D01*
X104674005Y-105390566D01*
X104674008Y-105390568D01*
X104794412Y-105429689D01*
X104898631Y-105463553D01*
X105131903Y-105500500D01*
X105131908Y-105500500D01*
X107868097Y-105500500D01*
X108101368Y-105463553D01*
X108325992Y-105390568D01*
X108536433Y-105283343D01*
X108727510Y-105144517D01*
X108894517Y-104977510D01*
X109033343Y-104786433D01*
X109140568Y-104575992D01*
X109213553Y-104351368D01*
X109216196Y-104334683D01*
X109250500Y-104118097D01*
X109250500Y-103881902D01*
X109221689Y-103699999D01*
X112294357Y-103699999D01*
X112294357Y-103700000D01*
X112314884Y-103921535D01*
X112314885Y-103921537D01*
X112375769Y-104135523D01*
X112375775Y-104135538D01*
X112474938Y-104334683D01*
X112474943Y-104334691D01*
X112609020Y-104512238D01*
X112773437Y-104662123D01*
X112773439Y-104662125D01*
X112962595Y-104779245D01*
X112962596Y-104779245D01*
X112962599Y-104779247D01*
X113170060Y-104859618D01*
X113388757Y-104900500D01*
X113388759Y-104900500D01*
X113611241Y-104900500D01*
X113611243Y-104900500D01*
X113829940Y-104859618D01*
X114037401Y-104779247D01*
X114226562Y-104662124D01*
X114390981Y-104512236D01*
X114525058Y-104334689D01*
X114624229Y-104135528D01*
X114630734Y-104112661D01*
X114668012Y-104053571D01*
X114731322Y-104024013D01*
X114800561Y-104033375D01*
X114853748Y-104078684D01*
X114869264Y-104112658D01*
X114875770Y-104135523D01*
X114875772Y-104135530D01*
X114875775Y-104135538D01*
X114974938Y-104334683D01*
X114974943Y-104334691D01*
X115109020Y-104512238D01*
X115273437Y-104662123D01*
X115273439Y-104662125D01*
X115462595Y-104779245D01*
X115462596Y-104779245D01*
X115462599Y-104779247D01*
X115670060Y-104859618D01*
X115888757Y-104900500D01*
X115888759Y-104900500D01*
X116111241Y-104900500D01*
X116111243Y-104900500D01*
X116329940Y-104859618D01*
X116537401Y-104779247D01*
X116726562Y-104662124D01*
X116890981Y-104512236D01*
X117025058Y-104334689D01*
X117124229Y-104135528D01*
X117130734Y-104112661D01*
X117168012Y-104053571D01*
X117231322Y-104024013D01*
X117300561Y-104033375D01*
X117353748Y-104078684D01*
X117369264Y-104112658D01*
X117375770Y-104135523D01*
X117375772Y-104135530D01*
X117375775Y-104135538D01*
X117474938Y-104334683D01*
X117474943Y-104334691D01*
X117609020Y-104512238D01*
X117773437Y-104662123D01*
X117773439Y-104662125D01*
X117962595Y-104779245D01*
X117962596Y-104779245D01*
X117962599Y-104779247D01*
X118170060Y-104859618D01*
X118388757Y-104900500D01*
X118388759Y-104900500D01*
X118611241Y-104900500D01*
X118611243Y-104900500D01*
X118829940Y-104859618D01*
X119037401Y-104779247D01*
X119226562Y-104662124D01*
X119390981Y-104512236D01*
X119525058Y-104334689D01*
X119624229Y-104135528D01*
X119685115Y-103921536D01*
X119688788Y-103881902D01*
X143749500Y-103881902D01*
X143749500Y-104118097D01*
X143786446Y-104351368D01*
X143859433Y-104575996D01*
X143962996Y-104779247D01*
X143966657Y-104786433D01*
X144105483Y-104977510D01*
X144272490Y-105144517D01*
X144463567Y-105283343D01*
X144562991Y-105334002D01*
X144674003Y-105390566D01*
X144674005Y-105390566D01*
X144674008Y-105390568D01*
X144794412Y-105429689D01*
X144898631Y-105463553D01*
X145131903Y-105500500D01*
X145131908Y-105500500D01*
X147868097Y-105500500D01*
X148101368Y-105463553D01*
X148325992Y-105390568D01*
X148536433Y-105283343D01*
X148727510Y-105144517D01*
X148894517Y-104977510D01*
X149033343Y-104786433D01*
X149140568Y-104575992D01*
X149213553Y-104351368D01*
X149216196Y-104334683D01*
X149250500Y-104118097D01*
X149250500Y-103881902D01*
X149213553Y-103648631D01*
X149140566Y-103424003D01*
X149033342Y-103213566D01*
X149008332Y-103179143D01*
X148894517Y-103022490D01*
X148727510Y-102855483D01*
X148536433Y-102716657D01*
X148505316Y-102700802D01*
X148325996Y-102609433D01*
X148101368Y-102536446D01*
X147868097Y-102499500D01*
X147868092Y-102499500D01*
X145131908Y-102499500D01*
X145131903Y-102499500D01*
X144898631Y-102536446D01*
X144674003Y-102609433D01*
X144463566Y-102716657D01*
X144354550Y-102795862D01*
X144272490Y-102855483D01*
X144272488Y-102855485D01*
X144272487Y-102855485D01*
X144105485Y-103022487D01*
X144105485Y-103022488D01*
X144105483Y-103022490D01*
X144074374Y-103065308D01*
X143966657Y-103213566D01*
X143859433Y-103424003D01*
X143786446Y-103648631D01*
X143749500Y-103881902D01*
X119688788Y-103881902D01*
X119705643Y-103700000D01*
X119685115Y-103478464D01*
X119624229Y-103264472D01*
X119615122Y-103246182D01*
X119525061Y-103065316D01*
X119525056Y-103065308D01*
X119390979Y-102887761D01*
X119226562Y-102737876D01*
X119226560Y-102737874D01*
X119037404Y-102620754D01*
X119037398Y-102620752D01*
X118829940Y-102540382D01*
X118611243Y-102499500D01*
X118388757Y-102499500D01*
X118170060Y-102540382D01*
X118038864Y-102591207D01*
X117962601Y-102620752D01*
X117962595Y-102620754D01*
X117773439Y-102737874D01*
X117773437Y-102737876D01*
X117609020Y-102887761D01*
X117474943Y-103065308D01*
X117474938Y-103065316D01*
X117375775Y-103264461D01*
X117375769Y-103264476D01*
X117369266Y-103287335D01*
X117331987Y-103346429D01*
X117268677Y-103375986D01*
X117199438Y-103366624D01*
X117146251Y-103321314D01*
X117130734Y-103287335D01*
X117124230Y-103264476D01*
X117124229Y-103264472D01*
X117115122Y-103246182D01*
X117025061Y-103065316D01*
X117025056Y-103065308D01*
X116890979Y-102887761D01*
X116726562Y-102737876D01*
X116726560Y-102737874D01*
X116537404Y-102620754D01*
X116537398Y-102620752D01*
X116329940Y-102540382D01*
X116111243Y-102499500D01*
X115888757Y-102499500D01*
X115670060Y-102540382D01*
X115538864Y-102591207D01*
X115462601Y-102620752D01*
X115462595Y-102620754D01*
X115273439Y-102737874D01*
X115273437Y-102737876D01*
X115109020Y-102887761D01*
X114974943Y-103065308D01*
X114974938Y-103065316D01*
X114875775Y-103264461D01*
X114875769Y-103264476D01*
X114869266Y-103287335D01*
X114831987Y-103346429D01*
X114768677Y-103375986D01*
X114699438Y-103366624D01*
X114646251Y-103321314D01*
X114630734Y-103287335D01*
X114624230Y-103264476D01*
X114624229Y-103264472D01*
X114615122Y-103246182D01*
X114525061Y-103065316D01*
X114525056Y-103065308D01*
X114390979Y-102887761D01*
X114226562Y-102737876D01*
X114226560Y-102737874D01*
X114037404Y-102620754D01*
X114037398Y-102620752D01*
X113829940Y-102540382D01*
X113611243Y-102499500D01*
X113388757Y-102499500D01*
X113170060Y-102540382D01*
X113038864Y-102591207D01*
X112962601Y-102620752D01*
X112962595Y-102620754D01*
X112773439Y-102737874D01*
X112773437Y-102737876D01*
X112609020Y-102887761D01*
X112474943Y-103065308D01*
X112474938Y-103065316D01*
X112375775Y-103264461D01*
X112375769Y-103264476D01*
X112314885Y-103478462D01*
X112314884Y-103478464D01*
X112294357Y-103699999D01*
X109221689Y-103699999D01*
X109213553Y-103648631D01*
X109140566Y-103424003D01*
X109033342Y-103213566D01*
X109008332Y-103179143D01*
X108894517Y-103022490D01*
X108727510Y-102855483D01*
X108536433Y-102716657D01*
X108505316Y-102700802D01*
X108325996Y-102609433D01*
X108101368Y-102536446D01*
X107868097Y-102499500D01*
X107868092Y-102499500D01*
X105131908Y-102499500D01*
X105131903Y-102499500D01*
X104898631Y-102536446D01*
X104674003Y-102609433D01*
X104463566Y-102716657D01*
X104354550Y-102795862D01*
X104272490Y-102855483D01*
X104272488Y-102855485D01*
X104272487Y-102855485D01*
X104105485Y-103022487D01*
X104105485Y-103022488D01*
X104105483Y-103022490D01*
X104074374Y-103065308D01*
X103966657Y-103213566D01*
X103859433Y-103424003D01*
X103786446Y-103648631D01*
X103749500Y-103881902D01*
X100500500Y-103881902D01*
X100500500Y-103246182D01*
X100520185Y-103179143D01*
X100572989Y-103133388D01*
X100642147Y-103123444D01*
X100705703Y-103152469D01*
X100712181Y-103158501D01*
X100822813Y-103269133D01*
X101013828Y-103407914D01*
X101224195Y-103515102D01*
X101448744Y-103588063D01*
X101448750Y-103588065D01*
X101550000Y-103604101D01*
X101550000Y-102433012D01*
X101607007Y-102465925D01*
X101734174Y-102500000D01*
X101865826Y-102500000D01*
X101992993Y-102465925D01*
X102050000Y-102433012D01*
X102050000Y-103604100D01*
X102151249Y-103588065D01*
X102151255Y-103588063D01*
X102375804Y-103515102D01*
X102586171Y-103407914D01*
X102777186Y-103269133D01*
X102944133Y-103102186D01*
X103082914Y-102911171D01*
X103190102Y-102700802D01*
X103263065Y-102476247D01*
X103300000Y-102243052D01*
X103300000Y-101250000D01*
X102300000Y-101250000D01*
X102300000Y-100750000D01*
X103300000Y-100750000D01*
X103300000Y-99756947D01*
X103263065Y-99523752D01*
X103190102Y-99299197D01*
X103082914Y-99088828D01*
X102944133Y-98897813D01*
X102777186Y-98730866D01*
X102586171Y-98592085D01*
X102375802Y-98484897D01*
X102151247Y-98411934D01*
X102050000Y-98395897D01*
X102050000Y-99566988D01*
X101992993Y-99534075D01*
X101865826Y-99500000D01*
X101734174Y-99500000D01*
X101607007Y-99534075D01*
X101550000Y-99566988D01*
X101550000Y-98395897D01*
X101448752Y-98411934D01*
X101224197Y-98484897D01*
X101013828Y-98592085D01*
X100822813Y-98730866D01*
X100712181Y-98841499D01*
X100650858Y-98874984D01*
X100581166Y-98870000D01*
X100525233Y-98828128D01*
X100500816Y-98762664D01*
X100500500Y-98753818D01*
X100500500Y-97750000D01*
X103770898Y-97750000D01*
X104816988Y-97750000D01*
X104784075Y-97807007D01*
X104750000Y-97934174D01*
X104750000Y-98065826D01*
X104784075Y-98192993D01*
X104816988Y-98250000D01*
X103770898Y-98250000D01*
X103786934Y-98351247D01*
X103859897Y-98575802D01*
X103967085Y-98786171D01*
X104105866Y-98977186D01*
X104272813Y-99144133D01*
X104463828Y-99282914D01*
X104674197Y-99390102D01*
X104898752Y-99463065D01*
X104898751Y-99463065D01*
X105131948Y-99500000D01*
X106250000Y-99500000D01*
X106250000Y-98500000D01*
X106750000Y-98500000D01*
X106750000Y-99500000D01*
X107868052Y-99500000D01*
X108101247Y-99463065D01*
X108325802Y-99390102D01*
X108536171Y-99282914D01*
X108727186Y-99144133D01*
X108894133Y-98977186D01*
X109032914Y-98786171D01*
X109140102Y-98575802D01*
X109213065Y-98351247D01*
X109229102Y-98250000D01*
X108183012Y-98250000D01*
X108215925Y-98192993D01*
X108250000Y-98065826D01*
X108250000Y-97934174D01*
X108215925Y-97807007D01*
X108183012Y-97750000D01*
X109229102Y-97750000D01*
X109213065Y-97648752D01*
X109140102Y-97424197D01*
X109032914Y-97213828D01*
X108913880Y-97049993D01*
X111294700Y-97049993D01*
X111294700Y-97050006D01*
X111313864Y-97281297D01*
X111313866Y-97281308D01*
X111370842Y-97506300D01*
X111464075Y-97718848D01*
X111591016Y-97913147D01*
X111591019Y-97913151D01*
X111591021Y-97913153D01*
X111748216Y-98083913D01*
X111748219Y-98083915D01*
X111748222Y-98083918D01*
X111931365Y-98226464D01*
X111931371Y-98226468D01*
X111931374Y-98226470D01*
X112135497Y-98336936D01*
X112249487Y-98376068D01*
X112355015Y-98412297D01*
X112355017Y-98412297D01*
X112355019Y-98412298D01*
X112583951Y-98450500D01*
X112583952Y-98450500D01*
X112816048Y-98450500D01*
X112816049Y-98450500D01*
X113044981Y-98412298D01*
X113264503Y-98336936D01*
X113264510Y-98336932D01*
X113264513Y-98336931D01*
X113398103Y-98264635D01*
X113416704Y-98254568D01*
X113485031Y-98239973D01*
X113550403Y-98264635D01*
X113592065Y-98320726D01*
X113599192Y-98352182D01*
X113614884Y-98521535D01*
X113614885Y-98521537D01*
X113675769Y-98735523D01*
X113675775Y-98735538D01*
X113774938Y-98934683D01*
X113774943Y-98934691D01*
X113909020Y-99112238D01*
X114073437Y-99262123D01*
X114073439Y-99262125D01*
X114262595Y-99379245D01*
X114262596Y-99379245D01*
X114262599Y-99379247D01*
X114470060Y-99459618D01*
X114688757Y-99500500D01*
X114688759Y-99500500D01*
X114911241Y-99500500D01*
X114911243Y-99500500D01*
X115129940Y-99459618D01*
X115337401Y-99379247D01*
X115526562Y-99262124D01*
X115690981Y-99112236D01*
X115701046Y-99098906D01*
X115757153Y-99057271D01*
X115826865Y-99052578D01*
X115888047Y-99086319D01*
X115898948Y-99098900D01*
X115909019Y-99112236D01*
X115909022Y-99112239D01*
X115909025Y-99112242D01*
X116073437Y-99262123D01*
X116073439Y-99262125D01*
X116262595Y-99379245D01*
X116262596Y-99379245D01*
X116262599Y-99379247D01*
X116470060Y-99459618D01*
X116688757Y-99500500D01*
X116688759Y-99500500D01*
X116911241Y-99500500D01*
X116911243Y-99500500D01*
X117129940Y-99459618D01*
X117337401Y-99379247D01*
X117526562Y-99262124D01*
X117690981Y-99112236D01*
X117701046Y-99098906D01*
X117757153Y-99057271D01*
X117826865Y-99052578D01*
X117888047Y-99086319D01*
X117898948Y-99098900D01*
X117909019Y-99112236D01*
X117909022Y-99112239D01*
X117909025Y-99112242D01*
X118073437Y-99262123D01*
X118073439Y-99262125D01*
X118262595Y-99379245D01*
X118262596Y-99379245D01*
X118262599Y-99379247D01*
X118470060Y-99459618D01*
X118688757Y-99500500D01*
X118688759Y-99500500D01*
X118911244Y-99500500D01*
X118911244Y-99500499D01*
X118959851Y-99491413D01*
X119029366Y-99498442D01*
X119070319Y-99525620D01*
X120154242Y-100609543D01*
X120185406Y-100666616D01*
X120186084Y-100666396D01*
X120187256Y-100670003D01*
X120187727Y-100670866D01*
X120187851Y-100671440D01*
X120188093Y-100672580D01*
X120241712Y-100837608D01*
X120328477Y-100987887D01*
X120328476Y-100987887D01*
X120328478Y-100987889D01*
X120444590Y-101116845D01*
X120584976Y-101218842D01*
X120743495Y-101289420D01*
X120743501Y-101289422D01*
X120913236Y-101325500D01*
X120913237Y-101325500D01*
X121086762Y-101325500D01*
X121086764Y-101325500D01*
X121256499Y-101289422D01*
X121256501Y-101289420D01*
X121256504Y-101289420D01*
X121345042Y-101250000D01*
X121415024Y-101218842D01*
X121555410Y-101116845D01*
X121671522Y-100987889D01*
X121758286Y-100837611D01*
X121811908Y-100672576D01*
X121830047Y-100500000D01*
X121811908Y-100327424D01*
X121758286Y-100162389D01*
X121671522Y-100012111D01*
X121555410Y-99883155D01*
X121415024Y-99781158D01*
X121415023Y-99781157D01*
X121360647Y-99756947D01*
X140300000Y-99756947D01*
X140300000Y-100750000D01*
X141300000Y-100750000D01*
X141300000Y-101250000D01*
X140300000Y-101250000D01*
X140300000Y-102243052D01*
X140336934Y-102476247D01*
X140409897Y-102700802D01*
X140517085Y-102911171D01*
X140655866Y-103102186D01*
X140822813Y-103269133D01*
X141013828Y-103407914D01*
X141224195Y-103515102D01*
X141448744Y-103588063D01*
X141448750Y-103588065D01*
X141550000Y-103604101D01*
X141550000Y-102433012D01*
X141607007Y-102465925D01*
X141734174Y-102500000D01*
X141865826Y-102500000D01*
X141992993Y-102465925D01*
X142050000Y-102433012D01*
X142050000Y-103604100D01*
X142151249Y-103588065D01*
X142151255Y-103588063D01*
X142375804Y-103515102D01*
X142586171Y-103407914D01*
X142777186Y-103269133D01*
X142944133Y-103102186D01*
X143082914Y-102911171D01*
X143190102Y-102700802D01*
X143263065Y-102476247D01*
X143300000Y-102243052D01*
X143300000Y-101250000D01*
X142300000Y-101250000D01*
X142300000Y-100750000D01*
X143300000Y-100750000D01*
X143300000Y-99756947D01*
X143263065Y-99523752D01*
X143190102Y-99299197D01*
X143082914Y-99088828D01*
X142944133Y-98897813D01*
X142777186Y-98730866D01*
X142586171Y-98592085D01*
X142375802Y-98484897D01*
X142151247Y-98411934D01*
X142050000Y-98395897D01*
X142050000Y-99566988D01*
X141992993Y-99534075D01*
X141865826Y-99500000D01*
X141734174Y-99500000D01*
X141607007Y-99534075D01*
X141550000Y-99566988D01*
X141550000Y-98395897D01*
X141448752Y-98411934D01*
X141224197Y-98484897D01*
X141013828Y-98592085D01*
X140822813Y-98730866D01*
X140655866Y-98897813D01*
X140517085Y-99088828D01*
X140409897Y-99299197D01*
X140336934Y-99523752D01*
X140300000Y-99756947D01*
X121360647Y-99756947D01*
X121256503Y-99710579D01*
X121256499Y-99710578D01*
X121177343Y-99693752D01*
X121115861Y-99660559D01*
X121115444Y-99660143D01*
X120025573Y-98570272D01*
X119992088Y-98508949D01*
X119989783Y-98471155D01*
X120005643Y-98300000D01*
X119985115Y-98078464D01*
X119924229Y-97864472D01*
X119895615Y-97807007D01*
X119825061Y-97665316D01*
X119825056Y-97665308D01*
X119690979Y-97487761D01*
X119526562Y-97337876D01*
X119526560Y-97337874D01*
X119337404Y-97220754D01*
X119337395Y-97220750D01*
X119265560Y-97192921D01*
X119195101Y-97165625D01*
X119139701Y-97123054D01*
X119116110Y-97057288D01*
X119131821Y-96989207D01*
X119181844Y-96940428D01*
X119195093Y-96934377D01*
X119337401Y-96879247D01*
X119526562Y-96762124D01*
X119666282Y-96634751D01*
X119690979Y-96612238D01*
X119690982Y-96612235D01*
X119825058Y-96434689D01*
X119924229Y-96235528D01*
X119985115Y-96021536D01*
X120005643Y-95800000D01*
X120005643Y-95799999D01*
X121594357Y-95799999D01*
X121594357Y-95800000D01*
X121614884Y-96021535D01*
X121614885Y-96021537D01*
X121675769Y-96235523D01*
X121675775Y-96235538D01*
X121774938Y-96434683D01*
X121774943Y-96434691D01*
X121909020Y-96612238D01*
X122073437Y-96762123D01*
X122073439Y-96762125D01*
X122262595Y-96879245D01*
X122262596Y-96879245D01*
X122262599Y-96879247D01*
X122404898Y-96934374D01*
X122460298Y-96976946D01*
X122483889Y-97042713D01*
X122468178Y-97110793D01*
X122418154Y-97159572D01*
X122404906Y-97165622D01*
X122298693Y-97206769D01*
X122262601Y-97220752D01*
X122262595Y-97220754D01*
X122073439Y-97337874D01*
X122073437Y-97337876D01*
X121909020Y-97487761D01*
X121774943Y-97665308D01*
X121774938Y-97665316D01*
X121675775Y-97864461D01*
X121675769Y-97864476D01*
X121614885Y-98078462D01*
X121614884Y-98078464D01*
X121594357Y-98299999D01*
X121594357Y-98300000D01*
X121614884Y-98521535D01*
X121614885Y-98521537D01*
X121675769Y-98735523D01*
X121675775Y-98735538D01*
X121774938Y-98934683D01*
X121774943Y-98934691D01*
X121909020Y-99112238D01*
X122073437Y-99262123D01*
X122073439Y-99262125D01*
X122262595Y-99379245D01*
X122262596Y-99379245D01*
X122262599Y-99379247D01*
X122470060Y-99459618D01*
X122688757Y-99500500D01*
X122688759Y-99500500D01*
X122911241Y-99500500D01*
X122911243Y-99500500D01*
X123129940Y-99459618D01*
X123337401Y-99379247D01*
X123526562Y-99262124D01*
X123666282Y-99134751D01*
X123690979Y-99112238D01*
X123690982Y-99112235D01*
X123825058Y-98934689D01*
X123924229Y-98735528D01*
X123985115Y-98521536D01*
X124000807Y-98352179D01*
X124026593Y-98287245D01*
X124083393Y-98246557D01*
X124153174Y-98243037D01*
X124183290Y-98254566D01*
X124335497Y-98336936D01*
X124449487Y-98376068D01*
X124555015Y-98412297D01*
X124555017Y-98412297D01*
X124555019Y-98412298D01*
X124783951Y-98450500D01*
X124783952Y-98450500D01*
X125016048Y-98450500D01*
X125016049Y-98450500D01*
X125244981Y-98412298D01*
X125464503Y-98336936D01*
X125668626Y-98226470D01*
X125711638Y-98192993D01*
X125811473Y-98115288D01*
X125851784Y-98083913D01*
X126008979Y-97913153D01*
X126135924Y-97718849D01*
X126229157Y-97506300D01*
X126286134Y-97281305D01*
X126286135Y-97281297D01*
X126305300Y-97050006D01*
X126305300Y-97049993D01*
X126694700Y-97049993D01*
X126694700Y-97050006D01*
X126713864Y-97281297D01*
X126713866Y-97281308D01*
X126770842Y-97506300D01*
X126864075Y-97718848D01*
X126991016Y-97913147D01*
X126991019Y-97913151D01*
X126991021Y-97913153D01*
X127148216Y-98083913D01*
X127148219Y-98083915D01*
X127148222Y-98083918D01*
X127331365Y-98226464D01*
X127331371Y-98226468D01*
X127331374Y-98226470D01*
X127535497Y-98336936D01*
X127649487Y-98376068D01*
X127755015Y-98412297D01*
X127755017Y-98412297D01*
X127755019Y-98412298D01*
X127983951Y-98450500D01*
X127983952Y-98450500D01*
X128216048Y-98450500D01*
X128216049Y-98450500D01*
X128444981Y-98412298D01*
X128664503Y-98336936D01*
X128664510Y-98336932D01*
X128664513Y-98336931D01*
X128798103Y-98264635D01*
X128816704Y-98254568D01*
X128885031Y-98239973D01*
X128950403Y-98264635D01*
X128992065Y-98320726D01*
X128999192Y-98352182D01*
X129014884Y-98521535D01*
X129014885Y-98521537D01*
X129075769Y-98735523D01*
X129075775Y-98735538D01*
X129174938Y-98934683D01*
X129174943Y-98934691D01*
X129309020Y-99112238D01*
X129473437Y-99262123D01*
X129473439Y-99262125D01*
X129662595Y-99379245D01*
X129662596Y-99379245D01*
X129662599Y-99379247D01*
X129870060Y-99459618D01*
X130088757Y-99500500D01*
X130088759Y-99500500D01*
X130311241Y-99500500D01*
X130311243Y-99500500D01*
X130529940Y-99459618D01*
X130737401Y-99379247D01*
X130926562Y-99262124D01*
X131090981Y-99112236D01*
X131101046Y-99098906D01*
X131157153Y-99057271D01*
X131226865Y-99052578D01*
X131288047Y-99086319D01*
X131298948Y-99098900D01*
X131309019Y-99112236D01*
X131309022Y-99112239D01*
X131309025Y-99112242D01*
X131473437Y-99262123D01*
X131473439Y-99262125D01*
X131662595Y-99379245D01*
X131662596Y-99379245D01*
X131662599Y-99379247D01*
X131870060Y-99459618D01*
X132088757Y-99500500D01*
X132088759Y-99500500D01*
X132311241Y-99500500D01*
X132311243Y-99500500D01*
X132529940Y-99459618D01*
X132737401Y-99379247D01*
X132926562Y-99262124D01*
X133090981Y-99112236D01*
X133101046Y-99098906D01*
X133157153Y-99057271D01*
X133226865Y-99052578D01*
X133288047Y-99086319D01*
X133298948Y-99098900D01*
X133309019Y-99112236D01*
X133309022Y-99112239D01*
X133309025Y-99112242D01*
X133473437Y-99262123D01*
X133473439Y-99262125D01*
X133662595Y-99379245D01*
X133662596Y-99379245D01*
X133662599Y-99379247D01*
X133870060Y-99459618D01*
X134088757Y-99500500D01*
X134088759Y-99500500D01*
X134311241Y-99500500D01*
X134311243Y-99500500D01*
X134529940Y-99459618D01*
X134737401Y-99379247D01*
X134926562Y-99262124D01*
X135066282Y-99134751D01*
X135090979Y-99112238D01*
X135090982Y-99112235D01*
X135225058Y-98934689D01*
X135324229Y-98735528D01*
X135385115Y-98521536D01*
X135405643Y-98300000D01*
X135385115Y-98078464D01*
X135324229Y-97864472D01*
X135295615Y-97807007D01*
X135225061Y-97665316D01*
X135225056Y-97665308D01*
X135090979Y-97487761D01*
X134926562Y-97337876D01*
X134926560Y-97337874D01*
X134737404Y-97220754D01*
X134737395Y-97220750D01*
X134665560Y-97192921D01*
X134595101Y-97165625D01*
X134539701Y-97123054D01*
X134516110Y-97057288D01*
X134531821Y-96989207D01*
X134581844Y-96940428D01*
X134595093Y-96934377D01*
X134737401Y-96879247D01*
X134926562Y-96762124D01*
X135066282Y-96634751D01*
X135090979Y-96612238D01*
X135090982Y-96612235D01*
X135225058Y-96434689D01*
X135324229Y-96235528D01*
X135385115Y-96021536D01*
X135405643Y-95800000D01*
X135405643Y-95799999D01*
X136994357Y-95799999D01*
X136994357Y-95800000D01*
X137014884Y-96021535D01*
X137014885Y-96021537D01*
X137075769Y-96235523D01*
X137075775Y-96235538D01*
X137174938Y-96434683D01*
X137174943Y-96434691D01*
X137309020Y-96612238D01*
X137473437Y-96762123D01*
X137473439Y-96762125D01*
X137662595Y-96879245D01*
X137662596Y-96879245D01*
X137662599Y-96879247D01*
X137804898Y-96934374D01*
X137860298Y-96976946D01*
X137883889Y-97042713D01*
X137868178Y-97110793D01*
X137818154Y-97159572D01*
X137804906Y-97165622D01*
X137698693Y-97206769D01*
X137662601Y-97220752D01*
X137662595Y-97220754D01*
X137473439Y-97337874D01*
X137473437Y-97337876D01*
X137309020Y-97487761D01*
X137174943Y-97665308D01*
X137174938Y-97665316D01*
X137075775Y-97864461D01*
X137075769Y-97864476D01*
X137014885Y-98078462D01*
X137014884Y-98078464D01*
X136994357Y-98299999D01*
X136994357Y-98300000D01*
X137014884Y-98521535D01*
X137014885Y-98521537D01*
X137075769Y-98735523D01*
X137075775Y-98735538D01*
X137174938Y-98934683D01*
X137174943Y-98934691D01*
X137309020Y-99112238D01*
X137473437Y-99262123D01*
X137473439Y-99262125D01*
X137662595Y-99379245D01*
X137662596Y-99379245D01*
X137662599Y-99379247D01*
X137870060Y-99459618D01*
X138088757Y-99500500D01*
X138088759Y-99500500D01*
X138311241Y-99500500D01*
X138311243Y-99500500D01*
X138529940Y-99459618D01*
X138737401Y-99379247D01*
X138926562Y-99262124D01*
X139066282Y-99134751D01*
X139090979Y-99112238D01*
X139090982Y-99112235D01*
X139225058Y-98934689D01*
X139324229Y-98735528D01*
X139385115Y-98521536D01*
X139400807Y-98352179D01*
X139426593Y-98287245D01*
X139483393Y-98246557D01*
X139553174Y-98243037D01*
X139583290Y-98254566D01*
X139735497Y-98336936D01*
X139849487Y-98376068D01*
X139955015Y-98412297D01*
X139955017Y-98412297D01*
X139955019Y-98412298D01*
X140183951Y-98450500D01*
X140183952Y-98450500D01*
X140416048Y-98450500D01*
X140416049Y-98450500D01*
X140644981Y-98412298D01*
X140864503Y-98336936D01*
X141068626Y-98226470D01*
X141111638Y-98192993D01*
X141211473Y-98115288D01*
X141251784Y-98083913D01*
X141408979Y-97913153D01*
X141515572Y-97750000D01*
X143770898Y-97750000D01*
X144816988Y-97750000D01*
X144784075Y-97807007D01*
X144750000Y-97934174D01*
X144750000Y-98065826D01*
X144784075Y-98192993D01*
X144816988Y-98250000D01*
X143770898Y-98250000D01*
X143786934Y-98351247D01*
X143859897Y-98575802D01*
X143967085Y-98786171D01*
X144105866Y-98977186D01*
X144272813Y-99144133D01*
X144463828Y-99282914D01*
X144674197Y-99390102D01*
X144898752Y-99463065D01*
X144898751Y-99463065D01*
X145131948Y-99500000D01*
X146250000Y-99500000D01*
X146250000Y-98500000D01*
X146750000Y-98500000D01*
X146750000Y-99500000D01*
X147868052Y-99500000D01*
X148101247Y-99463065D01*
X148325802Y-99390102D01*
X148536171Y-99282914D01*
X148727186Y-99144133D01*
X148894133Y-98977186D01*
X149032914Y-98786171D01*
X149140102Y-98575802D01*
X149213065Y-98351247D01*
X149229102Y-98250000D01*
X148183012Y-98250000D01*
X148215925Y-98192993D01*
X148250000Y-98065826D01*
X148250000Y-97934174D01*
X148215925Y-97807007D01*
X148183012Y-97750000D01*
X149229102Y-97750000D01*
X149213065Y-97648752D01*
X149140102Y-97424197D01*
X149032914Y-97213828D01*
X148894133Y-97022813D01*
X148727186Y-96855866D01*
X148536171Y-96717085D01*
X148325802Y-96609897D01*
X148101247Y-96536934D01*
X148101248Y-96536934D01*
X147868052Y-96500000D01*
X146750000Y-96500000D01*
X146750000Y-97500000D01*
X146250000Y-97500000D01*
X146250000Y-96500000D01*
X145131948Y-96500000D01*
X144898752Y-96536934D01*
X144674197Y-96609897D01*
X144463828Y-96717085D01*
X144272813Y-96855866D01*
X144105866Y-97022813D01*
X143967085Y-97213828D01*
X143859897Y-97424197D01*
X143786934Y-97648752D01*
X143770898Y-97750000D01*
X141515572Y-97750000D01*
X141535924Y-97718849D01*
X141629157Y-97506300D01*
X141686134Y-97281305D01*
X141686135Y-97281297D01*
X141705300Y-97050006D01*
X141705300Y-97049993D01*
X141686135Y-96818702D01*
X141686133Y-96818691D01*
X141629157Y-96593699D01*
X141535924Y-96381151D01*
X141408983Y-96186852D01*
X141408980Y-96186849D01*
X141408979Y-96186847D01*
X141251784Y-96016087D01*
X141251779Y-96016083D01*
X141251777Y-96016081D01*
X141068634Y-95873535D01*
X141068628Y-95873531D01*
X140864504Y-95763064D01*
X140864495Y-95763061D01*
X140644984Y-95687702D01*
X140473282Y-95659050D01*
X140416049Y-95649500D01*
X140183951Y-95649500D01*
X140138164Y-95657140D01*
X139955015Y-95687702D01*
X139735504Y-95763061D01*
X139735490Y-95763067D01*
X139583295Y-95845431D01*
X139514967Y-95860026D01*
X139449595Y-95835363D01*
X139407934Y-95779272D01*
X139400808Y-95747821D01*
X139385115Y-95578464D01*
X139324229Y-95364472D01*
X139324224Y-95364461D01*
X139225061Y-95165316D01*
X139225056Y-95165308D01*
X139090979Y-94987761D01*
X138926562Y-94837876D01*
X138926560Y-94837874D01*
X138737404Y-94720754D01*
X138737398Y-94720752D01*
X138529940Y-94640382D01*
X138311243Y-94599500D01*
X138088757Y-94599500D01*
X137870060Y-94640382D01*
X137738864Y-94691207D01*
X137662601Y-94720752D01*
X137662595Y-94720754D01*
X137473439Y-94837874D01*
X137473437Y-94837876D01*
X137309020Y-94987761D01*
X137174943Y-95165308D01*
X137174938Y-95165316D01*
X137075775Y-95364461D01*
X137075769Y-95364476D01*
X137014885Y-95578462D01*
X137014884Y-95578464D01*
X136994357Y-95799999D01*
X135405643Y-95799999D01*
X135402220Y-95763064D01*
X135385115Y-95578464D01*
X135385114Y-95578462D01*
X135324230Y-95364476D01*
X135324229Y-95364472D01*
X135324224Y-95364461D01*
X135225061Y-95165316D01*
X135225056Y-95165308D01*
X135090979Y-94987761D01*
X134926562Y-94837876D01*
X134926560Y-94837874D01*
X134737404Y-94720754D01*
X134737398Y-94720752D01*
X134529940Y-94640382D01*
X134311243Y-94599500D01*
X134088757Y-94599500D01*
X133870060Y-94640382D01*
X133738864Y-94691207D01*
X133662601Y-94720752D01*
X133662595Y-94720754D01*
X133473439Y-94837874D01*
X133473437Y-94837876D01*
X133309019Y-94987762D01*
X133298953Y-95001093D01*
X133242844Y-95042728D01*
X133173132Y-95047419D01*
X133111950Y-95013676D01*
X133101047Y-95001093D01*
X133090980Y-94987762D01*
X132926562Y-94837876D01*
X132926560Y-94837874D01*
X132737404Y-94720754D01*
X132737398Y-94720752D01*
X132529940Y-94640382D01*
X132311243Y-94599500D01*
X132088757Y-94599500D01*
X131870060Y-94640382D01*
X131738864Y-94691207D01*
X131662601Y-94720752D01*
X131662595Y-94720754D01*
X131473439Y-94837874D01*
X131473437Y-94837876D01*
X131309019Y-94987762D01*
X131298953Y-95001093D01*
X131242844Y-95042728D01*
X131173132Y-95047419D01*
X131111950Y-95013676D01*
X131101047Y-95001093D01*
X131090980Y-94987762D01*
X130926562Y-94837876D01*
X130926560Y-94837874D01*
X130737404Y-94720754D01*
X130737398Y-94720752D01*
X130529940Y-94640382D01*
X130311243Y-94599500D01*
X130088757Y-94599500D01*
X129870060Y-94640382D01*
X129738864Y-94691207D01*
X129662601Y-94720752D01*
X129662595Y-94720754D01*
X129473439Y-94837874D01*
X129473437Y-94837876D01*
X129309020Y-94987761D01*
X129174943Y-95165308D01*
X129174938Y-95165316D01*
X129075775Y-95364461D01*
X129075769Y-95364476D01*
X129014885Y-95578462D01*
X129014884Y-95578464D01*
X128999192Y-95747817D01*
X128973406Y-95812755D01*
X128916605Y-95853442D01*
X128846824Y-95856962D01*
X128816705Y-95845431D01*
X128694453Y-95779272D01*
X128664504Y-95763064D01*
X128664495Y-95763061D01*
X128444984Y-95687702D01*
X128273282Y-95659050D01*
X128216049Y-95649500D01*
X127983951Y-95649500D01*
X127938164Y-95657140D01*
X127755015Y-95687702D01*
X127535504Y-95763061D01*
X127535495Y-95763064D01*
X127331371Y-95873531D01*
X127331365Y-95873535D01*
X127148222Y-96016081D01*
X127148219Y-96016084D01*
X126991016Y-96186852D01*
X126864075Y-96381151D01*
X126770842Y-96593699D01*
X126713866Y-96818691D01*
X126713864Y-96818702D01*
X126694700Y-97049993D01*
X126305300Y-97049993D01*
X126286135Y-96818702D01*
X126286133Y-96818691D01*
X126229157Y-96593699D01*
X126135924Y-96381151D01*
X126008983Y-96186852D01*
X126008980Y-96186849D01*
X126008979Y-96186847D01*
X125851784Y-96016087D01*
X125851779Y-96016083D01*
X125851777Y-96016081D01*
X125668634Y-95873535D01*
X125668628Y-95873531D01*
X125464504Y-95763064D01*
X125464495Y-95763061D01*
X125244984Y-95687702D01*
X125073282Y-95659050D01*
X125016049Y-95649500D01*
X124783951Y-95649500D01*
X124738164Y-95657140D01*
X124555015Y-95687702D01*
X124335504Y-95763061D01*
X124335490Y-95763067D01*
X124183295Y-95845431D01*
X124114967Y-95860026D01*
X124049595Y-95835363D01*
X124007934Y-95779272D01*
X124000808Y-95747821D01*
X123985115Y-95578464D01*
X123924229Y-95364472D01*
X123924224Y-95364461D01*
X123825061Y-95165316D01*
X123825056Y-95165308D01*
X123690979Y-94987761D01*
X123526562Y-94837876D01*
X123526560Y-94837874D01*
X123337404Y-94720754D01*
X123337398Y-94720752D01*
X123129940Y-94640382D01*
X122911243Y-94599500D01*
X122688757Y-94599500D01*
X122470060Y-94640382D01*
X122338864Y-94691207D01*
X122262601Y-94720752D01*
X122262595Y-94720754D01*
X122073439Y-94837874D01*
X122073437Y-94837876D01*
X121909020Y-94987761D01*
X121774943Y-95165308D01*
X121774938Y-95165316D01*
X121675775Y-95364461D01*
X121675769Y-95364476D01*
X121614885Y-95578462D01*
X121614884Y-95578464D01*
X121594357Y-95799999D01*
X120005643Y-95799999D01*
X120002220Y-95763064D01*
X119985115Y-95578464D01*
X119985114Y-95578462D01*
X119924230Y-95364476D01*
X119924229Y-95364472D01*
X119924224Y-95364461D01*
X119825061Y-95165316D01*
X119825056Y-95165308D01*
X119690979Y-94987761D01*
X119526562Y-94837876D01*
X119526560Y-94837874D01*
X119337404Y-94720754D01*
X119337398Y-94720752D01*
X119129940Y-94640382D01*
X118911243Y-94599500D01*
X118688757Y-94599500D01*
X118470060Y-94640382D01*
X118338864Y-94691207D01*
X118262601Y-94720752D01*
X118262595Y-94720754D01*
X118073439Y-94837874D01*
X118073437Y-94837876D01*
X117909019Y-94987762D01*
X117898953Y-95001093D01*
X117842844Y-95042728D01*
X117773132Y-95047419D01*
X117711950Y-95013676D01*
X117701047Y-95001093D01*
X117690980Y-94987762D01*
X117526562Y-94837876D01*
X117526560Y-94837874D01*
X117337404Y-94720754D01*
X117337398Y-94720752D01*
X117129940Y-94640382D01*
X116911243Y-94599500D01*
X116688757Y-94599500D01*
X116470060Y-94640382D01*
X116338864Y-94691207D01*
X116262601Y-94720752D01*
X116262595Y-94720754D01*
X116073439Y-94837874D01*
X116073437Y-94837876D01*
X115909019Y-94987762D01*
X115898953Y-95001093D01*
X115842844Y-95042728D01*
X115773132Y-95047419D01*
X115711950Y-95013676D01*
X115701047Y-95001093D01*
X115690980Y-94987762D01*
X115526562Y-94837876D01*
X115526560Y-94837874D01*
X115337404Y-94720754D01*
X115337398Y-94720752D01*
X115129940Y-94640382D01*
X114911243Y-94599500D01*
X114688757Y-94599500D01*
X114470060Y-94640382D01*
X114338864Y-94691207D01*
X114262601Y-94720752D01*
X114262595Y-94720754D01*
X114073439Y-94837874D01*
X114073437Y-94837876D01*
X113909020Y-94987761D01*
X113774943Y-95165308D01*
X113774938Y-95165316D01*
X113675775Y-95364461D01*
X113675769Y-95364476D01*
X113614885Y-95578462D01*
X113614884Y-95578464D01*
X113599192Y-95747817D01*
X113573406Y-95812755D01*
X113516605Y-95853442D01*
X113446824Y-95856962D01*
X113416705Y-95845431D01*
X113294453Y-95779272D01*
X113264504Y-95763064D01*
X113264495Y-95763061D01*
X113044984Y-95687702D01*
X112873282Y-95659050D01*
X112816049Y-95649500D01*
X112583951Y-95649500D01*
X112538164Y-95657140D01*
X112355015Y-95687702D01*
X112135504Y-95763061D01*
X112135495Y-95763064D01*
X111931371Y-95873531D01*
X111931365Y-95873535D01*
X111748222Y-96016081D01*
X111748219Y-96016084D01*
X111591016Y-96186852D01*
X111464075Y-96381151D01*
X111370842Y-96593699D01*
X111313866Y-96818691D01*
X111313864Y-96818702D01*
X111294700Y-97049993D01*
X108913880Y-97049993D01*
X108894133Y-97022813D01*
X108727186Y-96855866D01*
X108536171Y-96717085D01*
X108325802Y-96609897D01*
X108101247Y-96536934D01*
X108101248Y-96536934D01*
X107868052Y-96500000D01*
X106750000Y-96500000D01*
X106750000Y-97500000D01*
X106250000Y-97500000D01*
X106250000Y-96500000D01*
X105131948Y-96500000D01*
X104898752Y-96536934D01*
X104674197Y-96609897D01*
X104463828Y-96717085D01*
X104272813Y-96855866D01*
X104105866Y-97022813D01*
X103967085Y-97213828D01*
X103859897Y-97424197D01*
X103786934Y-97648752D01*
X103770898Y-97750000D01*
X100500500Y-97750000D01*
X100500500Y-91006961D01*
X100501280Y-90993077D01*
X100501280Y-90993076D01*
X100511459Y-90902731D01*
X100517635Y-90875670D01*
X100545353Y-90796456D01*
X100557396Y-90771450D01*
X100602046Y-90700389D01*
X100619351Y-90678690D01*
X100678690Y-90619351D01*
X100700389Y-90602046D01*
X100771450Y-90557396D01*
X100796456Y-90545353D01*
X100875670Y-90517635D01*
X100902733Y-90511459D01*
X100965419Y-90504396D01*
X100993079Y-90501280D01*
X101006962Y-90500500D01*
X101065892Y-90500500D01*
X151934108Y-90500500D01*
X151993038Y-90500500D01*
X152006922Y-90501280D01*
G37*
%TD.AperFunction*%
%TA.AperFunction,Conductor*%
G36*
X105327482Y-118182292D02*
G01*
X105399890Y-118307708D01*
X105502292Y-118410110D01*
X105627708Y-118482518D01*
X105669765Y-118493787D01*
X105078625Y-119084925D01*
X105162421Y-119143599D01*
X105376507Y-119243429D01*
X105376516Y-119243433D01*
X105422390Y-119255725D01*
X105482051Y-119292090D01*
X105512580Y-119354937D01*
X105504285Y-119424312D01*
X105459800Y-119478190D01*
X105393248Y-119499465D01*
X105390297Y-119499500D01*
X103751636Y-119499500D01*
X103684597Y-119479815D01*
X103638842Y-119427011D01*
X103628898Y-119357853D01*
X103657923Y-119294297D01*
X103716701Y-119256523D01*
X103719543Y-119255725D01*
X103746482Y-119248506D01*
X103763663Y-119243903D01*
X103977830Y-119144035D01*
X104171401Y-119008495D01*
X104338495Y-118841401D01*
X104468732Y-118655403D01*
X104523307Y-118611780D01*
X104592805Y-118604586D01*
X104655160Y-118636109D01*
X104671880Y-118655405D01*
X104725073Y-118731373D01*
X105316212Y-118140234D01*
X105327482Y-118182292D01*
G37*
%TD.AperFunction*%
%TA.AperFunction,Conductor*%
G36*
X149187482Y-118182292D02*
G01*
X149259890Y-118307708D01*
X149362292Y-118410110D01*
X149487708Y-118482518D01*
X149529765Y-118493787D01*
X148938625Y-119084925D01*
X149022421Y-119143599D01*
X149236507Y-119243429D01*
X149236516Y-119243433D01*
X149282390Y-119255725D01*
X149342051Y-119292090D01*
X149372580Y-119354937D01*
X149364285Y-119424312D01*
X149319800Y-119478190D01*
X149253248Y-119499465D01*
X149250297Y-119499500D01*
X147611636Y-119499500D01*
X147544597Y-119479815D01*
X147498842Y-119427011D01*
X147488898Y-119357853D01*
X147517923Y-119294297D01*
X147576701Y-119256523D01*
X147579543Y-119255725D01*
X147606482Y-119248506D01*
X147623663Y-119243903D01*
X147837830Y-119144035D01*
X148031401Y-119008495D01*
X148198495Y-118841401D01*
X148328732Y-118655403D01*
X148383307Y-118611780D01*
X148452805Y-118604586D01*
X148515160Y-118636109D01*
X148531880Y-118655405D01*
X148585073Y-118731373D01*
X149176212Y-118140234D01*
X149187482Y-118182292D01*
G37*
%TD.AperFunction*%
%TD*%
M02*
