%TF.GenerationSoftware,KiCad,Pcbnew,8.0.5+1*%
%TF.CreationDate,2024-10-02T06:07:40-04:00*%
%TF.ProjectId,breadboard-power-supply,62726561-6462-46f6-9172-642d706f7765,rev?*%
%TF.SameCoordinates,Original*%
%TF.FileFunction,Copper,L2,Bot*%
%TF.FilePolarity,Positive*%
%FSLAX46Y46*%
G04 Gerber Fmt 4.6, Leading zero omitted, Abs format (unit mm)*
G04 Created by KiCad (PCBNEW 8.0.5+1) date 2024-10-02 06:07:40*
%MOMM*%
%LPD*%
G01*
G04 APERTURE LIST*
%TA.AperFunction,ComponentPad*%
%ADD10C,1.400000*%
%TD*%
%TA.AperFunction,ComponentPad*%
%ADD11C,1.800000*%
%TD*%
%TA.AperFunction,ComponentPad*%
%ADD12O,4.500000X2.000000*%
%TD*%
%TA.AperFunction,ComponentPad*%
%ADD13O,2.000000X4.250000*%
%TD*%
%TA.AperFunction,ComponentPad*%
%ADD14C,1.700000*%
%TD*%
%TA.AperFunction,ViaPad*%
%ADD15C,0.650000*%
%TD*%
%TA.AperFunction,Conductor*%
%ADD16C,0.200000*%
%TD*%
%TA.AperFunction,Conductor*%
%ADD17C,0.350000*%
%TD*%
G04 APERTURE END LIST*
D10*
%TO.P,SW1,1*%
%TO.N,/VIN1*%
X113500000Y-101900000D03*
%TO.P,SW1,2*%
%TO.N,Net-(J1-Pad1)*%
X116000000Y-101900000D03*
%TO.P,SW1,3*%
%TO.N,unconnected-(SW1-Pad3)_1*%
X118500000Y-101900000D03*
%TO.P,SW1,4*%
%TO.N,/VIN1*%
X113500000Y-105100000D03*
%TO.P,SW1,5*%
%TO.N,Net-(J1-Pad1)*%
X116000000Y-105100000D03*
%TO.P,SW1,6*%
%TO.N,unconnected-(SW1-Pad3)*%
X118500000Y-105100000D03*
%TD*%
D11*
%TO.P,SW3,*%
%TO.N,*%
X140600000Y-95250000D03*
X128400000Y-95250000D03*
D10*
%TO.P,SW3,1,1*%
%TO.N,unconnected-(SW3-Pad1)*%
X138500000Y-94000000D03*
%TO.P,SW3,2,2*%
%TO.N,VCC1*%
X134500000Y-94000000D03*
%TO.P,SW3,3,3*%
%TO.N,VCC2*%
X132500000Y-94000000D03*
%TO.P,SW3,4,4*%
%TO.N,unconnected-(SW3-Pad4)*%
X130500000Y-94000000D03*
%TO.P,SW3,5,5*%
%TO.N,unconnected-(SW3-Pad5)*%
X138500000Y-96500000D03*
%TO.P,SW3,6,6*%
%TO.N,Net-(J2-Pad1)*%
X134500000Y-96500000D03*
%TO.P,SW3,7,7*%
%TO.N,unconnected-(SW3-Pad7)*%
X132500000Y-96500000D03*
%TO.P,SW3,8,8*%
%TO.N,VCC2*%
X130500000Y-96500000D03*
%TD*%
D12*
%TO.P,J1,1*%
%TO.N,Net-(J1-Pad1)*%
X106500000Y-104000000D03*
%TO.P,J1,2*%
%TO.N,GND*%
X106500000Y-98000000D03*
D13*
%TO.P,J1,3*%
X101800000Y-101000000D03*
%TD*%
D11*
%TO.P,SW2,*%
%TO.N,*%
X124600000Y-95250000D03*
X112400000Y-95250000D03*
D10*
%TO.P,SW2,1,1*%
%TO.N,VCC1*%
X122500000Y-94000000D03*
%TO.P,SW2,2,2*%
%TO.N,/VIN1*%
X118500000Y-94000000D03*
%TO.P,SW2,3,3*%
%TO.N,Net-(U1-IN)*%
X116500000Y-94000000D03*
%TO.P,SW2,4,4*%
X114500000Y-94000000D03*
%TO.P,SW2,5,5*%
%TO.N,unconnected-(SW2-Pad5)*%
X122500000Y-96500000D03*
%TO.P,SW2,6,6*%
%TO.N,/ADJ*%
X118500000Y-96500000D03*
%TO.P,SW2,7,7*%
%TO.N,Net-(R5-Pad1)*%
X116500000Y-96500000D03*
%TO.P,SW2,8,8*%
%TO.N,Net-(R2-Pad1)*%
X114500000Y-96500000D03*
%TD*%
D12*
%TO.P,J2,1*%
%TO.N,Net-(J2-Pad1)*%
X146500000Y-104000000D03*
%TO.P,J2,2*%
%TO.N,GND*%
X146500000Y-98000000D03*
D13*
%TO.P,J2,3*%
X141800000Y-101000000D03*
%TD*%
D14*
%TO.P,J6,1*%
%TO.N,VCC2*%
X147160000Y-117970000D03*
%TO.P,J6,2*%
%TO.N,GND*%
X149700000Y-117970000D03*
%TD*%
%TO.P,J3,1*%
%TO.N,unconnected-(J3-Pad1)*%
X105840000Y-107810000D03*
%TO.P,J3,2*%
%TO.N,unconnected-(J3-Pad2)*%
X103300000Y-107810000D03*
%TD*%
%TO.P,J4,1*%
%TO.N,VCC1*%
X103300000Y-117970000D03*
%TO.P,J4,2*%
%TO.N,GND*%
X105840000Y-117970000D03*
%TD*%
%TO.P,J5,1*%
%TO.N,unconnected-(J5-Pad1)*%
X149700000Y-107810000D03*
%TO.P,J5,2*%
%TO.N,unconnected-(J5-Pad2)*%
X147160000Y-107810000D03*
%TD*%
D15*
%TO.N,GND*%
X111500000Y-99800000D03*
X135500000Y-100200000D03*
X129600000Y-109000000D03*
X119400000Y-99800000D03*
X121700000Y-104100000D03*
%TO.N,/ADJ*%
X120700000Y-98700000D03*
%TD*%
D16*
%TO.N,/ADJ*%
X119100000Y-96500000D02*
X118500000Y-96500000D01*
D17*
X120700000Y-98700000D02*
X118500000Y-96500000D01*
%TD*%
%TA.AperFunction,Conductor*%
%TO.N,GND*%
G36*
X152006922Y-90501280D02*
G01*
X152097266Y-90511459D01*
X152124331Y-90517636D01*
X152203540Y-90545352D01*
X152228553Y-90557398D01*
X152299606Y-90602043D01*
X152321313Y-90619355D01*
X152380644Y-90678686D01*
X152397957Y-90700395D01*
X152442600Y-90771444D01*
X152454648Y-90796462D01*
X152482362Y-90875666D01*
X152488540Y-90902735D01*
X152498720Y-90993076D01*
X152499500Y-91006961D01*
X152499500Y-118993038D01*
X152498720Y-119006921D01*
X152497576Y-119017075D01*
X152488540Y-119097264D01*
X152482362Y-119124333D01*
X152454648Y-119203537D01*
X152442600Y-119228555D01*
X152397957Y-119299604D01*
X152380644Y-119321313D01*
X152321313Y-119380644D01*
X152299604Y-119397957D01*
X152228555Y-119442600D01*
X152203537Y-119454648D01*
X152124333Y-119482362D01*
X152097264Y-119488540D01*
X152017075Y-119497576D01*
X152006921Y-119498720D01*
X151993038Y-119499500D01*
X150149703Y-119499500D01*
X150082664Y-119479815D01*
X150036909Y-119427011D01*
X150026965Y-119357853D01*
X150055990Y-119294297D01*
X150114768Y-119256523D01*
X150117610Y-119255725D01*
X150163483Y-119243433D01*
X150163492Y-119243429D01*
X150377578Y-119143600D01*
X150377582Y-119143598D01*
X150461373Y-119084926D01*
X150461373Y-119084925D01*
X149870234Y-118493787D01*
X149912292Y-118482518D01*
X150037708Y-118410110D01*
X150140110Y-118307708D01*
X150212518Y-118182292D01*
X150223787Y-118140234D01*
X150814925Y-118731373D01*
X150814926Y-118731373D01*
X150873598Y-118647582D01*
X150873600Y-118647578D01*
X150973429Y-118433492D01*
X150973433Y-118433483D01*
X151034567Y-118205326D01*
X151034569Y-118205315D01*
X151055157Y-117970001D01*
X151055157Y-117969998D01*
X151034569Y-117734684D01*
X151034567Y-117734673D01*
X150973433Y-117506516D01*
X150973429Y-117506507D01*
X150873600Y-117292423D01*
X150873599Y-117292421D01*
X150814925Y-117208626D01*
X150814925Y-117208625D01*
X150223787Y-117799764D01*
X150212518Y-117757708D01*
X150140110Y-117632292D01*
X150037708Y-117529890D01*
X149912292Y-117457482D01*
X149870234Y-117446212D01*
X150461373Y-116855073D01*
X150461373Y-116855072D01*
X150377583Y-116796402D01*
X150377579Y-116796400D01*
X150163492Y-116696570D01*
X150163483Y-116696566D01*
X149935326Y-116635432D01*
X149935315Y-116635430D01*
X149700002Y-116614843D01*
X149699998Y-116614843D01*
X149464684Y-116635430D01*
X149464673Y-116635432D01*
X149236516Y-116696566D01*
X149236507Y-116696570D01*
X149022419Y-116796401D01*
X148938625Y-116855072D01*
X149529765Y-117446212D01*
X149487708Y-117457482D01*
X149362292Y-117529890D01*
X149259890Y-117632292D01*
X149187482Y-117757708D01*
X149176212Y-117799765D01*
X148585073Y-117208626D01*
X148531881Y-117284594D01*
X148477304Y-117328219D01*
X148407806Y-117335413D01*
X148345451Y-117303891D01*
X148328730Y-117284594D01*
X148198494Y-117098597D01*
X148031402Y-116931506D01*
X148031395Y-116931501D01*
X147837834Y-116795967D01*
X147837830Y-116795965D01*
X147837828Y-116795964D01*
X147623663Y-116696097D01*
X147623659Y-116696096D01*
X147623655Y-116696094D01*
X147395413Y-116634938D01*
X147395403Y-116634936D01*
X147160001Y-116614341D01*
X147159999Y-116614341D01*
X146924596Y-116634936D01*
X146924586Y-116634938D01*
X146696344Y-116696094D01*
X146696335Y-116696098D01*
X146482171Y-116795964D01*
X146482169Y-116795965D01*
X146288597Y-116931505D01*
X146121505Y-117098597D01*
X145985965Y-117292169D01*
X145985964Y-117292171D01*
X145886098Y-117506335D01*
X145886094Y-117506344D01*
X145824938Y-117734586D01*
X145824936Y-117734596D01*
X145804341Y-117969999D01*
X145804341Y-117970000D01*
X145824936Y-118205403D01*
X145824938Y-118205413D01*
X145886094Y-118433655D01*
X145886096Y-118433659D01*
X145886097Y-118433663D01*
X145908879Y-118482518D01*
X145985965Y-118647830D01*
X145985967Y-118647834D01*
X146044462Y-118731373D01*
X146121505Y-118841401D01*
X146288599Y-119008495D01*
X146385384Y-119076265D01*
X146482165Y-119144032D01*
X146482167Y-119144033D01*
X146482170Y-119144035D01*
X146696337Y-119243903D01*
X146696343Y-119243904D01*
X146696344Y-119243905D01*
X146740457Y-119255725D01*
X146800118Y-119292090D01*
X146830647Y-119354936D01*
X146822353Y-119424312D01*
X146777868Y-119478190D01*
X146711316Y-119499465D01*
X146708364Y-119499500D01*
X106289703Y-119499500D01*
X106222664Y-119479815D01*
X106176909Y-119427011D01*
X106166965Y-119357853D01*
X106195990Y-119294297D01*
X106254768Y-119256523D01*
X106257610Y-119255725D01*
X106303483Y-119243433D01*
X106303492Y-119243429D01*
X106517578Y-119143600D01*
X106517582Y-119143598D01*
X106601373Y-119084926D01*
X106601373Y-119084925D01*
X106010234Y-118493787D01*
X106052292Y-118482518D01*
X106177708Y-118410110D01*
X106280110Y-118307708D01*
X106352518Y-118182292D01*
X106363787Y-118140235D01*
X106954925Y-118731373D01*
X106954926Y-118731373D01*
X107013598Y-118647582D01*
X107013600Y-118647578D01*
X107113429Y-118433492D01*
X107113433Y-118433483D01*
X107174567Y-118205326D01*
X107174569Y-118205315D01*
X107195157Y-117970001D01*
X107195157Y-117969998D01*
X107174569Y-117734684D01*
X107174567Y-117734673D01*
X107113433Y-117506516D01*
X107113429Y-117506507D01*
X107013600Y-117292423D01*
X107013599Y-117292421D01*
X106954925Y-117208626D01*
X106954925Y-117208625D01*
X106363787Y-117799764D01*
X106352518Y-117757708D01*
X106280110Y-117632292D01*
X106177708Y-117529890D01*
X106052292Y-117457482D01*
X106010234Y-117446212D01*
X106601373Y-116855073D01*
X106601373Y-116855072D01*
X106517583Y-116796402D01*
X106517579Y-116796400D01*
X106303492Y-116696570D01*
X106303483Y-116696566D01*
X106075326Y-116635432D01*
X106075315Y-116635430D01*
X105840002Y-116614843D01*
X105839998Y-116614843D01*
X105604684Y-116635430D01*
X105604673Y-116635432D01*
X105376516Y-116696566D01*
X105376507Y-116696570D01*
X105162419Y-116796401D01*
X105078625Y-116855072D01*
X105669765Y-117446212D01*
X105627708Y-117457482D01*
X105502292Y-117529890D01*
X105399890Y-117632292D01*
X105327482Y-117757708D01*
X105316212Y-117799765D01*
X104725073Y-117208626D01*
X104671881Y-117284594D01*
X104617304Y-117328219D01*
X104547806Y-117335413D01*
X104485451Y-117303891D01*
X104468730Y-117284594D01*
X104338494Y-117098597D01*
X104171402Y-116931506D01*
X104171395Y-116931501D01*
X103977834Y-116795967D01*
X103977830Y-116795965D01*
X103977828Y-116795964D01*
X103763663Y-116696097D01*
X103763659Y-116696096D01*
X103763655Y-116696094D01*
X103535413Y-116634938D01*
X103535403Y-116634936D01*
X103300001Y-116614341D01*
X103299999Y-116614341D01*
X103064596Y-116634936D01*
X103064586Y-116634938D01*
X102836344Y-116696094D01*
X102836335Y-116696098D01*
X102622171Y-116795964D01*
X102622169Y-116795965D01*
X102428597Y-116931505D01*
X102261505Y-117098597D01*
X102125965Y-117292169D01*
X102125964Y-117292171D01*
X102026098Y-117506335D01*
X102026094Y-117506344D01*
X101964938Y-117734586D01*
X101964936Y-117734596D01*
X101944341Y-117969999D01*
X101944341Y-117970000D01*
X101964936Y-118205403D01*
X101964938Y-118205413D01*
X102026094Y-118433655D01*
X102026096Y-118433659D01*
X102026097Y-118433663D01*
X102048879Y-118482518D01*
X102125965Y-118647830D01*
X102125967Y-118647834D01*
X102184462Y-118731373D01*
X102261505Y-118841401D01*
X102428599Y-119008495D01*
X102525384Y-119076265D01*
X102622165Y-119144032D01*
X102622167Y-119144033D01*
X102622170Y-119144035D01*
X102836337Y-119243903D01*
X102836343Y-119243904D01*
X102836344Y-119243905D01*
X102880457Y-119255725D01*
X102940118Y-119292090D01*
X102970647Y-119354936D01*
X102962353Y-119424312D01*
X102917868Y-119478190D01*
X102851316Y-119499465D01*
X102848364Y-119499500D01*
X101006962Y-119499500D01*
X100993078Y-119498720D01*
X100980553Y-119497308D01*
X100902735Y-119488540D01*
X100875666Y-119482362D01*
X100796462Y-119454648D01*
X100771444Y-119442600D01*
X100700395Y-119397957D01*
X100678686Y-119380644D01*
X100619355Y-119321313D01*
X100602042Y-119299604D01*
X100598707Y-119294297D01*
X100557398Y-119228553D01*
X100545351Y-119203537D01*
X100524378Y-119143599D01*
X100517636Y-119124331D01*
X100511459Y-119097263D01*
X100501280Y-119006922D01*
X100500500Y-118993038D01*
X100500500Y-107809999D01*
X101944341Y-107809999D01*
X101944341Y-107810000D01*
X101964936Y-108045403D01*
X101964938Y-108045413D01*
X102026094Y-108273655D01*
X102026096Y-108273659D01*
X102026097Y-108273663D01*
X102030000Y-108282032D01*
X102125965Y-108487830D01*
X102125967Y-108487834D01*
X102234281Y-108642521D01*
X102261505Y-108681401D01*
X102428599Y-108848495D01*
X102525384Y-108916265D01*
X102622165Y-108984032D01*
X102622167Y-108984033D01*
X102622170Y-108984035D01*
X102836337Y-109083903D01*
X103064592Y-109145063D01*
X103252918Y-109161539D01*
X103299999Y-109165659D01*
X103300000Y-109165659D01*
X103300001Y-109165659D01*
X103339234Y-109162226D01*
X103535408Y-109145063D01*
X103763663Y-109083903D01*
X103977830Y-108984035D01*
X104171401Y-108848495D01*
X104338495Y-108681401D01*
X104468425Y-108495842D01*
X104523002Y-108452217D01*
X104592500Y-108445023D01*
X104654855Y-108476546D01*
X104671575Y-108495842D01*
X104801500Y-108681395D01*
X104801505Y-108681401D01*
X104968599Y-108848495D01*
X105065384Y-108916265D01*
X105162165Y-108984032D01*
X105162167Y-108984033D01*
X105162170Y-108984035D01*
X105376337Y-109083903D01*
X105604592Y-109145063D01*
X105792918Y-109161539D01*
X105839999Y-109165659D01*
X105840000Y-109165659D01*
X105840001Y-109165659D01*
X105879234Y-109162226D01*
X106075408Y-109145063D01*
X106303663Y-109083903D01*
X106517830Y-108984035D01*
X106711401Y-108848495D01*
X106878495Y-108681401D01*
X107014035Y-108487830D01*
X107113903Y-108273663D01*
X107175063Y-108045408D01*
X107195659Y-107810000D01*
X107195659Y-107809999D01*
X145804341Y-107809999D01*
X145804341Y-107810000D01*
X145824936Y-108045403D01*
X145824938Y-108045413D01*
X145886094Y-108273655D01*
X145886096Y-108273659D01*
X145886097Y-108273663D01*
X145890000Y-108282032D01*
X145985965Y-108487830D01*
X145985967Y-108487834D01*
X146094281Y-108642521D01*
X146121505Y-108681401D01*
X146288599Y-108848495D01*
X146385384Y-108916265D01*
X146482165Y-108984032D01*
X146482167Y-108984033D01*
X146482170Y-108984035D01*
X146696337Y-109083903D01*
X146924592Y-109145063D01*
X147112918Y-109161539D01*
X147159999Y-109165659D01*
X147160000Y-109165659D01*
X147160001Y-109165659D01*
X147199234Y-109162226D01*
X147395408Y-109145063D01*
X147623663Y-109083903D01*
X147837830Y-108984035D01*
X148031401Y-108848495D01*
X148198495Y-108681401D01*
X148328425Y-108495842D01*
X148383002Y-108452217D01*
X148452500Y-108445023D01*
X148514855Y-108476546D01*
X148531575Y-108495842D01*
X148661500Y-108681395D01*
X148661505Y-108681401D01*
X148828599Y-108848495D01*
X148925384Y-108916265D01*
X149022165Y-108984032D01*
X149022167Y-108984033D01*
X149022170Y-108984035D01*
X149236337Y-109083903D01*
X149464592Y-109145063D01*
X149652918Y-109161539D01*
X149699999Y-109165659D01*
X149700000Y-109165659D01*
X149700001Y-109165659D01*
X149739234Y-109162226D01*
X149935408Y-109145063D01*
X150163663Y-109083903D01*
X150377830Y-108984035D01*
X150571401Y-108848495D01*
X150738495Y-108681401D01*
X150874035Y-108487830D01*
X150973903Y-108273663D01*
X151035063Y-108045408D01*
X151055659Y-107810000D01*
X151035063Y-107574592D01*
X150973903Y-107346337D01*
X150874035Y-107132171D01*
X150868425Y-107124158D01*
X150738494Y-106938597D01*
X150571402Y-106771506D01*
X150571395Y-106771501D01*
X150377834Y-106635967D01*
X150377830Y-106635965D01*
X150377828Y-106635964D01*
X150163663Y-106536097D01*
X150163659Y-106536096D01*
X150163655Y-106536094D01*
X149935413Y-106474938D01*
X149935403Y-106474936D01*
X149700001Y-106454341D01*
X149699999Y-106454341D01*
X149464596Y-106474936D01*
X149464586Y-106474938D01*
X149236344Y-106536094D01*
X149236335Y-106536098D01*
X149022171Y-106635964D01*
X149022169Y-106635965D01*
X148828597Y-106771505D01*
X148661505Y-106938597D01*
X148531575Y-107124158D01*
X148476998Y-107167783D01*
X148407500Y-107174977D01*
X148345145Y-107143454D01*
X148328425Y-107124158D01*
X148198494Y-106938597D01*
X148031402Y-106771506D01*
X148031395Y-106771501D01*
X147837834Y-106635967D01*
X147837830Y-106635965D01*
X147837828Y-106635964D01*
X147623663Y-106536097D01*
X147623659Y-106536096D01*
X147623655Y-106536094D01*
X147395413Y-106474938D01*
X147395403Y-106474936D01*
X147160001Y-106454341D01*
X147159999Y-106454341D01*
X146924596Y-106474936D01*
X146924586Y-106474938D01*
X146696344Y-106536094D01*
X146696335Y-106536098D01*
X146482171Y-106635964D01*
X146482169Y-106635965D01*
X146288597Y-106771505D01*
X146121505Y-106938597D01*
X145985965Y-107132169D01*
X145985964Y-107132171D01*
X145886098Y-107346335D01*
X145886094Y-107346344D01*
X145824938Y-107574586D01*
X145824936Y-107574596D01*
X145804341Y-107809999D01*
X107195659Y-107809999D01*
X107175063Y-107574592D01*
X107113903Y-107346337D01*
X107014035Y-107132171D01*
X107008425Y-107124158D01*
X106878494Y-106938597D01*
X106711402Y-106771506D01*
X106711395Y-106771501D01*
X106517834Y-106635967D01*
X106517830Y-106635965D01*
X106517828Y-106635964D01*
X106303663Y-106536097D01*
X106303659Y-106536096D01*
X106303655Y-106536094D01*
X106075413Y-106474938D01*
X106075403Y-106474936D01*
X105840001Y-106454341D01*
X105839999Y-106454341D01*
X105604596Y-106474936D01*
X105604586Y-106474938D01*
X105376344Y-106536094D01*
X105376335Y-106536098D01*
X105162171Y-106635964D01*
X105162169Y-106635965D01*
X104968597Y-106771505D01*
X104801505Y-106938597D01*
X104671575Y-107124158D01*
X104616998Y-107167783D01*
X104547500Y-107174977D01*
X104485145Y-107143454D01*
X104468425Y-107124158D01*
X104338494Y-106938597D01*
X104171402Y-106771506D01*
X104171395Y-106771501D01*
X103977834Y-106635967D01*
X103977830Y-106635965D01*
X103977828Y-106635964D01*
X103763663Y-106536097D01*
X103763659Y-106536096D01*
X103763655Y-106536094D01*
X103535413Y-106474938D01*
X103535403Y-106474936D01*
X103300001Y-106454341D01*
X103299999Y-106454341D01*
X103064596Y-106474936D01*
X103064586Y-106474938D01*
X102836344Y-106536094D01*
X102836335Y-106536098D01*
X102622171Y-106635964D01*
X102622169Y-106635965D01*
X102428597Y-106771505D01*
X102261505Y-106938597D01*
X102125965Y-107132169D01*
X102125964Y-107132171D01*
X102026098Y-107346335D01*
X102026094Y-107346344D01*
X101964938Y-107574586D01*
X101964936Y-107574596D01*
X101944341Y-107809999D01*
X100500500Y-107809999D01*
X100500500Y-103881902D01*
X103749500Y-103881902D01*
X103749500Y-104118097D01*
X103786446Y-104351368D01*
X103859433Y-104575996D01*
X103916164Y-104687335D01*
X103966657Y-104786433D01*
X104105483Y-104977510D01*
X104272490Y-105144517D01*
X104463567Y-105283343D01*
X104538523Y-105321535D01*
X104674003Y-105390566D01*
X104674005Y-105390566D01*
X104674008Y-105390568D01*
X104776941Y-105424013D01*
X104898631Y-105463553D01*
X105131903Y-105500500D01*
X105131908Y-105500500D01*
X107868097Y-105500500D01*
X108101368Y-105463553D01*
X108132089Y-105453571D01*
X108325992Y-105390568D01*
X108536433Y-105283343D01*
X108727510Y-105144517D01*
X108772028Y-105099999D01*
X112294357Y-105099999D01*
X112294357Y-105100000D01*
X112314884Y-105321535D01*
X112314885Y-105321537D01*
X112375769Y-105535523D01*
X112375775Y-105535538D01*
X112474938Y-105734683D01*
X112474943Y-105734691D01*
X112609020Y-105912238D01*
X112773437Y-106062123D01*
X112773439Y-106062125D01*
X112962595Y-106179245D01*
X112962596Y-106179245D01*
X112962599Y-106179247D01*
X113170060Y-106259618D01*
X113388757Y-106300500D01*
X113388759Y-106300500D01*
X113611241Y-106300500D01*
X113611243Y-106300500D01*
X113829940Y-106259618D01*
X114037401Y-106179247D01*
X114226562Y-106062124D01*
X114390981Y-105912236D01*
X114525058Y-105734689D01*
X114624229Y-105535528D01*
X114630734Y-105512661D01*
X114668012Y-105453571D01*
X114731322Y-105424013D01*
X114800561Y-105433375D01*
X114853748Y-105478684D01*
X114869264Y-105512658D01*
X114875770Y-105535523D01*
X114875772Y-105535530D01*
X114875775Y-105535538D01*
X114974938Y-105734683D01*
X114974943Y-105734691D01*
X115109020Y-105912238D01*
X115273437Y-106062123D01*
X115273439Y-106062125D01*
X115462595Y-106179245D01*
X115462596Y-106179245D01*
X115462599Y-106179247D01*
X115670060Y-106259618D01*
X115888757Y-106300500D01*
X115888759Y-106300500D01*
X116111241Y-106300500D01*
X116111243Y-106300500D01*
X116329940Y-106259618D01*
X116537401Y-106179247D01*
X116726562Y-106062124D01*
X116890981Y-105912236D01*
X117025058Y-105734689D01*
X117124229Y-105535528D01*
X117130734Y-105512661D01*
X117168012Y-105453571D01*
X117231322Y-105424013D01*
X117300561Y-105433375D01*
X117353748Y-105478684D01*
X117369264Y-105512658D01*
X117375770Y-105535523D01*
X117375772Y-105535530D01*
X117375775Y-105535538D01*
X117474938Y-105734683D01*
X117474943Y-105734691D01*
X117609020Y-105912238D01*
X117773437Y-106062123D01*
X117773439Y-106062125D01*
X117962595Y-106179245D01*
X117962596Y-106179245D01*
X117962599Y-106179247D01*
X118170060Y-106259618D01*
X118388757Y-106300500D01*
X118388759Y-106300500D01*
X118611241Y-106300500D01*
X118611243Y-106300500D01*
X118829940Y-106259618D01*
X119037401Y-106179247D01*
X119226562Y-106062124D01*
X119390981Y-105912236D01*
X119525058Y-105734689D01*
X119624229Y-105535528D01*
X119685115Y-105321536D01*
X119705643Y-105100000D01*
X119685115Y-104878464D01*
X119624229Y-104664472D01*
X119580171Y-104575992D01*
X119525061Y-104465316D01*
X119525056Y-104465308D01*
X119390979Y-104287761D01*
X119226562Y-104137876D01*
X119226560Y-104137874D01*
X119037404Y-104020754D01*
X119037398Y-104020752D01*
X118829940Y-103940382D01*
X118611243Y-103899500D01*
X118388757Y-103899500D01*
X118170060Y-103940382D01*
X118038864Y-103991207D01*
X117962601Y-104020752D01*
X117962595Y-104020754D01*
X117773439Y-104137874D01*
X117773437Y-104137876D01*
X117609020Y-104287761D01*
X117474943Y-104465308D01*
X117474938Y-104465316D01*
X117375775Y-104664461D01*
X117375769Y-104664476D01*
X117369266Y-104687335D01*
X117331987Y-104746429D01*
X117268677Y-104775986D01*
X117199438Y-104766624D01*
X117146251Y-104721314D01*
X117130734Y-104687335D01*
X117124230Y-104664476D01*
X117124229Y-104664472D01*
X117080171Y-104575992D01*
X117025061Y-104465316D01*
X117025056Y-104465308D01*
X116890979Y-104287761D01*
X116726562Y-104137876D01*
X116726560Y-104137874D01*
X116537404Y-104020754D01*
X116537398Y-104020752D01*
X116329940Y-103940382D01*
X116111243Y-103899500D01*
X115888757Y-103899500D01*
X115670060Y-103940382D01*
X115538864Y-103991207D01*
X115462601Y-104020752D01*
X115462595Y-104020754D01*
X115273439Y-104137874D01*
X115273437Y-104137876D01*
X115109020Y-104287761D01*
X114974943Y-104465308D01*
X114974938Y-104465316D01*
X114875775Y-104664461D01*
X114875769Y-104664476D01*
X114869266Y-104687335D01*
X114831987Y-104746429D01*
X114768677Y-104775986D01*
X114699438Y-104766624D01*
X114646251Y-104721314D01*
X114630734Y-104687335D01*
X114624230Y-104664476D01*
X114624229Y-104664472D01*
X114580171Y-104575992D01*
X114525061Y-104465316D01*
X114525056Y-104465308D01*
X114390979Y-104287761D01*
X114226562Y-104137876D01*
X114226560Y-104137874D01*
X114037404Y-104020754D01*
X114037398Y-104020752D01*
X113829940Y-103940382D01*
X113611243Y-103899500D01*
X113388757Y-103899500D01*
X113170060Y-103940382D01*
X113038864Y-103991207D01*
X112962601Y-104020752D01*
X112962595Y-104020754D01*
X112773439Y-104137874D01*
X112773437Y-104137876D01*
X112609020Y-104287761D01*
X112474943Y-104465308D01*
X112474938Y-104465316D01*
X112375775Y-104664461D01*
X112375769Y-104664476D01*
X112314885Y-104878462D01*
X112314884Y-104878464D01*
X112294357Y-105099999D01*
X108772028Y-105099999D01*
X108894517Y-104977510D01*
X109033343Y-104786433D01*
X109140568Y-104575992D01*
X109213553Y-104351368D01*
X109247367Y-104137876D01*
X109250500Y-104118097D01*
X109250500Y-103881902D01*
X143749500Y-103881902D01*
X143749500Y-104118097D01*
X143786446Y-104351368D01*
X143859433Y-104575996D01*
X143916164Y-104687335D01*
X143966657Y-104786433D01*
X144105483Y-104977510D01*
X144272490Y-105144517D01*
X144463567Y-105283343D01*
X144538523Y-105321535D01*
X144674003Y-105390566D01*
X144674005Y-105390566D01*
X144674008Y-105390568D01*
X144776941Y-105424013D01*
X144898631Y-105463553D01*
X145131903Y-105500500D01*
X145131908Y-105500500D01*
X147868097Y-105500500D01*
X148101368Y-105463553D01*
X148132089Y-105453571D01*
X148325992Y-105390568D01*
X148536433Y-105283343D01*
X148727510Y-105144517D01*
X148894517Y-104977510D01*
X149033343Y-104786433D01*
X149140568Y-104575992D01*
X149213553Y-104351368D01*
X149247367Y-104137876D01*
X149250500Y-104118097D01*
X149250500Y-103881902D01*
X149213553Y-103648631D01*
X149140566Y-103424003D01*
X149033342Y-103213566D01*
X149008332Y-103179143D01*
X148894517Y-103022490D01*
X148727510Y-102855483D01*
X148536433Y-102716657D01*
X148505316Y-102700802D01*
X148325996Y-102609433D01*
X148101368Y-102536446D01*
X147868097Y-102499500D01*
X147868092Y-102499500D01*
X145131908Y-102499500D01*
X145131903Y-102499500D01*
X144898631Y-102536446D01*
X144674003Y-102609433D01*
X144463566Y-102716657D01*
X144354550Y-102795862D01*
X144272490Y-102855483D01*
X144272488Y-102855485D01*
X144272487Y-102855485D01*
X144105485Y-103022487D01*
X144105485Y-103022488D01*
X144105483Y-103022490D01*
X144078509Y-103059617D01*
X143966657Y-103213566D01*
X143859433Y-103424003D01*
X143786446Y-103648631D01*
X143749500Y-103881902D01*
X109250500Y-103881902D01*
X109213553Y-103648631D01*
X109140566Y-103424003D01*
X109033342Y-103213566D01*
X109008332Y-103179143D01*
X108894517Y-103022490D01*
X108727510Y-102855483D01*
X108536433Y-102716657D01*
X108505316Y-102700802D01*
X108325996Y-102609433D01*
X108101368Y-102536446D01*
X107868097Y-102499500D01*
X107868092Y-102499500D01*
X105131908Y-102499500D01*
X105131903Y-102499500D01*
X104898631Y-102536446D01*
X104674003Y-102609433D01*
X104463566Y-102716657D01*
X104354550Y-102795862D01*
X104272490Y-102855483D01*
X104272488Y-102855485D01*
X104272487Y-102855485D01*
X104105485Y-103022487D01*
X104105485Y-103022488D01*
X104105483Y-103022490D01*
X104078509Y-103059617D01*
X103966657Y-103213566D01*
X103859433Y-103424003D01*
X103786446Y-103648631D01*
X103749500Y-103881902D01*
X100500500Y-103881902D01*
X100500500Y-103246182D01*
X100520185Y-103179143D01*
X100572989Y-103133388D01*
X100642147Y-103123444D01*
X100705703Y-103152469D01*
X100712181Y-103158501D01*
X100822813Y-103269133D01*
X101013828Y-103407914D01*
X101224195Y-103515102D01*
X101448744Y-103588063D01*
X101448750Y-103588065D01*
X101550000Y-103604101D01*
X101550000Y-102433012D01*
X101607007Y-102465925D01*
X101734174Y-102500000D01*
X101865826Y-102500000D01*
X101992993Y-102465925D01*
X102050000Y-102433012D01*
X102050000Y-103604100D01*
X102151249Y-103588065D01*
X102151255Y-103588063D01*
X102375804Y-103515102D01*
X102586171Y-103407914D01*
X102777186Y-103269133D01*
X102944133Y-103102186D01*
X103082914Y-102911171D01*
X103190102Y-102700802D01*
X103263065Y-102476247D01*
X103300000Y-102243052D01*
X103300000Y-101899999D01*
X112294357Y-101899999D01*
X112294357Y-101900000D01*
X112314884Y-102121535D01*
X112314885Y-102121537D01*
X112375769Y-102335523D01*
X112375775Y-102335538D01*
X112474938Y-102534683D01*
X112474943Y-102534691D01*
X112609020Y-102712238D01*
X112773437Y-102862123D01*
X112773439Y-102862125D01*
X112962595Y-102979245D01*
X112962596Y-102979245D01*
X112962599Y-102979247D01*
X113170060Y-103059618D01*
X113388757Y-103100500D01*
X113388759Y-103100500D01*
X113611241Y-103100500D01*
X113611243Y-103100500D01*
X113829940Y-103059618D01*
X114037401Y-102979247D01*
X114226562Y-102862124D01*
X114366282Y-102734751D01*
X114390979Y-102712238D01*
X114399616Y-102700802D01*
X114525058Y-102534689D01*
X114624229Y-102335528D01*
X114630734Y-102312661D01*
X114668012Y-102253571D01*
X114731322Y-102224013D01*
X114800561Y-102233375D01*
X114853748Y-102278684D01*
X114869264Y-102312658D01*
X114875770Y-102335523D01*
X114875772Y-102335530D01*
X114875775Y-102335538D01*
X114974938Y-102534683D01*
X114974943Y-102534691D01*
X115109020Y-102712238D01*
X115273437Y-102862123D01*
X115273439Y-102862125D01*
X115462595Y-102979245D01*
X115462596Y-102979245D01*
X115462599Y-102979247D01*
X115670060Y-103059618D01*
X115888757Y-103100500D01*
X115888759Y-103100500D01*
X116111241Y-103100500D01*
X116111243Y-103100500D01*
X116329940Y-103059618D01*
X116537401Y-102979247D01*
X116726562Y-102862124D01*
X116866282Y-102734751D01*
X116890979Y-102712238D01*
X116899616Y-102700802D01*
X117025058Y-102534689D01*
X117124229Y-102335528D01*
X117130734Y-102312661D01*
X117168012Y-102253571D01*
X117231322Y-102224013D01*
X117300561Y-102233375D01*
X117353748Y-102278684D01*
X117369264Y-102312658D01*
X117375770Y-102335523D01*
X117375772Y-102335530D01*
X117375775Y-102335538D01*
X117474938Y-102534683D01*
X117474943Y-102534691D01*
X117609020Y-102712238D01*
X117773437Y-102862123D01*
X117773439Y-102862125D01*
X117962595Y-102979245D01*
X117962596Y-102979245D01*
X117962599Y-102979247D01*
X118170060Y-103059618D01*
X118388757Y-103100500D01*
X118388759Y-103100500D01*
X118611241Y-103100500D01*
X118611243Y-103100500D01*
X118829940Y-103059618D01*
X119037401Y-102979247D01*
X119226562Y-102862124D01*
X119366282Y-102734751D01*
X119390979Y-102712238D01*
X119399616Y-102700802D01*
X119525058Y-102534689D01*
X119624229Y-102335528D01*
X119685115Y-102121536D01*
X119705643Y-101900000D01*
X119685115Y-101678464D01*
X119624229Y-101464472D01*
X119624224Y-101464461D01*
X119525061Y-101265316D01*
X119525056Y-101265308D01*
X119390979Y-101087761D01*
X119226562Y-100937876D01*
X119226560Y-100937874D01*
X119037404Y-100820754D01*
X119037398Y-100820752D01*
X118829940Y-100740382D01*
X118611243Y-100699500D01*
X118388757Y-100699500D01*
X118170060Y-100740382D01*
X118038864Y-100791207D01*
X117962601Y-100820752D01*
X117962595Y-100820754D01*
X117773439Y-100937874D01*
X117773437Y-100937876D01*
X117609020Y-101087761D01*
X117474943Y-101265308D01*
X117474938Y-101265316D01*
X117375775Y-101464461D01*
X117375769Y-101464476D01*
X117369266Y-101487335D01*
X117331987Y-101546429D01*
X117268677Y-101575986D01*
X117199438Y-101566624D01*
X117146251Y-101521314D01*
X117130734Y-101487335D01*
X117124230Y-101464476D01*
X117124229Y-101464472D01*
X117124224Y-101464461D01*
X117025061Y-101265316D01*
X117025056Y-101265308D01*
X116890979Y-101087761D01*
X116726562Y-100937876D01*
X116726560Y-100937874D01*
X116537404Y-100820754D01*
X116537398Y-100820752D01*
X116329940Y-100740382D01*
X116111243Y-100699500D01*
X115888757Y-100699500D01*
X115670060Y-100740382D01*
X115538864Y-100791207D01*
X115462601Y-100820752D01*
X115462595Y-100820754D01*
X115273439Y-100937874D01*
X115273437Y-100937876D01*
X115109020Y-101087761D01*
X114974943Y-101265308D01*
X114974938Y-101265316D01*
X114875775Y-101464461D01*
X114875769Y-101464476D01*
X114869266Y-101487335D01*
X114831987Y-101546429D01*
X114768677Y-101575986D01*
X114699438Y-101566624D01*
X114646251Y-101521314D01*
X114630734Y-101487335D01*
X114624230Y-101464476D01*
X114624229Y-101464472D01*
X114624224Y-101464461D01*
X114525061Y-101265316D01*
X114525056Y-101265308D01*
X114390979Y-101087761D01*
X114226562Y-100937876D01*
X114226560Y-100937874D01*
X114037404Y-100820754D01*
X114037398Y-100820752D01*
X113829940Y-100740382D01*
X113611243Y-100699500D01*
X113388757Y-100699500D01*
X113170060Y-100740382D01*
X113038864Y-100791207D01*
X112962601Y-100820752D01*
X112962595Y-100820754D01*
X112773439Y-100937874D01*
X112773437Y-100937876D01*
X112609020Y-101087761D01*
X112474943Y-101265308D01*
X112474938Y-101265316D01*
X112375775Y-101464461D01*
X112375769Y-101464476D01*
X112314885Y-101678462D01*
X112314884Y-101678464D01*
X112294357Y-101899999D01*
X103300000Y-101899999D01*
X103300000Y-101250000D01*
X102300000Y-101250000D01*
X102300000Y-100750000D01*
X103300000Y-100750000D01*
X103300000Y-99756947D01*
X140300000Y-99756947D01*
X140300000Y-100750000D01*
X141300000Y-100750000D01*
X141300000Y-101250000D01*
X140300000Y-101250000D01*
X140300000Y-102243052D01*
X140336934Y-102476247D01*
X140409897Y-102700802D01*
X140517085Y-102911171D01*
X140655866Y-103102186D01*
X140822813Y-103269133D01*
X141013828Y-103407914D01*
X141224195Y-103515102D01*
X141448744Y-103588063D01*
X141448750Y-103588065D01*
X141550000Y-103604101D01*
X141550000Y-102433012D01*
X141607007Y-102465925D01*
X141734174Y-102500000D01*
X141865826Y-102500000D01*
X141992993Y-102465925D01*
X142050000Y-102433012D01*
X142050000Y-103604100D01*
X142151249Y-103588065D01*
X142151255Y-103588063D01*
X142375804Y-103515102D01*
X142586171Y-103407914D01*
X142777186Y-103269133D01*
X142944133Y-103102186D01*
X143082914Y-102911171D01*
X143190102Y-102700802D01*
X143263065Y-102476247D01*
X143300000Y-102243052D01*
X143300000Y-101250000D01*
X142300000Y-101250000D01*
X142300000Y-100750000D01*
X143300000Y-100750000D01*
X143300000Y-99756947D01*
X143263065Y-99523752D01*
X143190102Y-99299197D01*
X143082914Y-99088828D01*
X142944133Y-98897813D01*
X142777186Y-98730866D01*
X142586171Y-98592085D01*
X142375802Y-98484897D01*
X142151247Y-98411934D01*
X142050000Y-98395897D01*
X142050000Y-99566988D01*
X141992993Y-99534075D01*
X141865826Y-99500000D01*
X141734174Y-99500000D01*
X141607007Y-99534075D01*
X141550000Y-99566988D01*
X141550000Y-98395897D01*
X141448752Y-98411934D01*
X141224197Y-98484897D01*
X141013828Y-98592085D01*
X140822813Y-98730866D01*
X140655866Y-98897813D01*
X140517085Y-99088828D01*
X140409897Y-99299197D01*
X140336934Y-99523752D01*
X140300000Y-99756947D01*
X103300000Y-99756947D01*
X103263065Y-99523752D01*
X103190102Y-99299197D01*
X103082914Y-99088828D01*
X102944133Y-98897813D01*
X102777186Y-98730866D01*
X102586171Y-98592085D01*
X102375802Y-98484897D01*
X102151247Y-98411934D01*
X102050000Y-98395897D01*
X102050000Y-99566988D01*
X101992993Y-99534075D01*
X101865826Y-99500000D01*
X101734174Y-99500000D01*
X101607007Y-99534075D01*
X101550000Y-99566988D01*
X101550000Y-98395897D01*
X101448752Y-98411934D01*
X101224197Y-98484897D01*
X101013828Y-98592085D01*
X100822813Y-98730866D01*
X100712181Y-98841499D01*
X100650858Y-98874984D01*
X100581166Y-98870000D01*
X100525233Y-98828128D01*
X100500816Y-98762664D01*
X100500500Y-98753818D01*
X100500500Y-97750000D01*
X103770898Y-97750000D01*
X104816988Y-97750000D01*
X104784075Y-97807007D01*
X104750000Y-97934174D01*
X104750000Y-98065826D01*
X104784075Y-98192993D01*
X104816988Y-98250000D01*
X103770898Y-98250000D01*
X103786934Y-98351247D01*
X103859897Y-98575802D01*
X103967085Y-98786171D01*
X104105866Y-98977186D01*
X104272813Y-99144133D01*
X104463828Y-99282914D01*
X104674197Y-99390102D01*
X104898752Y-99463065D01*
X104898751Y-99463065D01*
X105131948Y-99500000D01*
X106250000Y-99500000D01*
X106250000Y-98500000D01*
X106750000Y-98500000D01*
X106750000Y-99500000D01*
X107868052Y-99500000D01*
X108101247Y-99463065D01*
X108325802Y-99390102D01*
X108536171Y-99282914D01*
X108727186Y-99144133D01*
X108894133Y-98977186D01*
X109032914Y-98786171D01*
X109140102Y-98575802D01*
X109213065Y-98351247D01*
X109229102Y-98250000D01*
X108183012Y-98250000D01*
X108215925Y-98192993D01*
X108250000Y-98065826D01*
X108250000Y-97934174D01*
X108215925Y-97807007D01*
X108183012Y-97750000D01*
X109229102Y-97750000D01*
X109213065Y-97648752D01*
X109140102Y-97424197D01*
X109032914Y-97213828D01*
X108894133Y-97022813D01*
X108727186Y-96855866D01*
X108536171Y-96717085D01*
X108325802Y-96609897D01*
X108101247Y-96536934D01*
X108101248Y-96536934D01*
X107868052Y-96500000D01*
X106750000Y-96500000D01*
X106750000Y-97500000D01*
X106250000Y-97500000D01*
X106250000Y-96500000D01*
X105131948Y-96500000D01*
X104898752Y-96536934D01*
X104674197Y-96609897D01*
X104463828Y-96717085D01*
X104272813Y-96855866D01*
X104105866Y-97022813D01*
X103967085Y-97213828D01*
X103859897Y-97424197D01*
X103786934Y-97648752D01*
X103770898Y-97750000D01*
X100500500Y-97750000D01*
X100500500Y-95249993D01*
X110994700Y-95249993D01*
X110994700Y-95250006D01*
X111013864Y-95481297D01*
X111013866Y-95481308D01*
X111070842Y-95706300D01*
X111164075Y-95918848D01*
X111291016Y-96113147D01*
X111291019Y-96113151D01*
X111291021Y-96113153D01*
X111448216Y-96283913D01*
X111448219Y-96283915D01*
X111448222Y-96283918D01*
X111631365Y-96426464D01*
X111631371Y-96426468D01*
X111631374Y-96426470D01*
X111835497Y-96536936D01*
X111906275Y-96561234D01*
X112055015Y-96612297D01*
X112055017Y-96612297D01*
X112055019Y-96612298D01*
X112283951Y-96650500D01*
X112283952Y-96650500D01*
X112516048Y-96650500D01*
X112516049Y-96650500D01*
X112744981Y-96612298D01*
X112964503Y-96536936D01*
X112964510Y-96536932D01*
X112964513Y-96536931D01*
X113098103Y-96464635D01*
X113116704Y-96454568D01*
X113185031Y-96439973D01*
X113250403Y-96464635D01*
X113292065Y-96520726D01*
X113299192Y-96552182D01*
X113314884Y-96721535D01*
X113314885Y-96721537D01*
X113375769Y-96935523D01*
X113375775Y-96935538D01*
X113474938Y-97134683D01*
X113474943Y-97134691D01*
X113609020Y-97312238D01*
X113773437Y-97462123D01*
X113773439Y-97462125D01*
X113962595Y-97579245D01*
X113962596Y-97579245D01*
X113962599Y-97579247D01*
X114170060Y-97659618D01*
X114388757Y-97700500D01*
X114388759Y-97700500D01*
X114611241Y-97700500D01*
X114611243Y-97700500D01*
X114829940Y-97659618D01*
X115037401Y-97579247D01*
X115226562Y-97462124D01*
X115390981Y-97312236D01*
X115401046Y-97298906D01*
X115457153Y-97257271D01*
X115526865Y-97252578D01*
X115588047Y-97286319D01*
X115598948Y-97298900D01*
X115609019Y-97312236D01*
X115609022Y-97312239D01*
X115609025Y-97312242D01*
X115773437Y-97462123D01*
X115773439Y-97462125D01*
X115962595Y-97579245D01*
X115962596Y-97579245D01*
X115962599Y-97579247D01*
X116170060Y-97659618D01*
X116388757Y-97700500D01*
X116388759Y-97700500D01*
X116611241Y-97700500D01*
X116611243Y-97700500D01*
X116829940Y-97659618D01*
X117037401Y-97579247D01*
X117226562Y-97462124D01*
X117390981Y-97312236D01*
X117401046Y-97298906D01*
X117457153Y-97257271D01*
X117526865Y-97252578D01*
X117588047Y-97286319D01*
X117598948Y-97298900D01*
X117609019Y-97312236D01*
X117609022Y-97312239D01*
X117609025Y-97312242D01*
X117773437Y-97462123D01*
X117773439Y-97462125D01*
X117962595Y-97579245D01*
X117962596Y-97579245D01*
X117962599Y-97579247D01*
X118170060Y-97659618D01*
X118388757Y-97700500D01*
X118388759Y-97700500D01*
X118611244Y-97700500D01*
X118611244Y-97700499D01*
X118659851Y-97691413D01*
X118729366Y-97698442D01*
X118770319Y-97725620D01*
X119854242Y-98809543D01*
X119885406Y-98866616D01*
X119886084Y-98866396D01*
X119887256Y-98870003D01*
X119887727Y-98870866D01*
X119887851Y-98871440D01*
X119888093Y-98872580D01*
X119941712Y-99037608D01*
X120028477Y-99187887D01*
X120028476Y-99187887D01*
X120114039Y-99282914D01*
X120144590Y-99316845D01*
X120245419Y-99390102D01*
X120284976Y-99418842D01*
X120443495Y-99489420D01*
X120443501Y-99489422D01*
X120613236Y-99525500D01*
X120613237Y-99525500D01*
X120786762Y-99525500D01*
X120786764Y-99525500D01*
X120956499Y-99489422D01*
X120956501Y-99489420D01*
X120956504Y-99489420D01*
X121015698Y-99463065D01*
X121115024Y-99418842D01*
X121255410Y-99316845D01*
X121371522Y-99187889D01*
X121458286Y-99037611D01*
X121511908Y-98872576D01*
X121530047Y-98700000D01*
X121511908Y-98527424D01*
X121474384Y-98411934D01*
X121458287Y-98362391D01*
X121393397Y-98250000D01*
X121371522Y-98212111D01*
X121255410Y-98083155D01*
X121115024Y-97981158D01*
X121115023Y-97981157D01*
X120956503Y-97910579D01*
X120956499Y-97910578D01*
X120877343Y-97893752D01*
X120815861Y-97860559D01*
X120815444Y-97860143D01*
X120705301Y-97750000D01*
X143770898Y-97750000D01*
X144816988Y-97750000D01*
X144784075Y-97807007D01*
X144750000Y-97934174D01*
X144750000Y-98065826D01*
X144784075Y-98192993D01*
X144816988Y-98250000D01*
X143770898Y-98250000D01*
X143786934Y-98351247D01*
X143859897Y-98575802D01*
X143967085Y-98786171D01*
X144105866Y-98977186D01*
X144272813Y-99144133D01*
X144463828Y-99282914D01*
X144674197Y-99390102D01*
X144898752Y-99463065D01*
X144898751Y-99463065D01*
X145131948Y-99500000D01*
X146250000Y-99500000D01*
X146250000Y-98500000D01*
X146750000Y-98500000D01*
X146750000Y-99500000D01*
X147868052Y-99500000D01*
X148101247Y-99463065D01*
X148325802Y-99390102D01*
X148536171Y-99282914D01*
X148727186Y-99144133D01*
X148894133Y-98977186D01*
X149032914Y-98786171D01*
X149140102Y-98575802D01*
X149213065Y-98351247D01*
X149229102Y-98250000D01*
X148183012Y-98250000D01*
X148215925Y-98192993D01*
X148250000Y-98065826D01*
X148250000Y-97934174D01*
X148215925Y-97807007D01*
X148183012Y-97750000D01*
X149229102Y-97750000D01*
X149213065Y-97648752D01*
X149140102Y-97424197D01*
X149032914Y-97213828D01*
X148894133Y-97022813D01*
X148727186Y-96855866D01*
X148536171Y-96717085D01*
X148325802Y-96609897D01*
X148101247Y-96536934D01*
X148101248Y-96536934D01*
X147868052Y-96500000D01*
X146750000Y-96500000D01*
X146750000Y-97500000D01*
X146250000Y-97500000D01*
X146250000Y-96500000D01*
X145131948Y-96500000D01*
X144898752Y-96536934D01*
X144674197Y-96609897D01*
X144463828Y-96717085D01*
X144272813Y-96855866D01*
X144105866Y-97022813D01*
X143967085Y-97213828D01*
X143859897Y-97424197D01*
X143786934Y-97648752D01*
X143770898Y-97750000D01*
X120705301Y-97750000D01*
X119725573Y-96770272D01*
X119692088Y-96708949D01*
X119689783Y-96671153D01*
X119696192Y-96601987D01*
X119699888Y-96581339D01*
X119700500Y-96579057D01*
X119700500Y-96561234D01*
X119701029Y-96549793D01*
X119705643Y-96500000D01*
X119705643Y-96499999D01*
X119701029Y-96450205D01*
X119700500Y-96438764D01*
X119700500Y-96420941D01*
X119699889Y-96418662D01*
X119696191Y-96398002D01*
X119685115Y-96278464D01*
X119624229Y-96064472D01*
X119551717Y-95918849D01*
X119525061Y-95865316D01*
X119525056Y-95865308D01*
X119390979Y-95687761D01*
X119226562Y-95537876D01*
X119226560Y-95537874D01*
X119037404Y-95420754D01*
X119037395Y-95420750D01*
X118965560Y-95392921D01*
X118895101Y-95365625D01*
X118839701Y-95323054D01*
X118816110Y-95257288D01*
X118831821Y-95189207D01*
X118881844Y-95140428D01*
X118895093Y-95134377D01*
X119037401Y-95079247D01*
X119226562Y-94962124D01*
X119366282Y-94834751D01*
X119390979Y-94812238D01*
X119390982Y-94812235D01*
X119525058Y-94634689D01*
X119624229Y-94435528D01*
X119685115Y-94221536D01*
X119705643Y-94000000D01*
X119705643Y-93999999D01*
X121294357Y-93999999D01*
X121294357Y-94000000D01*
X121314884Y-94221535D01*
X121314885Y-94221537D01*
X121375769Y-94435523D01*
X121375775Y-94435538D01*
X121474938Y-94634683D01*
X121474943Y-94634691D01*
X121609020Y-94812238D01*
X121773437Y-94962123D01*
X121773439Y-94962125D01*
X121962595Y-95079245D01*
X121962596Y-95079245D01*
X121962599Y-95079247D01*
X122104898Y-95134374D01*
X122160298Y-95176946D01*
X122183889Y-95242713D01*
X122168178Y-95310793D01*
X122118154Y-95359572D01*
X122104906Y-95365622D01*
X121998693Y-95406769D01*
X121962601Y-95420752D01*
X121962595Y-95420754D01*
X121773439Y-95537874D01*
X121773437Y-95537876D01*
X121609020Y-95687761D01*
X121474943Y-95865308D01*
X121474938Y-95865316D01*
X121375775Y-96064461D01*
X121375769Y-96064476D01*
X121314885Y-96278462D01*
X121314884Y-96278464D01*
X121294357Y-96499999D01*
X121294357Y-96500000D01*
X121314884Y-96721535D01*
X121314885Y-96721537D01*
X121375769Y-96935523D01*
X121375775Y-96935538D01*
X121474938Y-97134683D01*
X121474943Y-97134691D01*
X121609020Y-97312238D01*
X121773437Y-97462123D01*
X121773439Y-97462125D01*
X121962595Y-97579245D01*
X121962596Y-97579245D01*
X121962599Y-97579247D01*
X122170060Y-97659618D01*
X122388757Y-97700500D01*
X122388759Y-97700500D01*
X122611241Y-97700500D01*
X122611243Y-97700500D01*
X122829940Y-97659618D01*
X123037401Y-97579247D01*
X123226562Y-97462124D01*
X123366282Y-97334751D01*
X123390979Y-97312238D01*
X123390982Y-97312235D01*
X123525058Y-97134689D01*
X123624229Y-96935528D01*
X123685115Y-96721536D01*
X123700807Y-96552179D01*
X123726593Y-96487245D01*
X123783393Y-96446557D01*
X123853174Y-96443037D01*
X123883290Y-96454566D01*
X124035497Y-96536936D01*
X124106275Y-96561234D01*
X124255015Y-96612297D01*
X124255017Y-96612297D01*
X124255019Y-96612298D01*
X124483951Y-96650500D01*
X124483952Y-96650500D01*
X124716048Y-96650500D01*
X124716049Y-96650500D01*
X124944981Y-96612298D01*
X125164503Y-96536936D01*
X125368626Y-96426470D01*
X125551784Y-96283913D01*
X125708979Y-96113153D01*
X125835924Y-95918849D01*
X125929157Y-95706300D01*
X125986134Y-95481305D01*
X125986135Y-95481297D01*
X126005300Y-95250006D01*
X126005300Y-95249993D01*
X126994700Y-95249993D01*
X126994700Y-95250006D01*
X127013864Y-95481297D01*
X127013866Y-95481308D01*
X127070842Y-95706300D01*
X127164075Y-95918848D01*
X127291016Y-96113147D01*
X127291019Y-96113151D01*
X127291021Y-96113153D01*
X127448216Y-96283913D01*
X127448219Y-96283915D01*
X127448222Y-96283918D01*
X127631365Y-96426464D01*
X127631371Y-96426468D01*
X127631374Y-96426470D01*
X127835497Y-96536936D01*
X127906275Y-96561234D01*
X128055015Y-96612297D01*
X128055017Y-96612297D01*
X128055019Y-96612298D01*
X128283951Y-96650500D01*
X128283952Y-96650500D01*
X128516048Y-96650500D01*
X128516049Y-96650500D01*
X128744981Y-96612298D01*
X128964503Y-96536936D01*
X128964510Y-96536932D01*
X128964513Y-96536931D01*
X129098103Y-96464635D01*
X129116704Y-96454568D01*
X129185031Y-96439973D01*
X129250403Y-96464635D01*
X129292065Y-96520726D01*
X129299192Y-96552182D01*
X129314884Y-96721535D01*
X129314885Y-96721537D01*
X129375769Y-96935523D01*
X129375775Y-96935538D01*
X129474938Y-97134683D01*
X129474943Y-97134691D01*
X129609020Y-97312238D01*
X129773437Y-97462123D01*
X129773439Y-97462125D01*
X129962595Y-97579245D01*
X129962596Y-97579245D01*
X129962599Y-97579247D01*
X130170060Y-97659618D01*
X130388757Y-97700500D01*
X130388759Y-97700500D01*
X130611241Y-97700500D01*
X130611243Y-97700500D01*
X130829940Y-97659618D01*
X131037401Y-97579247D01*
X131226562Y-97462124D01*
X131390981Y-97312236D01*
X131401046Y-97298906D01*
X131457153Y-97257271D01*
X131526865Y-97252578D01*
X131588047Y-97286319D01*
X131598948Y-97298900D01*
X131609019Y-97312236D01*
X131609022Y-97312239D01*
X131609025Y-97312242D01*
X131773437Y-97462123D01*
X131773439Y-97462125D01*
X131962595Y-97579245D01*
X131962596Y-97579245D01*
X131962599Y-97579247D01*
X132170060Y-97659618D01*
X132388757Y-97700500D01*
X132388759Y-97700500D01*
X132611241Y-97700500D01*
X132611243Y-97700500D01*
X132829940Y-97659618D01*
X133037401Y-97579247D01*
X133226562Y-97462124D01*
X133390981Y-97312236D01*
X133401046Y-97298906D01*
X133457153Y-97257271D01*
X133526865Y-97252578D01*
X133588047Y-97286319D01*
X133598948Y-97298900D01*
X133609019Y-97312236D01*
X133609022Y-97312239D01*
X133609025Y-97312242D01*
X133773437Y-97462123D01*
X133773439Y-97462125D01*
X133962595Y-97579245D01*
X133962596Y-97579245D01*
X133962599Y-97579247D01*
X134170060Y-97659618D01*
X134388757Y-97700500D01*
X134388759Y-97700500D01*
X134611241Y-97700500D01*
X134611243Y-97700500D01*
X134829940Y-97659618D01*
X135037401Y-97579247D01*
X135226562Y-97462124D01*
X135366282Y-97334751D01*
X135390979Y-97312238D01*
X135390982Y-97312235D01*
X135525058Y-97134689D01*
X135624229Y-96935528D01*
X135685115Y-96721536D01*
X135705643Y-96500000D01*
X135685115Y-96278464D01*
X135624229Y-96064472D01*
X135551717Y-95918849D01*
X135525061Y-95865316D01*
X135525056Y-95865308D01*
X135390979Y-95687761D01*
X135226562Y-95537876D01*
X135226560Y-95537874D01*
X135037404Y-95420754D01*
X135037395Y-95420750D01*
X134965560Y-95392921D01*
X134895101Y-95365625D01*
X134839701Y-95323054D01*
X134816110Y-95257288D01*
X134831821Y-95189207D01*
X134881844Y-95140428D01*
X134895093Y-95134377D01*
X135037401Y-95079247D01*
X135226562Y-94962124D01*
X135366282Y-94834751D01*
X135390979Y-94812238D01*
X135390982Y-94812235D01*
X135525058Y-94634689D01*
X135624229Y-94435528D01*
X135685115Y-94221536D01*
X135705643Y-94000000D01*
X135705643Y-93999999D01*
X137294357Y-93999999D01*
X137294357Y-94000000D01*
X137314884Y-94221535D01*
X137314885Y-94221537D01*
X137375769Y-94435523D01*
X137375775Y-94435538D01*
X137474938Y-94634683D01*
X137474943Y-94634691D01*
X137609020Y-94812238D01*
X137773437Y-94962123D01*
X137773439Y-94962125D01*
X137962595Y-95079245D01*
X137962596Y-95079245D01*
X137962599Y-95079247D01*
X138104898Y-95134374D01*
X138160298Y-95176946D01*
X138183889Y-95242713D01*
X138168178Y-95310793D01*
X138118154Y-95359572D01*
X138104906Y-95365622D01*
X137998693Y-95406769D01*
X137962601Y-95420752D01*
X137962595Y-95420754D01*
X137773439Y-95537874D01*
X137773437Y-95537876D01*
X137609020Y-95687761D01*
X137474943Y-95865308D01*
X137474938Y-95865316D01*
X137375775Y-96064461D01*
X137375769Y-96064476D01*
X137314885Y-96278462D01*
X137314884Y-96278464D01*
X137294357Y-96499999D01*
X137294357Y-96500000D01*
X137314884Y-96721535D01*
X137314885Y-96721537D01*
X137375769Y-96935523D01*
X137375775Y-96935538D01*
X137474938Y-97134683D01*
X137474943Y-97134691D01*
X137609020Y-97312238D01*
X137773437Y-97462123D01*
X137773439Y-97462125D01*
X137962595Y-97579245D01*
X137962596Y-97579245D01*
X137962599Y-97579247D01*
X138170060Y-97659618D01*
X138388757Y-97700500D01*
X138388759Y-97700500D01*
X138611241Y-97700500D01*
X138611243Y-97700500D01*
X138829940Y-97659618D01*
X139037401Y-97579247D01*
X139226562Y-97462124D01*
X139366282Y-97334751D01*
X139390979Y-97312238D01*
X139390982Y-97312235D01*
X139525058Y-97134689D01*
X139624229Y-96935528D01*
X139685115Y-96721536D01*
X139700807Y-96552179D01*
X139726593Y-96487245D01*
X139783393Y-96446557D01*
X139853174Y-96443037D01*
X139883290Y-96454566D01*
X140035497Y-96536936D01*
X140106275Y-96561234D01*
X140255015Y-96612297D01*
X140255017Y-96612297D01*
X140255019Y-96612298D01*
X140483951Y-96650500D01*
X140483952Y-96650500D01*
X140716048Y-96650500D01*
X140716049Y-96650500D01*
X140944981Y-96612298D01*
X141164503Y-96536936D01*
X141368626Y-96426470D01*
X141551784Y-96283913D01*
X141708979Y-96113153D01*
X141835924Y-95918849D01*
X141929157Y-95706300D01*
X141986134Y-95481305D01*
X141986135Y-95481297D01*
X142005300Y-95250006D01*
X142005300Y-95249993D01*
X141986135Y-95018702D01*
X141986133Y-95018691D01*
X141929157Y-94793699D01*
X141835924Y-94581151D01*
X141708983Y-94386852D01*
X141708980Y-94386849D01*
X141708979Y-94386847D01*
X141551784Y-94216087D01*
X141551779Y-94216083D01*
X141551777Y-94216081D01*
X141368634Y-94073535D01*
X141368628Y-94073531D01*
X141164504Y-93963064D01*
X141164495Y-93963061D01*
X140944984Y-93887702D01*
X140773282Y-93859050D01*
X140716049Y-93849500D01*
X140483951Y-93849500D01*
X140438164Y-93857140D01*
X140255015Y-93887702D01*
X140035504Y-93963061D01*
X140035490Y-93963067D01*
X139883295Y-94045431D01*
X139814967Y-94060026D01*
X139749595Y-94035363D01*
X139707934Y-93979272D01*
X139700808Y-93947821D01*
X139685115Y-93778464D01*
X139624229Y-93564472D01*
X139624224Y-93564461D01*
X139525061Y-93365316D01*
X139525056Y-93365308D01*
X139390979Y-93187761D01*
X139226562Y-93037876D01*
X139226560Y-93037874D01*
X139037404Y-92920754D01*
X139037398Y-92920752D01*
X138829940Y-92840382D01*
X138611243Y-92799500D01*
X138388757Y-92799500D01*
X138170060Y-92840382D01*
X138038864Y-92891207D01*
X137962601Y-92920752D01*
X137962595Y-92920754D01*
X137773439Y-93037874D01*
X137773437Y-93037876D01*
X137609020Y-93187761D01*
X137474943Y-93365308D01*
X137474938Y-93365316D01*
X137375775Y-93564461D01*
X137375769Y-93564476D01*
X137314885Y-93778462D01*
X137314884Y-93778464D01*
X137294357Y-93999999D01*
X135705643Y-93999999D01*
X135702220Y-93963064D01*
X135685115Y-93778464D01*
X135685114Y-93778462D01*
X135624230Y-93564476D01*
X135624229Y-93564472D01*
X135624224Y-93564461D01*
X135525061Y-93365316D01*
X135525056Y-93365308D01*
X135390979Y-93187761D01*
X135226562Y-93037876D01*
X135226560Y-93037874D01*
X135037404Y-92920754D01*
X135037398Y-92920752D01*
X134829940Y-92840382D01*
X134611243Y-92799500D01*
X134388757Y-92799500D01*
X134170060Y-92840382D01*
X134038864Y-92891207D01*
X133962601Y-92920752D01*
X133962595Y-92920754D01*
X133773439Y-93037874D01*
X133773437Y-93037876D01*
X133609019Y-93187762D01*
X133598953Y-93201093D01*
X133542844Y-93242728D01*
X133473132Y-93247419D01*
X133411950Y-93213676D01*
X133401047Y-93201093D01*
X133390980Y-93187762D01*
X133226562Y-93037876D01*
X133226560Y-93037874D01*
X133037404Y-92920754D01*
X133037398Y-92920752D01*
X132829940Y-92840382D01*
X132611243Y-92799500D01*
X132388757Y-92799500D01*
X132170060Y-92840382D01*
X132038864Y-92891207D01*
X131962601Y-92920752D01*
X131962595Y-92920754D01*
X131773439Y-93037874D01*
X131773437Y-93037876D01*
X131609019Y-93187762D01*
X131598953Y-93201093D01*
X131542844Y-93242728D01*
X131473132Y-93247419D01*
X131411950Y-93213676D01*
X131401047Y-93201093D01*
X131390980Y-93187762D01*
X131226562Y-93037876D01*
X131226560Y-93037874D01*
X131037404Y-92920754D01*
X131037398Y-92920752D01*
X130829940Y-92840382D01*
X130611243Y-92799500D01*
X130388757Y-92799500D01*
X130170060Y-92840382D01*
X130038864Y-92891207D01*
X129962601Y-92920752D01*
X129962595Y-92920754D01*
X129773439Y-93037874D01*
X129773437Y-93037876D01*
X129609020Y-93187761D01*
X129474943Y-93365308D01*
X129474938Y-93365316D01*
X129375775Y-93564461D01*
X129375769Y-93564476D01*
X129314885Y-93778462D01*
X129314884Y-93778464D01*
X129299192Y-93947817D01*
X129273406Y-94012755D01*
X129216605Y-94053442D01*
X129146824Y-94056962D01*
X129116705Y-94045431D01*
X128994453Y-93979272D01*
X128964504Y-93963064D01*
X128964495Y-93963061D01*
X128744984Y-93887702D01*
X128573282Y-93859050D01*
X128516049Y-93849500D01*
X128283951Y-93849500D01*
X128238164Y-93857140D01*
X128055015Y-93887702D01*
X127835504Y-93963061D01*
X127835495Y-93963064D01*
X127631371Y-94073531D01*
X127631365Y-94073535D01*
X127448222Y-94216081D01*
X127448219Y-94216084D01*
X127291016Y-94386852D01*
X127164075Y-94581151D01*
X127070842Y-94793699D01*
X127013866Y-95018691D01*
X127013864Y-95018702D01*
X126994700Y-95249993D01*
X126005300Y-95249993D01*
X125986135Y-95018702D01*
X125986133Y-95018691D01*
X125929157Y-94793699D01*
X125835924Y-94581151D01*
X125708983Y-94386852D01*
X125708980Y-94386849D01*
X125708979Y-94386847D01*
X125551784Y-94216087D01*
X125551779Y-94216083D01*
X125551777Y-94216081D01*
X125368634Y-94073535D01*
X125368628Y-94073531D01*
X125164504Y-93963064D01*
X125164495Y-93963061D01*
X124944984Y-93887702D01*
X124773282Y-93859050D01*
X124716049Y-93849500D01*
X124483951Y-93849500D01*
X124438164Y-93857140D01*
X124255015Y-93887702D01*
X124035504Y-93963061D01*
X124035490Y-93963067D01*
X123883295Y-94045431D01*
X123814967Y-94060026D01*
X123749595Y-94035363D01*
X123707934Y-93979272D01*
X123700808Y-93947821D01*
X123685115Y-93778464D01*
X123624229Y-93564472D01*
X123624224Y-93564461D01*
X123525061Y-93365316D01*
X123525056Y-93365308D01*
X123390979Y-93187761D01*
X123226562Y-93037876D01*
X123226560Y-93037874D01*
X123037404Y-92920754D01*
X123037398Y-92920752D01*
X122829940Y-92840382D01*
X122611243Y-92799500D01*
X122388757Y-92799500D01*
X122170060Y-92840382D01*
X122038864Y-92891207D01*
X121962601Y-92920752D01*
X121962595Y-92920754D01*
X121773439Y-93037874D01*
X121773437Y-93037876D01*
X121609020Y-93187761D01*
X121474943Y-93365308D01*
X121474938Y-93365316D01*
X121375775Y-93564461D01*
X121375769Y-93564476D01*
X121314885Y-93778462D01*
X121314884Y-93778464D01*
X121294357Y-93999999D01*
X119705643Y-93999999D01*
X119702220Y-93963064D01*
X119685115Y-93778464D01*
X119685114Y-93778462D01*
X119624230Y-93564476D01*
X119624229Y-93564472D01*
X119624224Y-93564461D01*
X119525061Y-93365316D01*
X119525056Y-93365308D01*
X119390979Y-93187761D01*
X119226562Y-93037876D01*
X119226560Y-93037874D01*
X119037404Y-92920754D01*
X119037398Y-92920752D01*
X118829940Y-92840382D01*
X118611243Y-92799500D01*
X118388757Y-92799500D01*
X118170060Y-92840382D01*
X118038864Y-92891207D01*
X117962601Y-92920752D01*
X117962595Y-92920754D01*
X117773439Y-93037874D01*
X117773437Y-93037876D01*
X117609019Y-93187762D01*
X117598953Y-93201093D01*
X117542844Y-93242728D01*
X117473132Y-93247419D01*
X117411950Y-93213676D01*
X117401047Y-93201093D01*
X117390980Y-93187762D01*
X117226562Y-93037876D01*
X117226560Y-93037874D01*
X117037404Y-92920754D01*
X117037398Y-92920752D01*
X116829940Y-92840382D01*
X116611243Y-92799500D01*
X116388757Y-92799500D01*
X116170060Y-92840382D01*
X116038864Y-92891207D01*
X115962601Y-92920752D01*
X115962595Y-92920754D01*
X115773439Y-93037874D01*
X115773437Y-93037876D01*
X115609019Y-93187762D01*
X115598953Y-93201093D01*
X115542844Y-93242728D01*
X115473132Y-93247419D01*
X115411950Y-93213676D01*
X115401047Y-93201093D01*
X115390980Y-93187762D01*
X115226562Y-93037876D01*
X115226560Y-93037874D01*
X115037404Y-92920754D01*
X115037398Y-92920752D01*
X114829940Y-92840382D01*
X114611243Y-92799500D01*
X114388757Y-92799500D01*
X114170060Y-92840382D01*
X114038864Y-92891207D01*
X113962601Y-92920752D01*
X113962595Y-92920754D01*
X113773439Y-93037874D01*
X113773437Y-93037876D01*
X113609020Y-93187761D01*
X113474943Y-93365308D01*
X113474938Y-93365316D01*
X113375775Y-93564461D01*
X113375769Y-93564476D01*
X113314885Y-93778462D01*
X113314884Y-93778464D01*
X113299192Y-93947817D01*
X113273406Y-94012755D01*
X113216605Y-94053442D01*
X113146824Y-94056962D01*
X113116705Y-94045431D01*
X112994453Y-93979272D01*
X112964504Y-93963064D01*
X112964495Y-93963061D01*
X112744984Y-93887702D01*
X112573282Y-93859050D01*
X112516049Y-93849500D01*
X112283951Y-93849500D01*
X112238164Y-93857140D01*
X112055015Y-93887702D01*
X111835504Y-93963061D01*
X111835495Y-93963064D01*
X111631371Y-94073531D01*
X111631365Y-94073535D01*
X111448222Y-94216081D01*
X111448219Y-94216084D01*
X111291016Y-94386852D01*
X111164075Y-94581151D01*
X111070842Y-94793699D01*
X111013866Y-95018691D01*
X111013864Y-95018702D01*
X110994700Y-95249993D01*
X100500500Y-95249993D01*
X100500500Y-91006961D01*
X100501280Y-90993077D01*
X100501280Y-90993076D01*
X100511459Y-90902731D01*
X100517635Y-90875670D01*
X100545353Y-90796456D01*
X100557396Y-90771450D01*
X100602046Y-90700389D01*
X100619351Y-90678690D01*
X100678690Y-90619351D01*
X100700389Y-90602046D01*
X100771450Y-90557396D01*
X100796456Y-90545353D01*
X100875670Y-90517635D01*
X100902733Y-90511459D01*
X100965419Y-90504396D01*
X100993079Y-90501280D01*
X101006962Y-90500500D01*
X101065892Y-90500500D01*
X151934108Y-90500500D01*
X151993038Y-90500500D01*
X152006922Y-90501280D01*
G37*
%TD.AperFunction*%
%TA.AperFunction,Conductor*%
G36*
X105327482Y-118182292D02*
G01*
X105399890Y-118307708D01*
X105502292Y-118410110D01*
X105627708Y-118482518D01*
X105669765Y-118493787D01*
X105078625Y-119084925D01*
X105162421Y-119143599D01*
X105376507Y-119243429D01*
X105376516Y-119243433D01*
X105422390Y-119255725D01*
X105482051Y-119292090D01*
X105512580Y-119354937D01*
X105504285Y-119424312D01*
X105459800Y-119478190D01*
X105393248Y-119499465D01*
X105390297Y-119499500D01*
X103751636Y-119499500D01*
X103684597Y-119479815D01*
X103638842Y-119427011D01*
X103628898Y-119357853D01*
X103657923Y-119294297D01*
X103716701Y-119256523D01*
X103719543Y-119255725D01*
X103746482Y-119248506D01*
X103763663Y-119243903D01*
X103977830Y-119144035D01*
X104171401Y-119008495D01*
X104338495Y-118841401D01*
X104468732Y-118655403D01*
X104523307Y-118611780D01*
X104592805Y-118604586D01*
X104655160Y-118636109D01*
X104671880Y-118655405D01*
X104725073Y-118731373D01*
X105316212Y-118140234D01*
X105327482Y-118182292D01*
G37*
%TD.AperFunction*%
%TA.AperFunction,Conductor*%
G36*
X149187482Y-118182292D02*
G01*
X149259890Y-118307708D01*
X149362292Y-118410110D01*
X149487708Y-118482518D01*
X149529765Y-118493787D01*
X148938625Y-119084925D01*
X149022421Y-119143599D01*
X149236507Y-119243429D01*
X149236516Y-119243433D01*
X149282390Y-119255725D01*
X149342051Y-119292090D01*
X149372580Y-119354937D01*
X149364285Y-119424312D01*
X149319800Y-119478190D01*
X149253248Y-119499465D01*
X149250297Y-119499500D01*
X147611636Y-119499500D01*
X147544597Y-119479815D01*
X147498842Y-119427011D01*
X147488898Y-119357853D01*
X147517923Y-119294297D01*
X147576701Y-119256523D01*
X147579543Y-119255725D01*
X147606482Y-119248506D01*
X147623663Y-119243903D01*
X147837830Y-119144035D01*
X148031401Y-119008495D01*
X148198495Y-118841401D01*
X148328732Y-118655403D01*
X148383307Y-118611780D01*
X148452805Y-118604586D01*
X148515160Y-118636109D01*
X148531880Y-118655405D01*
X148585073Y-118731373D01*
X149176212Y-118140234D01*
X149187482Y-118182292D01*
G37*
%TD.AperFunction*%
%TD*%
M02*
