%TF.GenerationSoftware,KiCad,Pcbnew,8.0.5+1*%
%TF.CreationDate,2024-10-02T06:07:40-04:00*%
%TF.ProjectId,breadboard-power-supply,62726561-6462-46f6-9172-642d706f7765,rev?*%
%TF.SameCoordinates,Original*%
%TF.FileFunction,Soldermask,Top*%
%TF.FilePolarity,Negative*%
%FSLAX46Y46*%
G04 Gerber Fmt 4.6, Leading zero omitted, Abs format (unit mm)*
G04 Created by KiCad (PCBNEW 8.0.5+1) date 2024-10-02 06:07:40*
%MOMM*%
%LPD*%
G01*
G04 APERTURE LIST*
%ADD10R,1.700000X2.500000*%
%ADD11C,1.400000*%
%ADD12R,1.465000X1.115000*%
%ADD13R,2.500000X1.700000*%
%ADD14C,1.800000*%
%ADD15R,0.870000X1.420000*%
%ADD16R,1.420000X0.870000*%
%ADD17O,4.500000X2.000000*%
%ADD18O,2.000000X4.250000*%
%ADD19R,0.950000X2.150000*%
%ADD20R,3.250000X2.150000*%
%ADD21R,1.115000X1.465000*%
%ADD22C,1.700000*%
G04 APERTURE END LIST*
D10*
%TO.C,D2*%
X132500000Y-102000000D03*
X132500000Y-106000000D03*
%TD*%
D11*
%TO.C,SW1*%
X113500000Y-101900000D03*
X116000000Y-101900000D03*
X118500000Y-101900000D03*
X113500000Y-105100000D03*
X116000000Y-105100000D03*
X118500000Y-105100000D03*
%TD*%
D12*
%TO.C,C1*%
X121700000Y-101100000D03*
X121700000Y-102800000D03*
%TD*%
D13*
%TO.C,D1*%
X126500000Y-111000000D03*
X122500000Y-111000000D03*
%TD*%
D14*
%TO.C,SW3*%
X140600000Y-95250000D03*
X128400000Y-95250000D03*
D11*
X138500000Y-94000000D03*
X134500000Y-94000000D03*
X132500000Y-94000000D03*
X130500000Y-94000000D03*
X138500000Y-96500000D03*
X134500000Y-96500000D03*
X132500000Y-96500000D03*
X130500000Y-96500000D03*
%TD*%
D15*
%TO.C,R2*%
X114500000Y-99800000D03*
X112640000Y-99800000D03*
%TD*%
D12*
%TO.C,C3*%
X135500000Y-103100000D03*
X135500000Y-101400000D03*
%TD*%
D16*
%TO.C,R1*%
X135500000Y-106580000D03*
X135500000Y-104720000D03*
%TD*%
D17*
%TO.C,J1*%
X106500000Y-104000000D03*
X106500000Y-98000000D03*
D18*
X101800000Y-101000000D03*
%TD*%
D14*
%TO.C,SW2*%
X124600000Y-95250000D03*
X112400000Y-95250000D03*
D11*
X122500000Y-94000000D03*
X118500000Y-94000000D03*
X116500000Y-94000000D03*
X114500000Y-94000000D03*
X122500000Y-96500000D03*
X118500000Y-96500000D03*
X116500000Y-96500000D03*
X114500000Y-96500000D03*
%TD*%
D19*
%TO.C,U1*%
X128800000Y-101100000D03*
X126500000Y-101100000D03*
X124200000Y-101100000D03*
D20*
X126500000Y-106900000D03*
%TD*%
D15*
%TO.C,R5*%
X116440000Y-99800000D03*
X118300000Y-99800000D03*
%TD*%
D17*
%TO.C,J2*%
X146500000Y-104000000D03*
X146500000Y-98000000D03*
D18*
X141800000Y-101000000D03*
%TD*%
D21*
%TO.C,C2*%
X132500000Y-109000000D03*
X130800000Y-109000000D03*
%TD*%
D13*
%TO.C,D4*%
X126500000Y-115000000D03*
X122500000Y-115000000D03*
%TD*%
D22*
%TO.C,J6*%
X147160000Y-117970000D03*
X149700000Y-117970000D03*
%TD*%
%TO.C,J3*%
X105840000Y-107810000D03*
X103300000Y-107810000D03*
%TD*%
%TO.C,J4*%
X103300000Y-117970000D03*
X105840000Y-117970000D03*
%TD*%
%TO.C,J5*%
X149700000Y-107810000D03*
X147160000Y-107810000D03*
%TD*%
M02*
