%TF.GenerationSoftware,KiCad,Pcbnew,8.0.5+1*%
%TF.CreationDate,2024-10-02T06:07:40-04:00*%
%TF.ProjectId,breadboard-power-supply,62726561-6462-46f6-9172-642d706f7765,rev?*%
%TF.SameCoordinates,Original*%
%TF.FileFunction,Legend,Bot*%
%TF.FilePolarity,Positive*%
%FSLAX46Y46*%
G04 Gerber Fmt 4.6, Leading zero omitted, Abs format (unit mm)*
G04 Created by KiCad (PCBNEW 8.0.5+1) date 2024-10-02 06:07:40*
%MOMM*%
%LPD*%
G01*
G04 APERTURE LIST*
%ADD10C,0.100000*%
%ADD11C,0.175000*%
%ADD12C,0.150000*%
%ADD13C,0.120000*%
G04 APERTURE END LIST*
D10*
X126500000Y-116500000D02*
X125000000Y-116500000D01*
X127000000Y-116500000D02*
X128000000Y-116500000D01*
X125000000Y-116500000D02*
G75*
G02*
X124000000Y-116500000I-500000J0D01*
G01*
X124000000Y-116500000D02*
G75*
G02*
X125000000Y-116500000I500000J0D01*
G01*
X128250000Y-116500000D02*
X128750000Y-116500000D01*
X126146447Y-116146447D02*
G75*
G02*
X126146447Y-116853553I353553J-353553D01*
G01*
X124250000Y-116500000D02*
X124750000Y-116500000D01*
X129000000Y-116500000D02*
G75*
G02*
X128000000Y-116500000I-500000J0D01*
G01*
X128000000Y-116500000D02*
G75*
G02*
X129000000Y-116500000I500000J0D01*
G01*
D11*
X126587500Y-116500000D02*
G75*
G02*
X126412500Y-116500000I-87500J0D01*
G01*
X126412500Y-116500000D02*
G75*
G02*
X126587500Y-116500000I87500J0D01*
G01*
D10*
X124500000Y-116250000D02*
X124500000Y-116750000D01*
D12*
X131357142Y-91135057D02*
X131309523Y-91087438D01*
X131309523Y-91087438D02*
X131214285Y-91039819D01*
X131214285Y-91039819D02*
X130976190Y-91039819D01*
X130976190Y-91039819D02*
X130880952Y-91087438D01*
X130880952Y-91087438D02*
X130833333Y-91135057D01*
X130833333Y-91135057D02*
X130785714Y-91230295D01*
X130785714Y-91230295D02*
X130785714Y-91325533D01*
X130785714Y-91325533D02*
X130833333Y-91468390D01*
X130833333Y-91468390D02*
X131404761Y-92039819D01*
X131404761Y-92039819D02*
X130785714Y-92039819D01*
X130166666Y-91039819D02*
X130071428Y-91039819D01*
X130071428Y-91039819D02*
X129976190Y-91087438D01*
X129976190Y-91087438D02*
X129928571Y-91135057D01*
X129928571Y-91135057D02*
X129880952Y-91230295D01*
X129880952Y-91230295D02*
X129833333Y-91420771D01*
X129833333Y-91420771D02*
X129833333Y-91658866D01*
X129833333Y-91658866D02*
X129880952Y-91849342D01*
X129880952Y-91849342D02*
X129928571Y-91944580D01*
X129928571Y-91944580D02*
X129976190Y-91992200D01*
X129976190Y-91992200D02*
X130071428Y-92039819D01*
X130071428Y-92039819D02*
X130166666Y-92039819D01*
X130166666Y-92039819D02*
X130261904Y-91992200D01*
X130261904Y-91992200D02*
X130309523Y-91944580D01*
X130309523Y-91944580D02*
X130357142Y-91849342D01*
X130357142Y-91849342D02*
X130404761Y-91658866D01*
X130404761Y-91658866D02*
X130404761Y-91420771D01*
X130404761Y-91420771D02*
X130357142Y-91230295D01*
X130357142Y-91230295D02*
X130309523Y-91135057D01*
X130309523Y-91135057D02*
X130261904Y-91087438D01*
X130261904Y-91087438D02*
X130166666Y-91039819D01*
X129452380Y-91135057D02*
X129404761Y-91087438D01*
X129404761Y-91087438D02*
X129309523Y-91039819D01*
X129309523Y-91039819D02*
X129071428Y-91039819D01*
X129071428Y-91039819D02*
X128976190Y-91087438D01*
X128976190Y-91087438D02*
X128928571Y-91135057D01*
X128928571Y-91135057D02*
X128880952Y-91230295D01*
X128880952Y-91230295D02*
X128880952Y-91325533D01*
X128880952Y-91325533D02*
X128928571Y-91468390D01*
X128928571Y-91468390D02*
X129499999Y-92039819D01*
X129499999Y-92039819D02*
X128880952Y-92039819D01*
X128023809Y-91373152D02*
X128023809Y-92039819D01*
X128261904Y-90992200D02*
X128499999Y-91706485D01*
X128499999Y-91706485D02*
X127880952Y-91706485D01*
X127499999Y-91658866D02*
X126738095Y-91658866D01*
X125738095Y-92039819D02*
X126309523Y-92039819D01*
X126023809Y-92039819D02*
X126023809Y-91039819D01*
X126023809Y-91039819D02*
X126119047Y-91182676D01*
X126119047Y-91182676D02*
X126214285Y-91277914D01*
X126214285Y-91277914D02*
X126309523Y-91325533D01*
X125119047Y-91039819D02*
X125023809Y-91039819D01*
X125023809Y-91039819D02*
X124928571Y-91087438D01*
X124928571Y-91087438D02*
X124880952Y-91135057D01*
X124880952Y-91135057D02*
X124833333Y-91230295D01*
X124833333Y-91230295D02*
X124785714Y-91420771D01*
X124785714Y-91420771D02*
X124785714Y-91658866D01*
X124785714Y-91658866D02*
X124833333Y-91849342D01*
X124833333Y-91849342D02*
X124880952Y-91944580D01*
X124880952Y-91944580D02*
X124928571Y-91992200D01*
X124928571Y-91992200D02*
X125023809Y-92039819D01*
X125023809Y-92039819D02*
X125119047Y-92039819D01*
X125119047Y-92039819D02*
X125214285Y-91992200D01*
X125214285Y-91992200D02*
X125261904Y-91944580D01*
X125261904Y-91944580D02*
X125309523Y-91849342D01*
X125309523Y-91849342D02*
X125357142Y-91658866D01*
X125357142Y-91658866D02*
X125357142Y-91420771D01*
X125357142Y-91420771D02*
X125309523Y-91230295D01*
X125309523Y-91230295D02*
X125261904Y-91135057D01*
X125261904Y-91135057D02*
X125214285Y-91087438D01*
X125214285Y-91087438D02*
X125119047Y-91039819D01*
X124357142Y-91658866D02*
X123595238Y-91658866D01*
X122928571Y-91039819D02*
X122833333Y-91039819D01*
X122833333Y-91039819D02*
X122738095Y-91087438D01*
X122738095Y-91087438D02*
X122690476Y-91135057D01*
X122690476Y-91135057D02*
X122642857Y-91230295D01*
X122642857Y-91230295D02*
X122595238Y-91420771D01*
X122595238Y-91420771D02*
X122595238Y-91658866D01*
X122595238Y-91658866D02*
X122642857Y-91849342D01*
X122642857Y-91849342D02*
X122690476Y-91944580D01*
X122690476Y-91944580D02*
X122738095Y-91992200D01*
X122738095Y-91992200D02*
X122833333Y-92039819D01*
X122833333Y-92039819D02*
X122928571Y-92039819D01*
X122928571Y-92039819D02*
X123023809Y-91992200D01*
X123023809Y-91992200D02*
X123071428Y-91944580D01*
X123071428Y-91944580D02*
X123119047Y-91849342D01*
X123119047Y-91849342D02*
X123166666Y-91658866D01*
X123166666Y-91658866D02*
X123166666Y-91420771D01*
X123166666Y-91420771D02*
X123119047Y-91230295D01*
X123119047Y-91230295D02*
X123071428Y-91135057D01*
X123071428Y-91135057D02*
X123023809Y-91087438D01*
X123023809Y-91087438D02*
X122928571Y-91039819D01*
X122214285Y-91135057D02*
X122166666Y-91087438D01*
X122166666Y-91087438D02*
X122071428Y-91039819D01*
X122071428Y-91039819D02*
X121833333Y-91039819D01*
X121833333Y-91039819D02*
X121738095Y-91087438D01*
X121738095Y-91087438D02*
X121690476Y-91135057D01*
X121690476Y-91135057D02*
X121642857Y-91230295D01*
X121642857Y-91230295D02*
X121642857Y-91325533D01*
X121642857Y-91325533D02*
X121690476Y-91468390D01*
X121690476Y-91468390D02*
X122261904Y-92039819D01*
X122261904Y-92039819D02*
X121642857Y-92039819D01*
D10*
X133511903Y-110561718D02*
X133345236Y-110561718D01*
X133273808Y-110823623D02*
X133511903Y-110823623D01*
X133511903Y-110823623D02*
X133511903Y-110323623D01*
X133511903Y-110323623D02*
X133273808Y-110323623D01*
X133059522Y-110823623D02*
X133059522Y-110490290D01*
X133059522Y-110537909D02*
X133035712Y-110514099D01*
X133035712Y-110514099D02*
X132988093Y-110490290D01*
X132988093Y-110490290D02*
X132916665Y-110490290D01*
X132916665Y-110490290D02*
X132869046Y-110514099D01*
X132869046Y-110514099D02*
X132845236Y-110561718D01*
X132845236Y-110561718D02*
X132845236Y-110823623D01*
X132845236Y-110561718D02*
X132821427Y-110514099D01*
X132821427Y-110514099D02*
X132773808Y-110490290D01*
X132773808Y-110490290D02*
X132702379Y-110490290D01*
X132702379Y-110490290D02*
X132654760Y-110514099D01*
X132654760Y-110514099D02*
X132630950Y-110561718D01*
X132630950Y-110561718D02*
X132630950Y-110823623D01*
X132392855Y-110823623D02*
X132392855Y-110323623D01*
X132392855Y-110514099D02*
X132345236Y-110490290D01*
X132345236Y-110490290D02*
X132249998Y-110490290D01*
X132249998Y-110490290D02*
X132202379Y-110514099D01*
X132202379Y-110514099D02*
X132178569Y-110537909D01*
X132178569Y-110537909D02*
X132154760Y-110585528D01*
X132154760Y-110585528D02*
X132154760Y-110728385D01*
X132154760Y-110728385D02*
X132178569Y-110776004D01*
X132178569Y-110776004D02*
X132202379Y-110799814D01*
X132202379Y-110799814D02*
X132249998Y-110823623D01*
X132249998Y-110823623D02*
X132345236Y-110823623D01*
X132345236Y-110823623D02*
X132392855Y-110799814D01*
X131940474Y-110823623D02*
X131940474Y-110490290D01*
X131940474Y-110585528D02*
X131916664Y-110537909D01*
X131916664Y-110537909D02*
X131892855Y-110514099D01*
X131892855Y-110514099D02*
X131845236Y-110490290D01*
X131845236Y-110490290D02*
X131797617Y-110490290D01*
X131678569Y-110490290D02*
X131559521Y-110823623D01*
X131440474Y-110490290D02*
X131559521Y-110823623D01*
X131559521Y-110823623D02*
X131607140Y-110942671D01*
X131607140Y-110942671D02*
X131630950Y-110966480D01*
X131630950Y-110966480D02*
X131678569Y-110990290D01*
X131249998Y-110633147D02*
X130869046Y-110633147D01*
X130345236Y-110823623D02*
X130511902Y-110585528D01*
X130630950Y-110823623D02*
X130630950Y-110323623D01*
X130630950Y-110323623D02*
X130440474Y-110323623D01*
X130440474Y-110323623D02*
X130392855Y-110347433D01*
X130392855Y-110347433D02*
X130369045Y-110371242D01*
X130369045Y-110371242D02*
X130345236Y-110418861D01*
X130345236Y-110418861D02*
X130345236Y-110490290D01*
X130345236Y-110490290D02*
X130369045Y-110537909D01*
X130369045Y-110537909D02*
X130392855Y-110561718D01*
X130392855Y-110561718D02*
X130440474Y-110585528D01*
X130440474Y-110585528D02*
X130630950Y-110585528D01*
X130130950Y-110823623D02*
X130130950Y-110490290D01*
X130130950Y-110323623D02*
X130154759Y-110347433D01*
X130154759Y-110347433D02*
X130130950Y-110371242D01*
X130130950Y-110371242D02*
X130107140Y-110347433D01*
X130107140Y-110347433D02*
X130130950Y-110323623D01*
X130130950Y-110323623D02*
X130130950Y-110371242D01*
X129678569Y-110823623D02*
X129678569Y-110323623D01*
X129678569Y-110799814D02*
X129726188Y-110823623D01*
X129726188Y-110823623D02*
X129821426Y-110823623D01*
X129821426Y-110823623D02*
X129869045Y-110799814D01*
X129869045Y-110799814D02*
X129892855Y-110776004D01*
X129892855Y-110776004D02*
X129916664Y-110728385D01*
X129916664Y-110728385D02*
X129916664Y-110585528D01*
X129916664Y-110585528D02*
X129892855Y-110537909D01*
X129892855Y-110537909D02*
X129869045Y-110514099D01*
X129869045Y-110514099D02*
X129821426Y-110490290D01*
X129821426Y-110490290D02*
X129726188Y-110490290D01*
X129726188Y-110490290D02*
X129678569Y-110514099D01*
X129226188Y-110823623D02*
X129226188Y-110323623D01*
X129226188Y-110799814D02*
X129273807Y-110823623D01*
X129273807Y-110823623D02*
X129369045Y-110823623D01*
X129369045Y-110823623D02*
X129416664Y-110799814D01*
X129416664Y-110799814D02*
X129440474Y-110776004D01*
X129440474Y-110776004D02*
X129464283Y-110728385D01*
X129464283Y-110728385D02*
X129464283Y-110585528D01*
X129464283Y-110585528D02*
X129440474Y-110537909D01*
X129440474Y-110537909D02*
X129416664Y-110514099D01*
X129416664Y-110514099D02*
X129369045Y-110490290D01*
X129369045Y-110490290D02*
X129273807Y-110490290D01*
X129273807Y-110490290D02*
X129226188Y-110514099D01*
X128916664Y-110823623D02*
X128964283Y-110799814D01*
X128964283Y-110799814D02*
X128988093Y-110752194D01*
X128988093Y-110752194D02*
X128988093Y-110323623D01*
X128535712Y-110799814D02*
X128583331Y-110823623D01*
X128583331Y-110823623D02*
X128678569Y-110823623D01*
X128678569Y-110823623D02*
X128726188Y-110799814D01*
X128726188Y-110799814D02*
X128749997Y-110752194D01*
X128749997Y-110752194D02*
X128749997Y-110561718D01*
X128749997Y-110561718D02*
X128726188Y-110514099D01*
X128726188Y-110514099D02*
X128678569Y-110490290D01*
X128678569Y-110490290D02*
X128583331Y-110490290D01*
X128583331Y-110490290D02*
X128535712Y-110514099D01*
X128535712Y-110514099D02*
X128511902Y-110561718D01*
X128511902Y-110561718D02*
X128511902Y-110609337D01*
X128511902Y-110609337D02*
X128749997Y-110656956D01*
X127940474Y-110680766D02*
X127702379Y-110680766D01*
X127988093Y-110823623D02*
X127821427Y-110323623D01*
X127821427Y-110323623D02*
X127654760Y-110823623D01*
X127297618Y-110799814D02*
X127345237Y-110823623D01*
X127345237Y-110823623D02*
X127440475Y-110823623D01*
X127440475Y-110823623D02*
X127488094Y-110799814D01*
X127488094Y-110799814D02*
X127511903Y-110752194D01*
X127511903Y-110752194D02*
X127511903Y-110561718D01*
X127511903Y-110561718D02*
X127488094Y-110514099D01*
X127488094Y-110514099D02*
X127440475Y-110490290D01*
X127440475Y-110490290D02*
X127345237Y-110490290D01*
X127345237Y-110490290D02*
X127297618Y-110514099D01*
X127297618Y-110514099D02*
X127273808Y-110561718D01*
X127273808Y-110561718D02*
X127273808Y-110609337D01*
X127273808Y-110609337D02*
X127511903Y-110656956D01*
X127059523Y-110823623D02*
X127059523Y-110490290D01*
X127059523Y-110585528D02*
X127035713Y-110537909D01*
X127035713Y-110537909D02*
X127011904Y-110514099D01*
X127011904Y-110514099D02*
X126964285Y-110490290D01*
X126964285Y-110490290D02*
X126916666Y-110490290D01*
X126678570Y-110823623D02*
X126726189Y-110799814D01*
X126726189Y-110799814D02*
X126749999Y-110776004D01*
X126749999Y-110776004D02*
X126773808Y-110728385D01*
X126773808Y-110728385D02*
X126773808Y-110585528D01*
X126773808Y-110585528D02*
X126749999Y-110537909D01*
X126749999Y-110537909D02*
X126726189Y-110514099D01*
X126726189Y-110514099D02*
X126678570Y-110490290D01*
X126678570Y-110490290D02*
X126607142Y-110490290D01*
X126607142Y-110490290D02*
X126559523Y-110514099D01*
X126559523Y-110514099D02*
X126535713Y-110537909D01*
X126535713Y-110537909D02*
X126511904Y-110585528D01*
X126511904Y-110585528D02*
X126511904Y-110728385D01*
X126511904Y-110728385D02*
X126535713Y-110776004D01*
X126535713Y-110776004D02*
X126559523Y-110799814D01*
X126559523Y-110799814D02*
X126607142Y-110823623D01*
X126607142Y-110823623D02*
X126678570Y-110823623D01*
X126297618Y-110490290D02*
X126297618Y-110823623D01*
X126297618Y-110537909D02*
X126273808Y-110514099D01*
X126273808Y-110514099D02*
X126226189Y-110490290D01*
X126226189Y-110490290D02*
X126154761Y-110490290D01*
X126154761Y-110490290D02*
X126107142Y-110514099D01*
X126107142Y-110514099D02*
X126083332Y-110561718D01*
X126083332Y-110561718D02*
X126083332Y-110823623D01*
X125630951Y-110823623D02*
X125630951Y-110561718D01*
X125630951Y-110561718D02*
X125654761Y-110514099D01*
X125654761Y-110514099D02*
X125702380Y-110490290D01*
X125702380Y-110490290D02*
X125797618Y-110490290D01*
X125797618Y-110490290D02*
X125845237Y-110514099D01*
X125630951Y-110799814D02*
X125678570Y-110823623D01*
X125678570Y-110823623D02*
X125797618Y-110823623D01*
X125797618Y-110823623D02*
X125845237Y-110799814D01*
X125845237Y-110799814D02*
X125869046Y-110752194D01*
X125869046Y-110752194D02*
X125869046Y-110704575D01*
X125869046Y-110704575D02*
X125845237Y-110656956D01*
X125845237Y-110656956D02*
X125797618Y-110633147D01*
X125797618Y-110633147D02*
X125678570Y-110633147D01*
X125678570Y-110633147D02*
X125630951Y-110609337D01*
X125178570Y-110490290D02*
X125178570Y-110823623D01*
X125392856Y-110490290D02*
X125392856Y-110752194D01*
X125392856Y-110752194D02*
X125369046Y-110799814D01*
X125369046Y-110799814D02*
X125321427Y-110823623D01*
X125321427Y-110823623D02*
X125249999Y-110823623D01*
X125249999Y-110823623D02*
X125202380Y-110799814D01*
X125202380Y-110799814D02*
X125178570Y-110776004D01*
X125011903Y-110490290D02*
X124821427Y-110490290D01*
X124940475Y-110323623D02*
X124940475Y-110752194D01*
X124940475Y-110752194D02*
X124916665Y-110799814D01*
X124916665Y-110799814D02*
X124869046Y-110823623D01*
X124869046Y-110823623D02*
X124821427Y-110823623D01*
X124654761Y-110823623D02*
X124654761Y-110490290D01*
X124654761Y-110323623D02*
X124678570Y-110347433D01*
X124678570Y-110347433D02*
X124654761Y-110371242D01*
X124654761Y-110371242D02*
X124630951Y-110347433D01*
X124630951Y-110347433D02*
X124654761Y-110323623D01*
X124654761Y-110323623D02*
X124654761Y-110371242D01*
X124202380Y-110799814D02*
X124249999Y-110823623D01*
X124249999Y-110823623D02*
X124345237Y-110823623D01*
X124345237Y-110823623D02*
X124392856Y-110799814D01*
X124392856Y-110799814D02*
X124416666Y-110776004D01*
X124416666Y-110776004D02*
X124440475Y-110728385D01*
X124440475Y-110728385D02*
X124440475Y-110585528D01*
X124440475Y-110585528D02*
X124416666Y-110537909D01*
X124416666Y-110537909D02*
X124392856Y-110514099D01*
X124392856Y-110514099D02*
X124345237Y-110490290D01*
X124345237Y-110490290D02*
X124249999Y-110490290D01*
X124249999Y-110490290D02*
X124202380Y-110514099D01*
X123773809Y-110823623D02*
X123773809Y-110561718D01*
X123773809Y-110561718D02*
X123797619Y-110514099D01*
X123797619Y-110514099D02*
X123845238Y-110490290D01*
X123845238Y-110490290D02*
X123940476Y-110490290D01*
X123940476Y-110490290D02*
X123988095Y-110514099D01*
X123773809Y-110799814D02*
X123821428Y-110823623D01*
X123821428Y-110823623D02*
X123940476Y-110823623D01*
X123940476Y-110823623D02*
X123988095Y-110799814D01*
X123988095Y-110799814D02*
X124011904Y-110752194D01*
X124011904Y-110752194D02*
X124011904Y-110704575D01*
X124011904Y-110704575D02*
X123988095Y-110656956D01*
X123988095Y-110656956D02*
X123940476Y-110633147D01*
X123940476Y-110633147D02*
X123821428Y-110633147D01*
X123821428Y-110633147D02*
X123773809Y-110609337D01*
X123464285Y-110823623D02*
X123511904Y-110799814D01*
X123511904Y-110799814D02*
X123535714Y-110752194D01*
X123535714Y-110752194D02*
X123535714Y-110323623D01*
X122892857Y-110323623D02*
X122892857Y-110728385D01*
X122892857Y-110728385D02*
X122869047Y-110776004D01*
X122869047Y-110776004D02*
X122845238Y-110799814D01*
X122845238Y-110799814D02*
X122797619Y-110823623D01*
X122797619Y-110823623D02*
X122702381Y-110823623D01*
X122702381Y-110823623D02*
X122654762Y-110799814D01*
X122654762Y-110799814D02*
X122630952Y-110776004D01*
X122630952Y-110776004D02*
X122607143Y-110728385D01*
X122607143Y-110728385D02*
X122607143Y-110323623D01*
X122369047Y-110490290D02*
X122369047Y-110823623D01*
X122369047Y-110537909D02*
X122345237Y-110514099D01*
X122345237Y-110514099D02*
X122297618Y-110490290D01*
X122297618Y-110490290D02*
X122226190Y-110490290D01*
X122226190Y-110490290D02*
X122178571Y-110514099D01*
X122178571Y-110514099D02*
X122154761Y-110561718D01*
X122154761Y-110561718D02*
X122154761Y-110823623D01*
X121916666Y-110823623D02*
X121916666Y-110490290D01*
X121916666Y-110323623D02*
X121940475Y-110347433D01*
X121940475Y-110347433D02*
X121916666Y-110371242D01*
X121916666Y-110371242D02*
X121892856Y-110347433D01*
X121892856Y-110347433D02*
X121916666Y-110323623D01*
X121916666Y-110323623D02*
X121916666Y-110371242D01*
X121726190Y-110490290D02*
X121607142Y-110823623D01*
X121607142Y-110823623D02*
X121488095Y-110490290D01*
X121107143Y-110799814D02*
X121154762Y-110823623D01*
X121154762Y-110823623D02*
X121250000Y-110823623D01*
X121250000Y-110823623D02*
X121297619Y-110799814D01*
X121297619Y-110799814D02*
X121321428Y-110752194D01*
X121321428Y-110752194D02*
X121321428Y-110561718D01*
X121321428Y-110561718D02*
X121297619Y-110514099D01*
X121297619Y-110514099D02*
X121250000Y-110490290D01*
X121250000Y-110490290D02*
X121154762Y-110490290D01*
X121154762Y-110490290D02*
X121107143Y-110514099D01*
X121107143Y-110514099D02*
X121083333Y-110561718D01*
X121083333Y-110561718D02*
X121083333Y-110609337D01*
X121083333Y-110609337D02*
X121321428Y-110656956D01*
X120869048Y-110823623D02*
X120869048Y-110490290D01*
X120869048Y-110585528D02*
X120845238Y-110537909D01*
X120845238Y-110537909D02*
X120821429Y-110514099D01*
X120821429Y-110514099D02*
X120773810Y-110490290D01*
X120773810Y-110490290D02*
X120726191Y-110490290D01*
X120583333Y-110799814D02*
X120535714Y-110823623D01*
X120535714Y-110823623D02*
X120440476Y-110823623D01*
X120440476Y-110823623D02*
X120392857Y-110799814D01*
X120392857Y-110799814D02*
X120369048Y-110752194D01*
X120369048Y-110752194D02*
X120369048Y-110728385D01*
X120369048Y-110728385D02*
X120392857Y-110680766D01*
X120392857Y-110680766D02*
X120440476Y-110656956D01*
X120440476Y-110656956D02*
X120511905Y-110656956D01*
X120511905Y-110656956D02*
X120559524Y-110633147D01*
X120559524Y-110633147D02*
X120583333Y-110585528D01*
X120583333Y-110585528D02*
X120583333Y-110561718D01*
X120583333Y-110561718D02*
X120559524Y-110514099D01*
X120559524Y-110514099D02*
X120511905Y-110490290D01*
X120511905Y-110490290D02*
X120440476Y-110490290D01*
X120440476Y-110490290D02*
X120392857Y-110514099D01*
X120154762Y-110823623D02*
X120154762Y-110490290D01*
X120154762Y-110323623D02*
X120178571Y-110347433D01*
X120178571Y-110347433D02*
X120154762Y-110371242D01*
X120154762Y-110371242D02*
X120130952Y-110347433D01*
X120130952Y-110347433D02*
X120154762Y-110323623D01*
X120154762Y-110323623D02*
X120154762Y-110371242D01*
X119988095Y-110490290D02*
X119797619Y-110490290D01*
X119916667Y-110323623D02*
X119916667Y-110752194D01*
X119916667Y-110752194D02*
X119892857Y-110799814D01*
X119892857Y-110799814D02*
X119845238Y-110823623D01*
X119845238Y-110823623D02*
X119797619Y-110823623D01*
X119678572Y-110490290D02*
X119559524Y-110823623D01*
X119440477Y-110490290D02*
X119559524Y-110823623D01*
X119559524Y-110823623D02*
X119607143Y-110942671D01*
X119607143Y-110942671D02*
X119630953Y-110966480D01*
X119630953Y-110966480D02*
X119678572Y-110990290D01*
X132095235Y-111628595D02*
X132095235Y-111128595D01*
X132095235Y-111128595D02*
X131904759Y-111128595D01*
X131904759Y-111128595D02*
X131857140Y-111152405D01*
X131857140Y-111152405D02*
X131833330Y-111176214D01*
X131833330Y-111176214D02*
X131809521Y-111223833D01*
X131809521Y-111223833D02*
X131809521Y-111295262D01*
X131809521Y-111295262D02*
X131833330Y-111342881D01*
X131833330Y-111342881D02*
X131857140Y-111366690D01*
X131857140Y-111366690D02*
X131904759Y-111390500D01*
X131904759Y-111390500D02*
X132095235Y-111390500D01*
X131595235Y-111628595D02*
X131595235Y-111128595D01*
X131380949Y-111628595D02*
X131380949Y-111366690D01*
X131380949Y-111366690D02*
X131404759Y-111319071D01*
X131404759Y-111319071D02*
X131452378Y-111295262D01*
X131452378Y-111295262D02*
X131523806Y-111295262D01*
X131523806Y-111295262D02*
X131571425Y-111319071D01*
X131571425Y-111319071D02*
X131595235Y-111342881D01*
X131190473Y-111295262D02*
X131071425Y-111628595D01*
X130952378Y-111295262D02*
X131071425Y-111628595D01*
X131071425Y-111628595D02*
X131119044Y-111747643D01*
X131119044Y-111747643D02*
X131142854Y-111771452D01*
X131142854Y-111771452D02*
X131190473Y-111795262D01*
X130785711Y-111604786D02*
X130738092Y-111628595D01*
X130738092Y-111628595D02*
X130642854Y-111628595D01*
X130642854Y-111628595D02*
X130595235Y-111604786D01*
X130595235Y-111604786D02*
X130571426Y-111557166D01*
X130571426Y-111557166D02*
X130571426Y-111533357D01*
X130571426Y-111533357D02*
X130595235Y-111485738D01*
X130595235Y-111485738D02*
X130642854Y-111461928D01*
X130642854Y-111461928D02*
X130714283Y-111461928D01*
X130714283Y-111461928D02*
X130761902Y-111438119D01*
X130761902Y-111438119D02*
X130785711Y-111390500D01*
X130785711Y-111390500D02*
X130785711Y-111366690D01*
X130785711Y-111366690D02*
X130761902Y-111319071D01*
X130761902Y-111319071D02*
X130714283Y-111295262D01*
X130714283Y-111295262D02*
X130642854Y-111295262D01*
X130642854Y-111295262D02*
X130595235Y-111319071D01*
X130357140Y-111628595D02*
X130357140Y-111295262D01*
X130357140Y-111128595D02*
X130380949Y-111152405D01*
X130380949Y-111152405D02*
X130357140Y-111176214D01*
X130357140Y-111176214D02*
X130333330Y-111152405D01*
X130333330Y-111152405D02*
X130357140Y-111128595D01*
X130357140Y-111128595D02*
X130357140Y-111176214D01*
X129904759Y-111604786D02*
X129952378Y-111628595D01*
X129952378Y-111628595D02*
X130047616Y-111628595D01*
X130047616Y-111628595D02*
X130095235Y-111604786D01*
X130095235Y-111604786D02*
X130119045Y-111580976D01*
X130119045Y-111580976D02*
X130142854Y-111533357D01*
X130142854Y-111533357D02*
X130142854Y-111390500D01*
X130142854Y-111390500D02*
X130119045Y-111342881D01*
X130119045Y-111342881D02*
X130095235Y-111319071D01*
X130095235Y-111319071D02*
X130047616Y-111295262D01*
X130047616Y-111295262D02*
X129952378Y-111295262D01*
X129952378Y-111295262D02*
X129904759Y-111319071D01*
X129476188Y-111628595D02*
X129476188Y-111366690D01*
X129476188Y-111366690D02*
X129499998Y-111319071D01*
X129499998Y-111319071D02*
X129547617Y-111295262D01*
X129547617Y-111295262D02*
X129642855Y-111295262D01*
X129642855Y-111295262D02*
X129690474Y-111319071D01*
X129476188Y-111604786D02*
X129523807Y-111628595D01*
X129523807Y-111628595D02*
X129642855Y-111628595D01*
X129642855Y-111628595D02*
X129690474Y-111604786D01*
X129690474Y-111604786D02*
X129714283Y-111557166D01*
X129714283Y-111557166D02*
X129714283Y-111509547D01*
X129714283Y-111509547D02*
X129690474Y-111461928D01*
X129690474Y-111461928D02*
X129642855Y-111438119D01*
X129642855Y-111438119D02*
X129523807Y-111438119D01*
X129523807Y-111438119D02*
X129476188Y-111414309D01*
X129166664Y-111628595D02*
X129214283Y-111604786D01*
X129214283Y-111604786D02*
X129238093Y-111557166D01*
X129238093Y-111557166D02*
X129238093Y-111128595D01*
X128619045Y-111604786D02*
X128547617Y-111628595D01*
X128547617Y-111628595D02*
X128428569Y-111628595D01*
X128428569Y-111628595D02*
X128380950Y-111604786D01*
X128380950Y-111604786D02*
X128357141Y-111580976D01*
X128357141Y-111580976D02*
X128333331Y-111533357D01*
X128333331Y-111533357D02*
X128333331Y-111485738D01*
X128333331Y-111485738D02*
X128357141Y-111438119D01*
X128357141Y-111438119D02*
X128380950Y-111414309D01*
X128380950Y-111414309D02*
X128428569Y-111390500D01*
X128428569Y-111390500D02*
X128523807Y-111366690D01*
X128523807Y-111366690D02*
X128571426Y-111342881D01*
X128571426Y-111342881D02*
X128595236Y-111319071D01*
X128595236Y-111319071D02*
X128619045Y-111271452D01*
X128619045Y-111271452D02*
X128619045Y-111223833D01*
X128619045Y-111223833D02*
X128595236Y-111176214D01*
X128595236Y-111176214D02*
X128571426Y-111152405D01*
X128571426Y-111152405D02*
X128523807Y-111128595D01*
X128523807Y-111128595D02*
X128404760Y-111128595D01*
X128404760Y-111128595D02*
X128333331Y-111152405D01*
X127904760Y-111604786D02*
X127952379Y-111628595D01*
X127952379Y-111628595D02*
X128047617Y-111628595D01*
X128047617Y-111628595D02*
X128095236Y-111604786D01*
X128095236Y-111604786D02*
X128119046Y-111580976D01*
X128119046Y-111580976D02*
X128142855Y-111533357D01*
X128142855Y-111533357D02*
X128142855Y-111390500D01*
X128142855Y-111390500D02*
X128119046Y-111342881D01*
X128119046Y-111342881D02*
X128095236Y-111319071D01*
X128095236Y-111319071D02*
X128047617Y-111295262D01*
X128047617Y-111295262D02*
X127952379Y-111295262D01*
X127952379Y-111295262D02*
X127904760Y-111319071D01*
X127690475Y-111628595D02*
X127690475Y-111295262D01*
X127690475Y-111128595D02*
X127714284Y-111152405D01*
X127714284Y-111152405D02*
X127690475Y-111176214D01*
X127690475Y-111176214D02*
X127666665Y-111152405D01*
X127666665Y-111152405D02*
X127690475Y-111128595D01*
X127690475Y-111128595D02*
X127690475Y-111176214D01*
X127261904Y-111604786D02*
X127309523Y-111628595D01*
X127309523Y-111628595D02*
X127404761Y-111628595D01*
X127404761Y-111628595D02*
X127452380Y-111604786D01*
X127452380Y-111604786D02*
X127476189Y-111557166D01*
X127476189Y-111557166D02*
X127476189Y-111366690D01*
X127476189Y-111366690D02*
X127452380Y-111319071D01*
X127452380Y-111319071D02*
X127404761Y-111295262D01*
X127404761Y-111295262D02*
X127309523Y-111295262D01*
X127309523Y-111295262D02*
X127261904Y-111319071D01*
X127261904Y-111319071D02*
X127238094Y-111366690D01*
X127238094Y-111366690D02*
X127238094Y-111414309D01*
X127238094Y-111414309D02*
X127476189Y-111461928D01*
X127023809Y-111295262D02*
X127023809Y-111628595D01*
X127023809Y-111342881D02*
X126999999Y-111319071D01*
X126999999Y-111319071D02*
X126952380Y-111295262D01*
X126952380Y-111295262D02*
X126880952Y-111295262D01*
X126880952Y-111295262D02*
X126833333Y-111319071D01*
X126833333Y-111319071D02*
X126809523Y-111366690D01*
X126809523Y-111366690D02*
X126809523Y-111628595D01*
X126357142Y-111604786D02*
X126404761Y-111628595D01*
X126404761Y-111628595D02*
X126499999Y-111628595D01*
X126499999Y-111628595D02*
X126547618Y-111604786D01*
X126547618Y-111604786D02*
X126571428Y-111580976D01*
X126571428Y-111580976D02*
X126595237Y-111533357D01*
X126595237Y-111533357D02*
X126595237Y-111390500D01*
X126595237Y-111390500D02*
X126571428Y-111342881D01*
X126571428Y-111342881D02*
X126547618Y-111319071D01*
X126547618Y-111319071D02*
X126499999Y-111295262D01*
X126499999Y-111295262D02*
X126404761Y-111295262D01*
X126404761Y-111295262D02*
X126357142Y-111319071D01*
X125952381Y-111604786D02*
X126000000Y-111628595D01*
X126000000Y-111628595D02*
X126095238Y-111628595D01*
X126095238Y-111628595D02*
X126142857Y-111604786D01*
X126142857Y-111604786D02*
X126166666Y-111557166D01*
X126166666Y-111557166D02*
X126166666Y-111366690D01*
X126166666Y-111366690D02*
X126142857Y-111319071D01*
X126142857Y-111319071D02*
X126095238Y-111295262D01*
X126095238Y-111295262D02*
X126000000Y-111295262D01*
X126000000Y-111295262D02*
X125952381Y-111319071D01*
X125952381Y-111319071D02*
X125928571Y-111366690D01*
X125928571Y-111366690D02*
X125928571Y-111414309D01*
X125928571Y-111414309D02*
X126166666Y-111461928D01*
X125738095Y-111604786D02*
X125690476Y-111628595D01*
X125690476Y-111628595D02*
X125595238Y-111628595D01*
X125595238Y-111628595D02*
X125547619Y-111604786D01*
X125547619Y-111604786D02*
X125523810Y-111557166D01*
X125523810Y-111557166D02*
X125523810Y-111533357D01*
X125523810Y-111533357D02*
X125547619Y-111485738D01*
X125547619Y-111485738D02*
X125595238Y-111461928D01*
X125595238Y-111461928D02*
X125666667Y-111461928D01*
X125666667Y-111461928D02*
X125714286Y-111438119D01*
X125714286Y-111438119D02*
X125738095Y-111390500D01*
X125738095Y-111390500D02*
X125738095Y-111366690D01*
X125738095Y-111366690D02*
X125714286Y-111319071D01*
X125714286Y-111319071D02*
X125666667Y-111295262D01*
X125666667Y-111295262D02*
X125595238Y-111295262D01*
X125595238Y-111295262D02*
X125547619Y-111319071D01*
X124928572Y-111628595D02*
X124928572Y-111128595D01*
X124928572Y-111128595D02*
X124809524Y-111128595D01*
X124809524Y-111128595D02*
X124738096Y-111152405D01*
X124738096Y-111152405D02*
X124690477Y-111200024D01*
X124690477Y-111200024D02*
X124666667Y-111247643D01*
X124666667Y-111247643D02*
X124642858Y-111342881D01*
X124642858Y-111342881D02*
X124642858Y-111414309D01*
X124642858Y-111414309D02*
X124666667Y-111509547D01*
X124666667Y-111509547D02*
X124690477Y-111557166D01*
X124690477Y-111557166D02*
X124738096Y-111604786D01*
X124738096Y-111604786D02*
X124809524Y-111628595D01*
X124809524Y-111628595D02*
X124928572Y-111628595D01*
X124238096Y-111604786D02*
X124285715Y-111628595D01*
X124285715Y-111628595D02*
X124380953Y-111628595D01*
X124380953Y-111628595D02*
X124428572Y-111604786D01*
X124428572Y-111604786D02*
X124452381Y-111557166D01*
X124452381Y-111557166D02*
X124452381Y-111366690D01*
X124452381Y-111366690D02*
X124428572Y-111319071D01*
X124428572Y-111319071D02*
X124380953Y-111295262D01*
X124380953Y-111295262D02*
X124285715Y-111295262D01*
X124285715Y-111295262D02*
X124238096Y-111319071D01*
X124238096Y-111319071D02*
X124214286Y-111366690D01*
X124214286Y-111366690D02*
X124214286Y-111414309D01*
X124214286Y-111414309D02*
X124452381Y-111461928D01*
X124000001Y-111295262D02*
X124000001Y-111795262D01*
X124000001Y-111319071D02*
X123952382Y-111295262D01*
X123952382Y-111295262D02*
X123857144Y-111295262D01*
X123857144Y-111295262D02*
X123809525Y-111319071D01*
X123809525Y-111319071D02*
X123785715Y-111342881D01*
X123785715Y-111342881D02*
X123761906Y-111390500D01*
X123761906Y-111390500D02*
X123761906Y-111533357D01*
X123761906Y-111533357D02*
X123785715Y-111580976D01*
X123785715Y-111580976D02*
X123809525Y-111604786D01*
X123809525Y-111604786D02*
X123857144Y-111628595D01*
X123857144Y-111628595D02*
X123952382Y-111628595D01*
X123952382Y-111628595D02*
X124000001Y-111604786D01*
X123333334Y-111628595D02*
X123333334Y-111366690D01*
X123333334Y-111366690D02*
X123357144Y-111319071D01*
X123357144Y-111319071D02*
X123404763Y-111295262D01*
X123404763Y-111295262D02*
X123500001Y-111295262D01*
X123500001Y-111295262D02*
X123547620Y-111319071D01*
X123333334Y-111604786D02*
X123380953Y-111628595D01*
X123380953Y-111628595D02*
X123500001Y-111628595D01*
X123500001Y-111628595D02*
X123547620Y-111604786D01*
X123547620Y-111604786D02*
X123571429Y-111557166D01*
X123571429Y-111557166D02*
X123571429Y-111509547D01*
X123571429Y-111509547D02*
X123547620Y-111461928D01*
X123547620Y-111461928D02*
X123500001Y-111438119D01*
X123500001Y-111438119D02*
X123380953Y-111438119D01*
X123380953Y-111438119D02*
X123333334Y-111414309D01*
X123095239Y-111628595D02*
X123095239Y-111295262D01*
X123095239Y-111390500D02*
X123071429Y-111342881D01*
X123071429Y-111342881D02*
X123047620Y-111319071D01*
X123047620Y-111319071D02*
X123000001Y-111295262D01*
X123000001Y-111295262D02*
X122952382Y-111295262D01*
X122857143Y-111295262D02*
X122666667Y-111295262D01*
X122785715Y-111128595D02*
X122785715Y-111557166D01*
X122785715Y-111557166D02*
X122761905Y-111604786D01*
X122761905Y-111604786D02*
X122714286Y-111628595D01*
X122714286Y-111628595D02*
X122666667Y-111628595D01*
X122500001Y-111628595D02*
X122500001Y-111295262D01*
X122500001Y-111342881D02*
X122476191Y-111319071D01*
X122476191Y-111319071D02*
X122428572Y-111295262D01*
X122428572Y-111295262D02*
X122357144Y-111295262D01*
X122357144Y-111295262D02*
X122309525Y-111319071D01*
X122309525Y-111319071D02*
X122285715Y-111366690D01*
X122285715Y-111366690D02*
X122285715Y-111628595D01*
X122285715Y-111366690D02*
X122261906Y-111319071D01*
X122261906Y-111319071D02*
X122214287Y-111295262D01*
X122214287Y-111295262D02*
X122142858Y-111295262D01*
X122142858Y-111295262D02*
X122095239Y-111319071D01*
X122095239Y-111319071D02*
X122071429Y-111366690D01*
X122071429Y-111366690D02*
X122071429Y-111628595D01*
X121642858Y-111604786D02*
X121690477Y-111628595D01*
X121690477Y-111628595D02*
X121785715Y-111628595D01*
X121785715Y-111628595D02*
X121833334Y-111604786D01*
X121833334Y-111604786D02*
X121857143Y-111557166D01*
X121857143Y-111557166D02*
X121857143Y-111366690D01*
X121857143Y-111366690D02*
X121833334Y-111319071D01*
X121833334Y-111319071D02*
X121785715Y-111295262D01*
X121785715Y-111295262D02*
X121690477Y-111295262D01*
X121690477Y-111295262D02*
X121642858Y-111319071D01*
X121642858Y-111319071D02*
X121619048Y-111366690D01*
X121619048Y-111366690D02*
X121619048Y-111414309D01*
X121619048Y-111414309D02*
X121857143Y-111461928D01*
X121404763Y-111295262D02*
X121404763Y-111628595D01*
X121404763Y-111342881D02*
X121380953Y-111319071D01*
X121380953Y-111319071D02*
X121333334Y-111295262D01*
X121333334Y-111295262D02*
X121261906Y-111295262D01*
X121261906Y-111295262D02*
X121214287Y-111319071D01*
X121214287Y-111319071D02*
X121190477Y-111366690D01*
X121190477Y-111366690D02*
X121190477Y-111628595D01*
X121023810Y-111295262D02*
X120833334Y-111295262D01*
X120952382Y-111128595D02*
X120952382Y-111557166D01*
X120952382Y-111557166D02*
X120928572Y-111604786D01*
X120928572Y-111604786D02*
X120880953Y-111628595D01*
X120880953Y-111628595D02*
X120833334Y-111628595D01*
D12*
X135642858Y-108431009D02*
X135500001Y-108478628D01*
X135500001Y-108478628D02*
X135452382Y-108526247D01*
X135452382Y-108526247D02*
X135404763Y-108621485D01*
X135404763Y-108621485D02*
X135404763Y-108764342D01*
X135404763Y-108764342D02*
X135452382Y-108859580D01*
X135452382Y-108859580D02*
X135500001Y-108907200D01*
X135500001Y-108907200D02*
X135595239Y-108954819D01*
X135595239Y-108954819D02*
X135976191Y-108954819D01*
X135976191Y-108954819D02*
X135976191Y-107954819D01*
X135976191Y-107954819D02*
X135642858Y-107954819D01*
X135642858Y-107954819D02*
X135547620Y-108002438D01*
X135547620Y-108002438D02*
X135500001Y-108050057D01*
X135500001Y-108050057D02*
X135452382Y-108145295D01*
X135452382Y-108145295D02*
X135452382Y-108240533D01*
X135452382Y-108240533D02*
X135500001Y-108335771D01*
X135500001Y-108335771D02*
X135547620Y-108383390D01*
X135547620Y-108383390D02*
X135642858Y-108431009D01*
X135642858Y-108431009D02*
X135976191Y-108431009D01*
X134976191Y-108954819D02*
X134976191Y-108288152D01*
X134976191Y-108478628D02*
X134928572Y-108383390D01*
X134928572Y-108383390D02*
X134880953Y-108335771D01*
X134880953Y-108335771D02*
X134785715Y-108288152D01*
X134785715Y-108288152D02*
X134690477Y-108288152D01*
X133976191Y-108907200D02*
X134071429Y-108954819D01*
X134071429Y-108954819D02*
X134261905Y-108954819D01*
X134261905Y-108954819D02*
X134357143Y-108907200D01*
X134357143Y-108907200D02*
X134404762Y-108811961D01*
X134404762Y-108811961D02*
X134404762Y-108431009D01*
X134404762Y-108431009D02*
X134357143Y-108335771D01*
X134357143Y-108335771D02*
X134261905Y-108288152D01*
X134261905Y-108288152D02*
X134071429Y-108288152D01*
X134071429Y-108288152D02*
X133976191Y-108335771D01*
X133976191Y-108335771D02*
X133928572Y-108431009D01*
X133928572Y-108431009D02*
X133928572Y-108526247D01*
X133928572Y-108526247D02*
X134404762Y-108621485D01*
X133071429Y-108954819D02*
X133071429Y-108431009D01*
X133071429Y-108431009D02*
X133119048Y-108335771D01*
X133119048Y-108335771D02*
X133214286Y-108288152D01*
X133214286Y-108288152D02*
X133404762Y-108288152D01*
X133404762Y-108288152D02*
X133500000Y-108335771D01*
X133071429Y-108907200D02*
X133166667Y-108954819D01*
X133166667Y-108954819D02*
X133404762Y-108954819D01*
X133404762Y-108954819D02*
X133500000Y-108907200D01*
X133500000Y-108907200D02*
X133547619Y-108811961D01*
X133547619Y-108811961D02*
X133547619Y-108716723D01*
X133547619Y-108716723D02*
X133500000Y-108621485D01*
X133500000Y-108621485D02*
X133404762Y-108573866D01*
X133404762Y-108573866D02*
X133166667Y-108573866D01*
X133166667Y-108573866D02*
X133071429Y-108526247D01*
X132166667Y-108954819D02*
X132166667Y-107954819D01*
X132166667Y-108907200D02*
X132261905Y-108954819D01*
X132261905Y-108954819D02*
X132452381Y-108954819D01*
X132452381Y-108954819D02*
X132547619Y-108907200D01*
X132547619Y-108907200D02*
X132595238Y-108859580D01*
X132595238Y-108859580D02*
X132642857Y-108764342D01*
X132642857Y-108764342D02*
X132642857Y-108478628D01*
X132642857Y-108478628D02*
X132595238Y-108383390D01*
X132595238Y-108383390D02*
X132547619Y-108335771D01*
X132547619Y-108335771D02*
X132452381Y-108288152D01*
X132452381Y-108288152D02*
X132261905Y-108288152D01*
X132261905Y-108288152D02*
X132166667Y-108335771D01*
X131690476Y-108954819D02*
X131690476Y-107954819D01*
X131690476Y-108335771D02*
X131595238Y-108288152D01*
X131595238Y-108288152D02*
X131404762Y-108288152D01*
X131404762Y-108288152D02*
X131309524Y-108335771D01*
X131309524Y-108335771D02*
X131261905Y-108383390D01*
X131261905Y-108383390D02*
X131214286Y-108478628D01*
X131214286Y-108478628D02*
X131214286Y-108764342D01*
X131214286Y-108764342D02*
X131261905Y-108859580D01*
X131261905Y-108859580D02*
X131309524Y-108907200D01*
X131309524Y-108907200D02*
X131404762Y-108954819D01*
X131404762Y-108954819D02*
X131595238Y-108954819D01*
X131595238Y-108954819D02*
X131690476Y-108907200D01*
X130642857Y-108954819D02*
X130738095Y-108907200D01*
X130738095Y-108907200D02*
X130785714Y-108859580D01*
X130785714Y-108859580D02*
X130833333Y-108764342D01*
X130833333Y-108764342D02*
X130833333Y-108478628D01*
X130833333Y-108478628D02*
X130785714Y-108383390D01*
X130785714Y-108383390D02*
X130738095Y-108335771D01*
X130738095Y-108335771D02*
X130642857Y-108288152D01*
X130642857Y-108288152D02*
X130500000Y-108288152D01*
X130500000Y-108288152D02*
X130404762Y-108335771D01*
X130404762Y-108335771D02*
X130357143Y-108383390D01*
X130357143Y-108383390D02*
X130309524Y-108478628D01*
X130309524Y-108478628D02*
X130309524Y-108764342D01*
X130309524Y-108764342D02*
X130357143Y-108859580D01*
X130357143Y-108859580D02*
X130404762Y-108907200D01*
X130404762Y-108907200D02*
X130500000Y-108954819D01*
X130500000Y-108954819D02*
X130642857Y-108954819D01*
X129452381Y-108954819D02*
X129452381Y-108431009D01*
X129452381Y-108431009D02*
X129500000Y-108335771D01*
X129500000Y-108335771D02*
X129595238Y-108288152D01*
X129595238Y-108288152D02*
X129785714Y-108288152D01*
X129785714Y-108288152D02*
X129880952Y-108335771D01*
X129452381Y-108907200D02*
X129547619Y-108954819D01*
X129547619Y-108954819D02*
X129785714Y-108954819D01*
X129785714Y-108954819D02*
X129880952Y-108907200D01*
X129880952Y-108907200D02*
X129928571Y-108811961D01*
X129928571Y-108811961D02*
X129928571Y-108716723D01*
X129928571Y-108716723D02*
X129880952Y-108621485D01*
X129880952Y-108621485D02*
X129785714Y-108573866D01*
X129785714Y-108573866D02*
X129547619Y-108573866D01*
X129547619Y-108573866D02*
X129452381Y-108526247D01*
X128976190Y-108954819D02*
X128976190Y-108288152D01*
X128976190Y-108478628D02*
X128928571Y-108383390D01*
X128928571Y-108383390D02*
X128880952Y-108335771D01*
X128880952Y-108335771D02*
X128785714Y-108288152D01*
X128785714Y-108288152D02*
X128690476Y-108288152D01*
X127928571Y-108954819D02*
X127928571Y-107954819D01*
X127928571Y-108907200D02*
X128023809Y-108954819D01*
X128023809Y-108954819D02*
X128214285Y-108954819D01*
X128214285Y-108954819D02*
X128309523Y-108907200D01*
X128309523Y-108907200D02*
X128357142Y-108859580D01*
X128357142Y-108859580D02*
X128404761Y-108764342D01*
X128404761Y-108764342D02*
X128404761Y-108478628D01*
X128404761Y-108478628D02*
X128357142Y-108383390D01*
X128357142Y-108383390D02*
X128309523Y-108335771D01*
X128309523Y-108335771D02*
X128214285Y-108288152D01*
X128214285Y-108288152D02*
X128023809Y-108288152D01*
X128023809Y-108288152D02*
X127928571Y-108335771D01*
X126690475Y-108954819D02*
X126690475Y-107954819D01*
X126690475Y-107954819D02*
X126309523Y-107954819D01*
X126309523Y-107954819D02*
X126214285Y-108002438D01*
X126214285Y-108002438D02*
X126166666Y-108050057D01*
X126166666Y-108050057D02*
X126119047Y-108145295D01*
X126119047Y-108145295D02*
X126119047Y-108288152D01*
X126119047Y-108288152D02*
X126166666Y-108383390D01*
X126166666Y-108383390D02*
X126214285Y-108431009D01*
X126214285Y-108431009D02*
X126309523Y-108478628D01*
X126309523Y-108478628D02*
X126690475Y-108478628D01*
X125547618Y-108954819D02*
X125642856Y-108907200D01*
X125642856Y-108907200D02*
X125690475Y-108859580D01*
X125690475Y-108859580D02*
X125738094Y-108764342D01*
X125738094Y-108764342D02*
X125738094Y-108478628D01*
X125738094Y-108478628D02*
X125690475Y-108383390D01*
X125690475Y-108383390D02*
X125642856Y-108335771D01*
X125642856Y-108335771D02*
X125547618Y-108288152D01*
X125547618Y-108288152D02*
X125404761Y-108288152D01*
X125404761Y-108288152D02*
X125309523Y-108335771D01*
X125309523Y-108335771D02*
X125261904Y-108383390D01*
X125261904Y-108383390D02*
X125214285Y-108478628D01*
X125214285Y-108478628D02*
X125214285Y-108764342D01*
X125214285Y-108764342D02*
X125261904Y-108859580D01*
X125261904Y-108859580D02*
X125309523Y-108907200D01*
X125309523Y-108907200D02*
X125404761Y-108954819D01*
X125404761Y-108954819D02*
X125547618Y-108954819D01*
X124880951Y-108288152D02*
X124690475Y-108954819D01*
X124690475Y-108954819D02*
X124499999Y-108478628D01*
X124499999Y-108478628D02*
X124309523Y-108954819D01*
X124309523Y-108954819D02*
X124119047Y-108288152D01*
X123357142Y-108907200D02*
X123452380Y-108954819D01*
X123452380Y-108954819D02*
X123642856Y-108954819D01*
X123642856Y-108954819D02*
X123738094Y-108907200D01*
X123738094Y-108907200D02*
X123785713Y-108811961D01*
X123785713Y-108811961D02*
X123785713Y-108431009D01*
X123785713Y-108431009D02*
X123738094Y-108335771D01*
X123738094Y-108335771D02*
X123642856Y-108288152D01*
X123642856Y-108288152D02*
X123452380Y-108288152D01*
X123452380Y-108288152D02*
X123357142Y-108335771D01*
X123357142Y-108335771D02*
X123309523Y-108431009D01*
X123309523Y-108431009D02*
X123309523Y-108526247D01*
X123309523Y-108526247D02*
X123785713Y-108621485D01*
X122880951Y-108954819D02*
X122880951Y-108288152D01*
X122880951Y-108478628D02*
X122833332Y-108383390D01*
X122833332Y-108383390D02*
X122785713Y-108335771D01*
X122785713Y-108335771D02*
X122690475Y-108288152D01*
X122690475Y-108288152D02*
X122595237Y-108288152D01*
X121547617Y-108907200D02*
X121404760Y-108954819D01*
X121404760Y-108954819D02*
X121166665Y-108954819D01*
X121166665Y-108954819D02*
X121071427Y-108907200D01*
X121071427Y-108907200D02*
X121023808Y-108859580D01*
X121023808Y-108859580D02*
X120976189Y-108764342D01*
X120976189Y-108764342D02*
X120976189Y-108669104D01*
X120976189Y-108669104D02*
X121023808Y-108573866D01*
X121023808Y-108573866D02*
X121071427Y-108526247D01*
X121071427Y-108526247D02*
X121166665Y-108478628D01*
X121166665Y-108478628D02*
X121357141Y-108431009D01*
X121357141Y-108431009D02*
X121452379Y-108383390D01*
X121452379Y-108383390D02*
X121499998Y-108335771D01*
X121499998Y-108335771D02*
X121547617Y-108240533D01*
X121547617Y-108240533D02*
X121547617Y-108145295D01*
X121547617Y-108145295D02*
X121499998Y-108050057D01*
X121499998Y-108050057D02*
X121452379Y-108002438D01*
X121452379Y-108002438D02*
X121357141Y-107954819D01*
X121357141Y-107954819D02*
X121119046Y-107954819D01*
X121119046Y-107954819D02*
X120976189Y-108002438D01*
X120119046Y-108288152D02*
X120119046Y-108954819D01*
X120547617Y-108288152D02*
X120547617Y-108811961D01*
X120547617Y-108811961D02*
X120499998Y-108907200D01*
X120499998Y-108907200D02*
X120404760Y-108954819D01*
X120404760Y-108954819D02*
X120261903Y-108954819D01*
X120261903Y-108954819D02*
X120166665Y-108907200D01*
X120166665Y-108907200D02*
X120119046Y-108859580D01*
X119642855Y-108288152D02*
X119642855Y-109288152D01*
X119642855Y-108335771D02*
X119547617Y-108288152D01*
X119547617Y-108288152D02*
X119357141Y-108288152D01*
X119357141Y-108288152D02*
X119261903Y-108335771D01*
X119261903Y-108335771D02*
X119214284Y-108383390D01*
X119214284Y-108383390D02*
X119166665Y-108478628D01*
X119166665Y-108478628D02*
X119166665Y-108764342D01*
X119166665Y-108764342D02*
X119214284Y-108859580D01*
X119214284Y-108859580D02*
X119261903Y-108907200D01*
X119261903Y-108907200D02*
X119357141Y-108954819D01*
X119357141Y-108954819D02*
X119547617Y-108954819D01*
X119547617Y-108954819D02*
X119642855Y-108907200D01*
X118738093Y-108288152D02*
X118738093Y-109288152D01*
X118738093Y-108335771D02*
X118642855Y-108288152D01*
X118642855Y-108288152D02*
X118452379Y-108288152D01*
X118452379Y-108288152D02*
X118357141Y-108335771D01*
X118357141Y-108335771D02*
X118309522Y-108383390D01*
X118309522Y-108383390D02*
X118261903Y-108478628D01*
X118261903Y-108478628D02*
X118261903Y-108764342D01*
X118261903Y-108764342D02*
X118309522Y-108859580D01*
X118309522Y-108859580D02*
X118357141Y-108907200D01*
X118357141Y-108907200D02*
X118452379Y-108954819D01*
X118452379Y-108954819D02*
X118642855Y-108954819D01*
X118642855Y-108954819D02*
X118738093Y-108907200D01*
X117690474Y-108954819D02*
X117785712Y-108907200D01*
X117785712Y-108907200D02*
X117833331Y-108811961D01*
X117833331Y-108811961D02*
X117833331Y-107954819D01*
X117404759Y-108288152D02*
X117166664Y-108954819D01*
X116928569Y-108288152D02*
X117166664Y-108954819D01*
X117166664Y-108954819D02*
X117261902Y-109192914D01*
X117261902Y-109192914D02*
X117309521Y-109240533D01*
X117309521Y-109240533D02*
X117404759Y-109288152D01*
D13*
X143964280Y-118840724D02*
X143964280Y-118090724D01*
X143642852Y-118840724D02*
X143642852Y-118447867D01*
X143642852Y-118447867D02*
X143678566Y-118376438D01*
X143678566Y-118376438D02*
X143749994Y-118340724D01*
X143749994Y-118340724D02*
X143857137Y-118340724D01*
X143857137Y-118340724D02*
X143928566Y-118376438D01*
X143928566Y-118376438D02*
X143964280Y-118412152D01*
X143392852Y-118340724D02*
X143107138Y-118340724D01*
X143285709Y-118090724D02*
X143285709Y-118733581D01*
X143285709Y-118733581D02*
X143249995Y-118805010D01*
X143249995Y-118805010D02*
X143178566Y-118840724D01*
X143178566Y-118840724D02*
X143107138Y-118840724D01*
X142964281Y-118340724D02*
X142678567Y-118340724D01*
X142857138Y-118090724D02*
X142857138Y-118733581D01*
X142857138Y-118733581D02*
X142821424Y-118805010D01*
X142821424Y-118805010D02*
X142749995Y-118840724D01*
X142749995Y-118840724D02*
X142678567Y-118840724D01*
X142428567Y-118340724D02*
X142428567Y-119090724D01*
X142428567Y-118376438D02*
X142357139Y-118340724D01*
X142357139Y-118340724D02*
X142214281Y-118340724D01*
X142214281Y-118340724D02*
X142142853Y-118376438D01*
X142142853Y-118376438D02*
X142107139Y-118412152D01*
X142107139Y-118412152D02*
X142071424Y-118483581D01*
X142071424Y-118483581D02*
X142071424Y-118697867D01*
X142071424Y-118697867D02*
X142107139Y-118769295D01*
X142107139Y-118769295D02*
X142142853Y-118805010D01*
X142142853Y-118805010D02*
X142214281Y-118840724D01*
X142214281Y-118840724D02*
X142357139Y-118840724D01*
X142357139Y-118840724D02*
X142428567Y-118805010D01*
X141785710Y-118805010D02*
X141714282Y-118840724D01*
X141714282Y-118840724D02*
X141571425Y-118840724D01*
X141571425Y-118840724D02*
X141499996Y-118805010D01*
X141499996Y-118805010D02*
X141464282Y-118733581D01*
X141464282Y-118733581D02*
X141464282Y-118697867D01*
X141464282Y-118697867D02*
X141499996Y-118626438D01*
X141499996Y-118626438D02*
X141571425Y-118590724D01*
X141571425Y-118590724D02*
X141678568Y-118590724D01*
X141678568Y-118590724D02*
X141749996Y-118555010D01*
X141749996Y-118555010D02*
X141785710Y-118483581D01*
X141785710Y-118483581D02*
X141785710Y-118447867D01*
X141785710Y-118447867D02*
X141749996Y-118376438D01*
X141749996Y-118376438D02*
X141678568Y-118340724D01*
X141678568Y-118340724D02*
X141571425Y-118340724D01*
X141571425Y-118340724D02*
X141499996Y-118376438D01*
X141142853Y-118769295D02*
X141107139Y-118805010D01*
X141107139Y-118805010D02*
X141142853Y-118840724D01*
X141142853Y-118840724D02*
X141178567Y-118805010D01*
X141178567Y-118805010D02*
X141142853Y-118769295D01*
X141142853Y-118769295D02*
X141142853Y-118840724D01*
X141142853Y-118376438D02*
X141107139Y-118412152D01*
X141107139Y-118412152D02*
X141142853Y-118447867D01*
X141142853Y-118447867D02*
X141178567Y-118412152D01*
X141178567Y-118412152D02*
X141142853Y-118376438D01*
X141142853Y-118376438D02*
X141142853Y-118447867D01*
X140249996Y-118055010D02*
X140892853Y-119019295D01*
X139464282Y-118055010D02*
X140107139Y-119019295D01*
X138892854Y-118340724D02*
X138892854Y-118947867D01*
X138892854Y-118947867D02*
X138928568Y-119019295D01*
X138928568Y-119019295D02*
X138964282Y-119055010D01*
X138964282Y-119055010D02*
X139035711Y-119090724D01*
X139035711Y-119090724D02*
X139142854Y-119090724D01*
X139142854Y-119090724D02*
X139214282Y-119055010D01*
X138892854Y-118805010D02*
X138964282Y-118840724D01*
X138964282Y-118840724D02*
X139107139Y-118840724D01*
X139107139Y-118840724D02*
X139178568Y-118805010D01*
X139178568Y-118805010D02*
X139214282Y-118769295D01*
X139214282Y-118769295D02*
X139249996Y-118697867D01*
X139249996Y-118697867D02*
X139249996Y-118483581D01*
X139249996Y-118483581D02*
X139214282Y-118412152D01*
X139214282Y-118412152D02*
X139178568Y-118376438D01*
X139178568Y-118376438D02*
X139107139Y-118340724D01*
X139107139Y-118340724D02*
X138964282Y-118340724D01*
X138964282Y-118340724D02*
X138892854Y-118376438D01*
X138535711Y-118840724D02*
X138535711Y-118340724D01*
X138535711Y-118090724D02*
X138571425Y-118126438D01*
X138571425Y-118126438D02*
X138535711Y-118162152D01*
X138535711Y-118162152D02*
X138499997Y-118126438D01*
X138499997Y-118126438D02*
X138535711Y-118090724D01*
X138535711Y-118090724D02*
X138535711Y-118162152D01*
X138285711Y-118340724D02*
X137999997Y-118340724D01*
X138178568Y-118090724D02*
X138178568Y-118733581D01*
X138178568Y-118733581D02*
X138142854Y-118805010D01*
X138142854Y-118805010D02*
X138071425Y-118840724D01*
X138071425Y-118840724D02*
X137999997Y-118840724D01*
X137749997Y-118840724D02*
X137749997Y-118090724D01*
X137428569Y-118840724D02*
X137428569Y-118447867D01*
X137428569Y-118447867D02*
X137464283Y-118376438D01*
X137464283Y-118376438D02*
X137535711Y-118340724D01*
X137535711Y-118340724D02*
X137642854Y-118340724D01*
X137642854Y-118340724D02*
X137714283Y-118376438D01*
X137714283Y-118376438D02*
X137749997Y-118412152D01*
X136749998Y-118340724D02*
X136749998Y-118840724D01*
X137071426Y-118340724D02*
X137071426Y-118733581D01*
X137071426Y-118733581D02*
X137035712Y-118805010D01*
X137035712Y-118805010D02*
X136964283Y-118840724D01*
X136964283Y-118840724D02*
X136857140Y-118840724D01*
X136857140Y-118840724D02*
X136785712Y-118805010D01*
X136785712Y-118805010D02*
X136749998Y-118769295D01*
X136392855Y-118840724D02*
X136392855Y-118090724D01*
X136392855Y-118376438D02*
X136321427Y-118340724D01*
X136321427Y-118340724D02*
X136178569Y-118340724D01*
X136178569Y-118340724D02*
X136107141Y-118376438D01*
X136107141Y-118376438D02*
X136071427Y-118412152D01*
X136071427Y-118412152D02*
X136035712Y-118483581D01*
X136035712Y-118483581D02*
X136035712Y-118697867D01*
X136035712Y-118697867D02*
X136071427Y-118769295D01*
X136071427Y-118769295D02*
X136107141Y-118805010D01*
X136107141Y-118805010D02*
X136178569Y-118840724D01*
X136178569Y-118840724D02*
X136321427Y-118840724D01*
X136321427Y-118840724D02*
X136392855Y-118805010D01*
X135714284Y-118769295D02*
X135678570Y-118805010D01*
X135678570Y-118805010D02*
X135714284Y-118840724D01*
X135714284Y-118840724D02*
X135749998Y-118805010D01*
X135749998Y-118805010D02*
X135714284Y-118769295D01*
X135714284Y-118769295D02*
X135714284Y-118840724D01*
X135035713Y-118805010D02*
X135107141Y-118840724D01*
X135107141Y-118840724D02*
X135249998Y-118840724D01*
X135249998Y-118840724D02*
X135321427Y-118805010D01*
X135321427Y-118805010D02*
X135357141Y-118769295D01*
X135357141Y-118769295D02*
X135392855Y-118697867D01*
X135392855Y-118697867D02*
X135392855Y-118483581D01*
X135392855Y-118483581D02*
X135357141Y-118412152D01*
X135357141Y-118412152D02*
X135321427Y-118376438D01*
X135321427Y-118376438D02*
X135249998Y-118340724D01*
X135249998Y-118340724D02*
X135107141Y-118340724D01*
X135107141Y-118340724D02*
X135035713Y-118376438D01*
X134607141Y-118840724D02*
X134678570Y-118805010D01*
X134678570Y-118805010D02*
X134714284Y-118769295D01*
X134714284Y-118769295D02*
X134749998Y-118697867D01*
X134749998Y-118697867D02*
X134749998Y-118483581D01*
X134749998Y-118483581D02*
X134714284Y-118412152D01*
X134714284Y-118412152D02*
X134678570Y-118376438D01*
X134678570Y-118376438D02*
X134607141Y-118340724D01*
X134607141Y-118340724D02*
X134499998Y-118340724D01*
X134499998Y-118340724D02*
X134428570Y-118376438D01*
X134428570Y-118376438D02*
X134392856Y-118412152D01*
X134392856Y-118412152D02*
X134357141Y-118483581D01*
X134357141Y-118483581D02*
X134357141Y-118697867D01*
X134357141Y-118697867D02*
X134392856Y-118769295D01*
X134392856Y-118769295D02*
X134428570Y-118805010D01*
X134428570Y-118805010D02*
X134499998Y-118840724D01*
X134499998Y-118840724D02*
X134607141Y-118840724D01*
X134035713Y-118840724D02*
X134035713Y-118340724D01*
X134035713Y-118412152D02*
X133999999Y-118376438D01*
X133999999Y-118376438D02*
X133928570Y-118340724D01*
X133928570Y-118340724D02*
X133821427Y-118340724D01*
X133821427Y-118340724D02*
X133749999Y-118376438D01*
X133749999Y-118376438D02*
X133714285Y-118447867D01*
X133714285Y-118447867D02*
X133714285Y-118840724D01*
X133714285Y-118447867D02*
X133678570Y-118376438D01*
X133678570Y-118376438D02*
X133607142Y-118340724D01*
X133607142Y-118340724D02*
X133499999Y-118340724D01*
X133499999Y-118340724D02*
X133428570Y-118376438D01*
X133428570Y-118376438D02*
X133392856Y-118447867D01*
X133392856Y-118447867D02*
X133392856Y-118840724D01*
X132499999Y-118055010D02*
X133142856Y-119019295D01*
X132249999Y-118840724D02*
X132249999Y-118090724D01*
X132249999Y-118090724D02*
X132071428Y-118090724D01*
X132071428Y-118090724D02*
X131964285Y-118126438D01*
X131964285Y-118126438D02*
X131892856Y-118197867D01*
X131892856Y-118197867D02*
X131857142Y-118269295D01*
X131857142Y-118269295D02*
X131821428Y-118412152D01*
X131821428Y-118412152D02*
X131821428Y-118519295D01*
X131821428Y-118519295D02*
X131857142Y-118662152D01*
X131857142Y-118662152D02*
X131892856Y-118733581D01*
X131892856Y-118733581D02*
X131964285Y-118805010D01*
X131964285Y-118805010D02*
X132071428Y-118840724D01*
X132071428Y-118840724D02*
X132249999Y-118840724D01*
X131214285Y-118805010D02*
X131285713Y-118840724D01*
X131285713Y-118840724D02*
X131428571Y-118840724D01*
X131428571Y-118840724D02*
X131499999Y-118805010D01*
X131499999Y-118805010D02*
X131535713Y-118733581D01*
X131535713Y-118733581D02*
X131535713Y-118447867D01*
X131535713Y-118447867D02*
X131499999Y-118376438D01*
X131499999Y-118376438D02*
X131428571Y-118340724D01*
X131428571Y-118340724D02*
X131285713Y-118340724D01*
X131285713Y-118340724D02*
X131214285Y-118376438D01*
X131214285Y-118376438D02*
X131178571Y-118447867D01*
X131178571Y-118447867D02*
X131178571Y-118519295D01*
X131178571Y-118519295D02*
X131535713Y-118590724D01*
X130571428Y-118805010D02*
X130642856Y-118840724D01*
X130642856Y-118840724D02*
X130785714Y-118840724D01*
X130785714Y-118840724D02*
X130857142Y-118805010D01*
X130857142Y-118805010D02*
X130892856Y-118733581D01*
X130892856Y-118733581D02*
X130892856Y-118447867D01*
X130892856Y-118447867D02*
X130857142Y-118376438D01*
X130857142Y-118376438D02*
X130785714Y-118340724D01*
X130785714Y-118340724D02*
X130642856Y-118340724D01*
X130642856Y-118340724D02*
X130571428Y-118376438D01*
X130571428Y-118376438D02*
X130535714Y-118447867D01*
X130535714Y-118447867D02*
X130535714Y-118519295D01*
X130535714Y-118519295D02*
X130892856Y-118590724D01*
X130214285Y-118340724D02*
X130214285Y-119090724D01*
X130214285Y-118376438D02*
X130142857Y-118340724D01*
X130142857Y-118340724D02*
X129999999Y-118340724D01*
X129999999Y-118340724D02*
X129928571Y-118376438D01*
X129928571Y-118376438D02*
X129892857Y-118412152D01*
X129892857Y-118412152D02*
X129857142Y-118483581D01*
X129857142Y-118483581D02*
X129857142Y-118697867D01*
X129857142Y-118697867D02*
X129892857Y-118769295D01*
X129892857Y-118769295D02*
X129928571Y-118805010D01*
X129928571Y-118805010D02*
X129999999Y-118840724D01*
X129999999Y-118840724D02*
X130142857Y-118840724D01*
X130142857Y-118840724D02*
X130214285Y-118805010D01*
X129571428Y-118805010D02*
X129464286Y-118840724D01*
X129464286Y-118840724D02*
X129285714Y-118840724D01*
X129285714Y-118840724D02*
X129214286Y-118805010D01*
X129214286Y-118805010D02*
X129178571Y-118769295D01*
X129178571Y-118769295D02*
X129142857Y-118697867D01*
X129142857Y-118697867D02*
X129142857Y-118626438D01*
X129142857Y-118626438D02*
X129178571Y-118555010D01*
X129178571Y-118555010D02*
X129214286Y-118519295D01*
X129214286Y-118519295D02*
X129285714Y-118483581D01*
X129285714Y-118483581D02*
X129428571Y-118447867D01*
X129428571Y-118447867D02*
X129500000Y-118412152D01*
X129500000Y-118412152D02*
X129535714Y-118376438D01*
X129535714Y-118376438D02*
X129571428Y-118305010D01*
X129571428Y-118305010D02*
X129571428Y-118233581D01*
X129571428Y-118233581D02*
X129535714Y-118162152D01*
X129535714Y-118162152D02*
X129500000Y-118126438D01*
X129500000Y-118126438D02*
X129428571Y-118090724D01*
X129428571Y-118090724D02*
X129250000Y-118090724D01*
X129250000Y-118090724D02*
X129142857Y-118126438D01*
X128821428Y-118340724D02*
X128821428Y-119090724D01*
X128821428Y-118376438D02*
X128750000Y-118340724D01*
X128750000Y-118340724D02*
X128607142Y-118340724D01*
X128607142Y-118340724D02*
X128535714Y-118376438D01*
X128535714Y-118376438D02*
X128500000Y-118412152D01*
X128500000Y-118412152D02*
X128464285Y-118483581D01*
X128464285Y-118483581D02*
X128464285Y-118697867D01*
X128464285Y-118697867D02*
X128500000Y-118769295D01*
X128500000Y-118769295D02*
X128535714Y-118805010D01*
X128535714Y-118805010D02*
X128607142Y-118840724D01*
X128607142Y-118840724D02*
X128750000Y-118840724D01*
X128750000Y-118840724D02*
X128821428Y-118805010D01*
X127821429Y-118840724D02*
X127821429Y-118447867D01*
X127821429Y-118447867D02*
X127857143Y-118376438D01*
X127857143Y-118376438D02*
X127928571Y-118340724D01*
X127928571Y-118340724D02*
X128071429Y-118340724D01*
X128071429Y-118340724D02*
X128142857Y-118376438D01*
X127821429Y-118805010D02*
X127892857Y-118840724D01*
X127892857Y-118840724D02*
X128071429Y-118840724D01*
X128071429Y-118840724D02*
X128142857Y-118805010D01*
X128142857Y-118805010D02*
X128178571Y-118733581D01*
X128178571Y-118733581D02*
X128178571Y-118662152D01*
X128178571Y-118662152D02*
X128142857Y-118590724D01*
X128142857Y-118590724D02*
X128071429Y-118555010D01*
X128071429Y-118555010D02*
X127892857Y-118555010D01*
X127892857Y-118555010D02*
X127821429Y-118519295D01*
X127142858Y-118805010D02*
X127214286Y-118840724D01*
X127214286Y-118840724D02*
X127357143Y-118840724D01*
X127357143Y-118840724D02*
X127428572Y-118805010D01*
X127428572Y-118805010D02*
X127464286Y-118769295D01*
X127464286Y-118769295D02*
X127500000Y-118697867D01*
X127500000Y-118697867D02*
X127500000Y-118483581D01*
X127500000Y-118483581D02*
X127464286Y-118412152D01*
X127464286Y-118412152D02*
X127428572Y-118376438D01*
X127428572Y-118376438D02*
X127357143Y-118340724D01*
X127357143Y-118340724D02*
X127214286Y-118340724D01*
X127214286Y-118340724D02*
X127142858Y-118376438D01*
X126535715Y-118805010D02*
X126607143Y-118840724D01*
X126607143Y-118840724D02*
X126750001Y-118840724D01*
X126750001Y-118840724D02*
X126821429Y-118805010D01*
X126821429Y-118805010D02*
X126857143Y-118733581D01*
X126857143Y-118733581D02*
X126857143Y-118447867D01*
X126857143Y-118447867D02*
X126821429Y-118376438D01*
X126821429Y-118376438D02*
X126750001Y-118340724D01*
X126750001Y-118340724D02*
X126607143Y-118340724D01*
X126607143Y-118340724D02*
X126535715Y-118376438D01*
X126535715Y-118376438D02*
X126500001Y-118447867D01*
X126500001Y-118447867D02*
X126500001Y-118519295D01*
X126500001Y-118519295D02*
X126857143Y-118590724D01*
X126035715Y-118090724D02*
X125964286Y-118090724D01*
X125964286Y-118090724D02*
X125892858Y-118126438D01*
X125892858Y-118126438D02*
X125857144Y-118162152D01*
X125857144Y-118162152D02*
X125821429Y-118233581D01*
X125821429Y-118233581D02*
X125785715Y-118376438D01*
X125785715Y-118376438D02*
X125785715Y-118555010D01*
X125785715Y-118555010D02*
X125821429Y-118697867D01*
X125821429Y-118697867D02*
X125857144Y-118769295D01*
X125857144Y-118769295D02*
X125892858Y-118805010D01*
X125892858Y-118805010D02*
X125964286Y-118840724D01*
X125964286Y-118840724D02*
X126035715Y-118840724D01*
X126035715Y-118840724D02*
X126107144Y-118805010D01*
X126107144Y-118805010D02*
X126142858Y-118769295D01*
X126142858Y-118769295D02*
X126178572Y-118697867D01*
X126178572Y-118697867D02*
X126214286Y-118555010D01*
X126214286Y-118555010D02*
X126214286Y-118376438D01*
X126214286Y-118376438D02*
X126178572Y-118233581D01*
X126178572Y-118233581D02*
X126142858Y-118162152D01*
X126142858Y-118162152D02*
X126107144Y-118126438D01*
X126107144Y-118126438D02*
X126035715Y-118090724D01*
X125321429Y-118090724D02*
X125250000Y-118090724D01*
X125250000Y-118090724D02*
X125178572Y-118126438D01*
X125178572Y-118126438D02*
X125142858Y-118162152D01*
X125142858Y-118162152D02*
X125107143Y-118233581D01*
X125107143Y-118233581D02*
X125071429Y-118376438D01*
X125071429Y-118376438D02*
X125071429Y-118555010D01*
X125071429Y-118555010D02*
X125107143Y-118697867D01*
X125107143Y-118697867D02*
X125142858Y-118769295D01*
X125142858Y-118769295D02*
X125178572Y-118805010D01*
X125178572Y-118805010D02*
X125250000Y-118840724D01*
X125250000Y-118840724D02*
X125321429Y-118840724D01*
X125321429Y-118840724D02*
X125392858Y-118805010D01*
X125392858Y-118805010D02*
X125428572Y-118769295D01*
X125428572Y-118769295D02*
X125464286Y-118697867D01*
X125464286Y-118697867D02*
X125500000Y-118555010D01*
X125500000Y-118555010D02*
X125500000Y-118376438D01*
X125500000Y-118376438D02*
X125464286Y-118233581D01*
X125464286Y-118233581D02*
X125428572Y-118162152D01*
X125428572Y-118162152D02*
X125392858Y-118126438D01*
X125392858Y-118126438D02*
X125321429Y-118090724D01*
X124214286Y-118055010D02*
X124857143Y-119019295D01*
X123714286Y-118447867D02*
X123607143Y-118483581D01*
X123607143Y-118483581D02*
X123571429Y-118519295D01*
X123571429Y-118519295D02*
X123535715Y-118590724D01*
X123535715Y-118590724D02*
X123535715Y-118697867D01*
X123535715Y-118697867D02*
X123571429Y-118769295D01*
X123571429Y-118769295D02*
X123607143Y-118805010D01*
X123607143Y-118805010D02*
X123678572Y-118840724D01*
X123678572Y-118840724D02*
X123964286Y-118840724D01*
X123964286Y-118840724D02*
X123964286Y-118090724D01*
X123964286Y-118090724D02*
X123714286Y-118090724D01*
X123714286Y-118090724D02*
X123642858Y-118126438D01*
X123642858Y-118126438D02*
X123607143Y-118162152D01*
X123607143Y-118162152D02*
X123571429Y-118233581D01*
X123571429Y-118233581D02*
X123571429Y-118305010D01*
X123571429Y-118305010D02*
X123607143Y-118376438D01*
X123607143Y-118376438D02*
X123642858Y-118412152D01*
X123642858Y-118412152D02*
X123714286Y-118447867D01*
X123714286Y-118447867D02*
X123964286Y-118447867D01*
X123214286Y-118840724D02*
X123214286Y-118340724D01*
X123214286Y-118483581D02*
X123178572Y-118412152D01*
X123178572Y-118412152D02*
X123142858Y-118376438D01*
X123142858Y-118376438D02*
X123071429Y-118340724D01*
X123071429Y-118340724D02*
X123000000Y-118340724D01*
X122464286Y-118805010D02*
X122535714Y-118840724D01*
X122535714Y-118840724D02*
X122678572Y-118840724D01*
X122678572Y-118840724D02*
X122750000Y-118805010D01*
X122750000Y-118805010D02*
X122785714Y-118733581D01*
X122785714Y-118733581D02*
X122785714Y-118447867D01*
X122785714Y-118447867D02*
X122750000Y-118376438D01*
X122750000Y-118376438D02*
X122678572Y-118340724D01*
X122678572Y-118340724D02*
X122535714Y-118340724D01*
X122535714Y-118340724D02*
X122464286Y-118376438D01*
X122464286Y-118376438D02*
X122428572Y-118447867D01*
X122428572Y-118447867D02*
X122428572Y-118519295D01*
X122428572Y-118519295D02*
X122785714Y-118590724D01*
X121785715Y-118840724D02*
X121785715Y-118447867D01*
X121785715Y-118447867D02*
X121821429Y-118376438D01*
X121821429Y-118376438D02*
X121892857Y-118340724D01*
X121892857Y-118340724D02*
X122035715Y-118340724D01*
X122035715Y-118340724D02*
X122107143Y-118376438D01*
X121785715Y-118805010D02*
X121857143Y-118840724D01*
X121857143Y-118840724D02*
X122035715Y-118840724D01*
X122035715Y-118840724D02*
X122107143Y-118805010D01*
X122107143Y-118805010D02*
X122142857Y-118733581D01*
X122142857Y-118733581D02*
X122142857Y-118662152D01*
X122142857Y-118662152D02*
X122107143Y-118590724D01*
X122107143Y-118590724D02*
X122035715Y-118555010D01*
X122035715Y-118555010D02*
X121857143Y-118555010D01*
X121857143Y-118555010D02*
X121785715Y-118519295D01*
X121107144Y-118840724D02*
X121107144Y-118090724D01*
X121107144Y-118805010D02*
X121178572Y-118840724D01*
X121178572Y-118840724D02*
X121321429Y-118840724D01*
X121321429Y-118840724D02*
X121392858Y-118805010D01*
X121392858Y-118805010D02*
X121428572Y-118769295D01*
X121428572Y-118769295D02*
X121464286Y-118697867D01*
X121464286Y-118697867D02*
X121464286Y-118483581D01*
X121464286Y-118483581D02*
X121428572Y-118412152D01*
X121428572Y-118412152D02*
X121392858Y-118376438D01*
X121392858Y-118376438D02*
X121321429Y-118340724D01*
X121321429Y-118340724D02*
X121178572Y-118340724D01*
X121178572Y-118340724D02*
X121107144Y-118376438D01*
X120750001Y-118840724D02*
X120750001Y-118090724D01*
X120750001Y-118376438D02*
X120678573Y-118340724D01*
X120678573Y-118340724D02*
X120535715Y-118340724D01*
X120535715Y-118340724D02*
X120464287Y-118376438D01*
X120464287Y-118376438D02*
X120428573Y-118412152D01*
X120428573Y-118412152D02*
X120392858Y-118483581D01*
X120392858Y-118483581D02*
X120392858Y-118697867D01*
X120392858Y-118697867D02*
X120428573Y-118769295D01*
X120428573Y-118769295D02*
X120464287Y-118805010D01*
X120464287Y-118805010D02*
X120535715Y-118840724D01*
X120535715Y-118840724D02*
X120678573Y-118840724D01*
X120678573Y-118840724D02*
X120750001Y-118805010D01*
X119964287Y-118840724D02*
X120035716Y-118805010D01*
X120035716Y-118805010D02*
X120071430Y-118769295D01*
X120071430Y-118769295D02*
X120107144Y-118697867D01*
X120107144Y-118697867D02*
X120107144Y-118483581D01*
X120107144Y-118483581D02*
X120071430Y-118412152D01*
X120071430Y-118412152D02*
X120035716Y-118376438D01*
X120035716Y-118376438D02*
X119964287Y-118340724D01*
X119964287Y-118340724D02*
X119857144Y-118340724D01*
X119857144Y-118340724D02*
X119785716Y-118376438D01*
X119785716Y-118376438D02*
X119750002Y-118412152D01*
X119750002Y-118412152D02*
X119714287Y-118483581D01*
X119714287Y-118483581D02*
X119714287Y-118697867D01*
X119714287Y-118697867D02*
X119750002Y-118769295D01*
X119750002Y-118769295D02*
X119785716Y-118805010D01*
X119785716Y-118805010D02*
X119857144Y-118840724D01*
X119857144Y-118840724D02*
X119964287Y-118840724D01*
X119071431Y-118840724D02*
X119071431Y-118447867D01*
X119071431Y-118447867D02*
X119107145Y-118376438D01*
X119107145Y-118376438D02*
X119178573Y-118340724D01*
X119178573Y-118340724D02*
X119321431Y-118340724D01*
X119321431Y-118340724D02*
X119392859Y-118376438D01*
X119071431Y-118805010D02*
X119142859Y-118840724D01*
X119142859Y-118840724D02*
X119321431Y-118840724D01*
X119321431Y-118840724D02*
X119392859Y-118805010D01*
X119392859Y-118805010D02*
X119428573Y-118733581D01*
X119428573Y-118733581D02*
X119428573Y-118662152D01*
X119428573Y-118662152D02*
X119392859Y-118590724D01*
X119392859Y-118590724D02*
X119321431Y-118555010D01*
X119321431Y-118555010D02*
X119142859Y-118555010D01*
X119142859Y-118555010D02*
X119071431Y-118519295D01*
X118714288Y-118840724D02*
X118714288Y-118340724D01*
X118714288Y-118483581D02*
X118678574Y-118412152D01*
X118678574Y-118412152D02*
X118642860Y-118376438D01*
X118642860Y-118376438D02*
X118571431Y-118340724D01*
X118571431Y-118340724D02*
X118500002Y-118340724D01*
X117928574Y-118840724D02*
X117928574Y-118090724D01*
X117928574Y-118805010D02*
X118000002Y-118840724D01*
X118000002Y-118840724D02*
X118142859Y-118840724D01*
X118142859Y-118840724D02*
X118214288Y-118805010D01*
X118214288Y-118805010D02*
X118250002Y-118769295D01*
X118250002Y-118769295D02*
X118285716Y-118697867D01*
X118285716Y-118697867D02*
X118285716Y-118483581D01*
X118285716Y-118483581D02*
X118250002Y-118412152D01*
X118250002Y-118412152D02*
X118214288Y-118376438D01*
X118214288Y-118376438D02*
X118142859Y-118340724D01*
X118142859Y-118340724D02*
X118000002Y-118340724D01*
X118000002Y-118340724D02*
X117928574Y-118376438D01*
X117571431Y-118555010D02*
X117000003Y-118555010D01*
X116642860Y-118840724D02*
X116642860Y-118090724D01*
X116642860Y-118090724D02*
X116357146Y-118090724D01*
X116357146Y-118090724D02*
X116285717Y-118126438D01*
X116285717Y-118126438D02*
X116250003Y-118162152D01*
X116250003Y-118162152D02*
X116214289Y-118233581D01*
X116214289Y-118233581D02*
X116214289Y-118340724D01*
X116214289Y-118340724D02*
X116250003Y-118412152D01*
X116250003Y-118412152D02*
X116285717Y-118447867D01*
X116285717Y-118447867D02*
X116357146Y-118483581D01*
X116357146Y-118483581D02*
X116642860Y-118483581D01*
X115785717Y-118840724D02*
X115857146Y-118805010D01*
X115857146Y-118805010D02*
X115892860Y-118769295D01*
X115892860Y-118769295D02*
X115928574Y-118697867D01*
X115928574Y-118697867D02*
X115928574Y-118483581D01*
X115928574Y-118483581D02*
X115892860Y-118412152D01*
X115892860Y-118412152D02*
X115857146Y-118376438D01*
X115857146Y-118376438D02*
X115785717Y-118340724D01*
X115785717Y-118340724D02*
X115678574Y-118340724D01*
X115678574Y-118340724D02*
X115607146Y-118376438D01*
X115607146Y-118376438D02*
X115571432Y-118412152D01*
X115571432Y-118412152D02*
X115535717Y-118483581D01*
X115535717Y-118483581D02*
X115535717Y-118697867D01*
X115535717Y-118697867D02*
X115571432Y-118769295D01*
X115571432Y-118769295D02*
X115607146Y-118805010D01*
X115607146Y-118805010D02*
X115678574Y-118840724D01*
X115678574Y-118840724D02*
X115785717Y-118840724D01*
X115285718Y-118340724D02*
X115142861Y-118840724D01*
X115142861Y-118840724D02*
X115000003Y-118483581D01*
X115000003Y-118483581D02*
X114857146Y-118840724D01*
X114857146Y-118840724D02*
X114714289Y-118340724D01*
X114142861Y-118805010D02*
X114214289Y-118840724D01*
X114214289Y-118840724D02*
X114357147Y-118840724D01*
X114357147Y-118840724D02*
X114428575Y-118805010D01*
X114428575Y-118805010D02*
X114464289Y-118733581D01*
X114464289Y-118733581D02*
X114464289Y-118447867D01*
X114464289Y-118447867D02*
X114428575Y-118376438D01*
X114428575Y-118376438D02*
X114357147Y-118340724D01*
X114357147Y-118340724D02*
X114214289Y-118340724D01*
X114214289Y-118340724D02*
X114142861Y-118376438D01*
X114142861Y-118376438D02*
X114107147Y-118447867D01*
X114107147Y-118447867D02*
X114107147Y-118519295D01*
X114107147Y-118519295D02*
X114464289Y-118590724D01*
X113785718Y-118840724D02*
X113785718Y-118340724D01*
X113785718Y-118483581D02*
X113750004Y-118412152D01*
X113750004Y-118412152D02*
X113714290Y-118376438D01*
X113714290Y-118376438D02*
X113642861Y-118340724D01*
X113642861Y-118340724D02*
X113571432Y-118340724D01*
X113321432Y-118555010D02*
X112750004Y-118555010D01*
X112428575Y-118805010D02*
X112321433Y-118840724D01*
X112321433Y-118840724D02*
X112142861Y-118840724D01*
X112142861Y-118840724D02*
X112071433Y-118805010D01*
X112071433Y-118805010D02*
X112035718Y-118769295D01*
X112035718Y-118769295D02*
X112000004Y-118697867D01*
X112000004Y-118697867D02*
X112000004Y-118626438D01*
X112000004Y-118626438D02*
X112035718Y-118555010D01*
X112035718Y-118555010D02*
X112071433Y-118519295D01*
X112071433Y-118519295D02*
X112142861Y-118483581D01*
X112142861Y-118483581D02*
X112285718Y-118447867D01*
X112285718Y-118447867D02*
X112357147Y-118412152D01*
X112357147Y-118412152D02*
X112392861Y-118376438D01*
X112392861Y-118376438D02*
X112428575Y-118305010D01*
X112428575Y-118305010D02*
X112428575Y-118233581D01*
X112428575Y-118233581D02*
X112392861Y-118162152D01*
X112392861Y-118162152D02*
X112357147Y-118126438D01*
X112357147Y-118126438D02*
X112285718Y-118090724D01*
X112285718Y-118090724D02*
X112107147Y-118090724D01*
X112107147Y-118090724D02*
X112000004Y-118126438D01*
X111357147Y-118340724D02*
X111357147Y-118840724D01*
X111678575Y-118340724D02*
X111678575Y-118733581D01*
X111678575Y-118733581D02*
X111642861Y-118805010D01*
X111642861Y-118805010D02*
X111571432Y-118840724D01*
X111571432Y-118840724D02*
X111464289Y-118840724D01*
X111464289Y-118840724D02*
X111392861Y-118805010D01*
X111392861Y-118805010D02*
X111357147Y-118769295D01*
X111000004Y-118340724D02*
X111000004Y-119090724D01*
X111000004Y-118376438D02*
X110928576Y-118340724D01*
X110928576Y-118340724D02*
X110785718Y-118340724D01*
X110785718Y-118340724D02*
X110714290Y-118376438D01*
X110714290Y-118376438D02*
X110678576Y-118412152D01*
X110678576Y-118412152D02*
X110642861Y-118483581D01*
X110642861Y-118483581D02*
X110642861Y-118697867D01*
X110642861Y-118697867D02*
X110678576Y-118769295D01*
X110678576Y-118769295D02*
X110714290Y-118805010D01*
X110714290Y-118805010D02*
X110785718Y-118840724D01*
X110785718Y-118840724D02*
X110928576Y-118840724D01*
X110928576Y-118840724D02*
X111000004Y-118805010D01*
X110321433Y-118340724D02*
X110321433Y-119090724D01*
X110321433Y-118376438D02*
X110250005Y-118340724D01*
X110250005Y-118340724D02*
X110107147Y-118340724D01*
X110107147Y-118340724D02*
X110035719Y-118376438D01*
X110035719Y-118376438D02*
X110000005Y-118412152D01*
X110000005Y-118412152D02*
X109964290Y-118483581D01*
X109964290Y-118483581D02*
X109964290Y-118697867D01*
X109964290Y-118697867D02*
X110000005Y-118769295D01*
X110000005Y-118769295D02*
X110035719Y-118805010D01*
X110035719Y-118805010D02*
X110107147Y-118840724D01*
X110107147Y-118840724D02*
X110250005Y-118840724D01*
X110250005Y-118840724D02*
X110321433Y-118805010D01*
X109535719Y-118840724D02*
X109607148Y-118805010D01*
X109607148Y-118805010D02*
X109642862Y-118733581D01*
X109642862Y-118733581D02*
X109642862Y-118090724D01*
X109321434Y-118340724D02*
X109142862Y-118840724D01*
X108964291Y-118340724D02*
X109142862Y-118840724D01*
X109142862Y-118840724D02*
X109214291Y-119019295D01*
X109214291Y-119019295D02*
X109250005Y-119055010D01*
X109250005Y-119055010D02*
X109321434Y-119090724D01*
X129964285Y-112986995D02*
X129714285Y-113736995D01*
X129714285Y-113736995D02*
X129464285Y-112986995D01*
X129214285Y-113736995D02*
X129214285Y-112986995D01*
X128857142Y-113736995D02*
X128857142Y-112986995D01*
X128857142Y-112986995D02*
X128428571Y-113736995D01*
X128428571Y-113736995D02*
X128428571Y-112986995D01*
X128071428Y-113665566D02*
X128035714Y-113701281D01*
X128035714Y-113701281D02*
X128071428Y-113736995D01*
X128071428Y-113736995D02*
X128107142Y-113701281D01*
X128107142Y-113701281D02*
X128071428Y-113665566D01*
X128071428Y-113665566D02*
X128071428Y-113736995D01*
X128071428Y-113272709D02*
X128035714Y-113308423D01*
X128035714Y-113308423D02*
X128071428Y-113344138D01*
X128071428Y-113344138D02*
X128107142Y-113308423D01*
X128107142Y-113308423D02*
X128071428Y-113272709D01*
X128071428Y-113272709D02*
X128071428Y-113344138D01*
X127035713Y-113308423D02*
X127107142Y-113272709D01*
X127107142Y-113272709D02*
X127142856Y-113236995D01*
X127142856Y-113236995D02*
X127178570Y-113165566D01*
X127178570Y-113165566D02*
X127178570Y-113129852D01*
X127178570Y-113129852D02*
X127142856Y-113058423D01*
X127142856Y-113058423D02*
X127107142Y-113022709D01*
X127107142Y-113022709D02*
X127035713Y-112986995D01*
X127035713Y-112986995D02*
X126892856Y-112986995D01*
X126892856Y-112986995D02*
X126821428Y-113022709D01*
X126821428Y-113022709D02*
X126785713Y-113058423D01*
X126785713Y-113058423D02*
X126749999Y-113129852D01*
X126749999Y-113129852D02*
X126749999Y-113165566D01*
X126749999Y-113165566D02*
X126785713Y-113236995D01*
X126785713Y-113236995D02*
X126821428Y-113272709D01*
X126821428Y-113272709D02*
X126892856Y-113308423D01*
X126892856Y-113308423D02*
X127035713Y-113308423D01*
X127035713Y-113308423D02*
X127107142Y-113344138D01*
X127107142Y-113344138D02*
X127142856Y-113379852D01*
X127142856Y-113379852D02*
X127178570Y-113451281D01*
X127178570Y-113451281D02*
X127178570Y-113594138D01*
X127178570Y-113594138D02*
X127142856Y-113665566D01*
X127142856Y-113665566D02*
X127107142Y-113701281D01*
X127107142Y-113701281D02*
X127035713Y-113736995D01*
X127035713Y-113736995D02*
X126892856Y-113736995D01*
X126892856Y-113736995D02*
X126821428Y-113701281D01*
X126821428Y-113701281D02*
X126785713Y-113665566D01*
X126785713Y-113665566D02*
X126749999Y-113594138D01*
X126749999Y-113594138D02*
X126749999Y-113451281D01*
X126749999Y-113451281D02*
X126785713Y-113379852D01*
X126785713Y-113379852D02*
X126821428Y-113344138D01*
X126821428Y-113344138D02*
X126892856Y-113308423D01*
X126535713Y-112986995D02*
X126285713Y-113736995D01*
X126285713Y-113736995D02*
X126035713Y-112986995D01*
X125785713Y-113451281D02*
X125214285Y-113451281D01*
X124464285Y-113736995D02*
X124892856Y-113736995D01*
X124678571Y-113736995D02*
X124678571Y-112986995D01*
X124678571Y-112986995D02*
X124749999Y-113094138D01*
X124749999Y-113094138D02*
X124821428Y-113165566D01*
X124821428Y-113165566D02*
X124892856Y-113201281D01*
X124035713Y-113308423D02*
X124107142Y-113272709D01*
X124107142Y-113272709D02*
X124142856Y-113236995D01*
X124142856Y-113236995D02*
X124178570Y-113165566D01*
X124178570Y-113165566D02*
X124178570Y-113129852D01*
X124178570Y-113129852D02*
X124142856Y-113058423D01*
X124142856Y-113058423D02*
X124107142Y-113022709D01*
X124107142Y-113022709D02*
X124035713Y-112986995D01*
X124035713Y-112986995D02*
X123892856Y-112986995D01*
X123892856Y-112986995D02*
X123821428Y-113022709D01*
X123821428Y-113022709D02*
X123785713Y-113058423D01*
X123785713Y-113058423D02*
X123749999Y-113129852D01*
X123749999Y-113129852D02*
X123749999Y-113165566D01*
X123749999Y-113165566D02*
X123785713Y-113236995D01*
X123785713Y-113236995D02*
X123821428Y-113272709D01*
X123821428Y-113272709D02*
X123892856Y-113308423D01*
X123892856Y-113308423D02*
X124035713Y-113308423D01*
X124035713Y-113308423D02*
X124107142Y-113344138D01*
X124107142Y-113344138D02*
X124142856Y-113379852D01*
X124142856Y-113379852D02*
X124178570Y-113451281D01*
X124178570Y-113451281D02*
X124178570Y-113594138D01*
X124178570Y-113594138D02*
X124142856Y-113665566D01*
X124142856Y-113665566D02*
X124107142Y-113701281D01*
X124107142Y-113701281D02*
X124035713Y-113736995D01*
X124035713Y-113736995D02*
X123892856Y-113736995D01*
X123892856Y-113736995D02*
X123821428Y-113701281D01*
X123821428Y-113701281D02*
X123785713Y-113665566D01*
X123785713Y-113665566D02*
X123749999Y-113594138D01*
X123749999Y-113594138D02*
X123749999Y-113451281D01*
X123749999Y-113451281D02*
X123785713Y-113379852D01*
X123785713Y-113379852D02*
X123821428Y-113344138D01*
X123821428Y-113344138D02*
X123892856Y-113308423D01*
X123535713Y-112986995D02*
X123285713Y-113736995D01*
X123285713Y-113736995D02*
X123035713Y-112986995D01*
X130000000Y-114944453D02*
X130000000Y-114194453D01*
X129642857Y-114944453D02*
X129642857Y-114444453D01*
X129642857Y-114515881D02*
X129607143Y-114480167D01*
X129607143Y-114480167D02*
X129535714Y-114444453D01*
X129535714Y-114444453D02*
X129428571Y-114444453D01*
X129428571Y-114444453D02*
X129357143Y-114480167D01*
X129357143Y-114480167D02*
X129321429Y-114551596D01*
X129321429Y-114551596D02*
X129321429Y-114944453D01*
X129321429Y-114551596D02*
X129285714Y-114480167D01*
X129285714Y-114480167D02*
X129214286Y-114444453D01*
X129214286Y-114444453D02*
X129107143Y-114444453D01*
X129107143Y-114444453D02*
X129035714Y-114480167D01*
X129035714Y-114480167D02*
X129000000Y-114551596D01*
X129000000Y-114551596D02*
X129000000Y-114944453D01*
X128321429Y-114944453D02*
X128321429Y-114551596D01*
X128321429Y-114551596D02*
X128357143Y-114480167D01*
X128357143Y-114480167D02*
X128428571Y-114444453D01*
X128428571Y-114444453D02*
X128571429Y-114444453D01*
X128571429Y-114444453D02*
X128642857Y-114480167D01*
X128321429Y-114908739D02*
X128392857Y-114944453D01*
X128392857Y-114944453D02*
X128571429Y-114944453D01*
X128571429Y-114944453D02*
X128642857Y-114908739D01*
X128642857Y-114908739D02*
X128678571Y-114837310D01*
X128678571Y-114837310D02*
X128678571Y-114765881D01*
X128678571Y-114765881D02*
X128642857Y-114694453D01*
X128642857Y-114694453D02*
X128571429Y-114658739D01*
X128571429Y-114658739D02*
X128392857Y-114658739D01*
X128392857Y-114658739D02*
X128321429Y-114623024D01*
X128035715Y-114944453D02*
X127642858Y-114444453D01*
X128035715Y-114444453D02*
X127642858Y-114944453D01*
X127357143Y-114873024D02*
X127321429Y-114908739D01*
X127321429Y-114908739D02*
X127357143Y-114944453D01*
X127357143Y-114944453D02*
X127392857Y-114908739D01*
X127392857Y-114908739D02*
X127357143Y-114873024D01*
X127357143Y-114873024D02*
X127357143Y-114944453D01*
X127357143Y-114480167D02*
X127321429Y-114515881D01*
X127321429Y-114515881D02*
X127357143Y-114551596D01*
X127357143Y-114551596D02*
X127392857Y-114515881D01*
X127392857Y-114515881D02*
X127357143Y-114480167D01*
X127357143Y-114480167D02*
X127357143Y-114551596D01*
X126464285Y-114265881D02*
X126428571Y-114230167D01*
X126428571Y-114230167D02*
X126357143Y-114194453D01*
X126357143Y-114194453D02*
X126178571Y-114194453D01*
X126178571Y-114194453D02*
X126107143Y-114230167D01*
X126107143Y-114230167D02*
X126071428Y-114265881D01*
X126071428Y-114265881D02*
X126035714Y-114337310D01*
X126035714Y-114337310D02*
X126035714Y-114408739D01*
X126035714Y-114408739D02*
X126071428Y-114515881D01*
X126071428Y-114515881D02*
X126500000Y-114944453D01*
X126500000Y-114944453D02*
X126035714Y-114944453D01*
X125571428Y-114194453D02*
X125499999Y-114194453D01*
X125499999Y-114194453D02*
X125428571Y-114230167D01*
X125428571Y-114230167D02*
X125392857Y-114265881D01*
X125392857Y-114265881D02*
X125357142Y-114337310D01*
X125357142Y-114337310D02*
X125321428Y-114480167D01*
X125321428Y-114480167D02*
X125321428Y-114658739D01*
X125321428Y-114658739D02*
X125357142Y-114801596D01*
X125357142Y-114801596D02*
X125392857Y-114873024D01*
X125392857Y-114873024D02*
X125428571Y-114908739D01*
X125428571Y-114908739D02*
X125499999Y-114944453D01*
X125499999Y-114944453D02*
X125571428Y-114944453D01*
X125571428Y-114944453D02*
X125642857Y-114908739D01*
X125642857Y-114908739D02*
X125678571Y-114873024D01*
X125678571Y-114873024D02*
X125714285Y-114801596D01*
X125714285Y-114801596D02*
X125749999Y-114658739D01*
X125749999Y-114658739D02*
X125749999Y-114480167D01*
X125749999Y-114480167D02*
X125714285Y-114337310D01*
X125714285Y-114337310D02*
X125678571Y-114265881D01*
X125678571Y-114265881D02*
X125642857Y-114230167D01*
X125642857Y-114230167D02*
X125571428Y-114194453D01*
X124857142Y-114194453D02*
X124785713Y-114194453D01*
X124785713Y-114194453D02*
X124714285Y-114230167D01*
X124714285Y-114230167D02*
X124678571Y-114265881D01*
X124678571Y-114265881D02*
X124642856Y-114337310D01*
X124642856Y-114337310D02*
X124607142Y-114480167D01*
X124607142Y-114480167D02*
X124607142Y-114658739D01*
X124607142Y-114658739D02*
X124642856Y-114801596D01*
X124642856Y-114801596D02*
X124678571Y-114873024D01*
X124678571Y-114873024D02*
X124714285Y-114908739D01*
X124714285Y-114908739D02*
X124785713Y-114944453D01*
X124785713Y-114944453D02*
X124857142Y-114944453D01*
X124857142Y-114944453D02*
X124928571Y-114908739D01*
X124928571Y-114908739D02*
X124964285Y-114873024D01*
X124964285Y-114873024D02*
X124999999Y-114801596D01*
X124999999Y-114801596D02*
X125035713Y-114658739D01*
X125035713Y-114658739D02*
X125035713Y-114480167D01*
X125035713Y-114480167D02*
X124999999Y-114337310D01*
X124999999Y-114337310D02*
X124964285Y-114265881D01*
X124964285Y-114265881D02*
X124928571Y-114230167D01*
X124928571Y-114230167D02*
X124857142Y-114194453D01*
X124285713Y-114944453D02*
X124285713Y-114444453D01*
X124285713Y-114515881D02*
X124249999Y-114480167D01*
X124249999Y-114480167D02*
X124178570Y-114444453D01*
X124178570Y-114444453D02*
X124071427Y-114444453D01*
X124071427Y-114444453D02*
X123999999Y-114480167D01*
X123999999Y-114480167D02*
X123964285Y-114551596D01*
X123964285Y-114551596D02*
X123964285Y-114944453D01*
X123964285Y-114551596D02*
X123928570Y-114480167D01*
X123928570Y-114480167D02*
X123857142Y-114444453D01*
X123857142Y-114444453D02*
X123749999Y-114444453D01*
X123749999Y-114444453D02*
X123678570Y-114480167D01*
X123678570Y-114480167D02*
X123642856Y-114551596D01*
X123642856Y-114551596D02*
X123642856Y-114944453D01*
X123321427Y-114730167D02*
X122964285Y-114730167D01*
X123392856Y-114944453D02*
X123142856Y-114194453D01*
X123142856Y-114194453D02*
X122892856Y-114944453D01*
M02*
