%TF.GenerationSoftware,KiCad,Pcbnew,8.0.5-8.0.5-0~ubuntu24.04.1*%
%TF.CreationDate,2024-10-03T16:57:35-04:00*%
%TF.ProjectId,breadboard-power-supply,62726561-6462-46f6-9172-642d706f7765,rev?*%
%TF.SameCoordinates,Original*%
%TF.FileFunction,Legend,Bot*%
%TF.FilePolarity,Positive*%
%FSLAX46Y46*%
G04 Gerber Fmt 4.6, Leading zero omitted, Abs format (unit mm)*
G04 Created by KiCad (PCBNEW 8.0.5-8.0.5-0~ubuntu24.04.1) date 2024-10-03 16:57:35*
%MOMM*%
%LPD*%
G01*
G04 APERTURE LIST*
%ADD10C,0.100000*%
%ADD11C,0.175000*%
%ADD12C,0.150000*%
%ADD13C,0.120000*%
%ADD14C,0.010000*%
G04 APERTURE END LIST*
D10*
X126500000Y-116500000D02*
X125000000Y-116500000D01*
X127000000Y-116500000D02*
X128000000Y-116500000D01*
X125000000Y-116500000D02*
G75*
G02*
X124000000Y-116500000I-500000J0D01*
G01*
X124000000Y-116500000D02*
G75*
G02*
X125000000Y-116500000I500000J0D01*
G01*
X128250000Y-116500000D02*
X128750000Y-116500000D01*
X126146447Y-116146447D02*
G75*
G02*
X126146447Y-116853553I353553J-353553D01*
G01*
X124250000Y-116500000D02*
X124750000Y-116500000D01*
X129000000Y-116500000D02*
G75*
G02*
X128000000Y-116500000I-500000J0D01*
G01*
X128000000Y-116500000D02*
G75*
G02*
X129000000Y-116500000I500000J0D01*
G01*
D11*
X126587500Y-116500000D02*
G75*
G02*
X126412500Y-116500000I-87500J0D01*
G01*
X126412500Y-116500000D02*
G75*
G02*
X126587500Y-116500000I87500J0D01*
G01*
D10*
X124500000Y-116250000D02*
X124500000Y-116750000D01*
D12*
X131357142Y-91135057D02*
X131309523Y-91087438D01*
X131309523Y-91087438D02*
X131214285Y-91039819D01*
X131214285Y-91039819D02*
X130976190Y-91039819D01*
X130976190Y-91039819D02*
X130880952Y-91087438D01*
X130880952Y-91087438D02*
X130833333Y-91135057D01*
X130833333Y-91135057D02*
X130785714Y-91230295D01*
X130785714Y-91230295D02*
X130785714Y-91325533D01*
X130785714Y-91325533D02*
X130833333Y-91468390D01*
X130833333Y-91468390D02*
X131404761Y-92039819D01*
X131404761Y-92039819D02*
X130785714Y-92039819D01*
X130166666Y-91039819D02*
X130071428Y-91039819D01*
X130071428Y-91039819D02*
X129976190Y-91087438D01*
X129976190Y-91087438D02*
X129928571Y-91135057D01*
X129928571Y-91135057D02*
X129880952Y-91230295D01*
X129880952Y-91230295D02*
X129833333Y-91420771D01*
X129833333Y-91420771D02*
X129833333Y-91658866D01*
X129833333Y-91658866D02*
X129880952Y-91849342D01*
X129880952Y-91849342D02*
X129928571Y-91944580D01*
X129928571Y-91944580D02*
X129976190Y-91992200D01*
X129976190Y-91992200D02*
X130071428Y-92039819D01*
X130071428Y-92039819D02*
X130166666Y-92039819D01*
X130166666Y-92039819D02*
X130261904Y-91992200D01*
X130261904Y-91992200D02*
X130309523Y-91944580D01*
X130309523Y-91944580D02*
X130357142Y-91849342D01*
X130357142Y-91849342D02*
X130404761Y-91658866D01*
X130404761Y-91658866D02*
X130404761Y-91420771D01*
X130404761Y-91420771D02*
X130357142Y-91230295D01*
X130357142Y-91230295D02*
X130309523Y-91135057D01*
X130309523Y-91135057D02*
X130261904Y-91087438D01*
X130261904Y-91087438D02*
X130166666Y-91039819D01*
X129452380Y-91135057D02*
X129404761Y-91087438D01*
X129404761Y-91087438D02*
X129309523Y-91039819D01*
X129309523Y-91039819D02*
X129071428Y-91039819D01*
X129071428Y-91039819D02*
X128976190Y-91087438D01*
X128976190Y-91087438D02*
X128928571Y-91135057D01*
X128928571Y-91135057D02*
X128880952Y-91230295D01*
X128880952Y-91230295D02*
X128880952Y-91325533D01*
X128880952Y-91325533D02*
X128928571Y-91468390D01*
X128928571Y-91468390D02*
X129499999Y-92039819D01*
X129499999Y-92039819D02*
X128880952Y-92039819D01*
X128023809Y-91373152D02*
X128023809Y-92039819D01*
X128261904Y-90992200D02*
X128499999Y-91706485D01*
X128499999Y-91706485D02*
X127880952Y-91706485D01*
X127499999Y-91658866D02*
X126738095Y-91658866D01*
X125738095Y-92039819D02*
X126309523Y-92039819D01*
X126023809Y-92039819D02*
X126023809Y-91039819D01*
X126023809Y-91039819D02*
X126119047Y-91182676D01*
X126119047Y-91182676D02*
X126214285Y-91277914D01*
X126214285Y-91277914D02*
X126309523Y-91325533D01*
X125119047Y-91039819D02*
X125023809Y-91039819D01*
X125023809Y-91039819D02*
X124928571Y-91087438D01*
X124928571Y-91087438D02*
X124880952Y-91135057D01*
X124880952Y-91135057D02*
X124833333Y-91230295D01*
X124833333Y-91230295D02*
X124785714Y-91420771D01*
X124785714Y-91420771D02*
X124785714Y-91658866D01*
X124785714Y-91658866D02*
X124833333Y-91849342D01*
X124833333Y-91849342D02*
X124880952Y-91944580D01*
X124880952Y-91944580D02*
X124928571Y-91992200D01*
X124928571Y-91992200D02*
X125023809Y-92039819D01*
X125023809Y-92039819D02*
X125119047Y-92039819D01*
X125119047Y-92039819D02*
X125214285Y-91992200D01*
X125214285Y-91992200D02*
X125261904Y-91944580D01*
X125261904Y-91944580D02*
X125309523Y-91849342D01*
X125309523Y-91849342D02*
X125357142Y-91658866D01*
X125357142Y-91658866D02*
X125357142Y-91420771D01*
X125357142Y-91420771D02*
X125309523Y-91230295D01*
X125309523Y-91230295D02*
X125261904Y-91135057D01*
X125261904Y-91135057D02*
X125214285Y-91087438D01*
X125214285Y-91087438D02*
X125119047Y-91039819D01*
X124357142Y-91658866D02*
X123595238Y-91658866D01*
X122928571Y-91039819D02*
X122833333Y-91039819D01*
X122833333Y-91039819D02*
X122738095Y-91087438D01*
X122738095Y-91087438D02*
X122690476Y-91135057D01*
X122690476Y-91135057D02*
X122642857Y-91230295D01*
X122642857Y-91230295D02*
X122595238Y-91420771D01*
X122595238Y-91420771D02*
X122595238Y-91658866D01*
X122595238Y-91658866D02*
X122642857Y-91849342D01*
X122642857Y-91849342D02*
X122690476Y-91944580D01*
X122690476Y-91944580D02*
X122738095Y-91992200D01*
X122738095Y-91992200D02*
X122833333Y-92039819D01*
X122833333Y-92039819D02*
X122928571Y-92039819D01*
X122928571Y-92039819D02*
X123023809Y-91992200D01*
X123023809Y-91992200D02*
X123071428Y-91944580D01*
X123071428Y-91944580D02*
X123119047Y-91849342D01*
X123119047Y-91849342D02*
X123166666Y-91658866D01*
X123166666Y-91658866D02*
X123166666Y-91420771D01*
X123166666Y-91420771D02*
X123119047Y-91230295D01*
X123119047Y-91230295D02*
X123071428Y-91135057D01*
X123071428Y-91135057D02*
X123023809Y-91087438D01*
X123023809Y-91087438D02*
X122928571Y-91039819D01*
X122214285Y-91135057D02*
X122166666Y-91087438D01*
X122166666Y-91087438D02*
X122071428Y-91039819D01*
X122071428Y-91039819D02*
X121833333Y-91039819D01*
X121833333Y-91039819D02*
X121738095Y-91087438D01*
X121738095Y-91087438D02*
X121690476Y-91135057D01*
X121690476Y-91135057D02*
X121642857Y-91230295D01*
X121642857Y-91230295D02*
X121642857Y-91325533D01*
X121642857Y-91325533D02*
X121690476Y-91468390D01*
X121690476Y-91468390D02*
X122261904Y-92039819D01*
X122261904Y-92039819D02*
X121642857Y-92039819D01*
D10*
X133511903Y-110561718D02*
X133345236Y-110561718D01*
X133273808Y-110823623D02*
X133511903Y-110823623D01*
X133511903Y-110823623D02*
X133511903Y-110323623D01*
X133511903Y-110323623D02*
X133273808Y-110323623D01*
X133059522Y-110823623D02*
X133059522Y-110490290D01*
X133059522Y-110537909D02*
X133035712Y-110514099D01*
X133035712Y-110514099D02*
X132988093Y-110490290D01*
X132988093Y-110490290D02*
X132916665Y-110490290D01*
X132916665Y-110490290D02*
X132869046Y-110514099D01*
X132869046Y-110514099D02*
X132845236Y-110561718D01*
X132845236Y-110561718D02*
X132845236Y-110823623D01*
X132845236Y-110561718D02*
X132821427Y-110514099D01*
X132821427Y-110514099D02*
X132773808Y-110490290D01*
X132773808Y-110490290D02*
X132702379Y-110490290D01*
X132702379Y-110490290D02*
X132654760Y-110514099D01*
X132654760Y-110514099D02*
X132630950Y-110561718D01*
X132630950Y-110561718D02*
X132630950Y-110823623D01*
X132392855Y-110823623D02*
X132392855Y-110323623D01*
X132392855Y-110514099D02*
X132345236Y-110490290D01*
X132345236Y-110490290D02*
X132249998Y-110490290D01*
X132249998Y-110490290D02*
X132202379Y-110514099D01*
X132202379Y-110514099D02*
X132178569Y-110537909D01*
X132178569Y-110537909D02*
X132154760Y-110585528D01*
X132154760Y-110585528D02*
X132154760Y-110728385D01*
X132154760Y-110728385D02*
X132178569Y-110776004D01*
X132178569Y-110776004D02*
X132202379Y-110799814D01*
X132202379Y-110799814D02*
X132249998Y-110823623D01*
X132249998Y-110823623D02*
X132345236Y-110823623D01*
X132345236Y-110823623D02*
X132392855Y-110799814D01*
X131940474Y-110823623D02*
X131940474Y-110490290D01*
X131940474Y-110585528D02*
X131916664Y-110537909D01*
X131916664Y-110537909D02*
X131892855Y-110514099D01*
X131892855Y-110514099D02*
X131845236Y-110490290D01*
X131845236Y-110490290D02*
X131797617Y-110490290D01*
X131678569Y-110490290D02*
X131559521Y-110823623D01*
X131440474Y-110490290D02*
X131559521Y-110823623D01*
X131559521Y-110823623D02*
X131607140Y-110942671D01*
X131607140Y-110942671D02*
X131630950Y-110966480D01*
X131630950Y-110966480D02*
X131678569Y-110990290D01*
X131249998Y-110633147D02*
X130869046Y-110633147D01*
X130345236Y-110823623D02*
X130511902Y-110585528D01*
X130630950Y-110823623D02*
X130630950Y-110323623D01*
X130630950Y-110323623D02*
X130440474Y-110323623D01*
X130440474Y-110323623D02*
X130392855Y-110347433D01*
X130392855Y-110347433D02*
X130369045Y-110371242D01*
X130369045Y-110371242D02*
X130345236Y-110418861D01*
X130345236Y-110418861D02*
X130345236Y-110490290D01*
X130345236Y-110490290D02*
X130369045Y-110537909D01*
X130369045Y-110537909D02*
X130392855Y-110561718D01*
X130392855Y-110561718D02*
X130440474Y-110585528D01*
X130440474Y-110585528D02*
X130630950Y-110585528D01*
X130130950Y-110823623D02*
X130130950Y-110490290D01*
X130130950Y-110323623D02*
X130154759Y-110347433D01*
X130154759Y-110347433D02*
X130130950Y-110371242D01*
X130130950Y-110371242D02*
X130107140Y-110347433D01*
X130107140Y-110347433D02*
X130130950Y-110323623D01*
X130130950Y-110323623D02*
X130130950Y-110371242D01*
X129678569Y-110823623D02*
X129678569Y-110323623D01*
X129678569Y-110799814D02*
X129726188Y-110823623D01*
X129726188Y-110823623D02*
X129821426Y-110823623D01*
X129821426Y-110823623D02*
X129869045Y-110799814D01*
X129869045Y-110799814D02*
X129892855Y-110776004D01*
X129892855Y-110776004D02*
X129916664Y-110728385D01*
X129916664Y-110728385D02*
X129916664Y-110585528D01*
X129916664Y-110585528D02*
X129892855Y-110537909D01*
X129892855Y-110537909D02*
X129869045Y-110514099D01*
X129869045Y-110514099D02*
X129821426Y-110490290D01*
X129821426Y-110490290D02*
X129726188Y-110490290D01*
X129726188Y-110490290D02*
X129678569Y-110514099D01*
X129226188Y-110823623D02*
X129226188Y-110323623D01*
X129226188Y-110799814D02*
X129273807Y-110823623D01*
X129273807Y-110823623D02*
X129369045Y-110823623D01*
X129369045Y-110823623D02*
X129416664Y-110799814D01*
X129416664Y-110799814D02*
X129440474Y-110776004D01*
X129440474Y-110776004D02*
X129464283Y-110728385D01*
X129464283Y-110728385D02*
X129464283Y-110585528D01*
X129464283Y-110585528D02*
X129440474Y-110537909D01*
X129440474Y-110537909D02*
X129416664Y-110514099D01*
X129416664Y-110514099D02*
X129369045Y-110490290D01*
X129369045Y-110490290D02*
X129273807Y-110490290D01*
X129273807Y-110490290D02*
X129226188Y-110514099D01*
X128916664Y-110823623D02*
X128964283Y-110799814D01*
X128964283Y-110799814D02*
X128988093Y-110752194D01*
X128988093Y-110752194D02*
X128988093Y-110323623D01*
X128535712Y-110799814D02*
X128583331Y-110823623D01*
X128583331Y-110823623D02*
X128678569Y-110823623D01*
X128678569Y-110823623D02*
X128726188Y-110799814D01*
X128726188Y-110799814D02*
X128749997Y-110752194D01*
X128749997Y-110752194D02*
X128749997Y-110561718D01*
X128749997Y-110561718D02*
X128726188Y-110514099D01*
X128726188Y-110514099D02*
X128678569Y-110490290D01*
X128678569Y-110490290D02*
X128583331Y-110490290D01*
X128583331Y-110490290D02*
X128535712Y-110514099D01*
X128535712Y-110514099D02*
X128511902Y-110561718D01*
X128511902Y-110561718D02*
X128511902Y-110609337D01*
X128511902Y-110609337D02*
X128749997Y-110656956D01*
X127940474Y-110680766D02*
X127702379Y-110680766D01*
X127988093Y-110823623D02*
X127821427Y-110323623D01*
X127821427Y-110323623D02*
X127654760Y-110823623D01*
X127297618Y-110799814D02*
X127345237Y-110823623D01*
X127345237Y-110823623D02*
X127440475Y-110823623D01*
X127440475Y-110823623D02*
X127488094Y-110799814D01*
X127488094Y-110799814D02*
X127511903Y-110752194D01*
X127511903Y-110752194D02*
X127511903Y-110561718D01*
X127511903Y-110561718D02*
X127488094Y-110514099D01*
X127488094Y-110514099D02*
X127440475Y-110490290D01*
X127440475Y-110490290D02*
X127345237Y-110490290D01*
X127345237Y-110490290D02*
X127297618Y-110514099D01*
X127297618Y-110514099D02*
X127273808Y-110561718D01*
X127273808Y-110561718D02*
X127273808Y-110609337D01*
X127273808Y-110609337D02*
X127511903Y-110656956D01*
X127059523Y-110823623D02*
X127059523Y-110490290D01*
X127059523Y-110585528D02*
X127035713Y-110537909D01*
X127035713Y-110537909D02*
X127011904Y-110514099D01*
X127011904Y-110514099D02*
X126964285Y-110490290D01*
X126964285Y-110490290D02*
X126916666Y-110490290D01*
X126678570Y-110823623D02*
X126726189Y-110799814D01*
X126726189Y-110799814D02*
X126749999Y-110776004D01*
X126749999Y-110776004D02*
X126773808Y-110728385D01*
X126773808Y-110728385D02*
X126773808Y-110585528D01*
X126773808Y-110585528D02*
X126749999Y-110537909D01*
X126749999Y-110537909D02*
X126726189Y-110514099D01*
X126726189Y-110514099D02*
X126678570Y-110490290D01*
X126678570Y-110490290D02*
X126607142Y-110490290D01*
X126607142Y-110490290D02*
X126559523Y-110514099D01*
X126559523Y-110514099D02*
X126535713Y-110537909D01*
X126535713Y-110537909D02*
X126511904Y-110585528D01*
X126511904Y-110585528D02*
X126511904Y-110728385D01*
X126511904Y-110728385D02*
X126535713Y-110776004D01*
X126535713Y-110776004D02*
X126559523Y-110799814D01*
X126559523Y-110799814D02*
X126607142Y-110823623D01*
X126607142Y-110823623D02*
X126678570Y-110823623D01*
X126297618Y-110490290D02*
X126297618Y-110823623D01*
X126297618Y-110537909D02*
X126273808Y-110514099D01*
X126273808Y-110514099D02*
X126226189Y-110490290D01*
X126226189Y-110490290D02*
X126154761Y-110490290D01*
X126154761Y-110490290D02*
X126107142Y-110514099D01*
X126107142Y-110514099D02*
X126083332Y-110561718D01*
X126083332Y-110561718D02*
X126083332Y-110823623D01*
X125630951Y-110823623D02*
X125630951Y-110561718D01*
X125630951Y-110561718D02*
X125654761Y-110514099D01*
X125654761Y-110514099D02*
X125702380Y-110490290D01*
X125702380Y-110490290D02*
X125797618Y-110490290D01*
X125797618Y-110490290D02*
X125845237Y-110514099D01*
X125630951Y-110799814D02*
X125678570Y-110823623D01*
X125678570Y-110823623D02*
X125797618Y-110823623D01*
X125797618Y-110823623D02*
X125845237Y-110799814D01*
X125845237Y-110799814D02*
X125869046Y-110752194D01*
X125869046Y-110752194D02*
X125869046Y-110704575D01*
X125869046Y-110704575D02*
X125845237Y-110656956D01*
X125845237Y-110656956D02*
X125797618Y-110633147D01*
X125797618Y-110633147D02*
X125678570Y-110633147D01*
X125678570Y-110633147D02*
X125630951Y-110609337D01*
X125178570Y-110490290D02*
X125178570Y-110823623D01*
X125392856Y-110490290D02*
X125392856Y-110752194D01*
X125392856Y-110752194D02*
X125369046Y-110799814D01*
X125369046Y-110799814D02*
X125321427Y-110823623D01*
X125321427Y-110823623D02*
X125249999Y-110823623D01*
X125249999Y-110823623D02*
X125202380Y-110799814D01*
X125202380Y-110799814D02*
X125178570Y-110776004D01*
X125011903Y-110490290D02*
X124821427Y-110490290D01*
X124940475Y-110323623D02*
X124940475Y-110752194D01*
X124940475Y-110752194D02*
X124916665Y-110799814D01*
X124916665Y-110799814D02*
X124869046Y-110823623D01*
X124869046Y-110823623D02*
X124821427Y-110823623D01*
X124654761Y-110823623D02*
X124654761Y-110490290D01*
X124654761Y-110323623D02*
X124678570Y-110347433D01*
X124678570Y-110347433D02*
X124654761Y-110371242D01*
X124654761Y-110371242D02*
X124630951Y-110347433D01*
X124630951Y-110347433D02*
X124654761Y-110323623D01*
X124654761Y-110323623D02*
X124654761Y-110371242D01*
X124202380Y-110799814D02*
X124249999Y-110823623D01*
X124249999Y-110823623D02*
X124345237Y-110823623D01*
X124345237Y-110823623D02*
X124392856Y-110799814D01*
X124392856Y-110799814D02*
X124416666Y-110776004D01*
X124416666Y-110776004D02*
X124440475Y-110728385D01*
X124440475Y-110728385D02*
X124440475Y-110585528D01*
X124440475Y-110585528D02*
X124416666Y-110537909D01*
X124416666Y-110537909D02*
X124392856Y-110514099D01*
X124392856Y-110514099D02*
X124345237Y-110490290D01*
X124345237Y-110490290D02*
X124249999Y-110490290D01*
X124249999Y-110490290D02*
X124202380Y-110514099D01*
X123773809Y-110823623D02*
X123773809Y-110561718D01*
X123773809Y-110561718D02*
X123797619Y-110514099D01*
X123797619Y-110514099D02*
X123845238Y-110490290D01*
X123845238Y-110490290D02*
X123940476Y-110490290D01*
X123940476Y-110490290D02*
X123988095Y-110514099D01*
X123773809Y-110799814D02*
X123821428Y-110823623D01*
X123821428Y-110823623D02*
X123940476Y-110823623D01*
X123940476Y-110823623D02*
X123988095Y-110799814D01*
X123988095Y-110799814D02*
X124011904Y-110752194D01*
X124011904Y-110752194D02*
X124011904Y-110704575D01*
X124011904Y-110704575D02*
X123988095Y-110656956D01*
X123988095Y-110656956D02*
X123940476Y-110633147D01*
X123940476Y-110633147D02*
X123821428Y-110633147D01*
X123821428Y-110633147D02*
X123773809Y-110609337D01*
X123464285Y-110823623D02*
X123511904Y-110799814D01*
X123511904Y-110799814D02*
X123535714Y-110752194D01*
X123535714Y-110752194D02*
X123535714Y-110323623D01*
X122892857Y-110323623D02*
X122892857Y-110728385D01*
X122892857Y-110728385D02*
X122869047Y-110776004D01*
X122869047Y-110776004D02*
X122845238Y-110799814D01*
X122845238Y-110799814D02*
X122797619Y-110823623D01*
X122797619Y-110823623D02*
X122702381Y-110823623D01*
X122702381Y-110823623D02*
X122654762Y-110799814D01*
X122654762Y-110799814D02*
X122630952Y-110776004D01*
X122630952Y-110776004D02*
X122607143Y-110728385D01*
X122607143Y-110728385D02*
X122607143Y-110323623D01*
X122369047Y-110490290D02*
X122369047Y-110823623D01*
X122369047Y-110537909D02*
X122345237Y-110514099D01*
X122345237Y-110514099D02*
X122297618Y-110490290D01*
X122297618Y-110490290D02*
X122226190Y-110490290D01*
X122226190Y-110490290D02*
X122178571Y-110514099D01*
X122178571Y-110514099D02*
X122154761Y-110561718D01*
X122154761Y-110561718D02*
X122154761Y-110823623D01*
X121916666Y-110823623D02*
X121916666Y-110490290D01*
X121916666Y-110323623D02*
X121940475Y-110347433D01*
X121940475Y-110347433D02*
X121916666Y-110371242D01*
X121916666Y-110371242D02*
X121892856Y-110347433D01*
X121892856Y-110347433D02*
X121916666Y-110323623D01*
X121916666Y-110323623D02*
X121916666Y-110371242D01*
X121726190Y-110490290D02*
X121607142Y-110823623D01*
X121607142Y-110823623D02*
X121488095Y-110490290D01*
X121107143Y-110799814D02*
X121154762Y-110823623D01*
X121154762Y-110823623D02*
X121250000Y-110823623D01*
X121250000Y-110823623D02*
X121297619Y-110799814D01*
X121297619Y-110799814D02*
X121321428Y-110752194D01*
X121321428Y-110752194D02*
X121321428Y-110561718D01*
X121321428Y-110561718D02*
X121297619Y-110514099D01*
X121297619Y-110514099D02*
X121250000Y-110490290D01*
X121250000Y-110490290D02*
X121154762Y-110490290D01*
X121154762Y-110490290D02*
X121107143Y-110514099D01*
X121107143Y-110514099D02*
X121083333Y-110561718D01*
X121083333Y-110561718D02*
X121083333Y-110609337D01*
X121083333Y-110609337D02*
X121321428Y-110656956D01*
X120869048Y-110823623D02*
X120869048Y-110490290D01*
X120869048Y-110585528D02*
X120845238Y-110537909D01*
X120845238Y-110537909D02*
X120821429Y-110514099D01*
X120821429Y-110514099D02*
X120773810Y-110490290D01*
X120773810Y-110490290D02*
X120726191Y-110490290D01*
X120583333Y-110799814D02*
X120535714Y-110823623D01*
X120535714Y-110823623D02*
X120440476Y-110823623D01*
X120440476Y-110823623D02*
X120392857Y-110799814D01*
X120392857Y-110799814D02*
X120369048Y-110752194D01*
X120369048Y-110752194D02*
X120369048Y-110728385D01*
X120369048Y-110728385D02*
X120392857Y-110680766D01*
X120392857Y-110680766D02*
X120440476Y-110656956D01*
X120440476Y-110656956D02*
X120511905Y-110656956D01*
X120511905Y-110656956D02*
X120559524Y-110633147D01*
X120559524Y-110633147D02*
X120583333Y-110585528D01*
X120583333Y-110585528D02*
X120583333Y-110561718D01*
X120583333Y-110561718D02*
X120559524Y-110514099D01*
X120559524Y-110514099D02*
X120511905Y-110490290D01*
X120511905Y-110490290D02*
X120440476Y-110490290D01*
X120440476Y-110490290D02*
X120392857Y-110514099D01*
X120154762Y-110823623D02*
X120154762Y-110490290D01*
X120154762Y-110323623D02*
X120178571Y-110347433D01*
X120178571Y-110347433D02*
X120154762Y-110371242D01*
X120154762Y-110371242D02*
X120130952Y-110347433D01*
X120130952Y-110347433D02*
X120154762Y-110323623D01*
X120154762Y-110323623D02*
X120154762Y-110371242D01*
X119988095Y-110490290D02*
X119797619Y-110490290D01*
X119916667Y-110323623D02*
X119916667Y-110752194D01*
X119916667Y-110752194D02*
X119892857Y-110799814D01*
X119892857Y-110799814D02*
X119845238Y-110823623D01*
X119845238Y-110823623D02*
X119797619Y-110823623D01*
X119678572Y-110490290D02*
X119559524Y-110823623D01*
X119440477Y-110490290D02*
X119559524Y-110823623D01*
X119559524Y-110823623D02*
X119607143Y-110942671D01*
X119607143Y-110942671D02*
X119630953Y-110966480D01*
X119630953Y-110966480D02*
X119678572Y-110990290D01*
X132095235Y-111628595D02*
X132095235Y-111128595D01*
X132095235Y-111128595D02*
X131904759Y-111128595D01*
X131904759Y-111128595D02*
X131857140Y-111152405D01*
X131857140Y-111152405D02*
X131833330Y-111176214D01*
X131833330Y-111176214D02*
X131809521Y-111223833D01*
X131809521Y-111223833D02*
X131809521Y-111295262D01*
X131809521Y-111295262D02*
X131833330Y-111342881D01*
X131833330Y-111342881D02*
X131857140Y-111366690D01*
X131857140Y-111366690D02*
X131904759Y-111390500D01*
X131904759Y-111390500D02*
X132095235Y-111390500D01*
X131595235Y-111628595D02*
X131595235Y-111128595D01*
X131380949Y-111628595D02*
X131380949Y-111366690D01*
X131380949Y-111366690D02*
X131404759Y-111319071D01*
X131404759Y-111319071D02*
X131452378Y-111295262D01*
X131452378Y-111295262D02*
X131523806Y-111295262D01*
X131523806Y-111295262D02*
X131571425Y-111319071D01*
X131571425Y-111319071D02*
X131595235Y-111342881D01*
X131190473Y-111295262D02*
X131071425Y-111628595D01*
X130952378Y-111295262D02*
X131071425Y-111628595D01*
X131071425Y-111628595D02*
X131119044Y-111747643D01*
X131119044Y-111747643D02*
X131142854Y-111771452D01*
X131142854Y-111771452D02*
X131190473Y-111795262D01*
X130785711Y-111604786D02*
X130738092Y-111628595D01*
X130738092Y-111628595D02*
X130642854Y-111628595D01*
X130642854Y-111628595D02*
X130595235Y-111604786D01*
X130595235Y-111604786D02*
X130571426Y-111557166D01*
X130571426Y-111557166D02*
X130571426Y-111533357D01*
X130571426Y-111533357D02*
X130595235Y-111485738D01*
X130595235Y-111485738D02*
X130642854Y-111461928D01*
X130642854Y-111461928D02*
X130714283Y-111461928D01*
X130714283Y-111461928D02*
X130761902Y-111438119D01*
X130761902Y-111438119D02*
X130785711Y-111390500D01*
X130785711Y-111390500D02*
X130785711Y-111366690D01*
X130785711Y-111366690D02*
X130761902Y-111319071D01*
X130761902Y-111319071D02*
X130714283Y-111295262D01*
X130714283Y-111295262D02*
X130642854Y-111295262D01*
X130642854Y-111295262D02*
X130595235Y-111319071D01*
X130357140Y-111628595D02*
X130357140Y-111295262D01*
X130357140Y-111128595D02*
X130380949Y-111152405D01*
X130380949Y-111152405D02*
X130357140Y-111176214D01*
X130357140Y-111176214D02*
X130333330Y-111152405D01*
X130333330Y-111152405D02*
X130357140Y-111128595D01*
X130357140Y-111128595D02*
X130357140Y-111176214D01*
X129904759Y-111604786D02*
X129952378Y-111628595D01*
X129952378Y-111628595D02*
X130047616Y-111628595D01*
X130047616Y-111628595D02*
X130095235Y-111604786D01*
X130095235Y-111604786D02*
X130119045Y-111580976D01*
X130119045Y-111580976D02*
X130142854Y-111533357D01*
X130142854Y-111533357D02*
X130142854Y-111390500D01*
X130142854Y-111390500D02*
X130119045Y-111342881D01*
X130119045Y-111342881D02*
X130095235Y-111319071D01*
X130095235Y-111319071D02*
X130047616Y-111295262D01*
X130047616Y-111295262D02*
X129952378Y-111295262D01*
X129952378Y-111295262D02*
X129904759Y-111319071D01*
X129476188Y-111628595D02*
X129476188Y-111366690D01*
X129476188Y-111366690D02*
X129499998Y-111319071D01*
X129499998Y-111319071D02*
X129547617Y-111295262D01*
X129547617Y-111295262D02*
X129642855Y-111295262D01*
X129642855Y-111295262D02*
X129690474Y-111319071D01*
X129476188Y-111604786D02*
X129523807Y-111628595D01*
X129523807Y-111628595D02*
X129642855Y-111628595D01*
X129642855Y-111628595D02*
X129690474Y-111604786D01*
X129690474Y-111604786D02*
X129714283Y-111557166D01*
X129714283Y-111557166D02*
X129714283Y-111509547D01*
X129714283Y-111509547D02*
X129690474Y-111461928D01*
X129690474Y-111461928D02*
X129642855Y-111438119D01*
X129642855Y-111438119D02*
X129523807Y-111438119D01*
X129523807Y-111438119D02*
X129476188Y-111414309D01*
X129166664Y-111628595D02*
X129214283Y-111604786D01*
X129214283Y-111604786D02*
X129238093Y-111557166D01*
X129238093Y-111557166D02*
X129238093Y-111128595D01*
X128619045Y-111604786D02*
X128547617Y-111628595D01*
X128547617Y-111628595D02*
X128428569Y-111628595D01*
X128428569Y-111628595D02*
X128380950Y-111604786D01*
X128380950Y-111604786D02*
X128357141Y-111580976D01*
X128357141Y-111580976D02*
X128333331Y-111533357D01*
X128333331Y-111533357D02*
X128333331Y-111485738D01*
X128333331Y-111485738D02*
X128357141Y-111438119D01*
X128357141Y-111438119D02*
X128380950Y-111414309D01*
X128380950Y-111414309D02*
X128428569Y-111390500D01*
X128428569Y-111390500D02*
X128523807Y-111366690D01*
X128523807Y-111366690D02*
X128571426Y-111342881D01*
X128571426Y-111342881D02*
X128595236Y-111319071D01*
X128595236Y-111319071D02*
X128619045Y-111271452D01*
X128619045Y-111271452D02*
X128619045Y-111223833D01*
X128619045Y-111223833D02*
X128595236Y-111176214D01*
X128595236Y-111176214D02*
X128571426Y-111152405D01*
X128571426Y-111152405D02*
X128523807Y-111128595D01*
X128523807Y-111128595D02*
X128404760Y-111128595D01*
X128404760Y-111128595D02*
X128333331Y-111152405D01*
X127904760Y-111604786D02*
X127952379Y-111628595D01*
X127952379Y-111628595D02*
X128047617Y-111628595D01*
X128047617Y-111628595D02*
X128095236Y-111604786D01*
X128095236Y-111604786D02*
X128119046Y-111580976D01*
X128119046Y-111580976D02*
X128142855Y-111533357D01*
X128142855Y-111533357D02*
X128142855Y-111390500D01*
X128142855Y-111390500D02*
X128119046Y-111342881D01*
X128119046Y-111342881D02*
X128095236Y-111319071D01*
X128095236Y-111319071D02*
X128047617Y-111295262D01*
X128047617Y-111295262D02*
X127952379Y-111295262D01*
X127952379Y-111295262D02*
X127904760Y-111319071D01*
X127690475Y-111628595D02*
X127690475Y-111295262D01*
X127690475Y-111128595D02*
X127714284Y-111152405D01*
X127714284Y-111152405D02*
X127690475Y-111176214D01*
X127690475Y-111176214D02*
X127666665Y-111152405D01*
X127666665Y-111152405D02*
X127690475Y-111128595D01*
X127690475Y-111128595D02*
X127690475Y-111176214D01*
X127261904Y-111604786D02*
X127309523Y-111628595D01*
X127309523Y-111628595D02*
X127404761Y-111628595D01*
X127404761Y-111628595D02*
X127452380Y-111604786D01*
X127452380Y-111604786D02*
X127476189Y-111557166D01*
X127476189Y-111557166D02*
X127476189Y-111366690D01*
X127476189Y-111366690D02*
X127452380Y-111319071D01*
X127452380Y-111319071D02*
X127404761Y-111295262D01*
X127404761Y-111295262D02*
X127309523Y-111295262D01*
X127309523Y-111295262D02*
X127261904Y-111319071D01*
X127261904Y-111319071D02*
X127238094Y-111366690D01*
X127238094Y-111366690D02*
X127238094Y-111414309D01*
X127238094Y-111414309D02*
X127476189Y-111461928D01*
X127023809Y-111295262D02*
X127023809Y-111628595D01*
X127023809Y-111342881D02*
X126999999Y-111319071D01*
X126999999Y-111319071D02*
X126952380Y-111295262D01*
X126952380Y-111295262D02*
X126880952Y-111295262D01*
X126880952Y-111295262D02*
X126833333Y-111319071D01*
X126833333Y-111319071D02*
X126809523Y-111366690D01*
X126809523Y-111366690D02*
X126809523Y-111628595D01*
X126357142Y-111604786D02*
X126404761Y-111628595D01*
X126404761Y-111628595D02*
X126499999Y-111628595D01*
X126499999Y-111628595D02*
X126547618Y-111604786D01*
X126547618Y-111604786D02*
X126571428Y-111580976D01*
X126571428Y-111580976D02*
X126595237Y-111533357D01*
X126595237Y-111533357D02*
X126595237Y-111390500D01*
X126595237Y-111390500D02*
X126571428Y-111342881D01*
X126571428Y-111342881D02*
X126547618Y-111319071D01*
X126547618Y-111319071D02*
X126499999Y-111295262D01*
X126499999Y-111295262D02*
X126404761Y-111295262D01*
X126404761Y-111295262D02*
X126357142Y-111319071D01*
X125952381Y-111604786D02*
X126000000Y-111628595D01*
X126000000Y-111628595D02*
X126095238Y-111628595D01*
X126095238Y-111628595D02*
X126142857Y-111604786D01*
X126142857Y-111604786D02*
X126166666Y-111557166D01*
X126166666Y-111557166D02*
X126166666Y-111366690D01*
X126166666Y-111366690D02*
X126142857Y-111319071D01*
X126142857Y-111319071D02*
X126095238Y-111295262D01*
X126095238Y-111295262D02*
X126000000Y-111295262D01*
X126000000Y-111295262D02*
X125952381Y-111319071D01*
X125952381Y-111319071D02*
X125928571Y-111366690D01*
X125928571Y-111366690D02*
X125928571Y-111414309D01*
X125928571Y-111414309D02*
X126166666Y-111461928D01*
X125738095Y-111604786D02*
X125690476Y-111628595D01*
X125690476Y-111628595D02*
X125595238Y-111628595D01*
X125595238Y-111628595D02*
X125547619Y-111604786D01*
X125547619Y-111604786D02*
X125523810Y-111557166D01*
X125523810Y-111557166D02*
X125523810Y-111533357D01*
X125523810Y-111533357D02*
X125547619Y-111485738D01*
X125547619Y-111485738D02*
X125595238Y-111461928D01*
X125595238Y-111461928D02*
X125666667Y-111461928D01*
X125666667Y-111461928D02*
X125714286Y-111438119D01*
X125714286Y-111438119D02*
X125738095Y-111390500D01*
X125738095Y-111390500D02*
X125738095Y-111366690D01*
X125738095Y-111366690D02*
X125714286Y-111319071D01*
X125714286Y-111319071D02*
X125666667Y-111295262D01*
X125666667Y-111295262D02*
X125595238Y-111295262D01*
X125595238Y-111295262D02*
X125547619Y-111319071D01*
X124928572Y-111628595D02*
X124928572Y-111128595D01*
X124928572Y-111128595D02*
X124809524Y-111128595D01*
X124809524Y-111128595D02*
X124738096Y-111152405D01*
X124738096Y-111152405D02*
X124690477Y-111200024D01*
X124690477Y-111200024D02*
X124666667Y-111247643D01*
X124666667Y-111247643D02*
X124642858Y-111342881D01*
X124642858Y-111342881D02*
X124642858Y-111414309D01*
X124642858Y-111414309D02*
X124666667Y-111509547D01*
X124666667Y-111509547D02*
X124690477Y-111557166D01*
X124690477Y-111557166D02*
X124738096Y-111604786D01*
X124738096Y-111604786D02*
X124809524Y-111628595D01*
X124809524Y-111628595D02*
X124928572Y-111628595D01*
X124238096Y-111604786D02*
X124285715Y-111628595D01*
X124285715Y-111628595D02*
X124380953Y-111628595D01*
X124380953Y-111628595D02*
X124428572Y-111604786D01*
X124428572Y-111604786D02*
X124452381Y-111557166D01*
X124452381Y-111557166D02*
X124452381Y-111366690D01*
X124452381Y-111366690D02*
X124428572Y-111319071D01*
X124428572Y-111319071D02*
X124380953Y-111295262D01*
X124380953Y-111295262D02*
X124285715Y-111295262D01*
X124285715Y-111295262D02*
X124238096Y-111319071D01*
X124238096Y-111319071D02*
X124214286Y-111366690D01*
X124214286Y-111366690D02*
X124214286Y-111414309D01*
X124214286Y-111414309D02*
X124452381Y-111461928D01*
X124000001Y-111295262D02*
X124000001Y-111795262D01*
X124000001Y-111319071D02*
X123952382Y-111295262D01*
X123952382Y-111295262D02*
X123857144Y-111295262D01*
X123857144Y-111295262D02*
X123809525Y-111319071D01*
X123809525Y-111319071D02*
X123785715Y-111342881D01*
X123785715Y-111342881D02*
X123761906Y-111390500D01*
X123761906Y-111390500D02*
X123761906Y-111533357D01*
X123761906Y-111533357D02*
X123785715Y-111580976D01*
X123785715Y-111580976D02*
X123809525Y-111604786D01*
X123809525Y-111604786D02*
X123857144Y-111628595D01*
X123857144Y-111628595D02*
X123952382Y-111628595D01*
X123952382Y-111628595D02*
X124000001Y-111604786D01*
X123333334Y-111628595D02*
X123333334Y-111366690D01*
X123333334Y-111366690D02*
X123357144Y-111319071D01*
X123357144Y-111319071D02*
X123404763Y-111295262D01*
X123404763Y-111295262D02*
X123500001Y-111295262D01*
X123500001Y-111295262D02*
X123547620Y-111319071D01*
X123333334Y-111604786D02*
X123380953Y-111628595D01*
X123380953Y-111628595D02*
X123500001Y-111628595D01*
X123500001Y-111628595D02*
X123547620Y-111604786D01*
X123547620Y-111604786D02*
X123571429Y-111557166D01*
X123571429Y-111557166D02*
X123571429Y-111509547D01*
X123571429Y-111509547D02*
X123547620Y-111461928D01*
X123547620Y-111461928D02*
X123500001Y-111438119D01*
X123500001Y-111438119D02*
X123380953Y-111438119D01*
X123380953Y-111438119D02*
X123333334Y-111414309D01*
X123095239Y-111628595D02*
X123095239Y-111295262D01*
X123095239Y-111390500D02*
X123071429Y-111342881D01*
X123071429Y-111342881D02*
X123047620Y-111319071D01*
X123047620Y-111319071D02*
X123000001Y-111295262D01*
X123000001Y-111295262D02*
X122952382Y-111295262D01*
X122857143Y-111295262D02*
X122666667Y-111295262D01*
X122785715Y-111128595D02*
X122785715Y-111557166D01*
X122785715Y-111557166D02*
X122761905Y-111604786D01*
X122761905Y-111604786D02*
X122714286Y-111628595D01*
X122714286Y-111628595D02*
X122666667Y-111628595D01*
X122500001Y-111628595D02*
X122500001Y-111295262D01*
X122500001Y-111342881D02*
X122476191Y-111319071D01*
X122476191Y-111319071D02*
X122428572Y-111295262D01*
X122428572Y-111295262D02*
X122357144Y-111295262D01*
X122357144Y-111295262D02*
X122309525Y-111319071D01*
X122309525Y-111319071D02*
X122285715Y-111366690D01*
X122285715Y-111366690D02*
X122285715Y-111628595D01*
X122285715Y-111366690D02*
X122261906Y-111319071D01*
X122261906Y-111319071D02*
X122214287Y-111295262D01*
X122214287Y-111295262D02*
X122142858Y-111295262D01*
X122142858Y-111295262D02*
X122095239Y-111319071D01*
X122095239Y-111319071D02*
X122071429Y-111366690D01*
X122071429Y-111366690D02*
X122071429Y-111628595D01*
X121642858Y-111604786D02*
X121690477Y-111628595D01*
X121690477Y-111628595D02*
X121785715Y-111628595D01*
X121785715Y-111628595D02*
X121833334Y-111604786D01*
X121833334Y-111604786D02*
X121857143Y-111557166D01*
X121857143Y-111557166D02*
X121857143Y-111366690D01*
X121857143Y-111366690D02*
X121833334Y-111319071D01*
X121833334Y-111319071D02*
X121785715Y-111295262D01*
X121785715Y-111295262D02*
X121690477Y-111295262D01*
X121690477Y-111295262D02*
X121642858Y-111319071D01*
X121642858Y-111319071D02*
X121619048Y-111366690D01*
X121619048Y-111366690D02*
X121619048Y-111414309D01*
X121619048Y-111414309D02*
X121857143Y-111461928D01*
X121404763Y-111295262D02*
X121404763Y-111628595D01*
X121404763Y-111342881D02*
X121380953Y-111319071D01*
X121380953Y-111319071D02*
X121333334Y-111295262D01*
X121333334Y-111295262D02*
X121261906Y-111295262D01*
X121261906Y-111295262D02*
X121214287Y-111319071D01*
X121214287Y-111319071D02*
X121190477Y-111366690D01*
X121190477Y-111366690D02*
X121190477Y-111628595D01*
X121023810Y-111295262D02*
X120833334Y-111295262D01*
X120952382Y-111128595D02*
X120952382Y-111557166D01*
X120952382Y-111557166D02*
X120928572Y-111604786D01*
X120928572Y-111604786D02*
X120880953Y-111628595D01*
X120880953Y-111628595D02*
X120833334Y-111628595D01*
D12*
X135642858Y-108431009D02*
X135500001Y-108478628D01*
X135500001Y-108478628D02*
X135452382Y-108526247D01*
X135452382Y-108526247D02*
X135404763Y-108621485D01*
X135404763Y-108621485D02*
X135404763Y-108764342D01*
X135404763Y-108764342D02*
X135452382Y-108859580D01*
X135452382Y-108859580D02*
X135500001Y-108907200D01*
X135500001Y-108907200D02*
X135595239Y-108954819D01*
X135595239Y-108954819D02*
X135976191Y-108954819D01*
X135976191Y-108954819D02*
X135976191Y-107954819D01*
X135976191Y-107954819D02*
X135642858Y-107954819D01*
X135642858Y-107954819D02*
X135547620Y-108002438D01*
X135547620Y-108002438D02*
X135500001Y-108050057D01*
X135500001Y-108050057D02*
X135452382Y-108145295D01*
X135452382Y-108145295D02*
X135452382Y-108240533D01*
X135452382Y-108240533D02*
X135500001Y-108335771D01*
X135500001Y-108335771D02*
X135547620Y-108383390D01*
X135547620Y-108383390D02*
X135642858Y-108431009D01*
X135642858Y-108431009D02*
X135976191Y-108431009D01*
X134976191Y-108954819D02*
X134976191Y-108288152D01*
X134976191Y-108478628D02*
X134928572Y-108383390D01*
X134928572Y-108383390D02*
X134880953Y-108335771D01*
X134880953Y-108335771D02*
X134785715Y-108288152D01*
X134785715Y-108288152D02*
X134690477Y-108288152D01*
X133976191Y-108907200D02*
X134071429Y-108954819D01*
X134071429Y-108954819D02*
X134261905Y-108954819D01*
X134261905Y-108954819D02*
X134357143Y-108907200D01*
X134357143Y-108907200D02*
X134404762Y-108811961D01*
X134404762Y-108811961D02*
X134404762Y-108431009D01*
X134404762Y-108431009D02*
X134357143Y-108335771D01*
X134357143Y-108335771D02*
X134261905Y-108288152D01*
X134261905Y-108288152D02*
X134071429Y-108288152D01*
X134071429Y-108288152D02*
X133976191Y-108335771D01*
X133976191Y-108335771D02*
X133928572Y-108431009D01*
X133928572Y-108431009D02*
X133928572Y-108526247D01*
X133928572Y-108526247D02*
X134404762Y-108621485D01*
X133071429Y-108954819D02*
X133071429Y-108431009D01*
X133071429Y-108431009D02*
X133119048Y-108335771D01*
X133119048Y-108335771D02*
X133214286Y-108288152D01*
X133214286Y-108288152D02*
X133404762Y-108288152D01*
X133404762Y-108288152D02*
X133500000Y-108335771D01*
X133071429Y-108907200D02*
X133166667Y-108954819D01*
X133166667Y-108954819D02*
X133404762Y-108954819D01*
X133404762Y-108954819D02*
X133500000Y-108907200D01*
X133500000Y-108907200D02*
X133547619Y-108811961D01*
X133547619Y-108811961D02*
X133547619Y-108716723D01*
X133547619Y-108716723D02*
X133500000Y-108621485D01*
X133500000Y-108621485D02*
X133404762Y-108573866D01*
X133404762Y-108573866D02*
X133166667Y-108573866D01*
X133166667Y-108573866D02*
X133071429Y-108526247D01*
X132166667Y-108954819D02*
X132166667Y-107954819D01*
X132166667Y-108907200D02*
X132261905Y-108954819D01*
X132261905Y-108954819D02*
X132452381Y-108954819D01*
X132452381Y-108954819D02*
X132547619Y-108907200D01*
X132547619Y-108907200D02*
X132595238Y-108859580D01*
X132595238Y-108859580D02*
X132642857Y-108764342D01*
X132642857Y-108764342D02*
X132642857Y-108478628D01*
X132642857Y-108478628D02*
X132595238Y-108383390D01*
X132595238Y-108383390D02*
X132547619Y-108335771D01*
X132547619Y-108335771D02*
X132452381Y-108288152D01*
X132452381Y-108288152D02*
X132261905Y-108288152D01*
X132261905Y-108288152D02*
X132166667Y-108335771D01*
X131690476Y-108954819D02*
X131690476Y-107954819D01*
X131690476Y-108335771D02*
X131595238Y-108288152D01*
X131595238Y-108288152D02*
X131404762Y-108288152D01*
X131404762Y-108288152D02*
X131309524Y-108335771D01*
X131309524Y-108335771D02*
X131261905Y-108383390D01*
X131261905Y-108383390D02*
X131214286Y-108478628D01*
X131214286Y-108478628D02*
X131214286Y-108764342D01*
X131214286Y-108764342D02*
X131261905Y-108859580D01*
X131261905Y-108859580D02*
X131309524Y-108907200D01*
X131309524Y-108907200D02*
X131404762Y-108954819D01*
X131404762Y-108954819D02*
X131595238Y-108954819D01*
X131595238Y-108954819D02*
X131690476Y-108907200D01*
X130642857Y-108954819D02*
X130738095Y-108907200D01*
X130738095Y-108907200D02*
X130785714Y-108859580D01*
X130785714Y-108859580D02*
X130833333Y-108764342D01*
X130833333Y-108764342D02*
X130833333Y-108478628D01*
X130833333Y-108478628D02*
X130785714Y-108383390D01*
X130785714Y-108383390D02*
X130738095Y-108335771D01*
X130738095Y-108335771D02*
X130642857Y-108288152D01*
X130642857Y-108288152D02*
X130500000Y-108288152D01*
X130500000Y-108288152D02*
X130404762Y-108335771D01*
X130404762Y-108335771D02*
X130357143Y-108383390D01*
X130357143Y-108383390D02*
X130309524Y-108478628D01*
X130309524Y-108478628D02*
X130309524Y-108764342D01*
X130309524Y-108764342D02*
X130357143Y-108859580D01*
X130357143Y-108859580D02*
X130404762Y-108907200D01*
X130404762Y-108907200D02*
X130500000Y-108954819D01*
X130500000Y-108954819D02*
X130642857Y-108954819D01*
X129452381Y-108954819D02*
X129452381Y-108431009D01*
X129452381Y-108431009D02*
X129500000Y-108335771D01*
X129500000Y-108335771D02*
X129595238Y-108288152D01*
X129595238Y-108288152D02*
X129785714Y-108288152D01*
X129785714Y-108288152D02*
X129880952Y-108335771D01*
X129452381Y-108907200D02*
X129547619Y-108954819D01*
X129547619Y-108954819D02*
X129785714Y-108954819D01*
X129785714Y-108954819D02*
X129880952Y-108907200D01*
X129880952Y-108907200D02*
X129928571Y-108811961D01*
X129928571Y-108811961D02*
X129928571Y-108716723D01*
X129928571Y-108716723D02*
X129880952Y-108621485D01*
X129880952Y-108621485D02*
X129785714Y-108573866D01*
X129785714Y-108573866D02*
X129547619Y-108573866D01*
X129547619Y-108573866D02*
X129452381Y-108526247D01*
X128976190Y-108954819D02*
X128976190Y-108288152D01*
X128976190Y-108478628D02*
X128928571Y-108383390D01*
X128928571Y-108383390D02*
X128880952Y-108335771D01*
X128880952Y-108335771D02*
X128785714Y-108288152D01*
X128785714Y-108288152D02*
X128690476Y-108288152D01*
X127928571Y-108954819D02*
X127928571Y-107954819D01*
X127928571Y-108907200D02*
X128023809Y-108954819D01*
X128023809Y-108954819D02*
X128214285Y-108954819D01*
X128214285Y-108954819D02*
X128309523Y-108907200D01*
X128309523Y-108907200D02*
X128357142Y-108859580D01*
X128357142Y-108859580D02*
X128404761Y-108764342D01*
X128404761Y-108764342D02*
X128404761Y-108478628D01*
X128404761Y-108478628D02*
X128357142Y-108383390D01*
X128357142Y-108383390D02*
X128309523Y-108335771D01*
X128309523Y-108335771D02*
X128214285Y-108288152D01*
X128214285Y-108288152D02*
X128023809Y-108288152D01*
X128023809Y-108288152D02*
X127928571Y-108335771D01*
X126690475Y-108954819D02*
X126690475Y-107954819D01*
X126690475Y-107954819D02*
X126309523Y-107954819D01*
X126309523Y-107954819D02*
X126214285Y-108002438D01*
X126214285Y-108002438D02*
X126166666Y-108050057D01*
X126166666Y-108050057D02*
X126119047Y-108145295D01*
X126119047Y-108145295D02*
X126119047Y-108288152D01*
X126119047Y-108288152D02*
X126166666Y-108383390D01*
X126166666Y-108383390D02*
X126214285Y-108431009D01*
X126214285Y-108431009D02*
X126309523Y-108478628D01*
X126309523Y-108478628D02*
X126690475Y-108478628D01*
X125547618Y-108954819D02*
X125642856Y-108907200D01*
X125642856Y-108907200D02*
X125690475Y-108859580D01*
X125690475Y-108859580D02*
X125738094Y-108764342D01*
X125738094Y-108764342D02*
X125738094Y-108478628D01*
X125738094Y-108478628D02*
X125690475Y-108383390D01*
X125690475Y-108383390D02*
X125642856Y-108335771D01*
X125642856Y-108335771D02*
X125547618Y-108288152D01*
X125547618Y-108288152D02*
X125404761Y-108288152D01*
X125404761Y-108288152D02*
X125309523Y-108335771D01*
X125309523Y-108335771D02*
X125261904Y-108383390D01*
X125261904Y-108383390D02*
X125214285Y-108478628D01*
X125214285Y-108478628D02*
X125214285Y-108764342D01*
X125214285Y-108764342D02*
X125261904Y-108859580D01*
X125261904Y-108859580D02*
X125309523Y-108907200D01*
X125309523Y-108907200D02*
X125404761Y-108954819D01*
X125404761Y-108954819D02*
X125547618Y-108954819D01*
X124880951Y-108288152D02*
X124690475Y-108954819D01*
X124690475Y-108954819D02*
X124499999Y-108478628D01*
X124499999Y-108478628D02*
X124309523Y-108954819D01*
X124309523Y-108954819D02*
X124119047Y-108288152D01*
X123357142Y-108907200D02*
X123452380Y-108954819D01*
X123452380Y-108954819D02*
X123642856Y-108954819D01*
X123642856Y-108954819D02*
X123738094Y-108907200D01*
X123738094Y-108907200D02*
X123785713Y-108811961D01*
X123785713Y-108811961D02*
X123785713Y-108431009D01*
X123785713Y-108431009D02*
X123738094Y-108335771D01*
X123738094Y-108335771D02*
X123642856Y-108288152D01*
X123642856Y-108288152D02*
X123452380Y-108288152D01*
X123452380Y-108288152D02*
X123357142Y-108335771D01*
X123357142Y-108335771D02*
X123309523Y-108431009D01*
X123309523Y-108431009D02*
X123309523Y-108526247D01*
X123309523Y-108526247D02*
X123785713Y-108621485D01*
X122880951Y-108954819D02*
X122880951Y-108288152D01*
X122880951Y-108478628D02*
X122833332Y-108383390D01*
X122833332Y-108383390D02*
X122785713Y-108335771D01*
X122785713Y-108335771D02*
X122690475Y-108288152D01*
X122690475Y-108288152D02*
X122595237Y-108288152D01*
X121547617Y-108907200D02*
X121404760Y-108954819D01*
X121404760Y-108954819D02*
X121166665Y-108954819D01*
X121166665Y-108954819D02*
X121071427Y-108907200D01*
X121071427Y-108907200D02*
X121023808Y-108859580D01*
X121023808Y-108859580D02*
X120976189Y-108764342D01*
X120976189Y-108764342D02*
X120976189Y-108669104D01*
X120976189Y-108669104D02*
X121023808Y-108573866D01*
X121023808Y-108573866D02*
X121071427Y-108526247D01*
X121071427Y-108526247D02*
X121166665Y-108478628D01*
X121166665Y-108478628D02*
X121357141Y-108431009D01*
X121357141Y-108431009D02*
X121452379Y-108383390D01*
X121452379Y-108383390D02*
X121499998Y-108335771D01*
X121499998Y-108335771D02*
X121547617Y-108240533D01*
X121547617Y-108240533D02*
X121547617Y-108145295D01*
X121547617Y-108145295D02*
X121499998Y-108050057D01*
X121499998Y-108050057D02*
X121452379Y-108002438D01*
X121452379Y-108002438D02*
X121357141Y-107954819D01*
X121357141Y-107954819D02*
X121119046Y-107954819D01*
X121119046Y-107954819D02*
X120976189Y-108002438D01*
X120119046Y-108288152D02*
X120119046Y-108954819D01*
X120547617Y-108288152D02*
X120547617Y-108811961D01*
X120547617Y-108811961D02*
X120499998Y-108907200D01*
X120499998Y-108907200D02*
X120404760Y-108954819D01*
X120404760Y-108954819D02*
X120261903Y-108954819D01*
X120261903Y-108954819D02*
X120166665Y-108907200D01*
X120166665Y-108907200D02*
X120119046Y-108859580D01*
X119642855Y-108288152D02*
X119642855Y-109288152D01*
X119642855Y-108335771D02*
X119547617Y-108288152D01*
X119547617Y-108288152D02*
X119357141Y-108288152D01*
X119357141Y-108288152D02*
X119261903Y-108335771D01*
X119261903Y-108335771D02*
X119214284Y-108383390D01*
X119214284Y-108383390D02*
X119166665Y-108478628D01*
X119166665Y-108478628D02*
X119166665Y-108764342D01*
X119166665Y-108764342D02*
X119214284Y-108859580D01*
X119214284Y-108859580D02*
X119261903Y-108907200D01*
X119261903Y-108907200D02*
X119357141Y-108954819D01*
X119357141Y-108954819D02*
X119547617Y-108954819D01*
X119547617Y-108954819D02*
X119642855Y-108907200D01*
X118738093Y-108288152D02*
X118738093Y-109288152D01*
X118738093Y-108335771D02*
X118642855Y-108288152D01*
X118642855Y-108288152D02*
X118452379Y-108288152D01*
X118452379Y-108288152D02*
X118357141Y-108335771D01*
X118357141Y-108335771D02*
X118309522Y-108383390D01*
X118309522Y-108383390D02*
X118261903Y-108478628D01*
X118261903Y-108478628D02*
X118261903Y-108764342D01*
X118261903Y-108764342D02*
X118309522Y-108859580D01*
X118309522Y-108859580D02*
X118357141Y-108907200D01*
X118357141Y-108907200D02*
X118452379Y-108954819D01*
X118452379Y-108954819D02*
X118642855Y-108954819D01*
X118642855Y-108954819D02*
X118738093Y-108907200D01*
X117690474Y-108954819D02*
X117785712Y-108907200D01*
X117785712Y-108907200D02*
X117833331Y-108811961D01*
X117833331Y-108811961D02*
X117833331Y-107954819D01*
X117404759Y-108288152D02*
X117166664Y-108954819D01*
X116928569Y-108288152D02*
X117166664Y-108954819D01*
X117166664Y-108954819D02*
X117261902Y-109192914D01*
X117261902Y-109192914D02*
X117309521Y-109240533D01*
X117309521Y-109240533D02*
X117404759Y-109288152D01*
D13*
X143964280Y-118840724D02*
X143964280Y-118090724D01*
X143642852Y-118840724D02*
X143642852Y-118447867D01*
X143642852Y-118447867D02*
X143678566Y-118376438D01*
X143678566Y-118376438D02*
X143749994Y-118340724D01*
X143749994Y-118340724D02*
X143857137Y-118340724D01*
X143857137Y-118340724D02*
X143928566Y-118376438D01*
X143928566Y-118376438D02*
X143964280Y-118412152D01*
X143392852Y-118340724D02*
X143107138Y-118340724D01*
X143285709Y-118090724D02*
X143285709Y-118733581D01*
X143285709Y-118733581D02*
X143249995Y-118805010D01*
X143249995Y-118805010D02*
X143178566Y-118840724D01*
X143178566Y-118840724D02*
X143107138Y-118840724D01*
X142964281Y-118340724D02*
X142678567Y-118340724D01*
X142857138Y-118090724D02*
X142857138Y-118733581D01*
X142857138Y-118733581D02*
X142821424Y-118805010D01*
X142821424Y-118805010D02*
X142749995Y-118840724D01*
X142749995Y-118840724D02*
X142678567Y-118840724D01*
X142428567Y-118340724D02*
X142428567Y-119090724D01*
X142428567Y-118376438D02*
X142357139Y-118340724D01*
X142357139Y-118340724D02*
X142214281Y-118340724D01*
X142214281Y-118340724D02*
X142142853Y-118376438D01*
X142142853Y-118376438D02*
X142107139Y-118412152D01*
X142107139Y-118412152D02*
X142071424Y-118483581D01*
X142071424Y-118483581D02*
X142071424Y-118697867D01*
X142071424Y-118697867D02*
X142107139Y-118769295D01*
X142107139Y-118769295D02*
X142142853Y-118805010D01*
X142142853Y-118805010D02*
X142214281Y-118840724D01*
X142214281Y-118840724D02*
X142357139Y-118840724D01*
X142357139Y-118840724D02*
X142428567Y-118805010D01*
X141785710Y-118805010D02*
X141714282Y-118840724D01*
X141714282Y-118840724D02*
X141571425Y-118840724D01*
X141571425Y-118840724D02*
X141499996Y-118805010D01*
X141499996Y-118805010D02*
X141464282Y-118733581D01*
X141464282Y-118733581D02*
X141464282Y-118697867D01*
X141464282Y-118697867D02*
X141499996Y-118626438D01*
X141499996Y-118626438D02*
X141571425Y-118590724D01*
X141571425Y-118590724D02*
X141678568Y-118590724D01*
X141678568Y-118590724D02*
X141749996Y-118555010D01*
X141749996Y-118555010D02*
X141785710Y-118483581D01*
X141785710Y-118483581D02*
X141785710Y-118447867D01*
X141785710Y-118447867D02*
X141749996Y-118376438D01*
X141749996Y-118376438D02*
X141678568Y-118340724D01*
X141678568Y-118340724D02*
X141571425Y-118340724D01*
X141571425Y-118340724D02*
X141499996Y-118376438D01*
X141142853Y-118769295D02*
X141107139Y-118805010D01*
X141107139Y-118805010D02*
X141142853Y-118840724D01*
X141142853Y-118840724D02*
X141178567Y-118805010D01*
X141178567Y-118805010D02*
X141142853Y-118769295D01*
X141142853Y-118769295D02*
X141142853Y-118840724D01*
X141142853Y-118376438D02*
X141107139Y-118412152D01*
X141107139Y-118412152D02*
X141142853Y-118447867D01*
X141142853Y-118447867D02*
X141178567Y-118412152D01*
X141178567Y-118412152D02*
X141142853Y-118376438D01*
X141142853Y-118376438D02*
X141142853Y-118447867D01*
X140249996Y-118055010D02*
X140892853Y-119019295D01*
X139464282Y-118055010D02*
X140107139Y-119019295D01*
X138892854Y-118340724D02*
X138892854Y-118947867D01*
X138892854Y-118947867D02*
X138928568Y-119019295D01*
X138928568Y-119019295D02*
X138964282Y-119055010D01*
X138964282Y-119055010D02*
X139035711Y-119090724D01*
X139035711Y-119090724D02*
X139142854Y-119090724D01*
X139142854Y-119090724D02*
X139214282Y-119055010D01*
X138892854Y-118805010D02*
X138964282Y-118840724D01*
X138964282Y-118840724D02*
X139107139Y-118840724D01*
X139107139Y-118840724D02*
X139178568Y-118805010D01*
X139178568Y-118805010D02*
X139214282Y-118769295D01*
X139214282Y-118769295D02*
X139249996Y-118697867D01*
X139249996Y-118697867D02*
X139249996Y-118483581D01*
X139249996Y-118483581D02*
X139214282Y-118412152D01*
X139214282Y-118412152D02*
X139178568Y-118376438D01*
X139178568Y-118376438D02*
X139107139Y-118340724D01*
X139107139Y-118340724D02*
X138964282Y-118340724D01*
X138964282Y-118340724D02*
X138892854Y-118376438D01*
X138535711Y-118840724D02*
X138535711Y-118340724D01*
X138535711Y-118090724D02*
X138571425Y-118126438D01*
X138571425Y-118126438D02*
X138535711Y-118162152D01*
X138535711Y-118162152D02*
X138499997Y-118126438D01*
X138499997Y-118126438D02*
X138535711Y-118090724D01*
X138535711Y-118090724D02*
X138535711Y-118162152D01*
X138285711Y-118340724D02*
X137999997Y-118340724D01*
X138178568Y-118090724D02*
X138178568Y-118733581D01*
X138178568Y-118733581D02*
X138142854Y-118805010D01*
X138142854Y-118805010D02*
X138071425Y-118840724D01*
X138071425Y-118840724D02*
X137999997Y-118840724D01*
X137749997Y-118840724D02*
X137749997Y-118090724D01*
X137428569Y-118840724D02*
X137428569Y-118447867D01*
X137428569Y-118447867D02*
X137464283Y-118376438D01*
X137464283Y-118376438D02*
X137535711Y-118340724D01*
X137535711Y-118340724D02*
X137642854Y-118340724D01*
X137642854Y-118340724D02*
X137714283Y-118376438D01*
X137714283Y-118376438D02*
X137749997Y-118412152D01*
X136749998Y-118340724D02*
X136749998Y-118840724D01*
X137071426Y-118340724D02*
X137071426Y-118733581D01*
X137071426Y-118733581D02*
X137035712Y-118805010D01*
X137035712Y-118805010D02*
X136964283Y-118840724D01*
X136964283Y-118840724D02*
X136857140Y-118840724D01*
X136857140Y-118840724D02*
X136785712Y-118805010D01*
X136785712Y-118805010D02*
X136749998Y-118769295D01*
X136392855Y-118840724D02*
X136392855Y-118090724D01*
X136392855Y-118376438D02*
X136321427Y-118340724D01*
X136321427Y-118340724D02*
X136178569Y-118340724D01*
X136178569Y-118340724D02*
X136107141Y-118376438D01*
X136107141Y-118376438D02*
X136071427Y-118412152D01*
X136071427Y-118412152D02*
X136035712Y-118483581D01*
X136035712Y-118483581D02*
X136035712Y-118697867D01*
X136035712Y-118697867D02*
X136071427Y-118769295D01*
X136071427Y-118769295D02*
X136107141Y-118805010D01*
X136107141Y-118805010D02*
X136178569Y-118840724D01*
X136178569Y-118840724D02*
X136321427Y-118840724D01*
X136321427Y-118840724D02*
X136392855Y-118805010D01*
X135714284Y-118769295D02*
X135678570Y-118805010D01*
X135678570Y-118805010D02*
X135714284Y-118840724D01*
X135714284Y-118840724D02*
X135749998Y-118805010D01*
X135749998Y-118805010D02*
X135714284Y-118769295D01*
X135714284Y-118769295D02*
X135714284Y-118840724D01*
X135035713Y-118805010D02*
X135107141Y-118840724D01*
X135107141Y-118840724D02*
X135249998Y-118840724D01*
X135249998Y-118840724D02*
X135321427Y-118805010D01*
X135321427Y-118805010D02*
X135357141Y-118769295D01*
X135357141Y-118769295D02*
X135392855Y-118697867D01*
X135392855Y-118697867D02*
X135392855Y-118483581D01*
X135392855Y-118483581D02*
X135357141Y-118412152D01*
X135357141Y-118412152D02*
X135321427Y-118376438D01*
X135321427Y-118376438D02*
X135249998Y-118340724D01*
X135249998Y-118340724D02*
X135107141Y-118340724D01*
X135107141Y-118340724D02*
X135035713Y-118376438D01*
X134607141Y-118840724D02*
X134678570Y-118805010D01*
X134678570Y-118805010D02*
X134714284Y-118769295D01*
X134714284Y-118769295D02*
X134749998Y-118697867D01*
X134749998Y-118697867D02*
X134749998Y-118483581D01*
X134749998Y-118483581D02*
X134714284Y-118412152D01*
X134714284Y-118412152D02*
X134678570Y-118376438D01*
X134678570Y-118376438D02*
X134607141Y-118340724D01*
X134607141Y-118340724D02*
X134499998Y-118340724D01*
X134499998Y-118340724D02*
X134428570Y-118376438D01*
X134428570Y-118376438D02*
X134392856Y-118412152D01*
X134392856Y-118412152D02*
X134357141Y-118483581D01*
X134357141Y-118483581D02*
X134357141Y-118697867D01*
X134357141Y-118697867D02*
X134392856Y-118769295D01*
X134392856Y-118769295D02*
X134428570Y-118805010D01*
X134428570Y-118805010D02*
X134499998Y-118840724D01*
X134499998Y-118840724D02*
X134607141Y-118840724D01*
X134035713Y-118840724D02*
X134035713Y-118340724D01*
X134035713Y-118412152D02*
X133999999Y-118376438D01*
X133999999Y-118376438D02*
X133928570Y-118340724D01*
X133928570Y-118340724D02*
X133821427Y-118340724D01*
X133821427Y-118340724D02*
X133749999Y-118376438D01*
X133749999Y-118376438D02*
X133714285Y-118447867D01*
X133714285Y-118447867D02*
X133714285Y-118840724D01*
X133714285Y-118447867D02*
X133678570Y-118376438D01*
X133678570Y-118376438D02*
X133607142Y-118340724D01*
X133607142Y-118340724D02*
X133499999Y-118340724D01*
X133499999Y-118340724D02*
X133428570Y-118376438D01*
X133428570Y-118376438D02*
X133392856Y-118447867D01*
X133392856Y-118447867D02*
X133392856Y-118840724D01*
X132499999Y-118055010D02*
X133142856Y-119019295D01*
X132249999Y-118840724D02*
X132249999Y-118090724D01*
X132249999Y-118090724D02*
X132071428Y-118090724D01*
X132071428Y-118090724D02*
X131964285Y-118126438D01*
X131964285Y-118126438D02*
X131892856Y-118197867D01*
X131892856Y-118197867D02*
X131857142Y-118269295D01*
X131857142Y-118269295D02*
X131821428Y-118412152D01*
X131821428Y-118412152D02*
X131821428Y-118519295D01*
X131821428Y-118519295D02*
X131857142Y-118662152D01*
X131857142Y-118662152D02*
X131892856Y-118733581D01*
X131892856Y-118733581D02*
X131964285Y-118805010D01*
X131964285Y-118805010D02*
X132071428Y-118840724D01*
X132071428Y-118840724D02*
X132249999Y-118840724D01*
X131214285Y-118805010D02*
X131285713Y-118840724D01*
X131285713Y-118840724D02*
X131428571Y-118840724D01*
X131428571Y-118840724D02*
X131499999Y-118805010D01*
X131499999Y-118805010D02*
X131535713Y-118733581D01*
X131535713Y-118733581D02*
X131535713Y-118447867D01*
X131535713Y-118447867D02*
X131499999Y-118376438D01*
X131499999Y-118376438D02*
X131428571Y-118340724D01*
X131428571Y-118340724D02*
X131285713Y-118340724D01*
X131285713Y-118340724D02*
X131214285Y-118376438D01*
X131214285Y-118376438D02*
X131178571Y-118447867D01*
X131178571Y-118447867D02*
X131178571Y-118519295D01*
X131178571Y-118519295D02*
X131535713Y-118590724D01*
X130571428Y-118805010D02*
X130642856Y-118840724D01*
X130642856Y-118840724D02*
X130785714Y-118840724D01*
X130785714Y-118840724D02*
X130857142Y-118805010D01*
X130857142Y-118805010D02*
X130892856Y-118733581D01*
X130892856Y-118733581D02*
X130892856Y-118447867D01*
X130892856Y-118447867D02*
X130857142Y-118376438D01*
X130857142Y-118376438D02*
X130785714Y-118340724D01*
X130785714Y-118340724D02*
X130642856Y-118340724D01*
X130642856Y-118340724D02*
X130571428Y-118376438D01*
X130571428Y-118376438D02*
X130535714Y-118447867D01*
X130535714Y-118447867D02*
X130535714Y-118519295D01*
X130535714Y-118519295D02*
X130892856Y-118590724D01*
X130214285Y-118340724D02*
X130214285Y-119090724D01*
X130214285Y-118376438D02*
X130142857Y-118340724D01*
X130142857Y-118340724D02*
X129999999Y-118340724D01*
X129999999Y-118340724D02*
X129928571Y-118376438D01*
X129928571Y-118376438D02*
X129892857Y-118412152D01*
X129892857Y-118412152D02*
X129857142Y-118483581D01*
X129857142Y-118483581D02*
X129857142Y-118697867D01*
X129857142Y-118697867D02*
X129892857Y-118769295D01*
X129892857Y-118769295D02*
X129928571Y-118805010D01*
X129928571Y-118805010D02*
X129999999Y-118840724D01*
X129999999Y-118840724D02*
X130142857Y-118840724D01*
X130142857Y-118840724D02*
X130214285Y-118805010D01*
X129571428Y-118805010D02*
X129464286Y-118840724D01*
X129464286Y-118840724D02*
X129285714Y-118840724D01*
X129285714Y-118840724D02*
X129214286Y-118805010D01*
X129214286Y-118805010D02*
X129178571Y-118769295D01*
X129178571Y-118769295D02*
X129142857Y-118697867D01*
X129142857Y-118697867D02*
X129142857Y-118626438D01*
X129142857Y-118626438D02*
X129178571Y-118555010D01*
X129178571Y-118555010D02*
X129214286Y-118519295D01*
X129214286Y-118519295D02*
X129285714Y-118483581D01*
X129285714Y-118483581D02*
X129428571Y-118447867D01*
X129428571Y-118447867D02*
X129500000Y-118412152D01*
X129500000Y-118412152D02*
X129535714Y-118376438D01*
X129535714Y-118376438D02*
X129571428Y-118305010D01*
X129571428Y-118305010D02*
X129571428Y-118233581D01*
X129571428Y-118233581D02*
X129535714Y-118162152D01*
X129535714Y-118162152D02*
X129500000Y-118126438D01*
X129500000Y-118126438D02*
X129428571Y-118090724D01*
X129428571Y-118090724D02*
X129250000Y-118090724D01*
X129250000Y-118090724D02*
X129142857Y-118126438D01*
X128821428Y-118340724D02*
X128821428Y-119090724D01*
X128821428Y-118376438D02*
X128750000Y-118340724D01*
X128750000Y-118340724D02*
X128607142Y-118340724D01*
X128607142Y-118340724D02*
X128535714Y-118376438D01*
X128535714Y-118376438D02*
X128500000Y-118412152D01*
X128500000Y-118412152D02*
X128464285Y-118483581D01*
X128464285Y-118483581D02*
X128464285Y-118697867D01*
X128464285Y-118697867D02*
X128500000Y-118769295D01*
X128500000Y-118769295D02*
X128535714Y-118805010D01*
X128535714Y-118805010D02*
X128607142Y-118840724D01*
X128607142Y-118840724D02*
X128750000Y-118840724D01*
X128750000Y-118840724D02*
X128821428Y-118805010D01*
X127821429Y-118840724D02*
X127821429Y-118447867D01*
X127821429Y-118447867D02*
X127857143Y-118376438D01*
X127857143Y-118376438D02*
X127928571Y-118340724D01*
X127928571Y-118340724D02*
X128071429Y-118340724D01*
X128071429Y-118340724D02*
X128142857Y-118376438D01*
X127821429Y-118805010D02*
X127892857Y-118840724D01*
X127892857Y-118840724D02*
X128071429Y-118840724D01*
X128071429Y-118840724D02*
X128142857Y-118805010D01*
X128142857Y-118805010D02*
X128178571Y-118733581D01*
X128178571Y-118733581D02*
X128178571Y-118662152D01*
X128178571Y-118662152D02*
X128142857Y-118590724D01*
X128142857Y-118590724D02*
X128071429Y-118555010D01*
X128071429Y-118555010D02*
X127892857Y-118555010D01*
X127892857Y-118555010D02*
X127821429Y-118519295D01*
X127142858Y-118805010D02*
X127214286Y-118840724D01*
X127214286Y-118840724D02*
X127357143Y-118840724D01*
X127357143Y-118840724D02*
X127428572Y-118805010D01*
X127428572Y-118805010D02*
X127464286Y-118769295D01*
X127464286Y-118769295D02*
X127500000Y-118697867D01*
X127500000Y-118697867D02*
X127500000Y-118483581D01*
X127500000Y-118483581D02*
X127464286Y-118412152D01*
X127464286Y-118412152D02*
X127428572Y-118376438D01*
X127428572Y-118376438D02*
X127357143Y-118340724D01*
X127357143Y-118340724D02*
X127214286Y-118340724D01*
X127214286Y-118340724D02*
X127142858Y-118376438D01*
X126535715Y-118805010D02*
X126607143Y-118840724D01*
X126607143Y-118840724D02*
X126750001Y-118840724D01*
X126750001Y-118840724D02*
X126821429Y-118805010D01*
X126821429Y-118805010D02*
X126857143Y-118733581D01*
X126857143Y-118733581D02*
X126857143Y-118447867D01*
X126857143Y-118447867D02*
X126821429Y-118376438D01*
X126821429Y-118376438D02*
X126750001Y-118340724D01*
X126750001Y-118340724D02*
X126607143Y-118340724D01*
X126607143Y-118340724D02*
X126535715Y-118376438D01*
X126535715Y-118376438D02*
X126500001Y-118447867D01*
X126500001Y-118447867D02*
X126500001Y-118519295D01*
X126500001Y-118519295D02*
X126857143Y-118590724D01*
X126035715Y-118090724D02*
X125964286Y-118090724D01*
X125964286Y-118090724D02*
X125892858Y-118126438D01*
X125892858Y-118126438D02*
X125857144Y-118162152D01*
X125857144Y-118162152D02*
X125821429Y-118233581D01*
X125821429Y-118233581D02*
X125785715Y-118376438D01*
X125785715Y-118376438D02*
X125785715Y-118555010D01*
X125785715Y-118555010D02*
X125821429Y-118697867D01*
X125821429Y-118697867D02*
X125857144Y-118769295D01*
X125857144Y-118769295D02*
X125892858Y-118805010D01*
X125892858Y-118805010D02*
X125964286Y-118840724D01*
X125964286Y-118840724D02*
X126035715Y-118840724D01*
X126035715Y-118840724D02*
X126107144Y-118805010D01*
X126107144Y-118805010D02*
X126142858Y-118769295D01*
X126142858Y-118769295D02*
X126178572Y-118697867D01*
X126178572Y-118697867D02*
X126214286Y-118555010D01*
X126214286Y-118555010D02*
X126214286Y-118376438D01*
X126214286Y-118376438D02*
X126178572Y-118233581D01*
X126178572Y-118233581D02*
X126142858Y-118162152D01*
X126142858Y-118162152D02*
X126107144Y-118126438D01*
X126107144Y-118126438D02*
X126035715Y-118090724D01*
X125321429Y-118090724D02*
X125250000Y-118090724D01*
X125250000Y-118090724D02*
X125178572Y-118126438D01*
X125178572Y-118126438D02*
X125142858Y-118162152D01*
X125142858Y-118162152D02*
X125107143Y-118233581D01*
X125107143Y-118233581D02*
X125071429Y-118376438D01*
X125071429Y-118376438D02*
X125071429Y-118555010D01*
X125071429Y-118555010D02*
X125107143Y-118697867D01*
X125107143Y-118697867D02*
X125142858Y-118769295D01*
X125142858Y-118769295D02*
X125178572Y-118805010D01*
X125178572Y-118805010D02*
X125250000Y-118840724D01*
X125250000Y-118840724D02*
X125321429Y-118840724D01*
X125321429Y-118840724D02*
X125392858Y-118805010D01*
X125392858Y-118805010D02*
X125428572Y-118769295D01*
X125428572Y-118769295D02*
X125464286Y-118697867D01*
X125464286Y-118697867D02*
X125500000Y-118555010D01*
X125500000Y-118555010D02*
X125500000Y-118376438D01*
X125500000Y-118376438D02*
X125464286Y-118233581D01*
X125464286Y-118233581D02*
X125428572Y-118162152D01*
X125428572Y-118162152D02*
X125392858Y-118126438D01*
X125392858Y-118126438D02*
X125321429Y-118090724D01*
X124214286Y-118055010D02*
X124857143Y-119019295D01*
X123714286Y-118447867D02*
X123607143Y-118483581D01*
X123607143Y-118483581D02*
X123571429Y-118519295D01*
X123571429Y-118519295D02*
X123535715Y-118590724D01*
X123535715Y-118590724D02*
X123535715Y-118697867D01*
X123535715Y-118697867D02*
X123571429Y-118769295D01*
X123571429Y-118769295D02*
X123607143Y-118805010D01*
X123607143Y-118805010D02*
X123678572Y-118840724D01*
X123678572Y-118840724D02*
X123964286Y-118840724D01*
X123964286Y-118840724D02*
X123964286Y-118090724D01*
X123964286Y-118090724D02*
X123714286Y-118090724D01*
X123714286Y-118090724D02*
X123642858Y-118126438D01*
X123642858Y-118126438D02*
X123607143Y-118162152D01*
X123607143Y-118162152D02*
X123571429Y-118233581D01*
X123571429Y-118233581D02*
X123571429Y-118305010D01*
X123571429Y-118305010D02*
X123607143Y-118376438D01*
X123607143Y-118376438D02*
X123642858Y-118412152D01*
X123642858Y-118412152D02*
X123714286Y-118447867D01*
X123714286Y-118447867D02*
X123964286Y-118447867D01*
X123214286Y-118840724D02*
X123214286Y-118340724D01*
X123214286Y-118483581D02*
X123178572Y-118412152D01*
X123178572Y-118412152D02*
X123142858Y-118376438D01*
X123142858Y-118376438D02*
X123071429Y-118340724D01*
X123071429Y-118340724D02*
X123000000Y-118340724D01*
X122464286Y-118805010D02*
X122535714Y-118840724D01*
X122535714Y-118840724D02*
X122678572Y-118840724D01*
X122678572Y-118840724D02*
X122750000Y-118805010D01*
X122750000Y-118805010D02*
X122785714Y-118733581D01*
X122785714Y-118733581D02*
X122785714Y-118447867D01*
X122785714Y-118447867D02*
X122750000Y-118376438D01*
X122750000Y-118376438D02*
X122678572Y-118340724D01*
X122678572Y-118340724D02*
X122535714Y-118340724D01*
X122535714Y-118340724D02*
X122464286Y-118376438D01*
X122464286Y-118376438D02*
X122428572Y-118447867D01*
X122428572Y-118447867D02*
X122428572Y-118519295D01*
X122428572Y-118519295D02*
X122785714Y-118590724D01*
X121785715Y-118840724D02*
X121785715Y-118447867D01*
X121785715Y-118447867D02*
X121821429Y-118376438D01*
X121821429Y-118376438D02*
X121892857Y-118340724D01*
X121892857Y-118340724D02*
X122035715Y-118340724D01*
X122035715Y-118340724D02*
X122107143Y-118376438D01*
X121785715Y-118805010D02*
X121857143Y-118840724D01*
X121857143Y-118840724D02*
X122035715Y-118840724D01*
X122035715Y-118840724D02*
X122107143Y-118805010D01*
X122107143Y-118805010D02*
X122142857Y-118733581D01*
X122142857Y-118733581D02*
X122142857Y-118662152D01*
X122142857Y-118662152D02*
X122107143Y-118590724D01*
X122107143Y-118590724D02*
X122035715Y-118555010D01*
X122035715Y-118555010D02*
X121857143Y-118555010D01*
X121857143Y-118555010D02*
X121785715Y-118519295D01*
X121107144Y-118840724D02*
X121107144Y-118090724D01*
X121107144Y-118805010D02*
X121178572Y-118840724D01*
X121178572Y-118840724D02*
X121321429Y-118840724D01*
X121321429Y-118840724D02*
X121392858Y-118805010D01*
X121392858Y-118805010D02*
X121428572Y-118769295D01*
X121428572Y-118769295D02*
X121464286Y-118697867D01*
X121464286Y-118697867D02*
X121464286Y-118483581D01*
X121464286Y-118483581D02*
X121428572Y-118412152D01*
X121428572Y-118412152D02*
X121392858Y-118376438D01*
X121392858Y-118376438D02*
X121321429Y-118340724D01*
X121321429Y-118340724D02*
X121178572Y-118340724D01*
X121178572Y-118340724D02*
X121107144Y-118376438D01*
X120750001Y-118840724D02*
X120750001Y-118090724D01*
X120750001Y-118376438D02*
X120678573Y-118340724D01*
X120678573Y-118340724D02*
X120535715Y-118340724D01*
X120535715Y-118340724D02*
X120464287Y-118376438D01*
X120464287Y-118376438D02*
X120428573Y-118412152D01*
X120428573Y-118412152D02*
X120392858Y-118483581D01*
X120392858Y-118483581D02*
X120392858Y-118697867D01*
X120392858Y-118697867D02*
X120428573Y-118769295D01*
X120428573Y-118769295D02*
X120464287Y-118805010D01*
X120464287Y-118805010D02*
X120535715Y-118840724D01*
X120535715Y-118840724D02*
X120678573Y-118840724D01*
X120678573Y-118840724D02*
X120750001Y-118805010D01*
X119964287Y-118840724D02*
X120035716Y-118805010D01*
X120035716Y-118805010D02*
X120071430Y-118769295D01*
X120071430Y-118769295D02*
X120107144Y-118697867D01*
X120107144Y-118697867D02*
X120107144Y-118483581D01*
X120107144Y-118483581D02*
X120071430Y-118412152D01*
X120071430Y-118412152D02*
X120035716Y-118376438D01*
X120035716Y-118376438D02*
X119964287Y-118340724D01*
X119964287Y-118340724D02*
X119857144Y-118340724D01*
X119857144Y-118340724D02*
X119785716Y-118376438D01*
X119785716Y-118376438D02*
X119750002Y-118412152D01*
X119750002Y-118412152D02*
X119714287Y-118483581D01*
X119714287Y-118483581D02*
X119714287Y-118697867D01*
X119714287Y-118697867D02*
X119750002Y-118769295D01*
X119750002Y-118769295D02*
X119785716Y-118805010D01*
X119785716Y-118805010D02*
X119857144Y-118840724D01*
X119857144Y-118840724D02*
X119964287Y-118840724D01*
X119071431Y-118840724D02*
X119071431Y-118447867D01*
X119071431Y-118447867D02*
X119107145Y-118376438D01*
X119107145Y-118376438D02*
X119178573Y-118340724D01*
X119178573Y-118340724D02*
X119321431Y-118340724D01*
X119321431Y-118340724D02*
X119392859Y-118376438D01*
X119071431Y-118805010D02*
X119142859Y-118840724D01*
X119142859Y-118840724D02*
X119321431Y-118840724D01*
X119321431Y-118840724D02*
X119392859Y-118805010D01*
X119392859Y-118805010D02*
X119428573Y-118733581D01*
X119428573Y-118733581D02*
X119428573Y-118662152D01*
X119428573Y-118662152D02*
X119392859Y-118590724D01*
X119392859Y-118590724D02*
X119321431Y-118555010D01*
X119321431Y-118555010D02*
X119142859Y-118555010D01*
X119142859Y-118555010D02*
X119071431Y-118519295D01*
X118714288Y-118840724D02*
X118714288Y-118340724D01*
X118714288Y-118483581D02*
X118678574Y-118412152D01*
X118678574Y-118412152D02*
X118642860Y-118376438D01*
X118642860Y-118376438D02*
X118571431Y-118340724D01*
X118571431Y-118340724D02*
X118500002Y-118340724D01*
X117928574Y-118840724D02*
X117928574Y-118090724D01*
X117928574Y-118805010D02*
X118000002Y-118840724D01*
X118000002Y-118840724D02*
X118142859Y-118840724D01*
X118142859Y-118840724D02*
X118214288Y-118805010D01*
X118214288Y-118805010D02*
X118250002Y-118769295D01*
X118250002Y-118769295D02*
X118285716Y-118697867D01*
X118285716Y-118697867D02*
X118285716Y-118483581D01*
X118285716Y-118483581D02*
X118250002Y-118412152D01*
X118250002Y-118412152D02*
X118214288Y-118376438D01*
X118214288Y-118376438D02*
X118142859Y-118340724D01*
X118142859Y-118340724D02*
X118000002Y-118340724D01*
X118000002Y-118340724D02*
X117928574Y-118376438D01*
X117571431Y-118555010D02*
X117000003Y-118555010D01*
X116642860Y-118840724D02*
X116642860Y-118090724D01*
X116642860Y-118090724D02*
X116357146Y-118090724D01*
X116357146Y-118090724D02*
X116285717Y-118126438D01*
X116285717Y-118126438D02*
X116250003Y-118162152D01*
X116250003Y-118162152D02*
X116214289Y-118233581D01*
X116214289Y-118233581D02*
X116214289Y-118340724D01*
X116214289Y-118340724D02*
X116250003Y-118412152D01*
X116250003Y-118412152D02*
X116285717Y-118447867D01*
X116285717Y-118447867D02*
X116357146Y-118483581D01*
X116357146Y-118483581D02*
X116642860Y-118483581D01*
X115785717Y-118840724D02*
X115857146Y-118805010D01*
X115857146Y-118805010D02*
X115892860Y-118769295D01*
X115892860Y-118769295D02*
X115928574Y-118697867D01*
X115928574Y-118697867D02*
X115928574Y-118483581D01*
X115928574Y-118483581D02*
X115892860Y-118412152D01*
X115892860Y-118412152D02*
X115857146Y-118376438D01*
X115857146Y-118376438D02*
X115785717Y-118340724D01*
X115785717Y-118340724D02*
X115678574Y-118340724D01*
X115678574Y-118340724D02*
X115607146Y-118376438D01*
X115607146Y-118376438D02*
X115571432Y-118412152D01*
X115571432Y-118412152D02*
X115535717Y-118483581D01*
X115535717Y-118483581D02*
X115535717Y-118697867D01*
X115535717Y-118697867D02*
X115571432Y-118769295D01*
X115571432Y-118769295D02*
X115607146Y-118805010D01*
X115607146Y-118805010D02*
X115678574Y-118840724D01*
X115678574Y-118840724D02*
X115785717Y-118840724D01*
X115285718Y-118340724D02*
X115142861Y-118840724D01*
X115142861Y-118840724D02*
X115000003Y-118483581D01*
X115000003Y-118483581D02*
X114857146Y-118840724D01*
X114857146Y-118840724D02*
X114714289Y-118340724D01*
X114142861Y-118805010D02*
X114214289Y-118840724D01*
X114214289Y-118840724D02*
X114357147Y-118840724D01*
X114357147Y-118840724D02*
X114428575Y-118805010D01*
X114428575Y-118805010D02*
X114464289Y-118733581D01*
X114464289Y-118733581D02*
X114464289Y-118447867D01*
X114464289Y-118447867D02*
X114428575Y-118376438D01*
X114428575Y-118376438D02*
X114357147Y-118340724D01*
X114357147Y-118340724D02*
X114214289Y-118340724D01*
X114214289Y-118340724D02*
X114142861Y-118376438D01*
X114142861Y-118376438D02*
X114107147Y-118447867D01*
X114107147Y-118447867D02*
X114107147Y-118519295D01*
X114107147Y-118519295D02*
X114464289Y-118590724D01*
X113785718Y-118840724D02*
X113785718Y-118340724D01*
X113785718Y-118483581D02*
X113750004Y-118412152D01*
X113750004Y-118412152D02*
X113714290Y-118376438D01*
X113714290Y-118376438D02*
X113642861Y-118340724D01*
X113642861Y-118340724D02*
X113571432Y-118340724D01*
X113321432Y-118555010D02*
X112750004Y-118555010D01*
X112428575Y-118805010D02*
X112321433Y-118840724D01*
X112321433Y-118840724D02*
X112142861Y-118840724D01*
X112142861Y-118840724D02*
X112071433Y-118805010D01*
X112071433Y-118805010D02*
X112035718Y-118769295D01*
X112035718Y-118769295D02*
X112000004Y-118697867D01*
X112000004Y-118697867D02*
X112000004Y-118626438D01*
X112000004Y-118626438D02*
X112035718Y-118555010D01*
X112035718Y-118555010D02*
X112071433Y-118519295D01*
X112071433Y-118519295D02*
X112142861Y-118483581D01*
X112142861Y-118483581D02*
X112285718Y-118447867D01*
X112285718Y-118447867D02*
X112357147Y-118412152D01*
X112357147Y-118412152D02*
X112392861Y-118376438D01*
X112392861Y-118376438D02*
X112428575Y-118305010D01*
X112428575Y-118305010D02*
X112428575Y-118233581D01*
X112428575Y-118233581D02*
X112392861Y-118162152D01*
X112392861Y-118162152D02*
X112357147Y-118126438D01*
X112357147Y-118126438D02*
X112285718Y-118090724D01*
X112285718Y-118090724D02*
X112107147Y-118090724D01*
X112107147Y-118090724D02*
X112000004Y-118126438D01*
X111357147Y-118340724D02*
X111357147Y-118840724D01*
X111678575Y-118340724D02*
X111678575Y-118733581D01*
X111678575Y-118733581D02*
X111642861Y-118805010D01*
X111642861Y-118805010D02*
X111571432Y-118840724D01*
X111571432Y-118840724D02*
X111464289Y-118840724D01*
X111464289Y-118840724D02*
X111392861Y-118805010D01*
X111392861Y-118805010D02*
X111357147Y-118769295D01*
X111000004Y-118340724D02*
X111000004Y-119090724D01*
X111000004Y-118376438D02*
X110928576Y-118340724D01*
X110928576Y-118340724D02*
X110785718Y-118340724D01*
X110785718Y-118340724D02*
X110714290Y-118376438D01*
X110714290Y-118376438D02*
X110678576Y-118412152D01*
X110678576Y-118412152D02*
X110642861Y-118483581D01*
X110642861Y-118483581D02*
X110642861Y-118697867D01*
X110642861Y-118697867D02*
X110678576Y-118769295D01*
X110678576Y-118769295D02*
X110714290Y-118805010D01*
X110714290Y-118805010D02*
X110785718Y-118840724D01*
X110785718Y-118840724D02*
X110928576Y-118840724D01*
X110928576Y-118840724D02*
X111000004Y-118805010D01*
X110321433Y-118340724D02*
X110321433Y-119090724D01*
X110321433Y-118376438D02*
X110250005Y-118340724D01*
X110250005Y-118340724D02*
X110107147Y-118340724D01*
X110107147Y-118340724D02*
X110035719Y-118376438D01*
X110035719Y-118376438D02*
X110000005Y-118412152D01*
X110000005Y-118412152D02*
X109964290Y-118483581D01*
X109964290Y-118483581D02*
X109964290Y-118697867D01*
X109964290Y-118697867D02*
X110000005Y-118769295D01*
X110000005Y-118769295D02*
X110035719Y-118805010D01*
X110035719Y-118805010D02*
X110107147Y-118840724D01*
X110107147Y-118840724D02*
X110250005Y-118840724D01*
X110250005Y-118840724D02*
X110321433Y-118805010D01*
X109535719Y-118840724D02*
X109607148Y-118805010D01*
X109607148Y-118805010D02*
X109642862Y-118733581D01*
X109642862Y-118733581D02*
X109642862Y-118090724D01*
X109321434Y-118340724D02*
X109142862Y-118840724D01*
X108964291Y-118340724D02*
X109142862Y-118840724D01*
X109142862Y-118840724D02*
X109214291Y-119019295D01*
X109214291Y-119019295D02*
X109250005Y-119055010D01*
X109250005Y-119055010D02*
X109321434Y-119090724D01*
X129964285Y-112986995D02*
X129714285Y-113736995D01*
X129714285Y-113736995D02*
X129464285Y-112986995D01*
X129214285Y-113736995D02*
X129214285Y-112986995D01*
X128857142Y-113736995D02*
X128857142Y-112986995D01*
X128857142Y-112986995D02*
X128428571Y-113736995D01*
X128428571Y-113736995D02*
X128428571Y-112986995D01*
X128071428Y-113665566D02*
X128035714Y-113701281D01*
X128035714Y-113701281D02*
X128071428Y-113736995D01*
X128071428Y-113736995D02*
X128107142Y-113701281D01*
X128107142Y-113701281D02*
X128071428Y-113665566D01*
X128071428Y-113665566D02*
X128071428Y-113736995D01*
X128071428Y-113272709D02*
X128035714Y-113308423D01*
X128035714Y-113308423D02*
X128071428Y-113344138D01*
X128071428Y-113344138D02*
X128107142Y-113308423D01*
X128107142Y-113308423D02*
X128071428Y-113272709D01*
X128071428Y-113272709D02*
X128071428Y-113344138D01*
X127035713Y-113308423D02*
X127107142Y-113272709D01*
X127107142Y-113272709D02*
X127142856Y-113236995D01*
X127142856Y-113236995D02*
X127178570Y-113165566D01*
X127178570Y-113165566D02*
X127178570Y-113129852D01*
X127178570Y-113129852D02*
X127142856Y-113058423D01*
X127142856Y-113058423D02*
X127107142Y-113022709D01*
X127107142Y-113022709D02*
X127035713Y-112986995D01*
X127035713Y-112986995D02*
X126892856Y-112986995D01*
X126892856Y-112986995D02*
X126821428Y-113022709D01*
X126821428Y-113022709D02*
X126785713Y-113058423D01*
X126785713Y-113058423D02*
X126749999Y-113129852D01*
X126749999Y-113129852D02*
X126749999Y-113165566D01*
X126749999Y-113165566D02*
X126785713Y-113236995D01*
X126785713Y-113236995D02*
X126821428Y-113272709D01*
X126821428Y-113272709D02*
X126892856Y-113308423D01*
X126892856Y-113308423D02*
X127035713Y-113308423D01*
X127035713Y-113308423D02*
X127107142Y-113344138D01*
X127107142Y-113344138D02*
X127142856Y-113379852D01*
X127142856Y-113379852D02*
X127178570Y-113451281D01*
X127178570Y-113451281D02*
X127178570Y-113594138D01*
X127178570Y-113594138D02*
X127142856Y-113665566D01*
X127142856Y-113665566D02*
X127107142Y-113701281D01*
X127107142Y-113701281D02*
X127035713Y-113736995D01*
X127035713Y-113736995D02*
X126892856Y-113736995D01*
X126892856Y-113736995D02*
X126821428Y-113701281D01*
X126821428Y-113701281D02*
X126785713Y-113665566D01*
X126785713Y-113665566D02*
X126749999Y-113594138D01*
X126749999Y-113594138D02*
X126749999Y-113451281D01*
X126749999Y-113451281D02*
X126785713Y-113379852D01*
X126785713Y-113379852D02*
X126821428Y-113344138D01*
X126821428Y-113344138D02*
X126892856Y-113308423D01*
X126535713Y-112986995D02*
X126285713Y-113736995D01*
X126285713Y-113736995D02*
X126035713Y-112986995D01*
X125785713Y-113451281D02*
X125214285Y-113451281D01*
X124464285Y-113736995D02*
X124892856Y-113736995D01*
X124678571Y-113736995D02*
X124678571Y-112986995D01*
X124678571Y-112986995D02*
X124749999Y-113094138D01*
X124749999Y-113094138D02*
X124821428Y-113165566D01*
X124821428Y-113165566D02*
X124892856Y-113201281D01*
X124035713Y-113308423D02*
X124107142Y-113272709D01*
X124107142Y-113272709D02*
X124142856Y-113236995D01*
X124142856Y-113236995D02*
X124178570Y-113165566D01*
X124178570Y-113165566D02*
X124178570Y-113129852D01*
X124178570Y-113129852D02*
X124142856Y-113058423D01*
X124142856Y-113058423D02*
X124107142Y-113022709D01*
X124107142Y-113022709D02*
X124035713Y-112986995D01*
X124035713Y-112986995D02*
X123892856Y-112986995D01*
X123892856Y-112986995D02*
X123821428Y-113022709D01*
X123821428Y-113022709D02*
X123785713Y-113058423D01*
X123785713Y-113058423D02*
X123749999Y-113129852D01*
X123749999Y-113129852D02*
X123749999Y-113165566D01*
X123749999Y-113165566D02*
X123785713Y-113236995D01*
X123785713Y-113236995D02*
X123821428Y-113272709D01*
X123821428Y-113272709D02*
X123892856Y-113308423D01*
X123892856Y-113308423D02*
X124035713Y-113308423D01*
X124035713Y-113308423D02*
X124107142Y-113344138D01*
X124107142Y-113344138D02*
X124142856Y-113379852D01*
X124142856Y-113379852D02*
X124178570Y-113451281D01*
X124178570Y-113451281D02*
X124178570Y-113594138D01*
X124178570Y-113594138D02*
X124142856Y-113665566D01*
X124142856Y-113665566D02*
X124107142Y-113701281D01*
X124107142Y-113701281D02*
X124035713Y-113736995D01*
X124035713Y-113736995D02*
X123892856Y-113736995D01*
X123892856Y-113736995D02*
X123821428Y-113701281D01*
X123821428Y-113701281D02*
X123785713Y-113665566D01*
X123785713Y-113665566D02*
X123749999Y-113594138D01*
X123749999Y-113594138D02*
X123749999Y-113451281D01*
X123749999Y-113451281D02*
X123785713Y-113379852D01*
X123785713Y-113379852D02*
X123821428Y-113344138D01*
X123821428Y-113344138D02*
X123892856Y-113308423D01*
X123535713Y-112986995D02*
X123285713Y-113736995D01*
X123285713Y-113736995D02*
X123035713Y-112986995D01*
X130000000Y-114944453D02*
X130000000Y-114194453D01*
X129642857Y-114944453D02*
X129642857Y-114444453D01*
X129642857Y-114515881D02*
X129607143Y-114480167D01*
X129607143Y-114480167D02*
X129535714Y-114444453D01*
X129535714Y-114444453D02*
X129428571Y-114444453D01*
X129428571Y-114444453D02*
X129357143Y-114480167D01*
X129357143Y-114480167D02*
X129321429Y-114551596D01*
X129321429Y-114551596D02*
X129321429Y-114944453D01*
X129321429Y-114551596D02*
X129285714Y-114480167D01*
X129285714Y-114480167D02*
X129214286Y-114444453D01*
X129214286Y-114444453D02*
X129107143Y-114444453D01*
X129107143Y-114444453D02*
X129035714Y-114480167D01*
X129035714Y-114480167D02*
X129000000Y-114551596D01*
X129000000Y-114551596D02*
X129000000Y-114944453D01*
X128321429Y-114944453D02*
X128321429Y-114551596D01*
X128321429Y-114551596D02*
X128357143Y-114480167D01*
X128357143Y-114480167D02*
X128428571Y-114444453D01*
X128428571Y-114444453D02*
X128571429Y-114444453D01*
X128571429Y-114444453D02*
X128642857Y-114480167D01*
X128321429Y-114908739D02*
X128392857Y-114944453D01*
X128392857Y-114944453D02*
X128571429Y-114944453D01*
X128571429Y-114944453D02*
X128642857Y-114908739D01*
X128642857Y-114908739D02*
X128678571Y-114837310D01*
X128678571Y-114837310D02*
X128678571Y-114765881D01*
X128678571Y-114765881D02*
X128642857Y-114694453D01*
X128642857Y-114694453D02*
X128571429Y-114658739D01*
X128571429Y-114658739D02*
X128392857Y-114658739D01*
X128392857Y-114658739D02*
X128321429Y-114623024D01*
X128035715Y-114944453D02*
X127642858Y-114444453D01*
X128035715Y-114444453D02*
X127642858Y-114944453D01*
X127357143Y-114873024D02*
X127321429Y-114908739D01*
X127321429Y-114908739D02*
X127357143Y-114944453D01*
X127357143Y-114944453D02*
X127392857Y-114908739D01*
X127392857Y-114908739D02*
X127357143Y-114873024D01*
X127357143Y-114873024D02*
X127357143Y-114944453D01*
X127357143Y-114480167D02*
X127321429Y-114515881D01*
X127321429Y-114515881D02*
X127357143Y-114551596D01*
X127357143Y-114551596D02*
X127392857Y-114515881D01*
X127392857Y-114515881D02*
X127357143Y-114480167D01*
X127357143Y-114480167D02*
X127357143Y-114551596D01*
X126464285Y-114265881D02*
X126428571Y-114230167D01*
X126428571Y-114230167D02*
X126357143Y-114194453D01*
X126357143Y-114194453D02*
X126178571Y-114194453D01*
X126178571Y-114194453D02*
X126107143Y-114230167D01*
X126107143Y-114230167D02*
X126071428Y-114265881D01*
X126071428Y-114265881D02*
X126035714Y-114337310D01*
X126035714Y-114337310D02*
X126035714Y-114408739D01*
X126035714Y-114408739D02*
X126071428Y-114515881D01*
X126071428Y-114515881D02*
X126500000Y-114944453D01*
X126500000Y-114944453D02*
X126035714Y-114944453D01*
X125571428Y-114194453D02*
X125499999Y-114194453D01*
X125499999Y-114194453D02*
X125428571Y-114230167D01*
X125428571Y-114230167D02*
X125392857Y-114265881D01*
X125392857Y-114265881D02*
X125357142Y-114337310D01*
X125357142Y-114337310D02*
X125321428Y-114480167D01*
X125321428Y-114480167D02*
X125321428Y-114658739D01*
X125321428Y-114658739D02*
X125357142Y-114801596D01*
X125357142Y-114801596D02*
X125392857Y-114873024D01*
X125392857Y-114873024D02*
X125428571Y-114908739D01*
X125428571Y-114908739D02*
X125499999Y-114944453D01*
X125499999Y-114944453D02*
X125571428Y-114944453D01*
X125571428Y-114944453D02*
X125642857Y-114908739D01*
X125642857Y-114908739D02*
X125678571Y-114873024D01*
X125678571Y-114873024D02*
X125714285Y-114801596D01*
X125714285Y-114801596D02*
X125749999Y-114658739D01*
X125749999Y-114658739D02*
X125749999Y-114480167D01*
X125749999Y-114480167D02*
X125714285Y-114337310D01*
X125714285Y-114337310D02*
X125678571Y-114265881D01*
X125678571Y-114265881D02*
X125642857Y-114230167D01*
X125642857Y-114230167D02*
X125571428Y-114194453D01*
X124857142Y-114194453D02*
X124785713Y-114194453D01*
X124785713Y-114194453D02*
X124714285Y-114230167D01*
X124714285Y-114230167D02*
X124678571Y-114265881D01*
X124678571Y-114265881D02*
X124642856Y-114337310D01*
X124642856Y-114337310D02*
X124607142Y-114480167D01*
X124607142Y-114480167D02*
X124607142Y-114658739D01*
X124607142Y-114658739D02*
X124642856Y-114801596D01*
X124642856Y-114801596D02*
X124678571Y-114873024D01*
X124678571Y-114873024D02*
X124714285Y-114908739D01*
X124714285Y-114908739D02*
X124785713Y-114944453D01*
X124785713Y-114944453D02*
X124857142Y-114944453D01*
X124857142Y-114944453D02*
X124928571Y-114908739D01*
X124928571Y-114908739D02*
X124964285Y-114873024D01*
X124964285Y-114873024D02*
X124999999Y-114801596D01*
X124999999Y-114801596D02*
X125035713Y-114658739D01*
X125035713Y-114658739D02*
X125035713Y-114480167D01*
X125035713Y-114480167D02*
X124999999Y-114337310D01*
X124999999Y-114337310D02*
X124964285Y-114265881D01*
X124964285Y-114265881D02*
X124928571Y-114230167D01*
X124928571Y-114230167D02*
X124857142Y-114194453D01*
X124285713Y-114944453D02*
X124285713Y-114444453D01*
X124285713Y-114515881D02*
X124249999Y-114480167D01*
X124249999Y-114480167D02*
X124178570Y-114444453D01*
X124178570Y-114444453D02*
X124071427Y-114444453D01*
X124071427Y-114444453D02*
X123999999Y-114480167D01*
X123999999Y-114480167D02*
X123964285Y-114551596D01*
X123964285Y-114551596D02*
X123964285Y-114944453D01*
X123964285Y-114551596D02*
X123928570Y-114480167D01*
X123928570Y-114480167D02*
X123857142Y-114444453D01*
X123857142Y-114444453D02*
X123749999Y-114444453D01*
X123749999Y-114444453D02*
X123678570Y-114480167D01*
X123678570Y-114480167D02*
X123642856Y-114551596D01*
X123642856Y-114551596D02*
X123642856Y-114944453D01*
X123321427Y-114730167D02*
X122964285Y-114730167D01*
X123392856Y-114944453D02*
X123142856Y-114194453D01*
X123142856Y-114194453D02*
X122892856Y-114944453D01*
D14*
%TO.C,REF\u002A\u002A\u002A*%
X123982829Y-105951097D02*
X124042753Y-105973355D01*
X124067673Y-105990080D01*
X124092910Y-106014043D01*
X124110912Y-106044526D01*
X124122858Y-106086023D01*
X124129930Y-106143032D01*
X124133308Y-106220047D01*
X124134171Y-106321565D01*
X124134002Y-106374027D01*
X124133153Y-106445715D01*
X124131711Y-106502925D01*
X124129814Y-106540809D01*
X124127597Y-106554514D01*
X124113172Y-106549981D01*
X124084054Y-106537670D01*
X124083181Y-106537272D01*
X124068060Y-106529356D01*
X124057891Y-106518495D01*
X124051691Y-106499471D01*
X124048478Y-106467069D01*
X124047270Y-106416071D01*
X124047086Y-106341261D01*
X124046714Y-106293804D01*
X124042750Y-106204615D01*
X124033673Y-106139287D01*
X124018524Y-106094393D01*
X123996345Y-106066507D01*
X123966175Y-106052203D01*
X123961990Y-106051206D01*
X123905480Y-106050427D01*
X123861410Y-106075744D01*
X123830972Y-106126502D01*
X123825544Y-106141175D01*
X123813171Y-106173649D01*
X123806905Y-106188572D01*
X123794036Y-106186516D01*
X123765933Y-106175357D01*
X123739721Y-106156927D01*
X123727771Y-106122098D01*
X123731336Y-106097151D01*
X123753235Y-106046547D01*
X123788644Y-105999128D01*
X123830052Y-105966334D01*
X123847400Y-105958752D01*
X123913089Y-105946076D01*
X123982829Y-105951097D01*
G36*
X123982829Y-105951097D02*
G01*
X124042753Y-105973355D01*
X124067673Y-105990080D01*
X124092910Y-106014043D01*
X124110912Y-106044526D01*
X124122858Y-106086023D01*
X124129930Y-106143032D01*
X124133308Y-106220047D01*
X124134171Y-106321565D01*
X124134002Y-106374027D01*
X124133153Y-106445715D01*
X124131711Y-106502925D01*
X124129814Y-106540809D01*
X124127597Y-106554514D01*
X124113172Y-106549981D01*
X124084054Y-106537670D01*
X124083181Y-106537272D01*
X124068060Y-106529356D01*
X124057891Y-106518495D01*
X124051691Y-106499471D01*
X124048478Y-106467069D01*
X124047270Y-106416071D01*
X124047086Y-106341261D01*
X124046714Y-106293804D01*
X124042750Y-106204615D01*
X124033673Y-106139287D01*
X124018524Y-106094393D01*
X123996345Y-106066507D01*
X123966175Y-106052203D01*
X123961990Y-106051206D01*
X123905480Y-106050427D01*
X123861410Y-106075744D01*
X123830972Y-106126502D01*
X123825544Y-106141175D01*
X123813171Y-106173649D01*
X123806905Y-106188572D01*
X123794036Y-106186516D01*
X123765933Y-106175357D01*
X123739721Y-106156927D01*
X123727771Y-106122098D01*
X123731336Y-106097151D01*
X123753235Y-106046547D01*
X123788644Y-105999128D01*
X123830052Y-105966334D01*
X123847400Y-105958752D01*
X123913089Y-105946076D01*
X123982829Y-105951097D01*
G37*
X127931020Y-105917822D02*
X127998810Y-105949680D01*
X128054366Y-106004770D01*
X128065881Y-106022016D01*
X128075432Y-106041562D01*
X128082206Y-106066198D01*
X128086819Y-106100711D01*
X128089888Y-106149889D01*
X128092029Y-106218519D01*
X128093859Y-106311389D01*
X128098404Y-106569007D01*
X128060225Y-106554491D01*
X128025268Y-106541156D01*
X127999097Y-106528323D01*
X127982013Y-106511780D01*
X127972086Y-106486465D01*
X127967386Y-106447316D01*
X127965982Y-106389268D01*
X127965943Y-106307261D01*
X127965744Y-106241895D01*
X127964559Y-106179173D01*
X127961729Y-106136334D01*
X127956609Y-106108220D01*
X127948553Y-106089675D01*
X127936914Y-106075543D01*
X127908303Y-106055600D01*
X127860239Y-106048083D01*
X127812688Y-106067079D01*
X127809550Y-106069511D01*
X127799769Y-106080748D01*
X127792553Y-106098770D01*
X127787299Y-106128026D01*
X127783402Y-106172962D01*
X127780256Y-106238028D01*
X127777257Y-106327670D01*
X127770000Y-106567697D01*
X127708314Y-106540044D01*
X127646629Y-106512391D01*
X127646629Y-106293246D01*
X127646884Y-106233711D01*
X127649086Y-106150892D01*
X127654661Y-106089227D01*
X127664941Y-106043748D01*
X127681258Y-106009484D01*
X127704943Y-105981466D01*
X127737328Y-105954723D01*
X127783907Y-105927780D01*
X127857287Y-105910191D01*
X127931020Y-105917822D01*
G36*
X127931020Y-105917822D02*
G01*
X127998810Y-105949680D01*
X128054366Y-106004770D01*
X128065881Y-106022016D01*
X128075432Y-106041562D01*
X128082206Y-106066198D01*
X128086819Y-106100711D01*
X128089888Y-106149889D01*
X128092029Y-106218519D01*
X128093859Y-106311389D01*
X128098404Y-106569007D01*
X128060225Y-106554491D01*
X128025268Y-106541156D01*
X127999097Y-106528323D01*
X127982013Y-106511780D01*
X127972086Y-106486465D01*
X127967386Y-106447316D01*
X127965982Y-106389268D01*
X127965943Y-106307261D01*
X127965744Y-106241895D01*
X127964559Y-106179173D01*
X127961729Y-106136334D01*
X127956609Y-106108220D01*
X127948553Y-106089675D01*
X127936914Y-106075543D01*
X127908303Y-106055600D01*
X127860239Y-106048083D01*
X127812688Y-106067079D01*
X127809550Y-106069511D01*
X127799769Y-106080748D01*
X127792553Y-106098770D01*
X127787299Y-106128026D01*
X127783402Y-106172962D01*
X127780256Y-106238028D01*
X127777257Y-106327670D01*
X127770000Y-106567697D01*
X127708314Y-106540044D01*
X127646629Y-106512391D01*
X127646629Y-106293246D01*
X127646884Y-106233711D01*
X127649086Y-106150892D01*
X127654661Y-106089227D01*
X127664941Y-106043748D01*
X127681258Y-106009484D01*
X127704943Y-105981466D01*
X127737328Y-105954723D01*
X127783907Y-105927780D01*
X127857287Y-105910191D01*
X127931020Y-105917822D01*
G37*
X126107691Y-105966467D02*
X126112273Y-105969003D01*
X126149704Y-105998057D01*
X126183170Y-106035410D01*
X126189007Y-106043852D01*
X126200165Y-106063553D01*
X126208136Y-106086935D01*
X126213618Y-106119067D01*
X126217307Y-106165019D01*
X126219899Y-106229859D01*
X126222092Y-106318657D01*
X126222402Y-106333669D01*
X126223400Y-106430999D01*
X126221994Y-106499934D01*
X126218164Y-106540948D01*
X126211889Y-106554514D01*
X126192898Y-106550452D01*
X126160638Y-106538144D01*
X126153041Y-106534545D01*
X126141176Y-106526398D01*
X126132994Y-106513004D01*
X126127643Y-106489608D01*
X126124269Y-106451455D01*
X126122019Y-106393790D01*
X126120040Y-106311857D01*
X126119498Y-106287907D01*
X126117403Y-106212266D01*
X126114683Y-106159328D01*
X126110515Y-106124075D01*
X126104079Y-106101487D01*
X126094550Y-106086544D01*
X126081106Y-106074227D01*
X126041305Y-106052634D01*
X125992341Y-106048476D01*
X125948529Y-106064999D01*
X125917008Y-106099210D01*
X125904914Y-106148114D01*
X125904578Y-106161407D01*
X125897972Y-106185472D01*
X125878470Y-106189144D01*
X125840283Y-106174813D01*
X125831438Y-106170217D01*
X125807534Y-106143186D01*
X125807061Y-106102994D01*
X125829836Y-106047409D01*
X125850727Y-106017117D01*
X125904142Y-105974084D01*
X125970074Y-105949755D01*
X126040574Y-105946443D01*
X126107691Y-105966467D01*
G36*
X126107691Y-105966467D02*
G01*
X126112273Y-105969003D01*
X126149704Y-105998057D01*
X126183170Y-106035410D01*
X126189007Y-106043852D01*
X126200165Y-106063553D01*
X126208136Y-106086935D01*
X126213618Y-106119067D01*
X126217307Y-106165019D01*
X126219899Y-106229859D01*
X126222092Y-106318657D01*
X126222402Y-106333669D01*
X126223400Y-106430999D01*
X126221994Y-106499934D01*
X126218164Y-106540948D01*
X126211889Y-106554514D01*
X126192898Y-106550452D01*
X126160638Y-106538144D01*
X126153041Y-106534545D01*
X126141176Y-106526398D01*
X126132994Y-106513004D01*
X126127643Y-106489608D01*
X126124269Y-106451455D01*
X126122019Y-106393790D01*
X126120040Y-106311857D01*
X126119498Y-106287907D01*
X126117403Y-106212266D01*
X126114683Y-106159328D01*
X126110515Y-106124075D01*
X126104079Y-106101487D01*
X126094550Y-106086544D01*
X126081106Y-106074227D01*
X126041305Y-106052634D01*
X125992341Y-106048476D01*
X125948529Y-106064999D01*
X125917008Y-106099210D01*
X125904914Y-106148114D01*
X125904578Y-106161407D01*
X125897972Y-106185472D01*
X125878470Y-106189144D01*
X125840283Y-106174813D01*
X125831438Y-106170217D01*
X125807534Y-106143186D01*
X125807061Y-106102994D01*
X125829836Y-106047409D01*
X125850727Y-106017117D01*
X125904142Y-105974084D01*
X125970074Y-105949755D01*
X126040574Y-105946443D01*
X126107691Y-105966467D01*
G37*
X125153941Y-105949282D02*
X125185774Y-105961758D01*
X125222743Y-105978602D01*
X125222743Y-106465196D01*
X125176812Y-106511127D01*
X125166320Y-106521427D01*
X125137255Y-106544320D01*
X125107943Y-106551735D01*
X125064326Y-106548321D01*
X125046568Y-106546114D01*
X125000767Y-106541445D01*
X124968743Y-106539585D01*
X124959244Y-106539869D01*
X124920274Y-106542948D01*
X124873160Y-106548321D01*
X124858085Y-106550168D01*
X124820110Y-106550893D01*
X124792325Y-106539429D01*
X124760674Y-106511127D01*
X124714743Y-106465196D01*
X124714743Y-106205055D01*
X124715101Y-106128180D01*
X124716216Y-106054886D01*
X124717952Y-105996850D01*
X124720167Y-105958663D01*
X124722721Y-105944914D01*
X124723256Y-105944951D01*
X124741808Y-105951793D01*
X124773153Y-105966868D01*
X124815608Y-105988822D01*
X124819604Y-106217240D01*
X124823600Y-106445657D01*
X124910686Y-106445657D01*
X124914657Y-106195286D01*
X124915916Y-106127227D01*
X124917718Y-106054482D01*
X124919671Y-105996730D01*
X124921612Y-105958648D01*
X124923377Y-105944914D01*
X124923885Y-105944962D01*
X124941482Y-105950015D01*
X124973834Y-105960849D01*
X125019543Y-105976783D01*
X125019765Y-106196706D01*
X125019988Y-106234909D01*
X125021531Y-106309146D01*
X125024292Y-106371145D01*
X125027977Y-106415308D01*
X125032292Y-106436041D01*
X125047732Y-106447131D01*
X125079241Y-106450556D01*
X125113886Y-106445657D01*
X125117857Y-106195286D01*
X125119278Y-106131663D01*
X125122225Y-106056356D01*
X125126079Y-105997286D01*
X125130542Y-105958718D01*
X125135317Y-105944914D01*
X125153941Y-105949282D01*
G36*
X125153941Y-105949282D02*
G01*
X125185774Y-105961758D01*
X125222743Y-105978602D01*
X125222743Y-106465196D01*
X125176812Y-106511127D01*
X125166320Y-106521427D01*
X125137255Y-106544320D01*
X125107943Y-106551735D01*
X125064326Y-106548321D01*
X125046568Y-106546114D01*
X125000767Y-106541445D01*
X124968743Y-106539585D01*
X124959244Y-106539869D01*
X124920274Y-106542948D01*
X124873160Y-106548321D01*
X124858085Y-106550168D01*
X124820110Y-106550893D01*
X124792325Y-106539429D01*
X124760674Y-106511127D01*
X124714743Y-106465196D01*
X124714743Y-106205055D01*
X124715101Y-106128180D01*
X124716216Y-106054886D01*
X124717952Y-105996850D01*
X124720167Y-105958663D01*
X124722721Y-105944914D01*
X124723256Y-105944951D01*
X124741808Y-105951793D01*
X124773153Y-105966868D01*
X124815608Y-105988822D01*
X124819604Y-106217240D01*
X124823600Y-106445657D01*
X124910686Y-106445657D01*
X124914657Y-106195286D01*
X124915916Y-106127227D01*
X124917718Y-106054482D01*
X124919671Y-105996730D01*
X124921612Y-105958648D01*
X124923377Y-105944914D01*
X124923885Y-105944962D01*
X124941482Y-105950015D01*
X124973834Y-105960849D01*
X125019543Y-105976783D01*
X125019765Y-106196706D01*
X125019988Y-106234909D01*
X125021531Y-106309146D01*
X125024292Y-106371145D01*
X125027977Y-106415308D01*
X125032292Y-106436041D01*
X125047732Y-106447131D01*
X125079241Y-106450556D01*
X125113886Y-106445657D01*
X125117857Y-106195286D01*
X125119278Y-106131663D01*
X125122225Y-106056356D01*
X125126079Y-105997286D01*
X125130542Y-105958718D01*
X125135317Y-105944914D01*
X125153941Y-105949282D01*
G37*
X127178543Y-105749444D02*
X127225714Y-105769342D01*
X127225714Y-106166509D01*
X127225519Y-106269498D01*
X127224998Y-106362141D01*
X127224199Y-106440700D01*
X127223172Y-106501439D01*
X127221963Y-106540623D01*
X127220623Y-106554514D01*
X127220099Y-106554468D01*
X127202287Y-106549420D01*
X127169823Y-106538580D01*
X127124114Y-106522646D01*
X127124114Y-106318173D01*
X127123824Y-106237832D01*
X127122474Y-106179562D01*
X127119369Y-106139909D01*
X127113812Y-106113618D01*
X127105107Y-106095436D01*
X127092556Y-106080107D01*
X127083999Y-106071955D01*
X127037728Y-106049375D01*
X126986728Y-106051375D01*
X126939993Y-106078073D01*
X126933189Y-106084698D01*
X126922293Y-106098456D01*
X126914836Y-106116642D01*
X126910169Y-106144177D01*
X126907642Y-106185981D01*
X126906602Y-106246973D01*
X126906400Y-106332073D01*
X126906303Y-106375234D01*
X126905674Y-106446224D01*
X126904556Y-106503076D01*
X126903063Y-106540828D01*
X126901309Y-106554514D01*
X126900785Y-106554468D01*
X126882973Y-106549420D01*
X126850509Y-106538580D01*
X126804800Y-106522646D01*
X126804823Y-106317237D01*
X126804857Y-106298951D01*
X126806778Y-106203626D01*
X126812678Y-106131543D01*
X126824001Y-106077813D01*
X126842187Y-106037549D01*
X126868679Y-106005861D01*
X126904918Y-105977861D01*
X126940263Y-105960333D01*
X126996773Y-105946785D01*
X127052356Y-105946015D01*
X127095086Y-105959195D01*
X127098298Y-105961015D01*
X127108205Y-105960820D01*
X127114975Y-105945572D01*
X127119861Y-105910613D01*
X127124114Y-105851289D01*
X127131371Y-105729547D01*
X127178543Y-105749444D01*
G36*
X127178543Y-105749444D02*
G01*
X127225714Y-105769342D01*
X127225714Y-106166509D01*
X127225519Y-106269498D01*
X127224998Y-106362141D01*
X127224199Y-106440700D01*
X127223172Y-106501439D01*
X127221963Y-106540623D01*
X127220623Y-106554514D01*
X127220099Y-106554468D01*
X127202287Y-106549420D01*
X127169823Y-106538580D01*
X127124114Y-106522646D01*
X127124114Y-106318173D01*
X127123824Y-106237832D01*
X127122474Y-106179562D01*
X127119369Y-106139909D01*
X127113812Y-106113618D01*
X127105107Y-106095436D01*
X127092556Y-106080107D01*
X127083999Y-106071955D01*
X127037728Y-106049375D01*
X126986728Y-106051375D01*
X126939993Y-106078073D01*
X126933189Y-106084698D01*
X126922293Y-106098456D01*
X126914836Y-106116642D01*
X126910169Y-106144177D01*
X126907642Y-106185981D01*
X126906602Y-106246973D01*
X126906400Y-106332073D01*
X126906303Y-106375234D01*
X126905674Y-106446224D01*
X126904556Y-106503076D01*
X126903063Y-106540828D01*
X126901309Y-106554514D01*
X126900785Y-106554468D01*
X126882973Y-106549420D01*
X126850509Y-106538580D01*
X126804800Y-106522646D01*
X126804823Y-106317237D01*
X126804857Y-106298951D01*
X126806778Y-106203626D01*
X126812678Y-106131543D01*
X126824001Y-106077813D01*
X126842187Y-106037549D01*
X126868679Y-106005861D01*
X126904918Y-105977861D01*
X126940263Y-105960333D01*
X126996773Y-105946785D01*
X127052356Y-105946015D01*
X127095086Y-105959195D01*
X127098298Y-105961015D01*
X127108205Y-105960820D01*
X127114975Y-105945572D01*
X127119861Y-105910613D01*
X127124114Y-105851289D01*
X127131371Y-105729547D01*
X127178543Y-105749444D01*
G37*
X129765714Y-106235200D02*
X129765701Y-106250935D01*
X129764914Y-106321119D01*
X129762210Y-106370022D01*
X129756606Y-106404178D01*
X129747119Y-106430124D01*
X129732768Y-106454397D01*
X129729237Y-106459433D01*
X129691878Y-106499143D01*
X129649311Y-106529092D01*
X129627452Y-106538810D01*
X129548908Y-106555020D01*
X129471231Y-106544535D01*
X129399645Y-106508707D01*
X129339374Y-106448887D01*
X129334286Y-106440873D01*
X129317730Y-106394342D01*
X129306573Y-106329552D01*
X129301160Y-106254727D01*
X129301768Y-106185513D01*
X129448248Y-106185513D01*
X129449402Y-106281399D01*
X129449866Y-106287569D01*
X129456629Y-106340478D01*
X129468671Y-106374029D01*
X129489005Y-106397016D01*
X129523097Y-106418548D01*
X129556814Y-106419680D01*
X129591543Y-106394857D01*
X129597584Y-106388325D01*
X129609417Y-106368779D01*
X129616404Y-106340386D01*
X129619727Y-106296430D01*
X129620571Y-106230192D01*
X129619125Y-106168150D01*
X129611907Y-106109042D01*
X129597006Y-106071686D01*
X129572636Y-106052152D01*
X129537008Y-106046514D01*
X129523440Y-106047635D01*
X129485430Y-106068194D01*
X129460312Y-106114299D01*
X129448248Y-106185513D01*
X129301768Y-106185513D01*
X129301833Y-106178096D01*
X129308937Y-106107882D01*
X129322815Y-106052312D01*
X129340649Y-106015301D01*
X129390855Y-105957733D01*
X129458885Y-105921962D01*
X129542158Y-105909665D01*
X129564398Y-105910331D01*
X129629891Y-105923947D01*
X129683687Y-105958249D01*
X129733057Y-106017338D01*
X129735995Y-106021722D01*
X129749287Y-106045299D01*
X129757932Y-106071949D01*
X129762904Y-106108159D01*
X129765174Y-106160413D01*
X129765678Y-106230192D01*
X129765714Y-106235200D01*
G36*
X129765714Y-106235200D02*
G01*
X129765701Y-106250935D01*
X129764914Y-106321119D01*
X129762210Y-106370022D01*
X129756606Y-106404178D01*
X129747119Y-106430124D01*
X129732768Y-106454397D01*
X129729237Y-106459433D01*
X129691878Y-106499143D01*
X129649311Y-106529092D01*
X129627452Y-106538810D01*
X129548908Y-106555020D01*
X129471231Y-106544535D01*
X129399645Y-106508707D01*
X129339374Y-106448887D01*
X129334286Y-106440873D01*
X129317730Y-106394342D01*
X129306573Y-106329552D01*
X129301160Y-106254727D01*
X129301768Y-106185513D01*
X129448248Y-106185513D01*
X129449402Y-106281399D01*
X129449866Y-106287569D01*
X129456629Y-106340478D01*
X129468671Y-106374029D01*
X129489005Y-106397016D01*
X129523097Y-106418548D01*
X129556814Y-106419680D01*
X129591543Y-106394857D01*
X129597584Y-106388325D01*
X129609417Y-106368779D01*
X129616404Y-106340386D01*
X129619727Y-106296430D01*
X129620571Y-106230192D01*
X129619125Y-106168150D01*
X129611907Y-106109042D01*
X129597006Y-106071686D01*
X129572636Y-106052152D01*
X129537008Y-106046514D01*
X129523440Y-106047635D01*
X129485430Y-106068194D01*
X129460312Y-106114299D01*
X129448248Y-106185513D01*
X129301768Y-106185513D01*
X129301833Y-106178096D01*
X129308937Y-106107882D01*
X129322815Y-106052312D01*
X129340649Y-106015301D01*
X129390855Y-105957733D01*
X129458885Y-105921962D01*
X129542158Y-105909665D01*
X129564398Y-105910331D01*
X129629891Y-105923947D01*
X129683687Y-105958249D01*
X129733057Y-106017338D01*
X129735995Y-106021722D01*
X129749287Y-106045299D01*
X129757932Y-106071949D01*
X129762904Y-106108159D01*
X129765174Y-106160413D01*
X129765678Y-106230192D01*
X129765714Y-106235200D01*
G37*
X123640590Y-106252622D02*
X123640307Y-106291305D01*
X123636762Y-106367521D01*
X123627483Y-106423294D01*
X123610375Y-106464613D01*
X123583344Y-106497467D01*
X123544292Y-106527846D01*
X123519445Y-106541660D01*
X123479615Y-106550965D01*
X123423665Y-106550230D01*
X123392385Y-106547283D01*
X123354653Y-106538283D01*
X123324494Y-106518720D01*
X123289408Y-106482267D01*
X123284720Y-106476943D01*
X123253177Y-106435969D01*
X123238128Y-106400283D01*
X123234286Y-106357966D01*
X123234286Y-106295779D01*
X123277742Y-106312182D01*
X123309424Y-106331356D01*
X123336962Y-106376347D01*
X123342711Y-106390752D01*
X123374855Y-106431546D01*
X123418611Y-106452081D01*
X123466254Y-106450235D01*
X123510057Y-106423886D01*
X123525111Y-106407455D01*
X123538763Y-106382667D01*
X123534493Y-106360144D01*
X123509916Y-106336964D01*
X123462651Y-106310202D01*
X123390314Y-106276934D01*
X123241543Y-106211816D01*
X123237595Y-106147308D01*
X123239079Y-106106220D01*
X123336010Y-106106220D01*
X123343368Y-106131657D01*
X123376848Y-106158814D01*
X123437614Y-106189714D01*
X123447669Y-106194190D01*
X123495751Y-106215017D01*
X123531726Y-106229665D01*
X123548444Y-106235200D01*
X123550977Y-106231126D01*
X123551993Y-106206247D01*
X123548369Y-106166257D01*
X123539242Y-106127152D01*
X123510773Y-106077884D01*
X123469678Y-106050122D01*
X123420590Y-106046364D01*
X123368144Y-106069109D01*
X123353609Y-106080481D01*
X123336010Y-106106220D01*
X123239079Y-106106220D01*
X123239338Y-106099064D01*
X123261281Y-106038096D01*
X123288979Y-106004497D01*
X123346405Y-105966966D01*
X123414527Y-105948006D01*
X123484947Y-105949507D01*
X123549267Y-105973355D01*
X123563426Y-105982513D01*
X123595904Y-106010849D01*
X123618116Y-106046695D01*
X123631804Y-106095384D01*
X123638715Y-106162249D01*
X123639628Y-106206247D01*
X123640590Y-106252622D01*
G36*
X123640590Y-106252622D02*
G01*
X123640307Y-106291305D01*
X123636762Y-106367521D01*
X123627483Y-106423294D01*
X123610375Y-106464613D01*
X123583344Y-106497467D01*
X123544292Y-106527846D01*
X123519445Y-106541660D01*
X123479615Y-106550965D01*
X123423665Y-106550230D01*
X123392385Y-106547283D01*
X123354653Y-106538283D01*
X123324494Y-106518720D01*
X123289408Y-106482267D01*
X123284720Y-106476943D01*
X123253177Y-106435969D01*
X123238128Y-106400283D01*
X123234286Y-106357966D01*
X123234286Y-106295779D01*
X123277742Y-106312182D01*
X123309424Y-106331356D01*
X123336962Y-106376347D01*
X123342711Y-106390752D01*
X123374855Y-106431546D01*
X123418611Y-106452081D01*
X123466254Y-106450235D01*
X123510057Y-106423886D01*
X123525111Y-106407455D01*
X123538763Y-106382667D01*
X123534493Y-106360144D01*
X123509916Y-106336964D01*
X123462651Y-106310202D01*
X123390314Y-106276934D01*
X123241543Y-106211816D01*
X123237595Y-106147308D01*
X123239079Y-106106220D01*
X123336010Y-106106220D01*
X123343368Y-106131657D01*
X123376848Y-106158814D01*
X123437614Y-106189714D01*
X123447669Y-106194190D01*
X123495751Y-106215017D01*
X123531726Y-106229665D01*
X123548444Y-106235200D01*
X123550977Y-106231126D01*
X123551993Y-106206247D01*
X123548369Y-106166257D01*
X123539242Y-106127152D01*
X123510773Y-106077884D01*
X123469678Y-106050122D01*
X123420590Y-106046364D01*
X123368144Y-106069109D01*
X123353609Y-106080481D01*
X123336010Y-106106220D01*
X123239079Y-106106220D01*
X123239338Y-106099064D01*
X123261281Y-106038096D01*
X123288979Y-106004497D01*
X123346405Y-105966966D01*
X123414527Y-105948006D01*
X123484947Y-105949507D01*
X123549267Y-105973355D01*
X123563426Y-105982513D01*
X123595904Y-106010849D01*
X123618116Y-106046695D01*
X123631804Y-106095384D01*
X123638715Y-106162249D01*
X123639628Y-106206247D01*
X123640590Y-106252622D01*
G37*
X125730698Y-106249714D02*
X125729537Y-106306313D01*
X125721345Y-106383462D01*
X125703519Y-106441276D01*
X125673975Y-106485422D01*
X125630625Y-106521568D01*
X125589332Y-106542463D01*
X125519987Y-106554090D01*
X125450736Y-106541377D01*
X125388145Y-106505945D01*
X125338779Y-106449418D01*
X125332818Y-106438995D01*
X125324945Y-106420733D01*
X125319106Y-106397429D01*
X125314999Y-106365085D01*
X125312325Y-106319704D01*
X125310781Y-106257287D01*
X125310734Y-106251748D01*
X125411429Y-106251748D01*
X125411772Y-106304577D01*
X125413942Y-106352362D01*
X125419307Y-106383209D01*
X125429217Y-106403935D01*
X125445021Y-106421356D01*
X125448724Y-106424705D01*
X125496299Y-106449419D01*
X125546635Y-106446890D01*
X125593517Y-106417288D01*
X125607477Y-106401953D01*
X125619160Y-106381622D01*
X125625686Y-106353514D01*
X125628524Y-106310550D01*
X125629143Y-106245647D01*
X125628837Y-106196122D01*
X125626722Y-106147782D01*
X125621390Y-106116587D01*
X125611460Y-106095647D01*
X125595550Y-106078073D01*
X125586204Y-106070159D01*
X125537776Y-106048843D01*
X125487040Y-106052198D01*
X125442987Y-106080107D01*
X125433504Y-106091173D01*
X125421939Y-106112009D01*
X125415252Y-106141106D01*
X125412173Y-106185381D01*
X125411429Y-106251748D01*
X125310734Y-106251748D01*
X125310067Y-106173837D01*
X125309883Y-106065358D01*
X125309829Y-105728601D01*
X125357000Y-105748362D01*
X125369472Y-105753770D01*
X125389324Y-105765985D01*
X125400687Y-105784482D01*
X125406933Y-105816829D01*
X125411429Y-105870593D01*
X125415535Y-105918866D01*
X125420963Y-105950557D01*
X125428739Y-105962383D01*
X125440457Y-105959212D01*
X125470318Y-105948067D01*
X125523684Y-105945304D01*
X125581093Y-105955625D01*
X125630625Y-105977861D01*
X125657876Y-105998443D01*
X125692865Y-106038600D01*
X125715274Y-106090086D01*
X125727190Y-106158568D01*
X125730542Y-106245647D01*
X125730698Y-106249714D01*
G36*
X125730698Y-106249714D02*
G01*
X125729537Y-106306313D01*
X125721345Y-106383462D01*
X125703519Y-106441276D01*
X125673975Y-106485422D01*
X125630625Y-106521568D01*
X125589332Y-106542463D01*
X125519987Y-106554090D01*
X125450736Y-106541377D01*
X125388145Y-106505945D01*
X125338779Y-106449418D01*
X125332818Y-106438995D01*
X125324945Y-106420733D01*
X125319106Y-106397429D01*
X125314999Y-106365085D01*
X125312325Y-106319704D01*
X125310781Y-106257287D01*
X125310734Y-106251748D01*
X125411429Y-106251748D01*
X125411772Y-106304577D01*
X125413942Y-106352362D01*
X125419307Y-106383209D01*
X125429217Y-106403935D01*
X125445021Y-106421356D01*
X125448724Y-106424705D01*
X125496299Y-106449419D01*
X125546635Y-106446890D01*
X125593517Y-106417288D01*
X125607477Y-106401953D01*
X125619160Y-106381622D01*
X125625686Y-106353514D01*
X125628524Y-106310550D01*
X125629143Y-106245647D01*
X125628837Y-106196122D01*
X125626722Y-106147782D01*
X125621390Y-106116587D01*
X125611460Y-106095647D01*
X125595550Y-106078073D01*
X125586204Y-106070159D01*
X125537776Y-106048843D01*
X125487040Y-106052198D01*
X125442987Y-106080107D01*
X125433504Y-106091173D01*
X125421939Y-106112009D01*
X125415252Y-106141106D01*
X125412173Y-106185381D01*
X125411429Y-106251748D01*
X125310734Y-106251748D01*
X125310067Y-106173837D01*
X125309883Y-106065358D01*
X125309829Y-105728601D01*
X125357000Y-105748362D01*
X125369472Y-105753770D01*
X125389324Y-105765985D01*
X125400687Y-105784482D01*
X125406933Y-105816829D01*
X125411429Y-105870593D01*
X125415535Y-105918866D01*
X125420963Y-105950557D01*
X125428739Y-105962383D01*
X125440457Y-105959212D01*
X125470318Y-105948067D01*
X125523684Y-105945304D01*
X125581093Y-105955625D01*
X125630625Y-105977861D01*
X125657876Y-105998443D01*
X125692865Y-106038600D01*
X125715274Y-106090086D01*
X125727190Y-106158568D01*
X125730542Y-106245647D01*
X125730698Y-106249714D01*
G37*
X128662299Y-106194055D02*
X128657684Y-106304078D01*
X128655078Y-106327387D01*
X128635660Y-106410352D01*
X128600573Y-106473448D01*
X128547212Y-106521808D01*
X128544196Y-106523804D01*
X128476362Y-106552185D01*
X128405535Y-106554711D01*
X128337289Y-106533097D01*
X128277196Y-106489062D01*
X128230829Y-106424322D01*
X128230050Y-106422761D01*
X128214643Y-106382558D01*
X128203357Y-106336866D01*
X128197370Y-106293972D01*
X128197861Y-106262160D01*
X128206007Y-106249714D01*
X128213244Y-106250471D01*
X128247851Y-106264235D01*
X128287078Y-106289546D01*
X128320448Y-106318845D01*
X128337483Y-106344572D01*
X128355192Y-106379471D01*
X128391485Y-106411212D01*
X128433630Y-106423886D01*
X128449077Y-106420221D01*
X128479569Y-106401774D01*
X128506128Y-106376166D01*
X128517486Y-106352934D01*
X128517482Y-106352848D01*
X128504596Y-106342179D01*
X128470241Y-106322933D01*
X128419593Y-106297813D01*
X128357829Y-106269524D01*
X128357489Y-106269374D01*
X128290388Y-106239498D01*
X128245411Y-106217973D01*
X128218145Y-106201437D01*
X128204178Y-106186531D01*
X128199097Y-106169893D01*
X128198490Y-106148162D01*
X128202712Y-106107013D01*
X128346000Y-106107013D01*
X128360791Y-106119949D01*
X128397644Y-106139333D01*
X128398725Y-106139881D01*
X128442205Y-106160587D01*
X128481102Y-106177105D01*
X128505778Y-106184093D01*
X128515676Y-106174753D01*
X128517486Y-106142748D01*
X128509966Y-106102915D01*
X128483897Y-106066717D01*
X128446154Y-106047950D01*
X128404077Y-106049845D01*
X128365005Y-106075632D01*
X128349647Y-106093451D01*
X128346000Y-106107013D01*
X128202712Y-106107013D01*
X128203833Y-106096086D01*
X128230251Y-106025335D01*
X128274473Y-105969735D01*
X128331697Y-105931239D01*
X128397120Y-105911797D01*
X128465937Y-105913359D01*
X128533347Y-105937878D01*
X128594544Y-105987302D01*
X128628450Y-106036212D01*
X128652806Y-106106027D01*
X128656767Y-106142748D01*
X128662299Y-106194055D01*
G36*
X128662299Y-106194055D02*
G01*
X128657684Y-106304078D01*
X128655078Y-106327387D01*
X128635660Y-106410352D01*
X128600573Y-106473448D01*
X128547212Y-106521808D01*
X128544196Y-106523804D01*
X128476362Y-106552185D01*
X128405535Y-106554711D01*
X128337289Y-106533097D01*
X128277196Y-106489062D01*
X128230829Y-106424322D01*
X128230050Y-106422761D01*
X128214643Y-106382558D01*
X128203357Y-106336866D01*
X128197370Y-106293972D01*
X128197861Y-106262160D01*
X128206007Y-106249714D01*
X128213244Y-106250471D01*
X128247851Y-106264235D01*
X128287078Y-106289546D01*
X128320448Y-106318845D01*
X128337483Y-106344572D01*
X128355192Y-106379471D01*
X128391485Y-106411212D01*
X128433630Y-106423886D01*
X128449077Y-106420221D01*
X128479569Y-106401774D01*
X128506128Y-106376166D01*
X128517486Y-106352934D01*
X128517482Y-106352848D01*
X128504596Y-106342179D01*
X128470241Y-106322933D01*
X128419593Y-106297813D01*
X128357829Y-106269524D01*
X128357489Y-106269374D01*
X128290388Y-106239498D01*
X128245411Y-106217973D01*
X128218145Y-106201437D01*
X128204178Y-106186531D01*
X128199097Y-106169893D01*
X128198490Y-106148162D01*
X128202712Y-106107013D01*
X128346000Y-106107013D01*
X128360791Y-106119949D01*
X128397644Y-106139333D01*
X128398725Y-106139881D01*
X128442205Y-106160587D01*
X128481102Y-106177105D01*
X128505778Y-106184093D01*
X128515676Y-106174753D01*
X128517486Y-106142748D01*
X128509966Y-106102915D01*
X128483897Y-106066717D01*
X128446154Y-106047950D01*
X128404077Y-106049845D01*
X128365005Y-106075632D01*
X128349647Y-106093451D01*
X128346000Y-106107013D01*
X128202712Y-106107013D01*
X128203833Y-106096086D01*
X128230251Y-106025335D01*
X128274473Y-105969735D01*
X128331697Y-105931239D01*
X128397120Y-105911797D01*
X128465937Y-105913359D01*
X128533347Y-105937878D01*
X128594544Y-105987302D01*
X128628450Y-106036212D01*
X128652806Y-106106027D01*
X128656767Y-106142748D01*
X128662299Y-106194055D01*
G37*
X126589483Y-105960569D02*
X126639376Y-105989661D01*
X126661325Y-106012327D01*
X126703504Y-106080082D01*
X126717714Y-106153950D01*
X126717714Y-106204770D01*
X126670999Y-106185128D01*
X126638692Y-106165308D01*
X126613231Y-106124160D01*
X126610616Y-106115675D01*
X126582478Y-106072451D01*
X126540067Y-106049103D01*
X126491370Y-106048100D01*
X126444373Y-106071914D01*
X126437357Y-106078056D01*
X126413893Y-106104745D01*
X126410019Y-106128014D01*
X126427768Y-106150862D01*
X126469179Y-106176287D01*
X126536286Y-106207288D01*
X126540824Y-106209252D01*
X126615322Y-106243990D01*
X126666203Y-106274763D01*
X126697525Y-106305488D01*
X126713343Y-106340082D01*
X126717714Y-106382462D01*
X126711986Y-106429446D01*
X126683062Y-106489585D01*
X126632178Y-106532788D01*
X126595374Y-106545759D01*
X126543434Y-106552856D01*
X126492999Y-106551340D01*
X126456983Y-106540632D01*
X126453158Y-106537966D01*
X126442998Y-106519337D01*
X126450048Y-106486505D01*
X126462297Y-106460735D01*
X126481939Y-106450006D01*
X126519191Y-106450539D01*
X126570908Y-106447462D01*
X126604701Y-106426212D01*
X126616114Y-106386877D01*
X126616104Y-106385747D01*
X126609187Y-106362913D01*
X126585659Y-106341963D01*
X126539914Y-106317815D01*
X126477704Y-106288741D01*
X126436499Y-106272925D01*
X126412712Y-106273944D01*
X126401597Y-106294837D01*
X126398408Y-106338641D01*
X126398400Y-106408393D01*
X126398044Y-106451452D01*
X126396413Y-106504626D01*
X126393761Y-106541022D01*
X126390422Y-106554514D01*
X126389530Y-106554423D01*
X126370237Y-106547110D01*
X126338284Y-106531678D01*
X126294124Y-106508842D01*
X126299371Y-106303078D01*
X126299736Y-106289432D01*
X126303904Y-106193651D01*
X126311268Y-106121462D01*
X126323330Y-106068058D01*
X126341593Y-106028633D01*
X126367560Y-105998380D01*
X126402733Y-105972493D01*
X126403384Y-105972087D01*
X126460256Y-105950968D01*
X126526033Y-105947400D01*
X126589483Y-105960569D01*
G36*
X126589483Y-105960569D02*
G01*
X126639376Y-105989661D01*
X126661325Y-106012327D01*
X126703504Y-106080082D01*
X126717714Y-106153950D01*
X126717714Y-106204770D01*
X126670999Y-106185128D01*
X126638692Y-106165308D01*
X126613231Y-106124160D01*
X126610616Y-106115675D01*
X126582478Y-106072451D01*
X126540067Y-106049103D01*
X126491370Y-106048100D01*
X126444373Y-106071914D01*
X126437357Y-106078056D01*
X126413893Y-106104745D01*
X126410019Y-106128014D01*
X126427768Y-106150862D01*
X126469179Y-106176287D01*
X126536286Y-106207288D01*
X126540824Y-106209252D01*
X126615322Y-106243990D01*
X126666203Y-106274763D01*
X126697525Y-106305488D01*
X126713343Y-106340082D01*
X126717714Y-106382462D01*
X126711986Y-106429446D01*
X126683062Y-106489585D01*
X126632178Y-106532788D01*
X126595374Y-106545759D01*
X126543434Y-106552856D01*
X126492999Y-106551340D01*
X126456983Y-106540632D01*
X126453158Y-106537966D01*
X126442998Y-106519337D01*
X126450048Y-106486505D01*
X126462297Y-106460735D01*
X126481939Y-106450006D01*
X126519191Y-106450539D01*
X126570908Y-106447462D01*
X126604701Y-106426212D01*
X126616114Y-106386877D01*
X126616104Y-106385747D01*
X126609187Y-106362913D01*
X126585659Y-106341963D01*
X126539914Y-106317815D01*
X126477704Y-106288741D01*
X126436499Y-106272925D01*
X126412712Y-106273944D01*
X126401597Y-106294837D01*
X126398408Y-106338641D01*
X126398400Y-106408393D01*
X126398044Y-106451452D01*
X126396413Y-106504626D01*
X126393761Y-106541022D01*
X126390422Y-106554514D01*
X126389530Y-106554423D01*
X126370237Y-106547110D01*
X126338284Y-106531678D01*
X126294124Y-106508842D01*
X126299371Y-106303078D01*
X126299736Y-106289432D01*
X126303904Y-106193651D01*
X126311268Y-106121462D01*
X126323330Y-106068058D01*
X126341593Y-106028633D01*
X126367560Y-105998380D01*
X126402733Y-105972493D01*
X126403384Y-105972087D01*
X126460256Y-105950968D01*
X126526033Y-105947400D01*
X126589483Y-105960569D01*
G37*
X124467495Y-105946220D02*
X124498599Y-105954121D01*
X124527559Y-105973817D01*
X124564831Y-106010484D01*
X124588801Y-106036378D01*
X124613770Y-106069997D01*
X124625031Y-106101506D01*
X124627657Y-106141485D01*
X124627657Y-106206917D01*
X124583035Y-106183842D01*
X124547673Y-106155724D01*
X124523451Y-106117848D01*
X124519291Y-106107551D01*
X124487594Y-106067637D01*
X124443554Y-106047624D01*
X124395531Y-106049572D01*
X124351886Y-106075543D01*
X124333420Y-106096635D01*
X124322663Y-106123619D01*
X124334178Y-106147634D01*
X124369981Y-106171791D01*
X124432090Y-106199199D01*
X124441515Y-106202985D01*
X124498058Y-106227759D01*
X124546580Y-106252189D01*
X124577451Y-106271486D01*
X124608371Y-106305953D01*
X124628927Y-106360957D01*
X124626744Y-106419983D01*
X124602424Y-106475845D01*
X124556568Y-106521355D01*
X124519438Y-106540727D01*
X124447711Y-106554292D01*
X124407852Y-106552462D01*
X124370953Y-106542568D01*
X124356797Y-106521806D01*
X124362091Y-106487613D01*
X124363631Y-106483092D01*
X124375842Y-106459116D01*
X124396174Y-106450042D01*
X124434908Y-106450649D01*
X124462257Y-106451474D01*
X124494257Y-106444392D01*
X124516182Y-106423219D01*
X124528670Y-106397152D01*
X124530062Y-106369845D01*
X124529998Y-106369685D01*
X124513807Y-106354930D01*
X124479155Y-106333457D01*
X124434321Y-106309458D01*
X124387582Y-106287125D01*
X124347217Y-106270652D01*
X124321504Y-106264229D01*
X124317679Y-106270518D01*
X124312864Y-106300115D01*
X124309566Y-106348447D01*
X124308343Y-106409372D01*
X124308058Y-106451542D01*
X124306718Y-106504653D01*
X124304528Y-106541025D01*
X124301769Y-106554514D01*
X124287344Y-106549981D01*
X124258226Y-106537670D01*
X124221257Y-106520826D01*
X124221257Y-106304721D01*
X124221493Y-106249327D01*
X124223729Y-106165207D01*
X124229423Y-106102800D01*
X124239903Y-106057358D01*
X124256497Y-106024133D01*
X124280531Y-105998378D01*
X124313333Y-105975344D01*
X124355124Y-105956335D01*
X124432287Y-105944914D01*
X124467495Y-105946220D01*
G36*
X124467495Y-105946220D02*
G01*
X124498599Y-105954121D01*
X124527559Y-105973817D01*
X124564831Y-106010484D01*
X124588801Y-106036378D01*
X124613770Y-106069997D01*
X124625031Y-106101506D01*
X124627657Y-106141485D01*
X124627657Y-106206917D01*
X124583035Y-106183842D01*
X124547673Y-106155724D01*
X124523451Y-106117848D01*
X124519291Y-106107551D01*
X124487594Y-106067637D01*
X124443554Y-106047624D01*
X124395531Y-106049572D01*
X124351886Y-106075543D01*
X124333420Y-106096635D01*
X124322663Y-106123619D01*
X124334178Y-106147634D01*
X124369981Y-106171791D01*
X124432090Y-106199199D01*
X124441515Y-106202985D01*
X124498058Y-106227759D01*
X124546580Y-106252189D01*
X124577451Y-106271486D01*
X124608371Y-106305953D01*
X124628927Y-106360957D01*
X124626744Y-106419983D01*
X124602424Y-106475845D01*
X124556568Y-106521355D01*
X124519438Y-106540727D01*
X124447711Y-106554292D01*
X124407852Y-106552462D01*
X124370953Y-106542568D01*
X124356797Y-106521806D01*
X124362091Y-106487613D01*
X124363631Y-106483092D01*
X124375842Y-106459116D01*
X124396174Y-106450042D01*
X124434908Y-106450649D01*
X124462257Y-106451474D01*
X124494257Y-106444392D01*
X124516182Y-106423219D01*
X124528670Y-106397152D01*
X124530062Y-106369845D01*
X124529998Y-106369685D01*
X124513807Y-106354930D01*
X124479155Y-106333457D01*
X124434321Y-106309458D01*
X124387582Y-106287125D01*
X124347217Y-106270652D01*
X124321504Y-106264229D01*
X124317679Y-106270518D01*
X124312864Y-106300115D01*
X124309566Y-106348447D01*
X124308343Y-106409372D01*
X124308058Y-106451542D01*
X124306718Y-106504653D01*
X124304528Y-106541025D01*
X124301769Y-106554514D01*
X124287344Y-106549981D01*
X124258226Y-106537670D01*
X124221257Y-106520826D01*
X124221257Y-106304721D01*
X124221493Y-106249327D01*
X124223729Y-106165207D01*
X124229423Y-106102800D01*
X124239903Y-106057358D01*
X124256497Y-106024133D01*
X124280531Y-105998378D01*
X124313333Y-105975344D01*
X124355124Y-105956335D01*
X124432287Y-105944914D01*
X124467495Y-105946220D01*
G37*
X129209815Y-106301524D02*
X129211252Y-106413000D01*
X129211651Y-106445339D01*
X129212929Y-106553455D01*
X129213185Y-106636186D01*
X129211634Y-106696426D01*
X129207490Y-106737073D01*
X129199964Y-106761023D01*
X129188271Y-106771171D01*
X129171624Y-106770414D01*
X129149236Y-106761648D01*
X129120321Y-106747769D01*
X129114142Y-106744808D01*
X129088413Y-106730311D01*
X129074976Y-106713065D01*
X129069834Y-106684308D01*
X129068990Y-106635283D01*
X129068952Y-106547257D01*
X128978276Y-106547257D01*
X128922498Y-106544815D01*
X128878640Y-106534908D01*
X128842218Y-106514886D01*
X128839503Y-106512929D01*
X128802546Y-106479869D01*
X128776826Y-106439931D01*
X128760606Y-106387657D01*
X128752148Y-106317588D01*
X128750083Y-106238430D01*
X128894857Y-106238430D01*
X128894882Y-106251697D01*
X128896261Y-106311584D01*
X128900687Y-106350732D01*
X128909461Y-106376153D01*
X128923886Y-106394857D01*
X128924784Y-106395750D01*
X128960237Y-106419952D01*
X128994596Y-106417567D01*
X129033403Y-106388260D01*
X129042895Y-106378244D01*
X129056876Y-106357708D01*
X129064760Y-106330997D01*
X129068245Y-106290499D01*
X129069029Y-106228603D01*
X129068350Y-106191130D01*
X129060983Y-106122980D01*
X129044168Y-106078330D01*
X129016234Y-106053926D01*
X128975509Y-106046514D01*
X128958350Y-106048094D01*
X128928660Y-106063766D01*
X128909031Y-106098691D01*
X128898188Y-106155901D01*
X128894857Y-106238430D01*
X128750083Y-106238430D01*
X128749714Y-106224267D01*
X128750253Y-106156169D01*
X128752707Y-106104587D01*
X128758158Y-106068816D01*
X128767686Y-106042015D01*
X128782371Y-106017338D01*
X128795852Y-105998480D01*
X128844799Y-105947568D01*
X128900256Y-105919918D01*
X128969928Y-105911165D01*
X129049664Y-105919890D01*
X129118595Y-105951185D01*
X129173113Y-106006381D01*
X129177223Y-106012224D01*
X129186808Y-106027753D01*
X129194151Y-106045498D01*
X129199612Y-106069290D01*
X129203550Y-106102958D01*
X129206323Y-106150333D01*
X129208292Y-106215245D01*
X129208528Y-106228603D01*
X129209815Y-106301524D01*
G36*
X129209815Y-106301524D02*
G01*
X129211252Y-106413000D01*
X129211651Y-106445339D01*
X129212929Y-106553455D01*
X129213185Y-106636186D01*
X129211634Y-106696426D01*
X129207490Y-106737073D01*
X129199964Y-106761023D01*
X129188271Y-106771171D01*
X129171624Y-106770414D01*
X129149236Y-106761648D01*
X129120321Y-106747769D01*
X129114142Y-106744808D01*
X129088413Y-106730311D01*
X129074976Y-106713065D01*
X129069834Y-106684308D01*
X129068990Y-106635283D01*
X129068952Y-106547257D01*
X128978276Y-106547257D01*
X128922498Y-106544815D01*
X128878640Y-106534908D01*
X128842218Y-106514886D01*
X128839503Y-106512929D01*
X128802546Y-106479869D01*
X128776826Y-106439931D01*
X128760606Y-106387657D01*
X128752148Y-106317588D01*
X128750083Y-106238430D01*
X128894857Y-106238430D01*
X128894882Y-106251697D01*
X128896261Y-106311584D01*
X128900687Y-106350732D01*
X128909461Y-106376153D01*
X128923886Y-106394857D01*
X128924784Y-106395750D01*
X128960237Y-106419952D01*
X128994596Y-106417567D01*
X129033403Y-106388260D01*
X129042895Y-106378244D01*
X129056876Y-106357708D01*
X129064760Y-106330997D01*
X129068245Y-106290499D01*
X129069029Y-106228603D01*
X129068350Y-106191130D01*
X129060983Y-106122980D01*
X129044168Y-106078330D01*
X129016234Y-106053926D01*
X128975509Y-106046514D01*
X128958350Y-106048094D01*
X128928660Y-106063766D01*
X128909031Y-106098691D01*
X128898188Y-106155901D01*
X128894857Y-106238430D01*
X128750083Y-106238430D01*
X128749714Y-106224267D01*
X128750253Y-106156169D01*
X128752707Y-106104587D01*
X128758158Y-106068816D01*
X128767686Y-106042015D01*
X128782371Y-106017338D01*
X128795852Y-105998480D01*
X128844799Y-105947568D01*
X128900256Y-105919918D01*
X128969928Y-105911165D01*
X129049664Y-105919890D01*
X129118595Y-105951185D01*
X129173113Y-106006381D01*
X129177223Y-106012224D01*
X129186808Y-106027753D01*
X129194151Y-106045498D01*
X129199612Y-106069290D01*
X129203550Y-106102958D01*
X129206323Y-106150333D01*
X129208292Y-106215245D01*
X129208528Y-106228603D01*
X129209815Y-106301524D01*
G37*
X126613933Y-101242371D02*
X126689856Y-101242865D01*
X126744491Y-101244135D01*
X126781500Y-101246547D01*
X126804547Y-101250467D01*
X126817296Y-101256262D01*
X126823411Y-101264299D01*
X126826556Y-101274943D01*
X126826646Y-101275325D01*
X126831814Y-101300347D01*
X126841209Y-101348681D01*
X126853867Y-101415260D01*
X126868825Y-101495014D01*
X126885119Y-101582875D01*
X126886448Y-101590064D01*
X126902691Y-101675340D01*
X126917805Y-101750242D01*
X126930808Y-101810219D01*
X126940715Y-101850717D01*
X126946544Y-101867184D01*
X126946575Y-101867210D01*
X126964943Y-101876320D01*
X127002640Y-101891457D01*
X127051543Y-101909358D01*
X127054297Y-101910330D01*
X127116817Y-101933959D01*
X127189543Y-101963595D01*
X127257294Y-101993062D01*
X127368703Y-102043626D01*
X127615399Y-101875160D01*
X127632775Y-101863311D01*
X127707202Y-101812947D01*
X127773614Y-101768612D01*
X127828039Y-101732916D01*
X127866506Y-101708471D01*
X127885042Y-101697889D01*
X127897743Y-101700315D01*
X127926579Y-101719110D01*
X127971143Y-101756330D01*
X128032670Y-101813020D01*
X128112398Y-101890227D01*
X128119532Y-101897255D01*
X128182796Y-101960222D01*
X128238990Y-102017268D01*
X128284677Y-102064817D01*
X128316414Y-102099297D01*
X128330764Y-102117131D01*
X128330810Y-102117217D01*
X128332633Y-102130795D01*
X128325910Y-102152820D01*
X128308946Y-102186304D01*
X128280044Y-102234261D01*
X128237508Y-102299704D01*
X128179644Y-102385645D01*
X128169783Y-102400151D01*
X128119913Y-102473635D01*
X128075905Y-102538687D01*
X128040380Y-102591417D01*
X128015959Y-102627936D01*
X128005264Y-102644356D01*
X128004458Y-102647834D01*
X128009518Y-102673785D01*
X128024677Y-102716159D01*
X128047463Y-102767728D01*
X128078429Y-102835170D01*
X128113004Y-102915195D01*
X128142366Y-102987629D01*
X128149645Y-103006377D01*
X128168710Y-103054246D01*
X128182715Y-103087596D01*
X128189041Y-103100114D01*
X128196025Y-103101050D01*
X128227413Y-103106461D01*
X128278787Y-103115806D01*
X128344802Y-103128069D01*
X128420113Y-103142232D01*
X128499375Y-103157280D01*
X128577243Y-103172195D01*
X128648370Y-103185961D01*
X128707412Y-103197562D01*
X128749022Y-103205980D01*
X128767857Y-103210199D01*
X128770980Y-103211389D01*
X128778591Y-103217805D01*
X128784254Y-103231465D01*
X128788251Y-103255999D01*
X128790866Y-103295038D01*
X128792384Y-103352213D01*
X128793086Y-103431154D01*
X128793257Y-103535492D01*
X128793257Y-103852799D01*
X128717057Y-103867839D01*
X128707840Y-103869642D01*
X128658891Y-103878980D01*
X128591205Y-103891669D01*
X128512478Y-103906273D01*
X128430400Y-103921355D01*
X128398078Y-103927422D01*
X128325855Y-103942181D01*
X128265666Y-103956137D01*
X128223040Y-103967952D01*
X128203510Y-103976287D01*
X128194660Y-103989905D01*
X128178548Y-104025938D01*
X128162065Y-104072572D01*
X128156263Y-104090034D01*
X128134906Y-104147358D01*
X128107359Y-104215201D01*
X128078107Y-104282355D01*
X128062463Y-104317430D01*
X128040174Y-104369822D01*
X128024857Y-104409058D01*
X128019162Y-104428563D01*
X128019478Y-104430036D01*
X128030281Y-104450729D01*
X128054638Y-104490665D01*
X128090081Y-104545972D01*
X128134136Y-104612781D01*
X128184332Y-104687220D01*
X128349501Y-104929623D01*
X128132503Y-105146983D01*
X128111516Y-105167899D01*
X128047342Y-105230505D01*
X127989990Y-105284495D01*
X127942820Y-105326826D01*
X127909192Y-105354457D01*
X127892467Y-105364343D01*
X127874303Y-105356821D01*
X127836265Y-105335227D01*
X127782726Y-105302151D01*
X127717884Y-105260191D01*
X127645940Y-105211943D01*
X127575275Y-105164291D01*
X127511526Y-105122328D01*
X127459513Y-105089165D01*
X127423279Y-105067378D01*
X127406867Y-105059543D01*
X127405905Y-105059614D01*
X127384103Y-105067338D01*
X127345440Y-105085323D01*
X127297612Y-105110013D01*
X127297110Y-105110284D01*
X127233587Y-105142099D01*
X127190060Y-105157642D01*
X127163052Y-105157685D01*
X127149090Y-105143000D01*
X127143180Y-105128544D01*
X127127229Y-105089831D01*
X127102660Y-105030316D01*
X127070779Y-104953165D01*
X127032893Y-104861541D01*
X126990310Y-104758607D01*
X126944337Y-104647526D01*
X126902667Y-104546472D01*
X126860268Y-104442780D01*
X126822756Y-104350119D01*
X126791388Y-104271642D01*
X126767425Y-104210500D01*
X126752123Y-104169843D01*
X126746743Y-104152825D01*
X126757018Y-104137219D01*
X126785563Y-104111162D01*
X126825971Y-104080887D01*
X126922979Y-104001684D01*
X127009793Y-103900475D01*
X127073322Y-103789116D01*
X127113177Y-103670893D01*
X127128965Y-103549095D01*
X127120296Y-103427010D01*
X127086778Y-103307925D01*
X127028021Y-103195129D01*
X126943632Y-103091911D01*
X126899631Y-103051713D01*
X126794211Y-102980638D01*
X126681410Y-102934301D01*
X126564525Y-102911599D01*
X126446853Y-102911428D01*
X126331690Y-102932687D01*
X126222335Y-102974270D01*
X126122083Y-103035076D01*
X126034233Y-103114001D01*
X125962080Y-103209941D01*
X125908922Y-103321795D01*
X125878057Y-103448457D01*
X125872392Y-103509507D01*
X125880185Y-103641776D01*
X125915284Y-103767266D01*
X125976649Y-103883759D01*
X126063243Y-103989039D01*
X126174029Y-104080887D01*
X126212931Y-104109930D01*
X126242104Y-104136272D01*
X126253257Y-104152800D01*
X126248810Y-104167209D01*
X126234378Y-104205815D01*
X126211173Y-104265201D01*
X126180452Y-104342215D01*
X126143474Y-104433703D01*
X126101496Y-104536516D01*
X126055778Y-104647502D01*
X126014178Y-104748072D01*
X125971222Y-104851947D01*
X125932829Y-104944819D01*
X125900305Y-105023525D01*
X125874958Y-105084899D01*
X125858095Y-105125779D01*
X125851025Y-105143000D01*
X125850943Y-105143204D01*
X125836798Y-105157745D01*
X125809659Y-105157579D01*
X125766023Y-105141927D01*
X125702388Y-105110013D01*
X125697379Y-105107326D01*
X125650125Y-105083150D01*
X125612811Y-105066037D01*
X125593133Y-105059543D01*
X125577005Y-105067218D01*
X125540959Y-105088871D01*
X125489092Y-105121928D01*
X125425445Y-105163810D01*
X125354060Y-105211943D01*
X125283724Y-105259131D01*
X125218670Y-105301267D01*
X125164820Y-105334578D01*
X125126374Y-105356469D01*
X125107534Y-105364343D01*
X125104325Y-105363343D01*
X125081954Y-105347584D01*
X125043733Y-105315033D01*
X124993021Y-105268733D01*
X124933181Y-105211726D01*
X124867571Y-105147058D01*
X124650648Y-104929772D01*
X124819601Y-104681253D01*
X124988553Y-104432733D01*
X124937183Y-104321595D01*
X124937031Y-104321266D01*
X124906183Y-104250418D01*
X124874661Y-104171523D01*
X124849266Y-104101600D01*
X124845423Y-104090322D01*
X124826047Y-104037967D01*
X124808574Y-103997283D01*
X124796388Y-103976287D01*
X124791426Y-103973322D01*
X124761634Y-103963375D01*
X124711047Y-103950505D01*
X124645194Y-103936053D01*
X124569600Y-103921355D01*
X124546957Y-103917210D01*
X124465038Y-103902116D01*
X124388600Y-103887899D01*
X124325337Y-103875995D01*
X124282943Y-103867839D01*
X124206743Y-103852799D01*
X124206743Y-103535492D01*
X124206760Y-103496476D01*
X124207082Y-103401292D01*
X124208033Y-103330255D01*
X124209896Y-103279734D01*
X124212955Y-103246098D01*
X124217494Y-103225718D01*
X124223795Y-103214962D01*
X124232143Y-103210199D01*
X124240224Y-103208270D01*
X124273172Y-103201445D01*
X124325736Y-103191022D01*
X124392569Y-103178018D01*
X124468328Y-103163449D01*
X124547665Y-103148333D01*
X124625237Y-103133685D01*
X124695698Y-103120523D01*
X124753702Y-103109863D01*
X124793904Y-103102721D01*
X124810959Y-103100114D01*
X124812112Y-103098541D01*
X124821385Y-103078119D01*
X124837432Y-103039045D01*
X124857635Y-102987629D01*
X124885672Y-102918353D01*
X124920186Y-102838290D01*
X124952538Y-102767728D01*
X124959952Y-102751889D01*
X124980755Y-102702293D01*
X124993219Y-102664038D01*
X124994863Y-102644356D01*
X124994015Y-102642962D01*
X124980548Y-102622420D01*
X124953850Y-102582516D01*
X124916539Y-102527140D01*
X124871234Y-102460177D01*
X124820552Y-102385517D01*
X124763445Y-102300692D01*
X124720607Y-102234800D01*
X124691460Y-102186478D01*
X124674317Y-102152733D01*
X124667495Y-102130572D01*
X124669306Y-102117002D01*
X124669915Y-102115984D01*
X124686297Y-102096210D01*
X124719695Y-102060175D01*
X124766671Y-102011451D01*
X124823786Y-101953612D01*
X124887603Y-101890227D01*
X124953802Y-101825905D01*
X125018648Y-101765447D01*
X125066299Y-101724655D01*
X125097990Y-101702484D01*
X125114958Y-101697889D01*
X125117175Y-101698921D01*
X125140524Y-101712837D01*
X125182912Y-101740030D01*
X125240369Y-101777889D01*
X125308923Y-101823803D01*
X125384601Y-101875160D01*
X125631298Y-102043626D01*
X125742706Y-101993062D01*
X125745943Y-101991597D01*
X125814343Y-101961965D01*
X125886907Y-101932493D01*
X125948457Y-101909358D01*
X125948729Y-101909262D01*
X125997595Y-101891367D01*
X126035212Y-101876253D01*
X126053457Y-101867184D01*
X126053752Y-101866855D01*
X126059946Y-101848282D01*
X126070139Y-101806045D01*
X126083348Y-101744696D01*
X126098590Y-101668789D01*
X126114881Y-101582875D01*
X126115449Y-101579796D01*
X126131713Y-101492128D01*
X126146608Y-101412741D01*
X126159171Y-101346701D01*
X126168438Y-101299079D01*
X126173444Y-101274943D01*
X126173764Y-101273605D01*
X126177060Y-101263273D01*
X126183738Y-101255506D01*
X126197462Y-101249940D01*
X126221895Y-101246207D01*
X126260702Y-101243942D01*
X126317546Y-101242778D01*
X126396090Y-101242348D01*
X126500000Y-101242286D01*
X126513056Y-101242286D01*
X126613933Y-101242371D01*
G36*
X126613933Y-101242371D02*
G01*
X126689856Y-101242865D01*
X126744491Y-101244135D01*
X126781500Y-101246547D01*
X126804547Y-101250467D01*
X126817296Y-101256262D01*
X126823411Y-101264299D01*
X126826556Y-101274943D01*
X126826646Y-101275325D01*
X126831814Y-101300347D01*
X126841209Y-101348681D01*
X126853867Y-101415260D01*
X126868825Y-101495014D01*
X126885119Y-101582875D01*
X126886448Y-101590064D01*
X126902691Y-101675340D01*
X126917805Y-101750242D01*
X126930808Y-101810219D01*
X126940715Y-101850717D01*
X126946544Y-101867184D01*
X126946575Y-101867210D01*
X126964943Y-101876320D01*
X127002640Y-101891457D01*
X127051543Y-101909358D01*
X127054297Y-101910330D01*
X127116817Y-101933959D01*
X127189543Y-101963595D01*
X127257294Y-101993062D01*
X127368703Y-102043626D01*
X127615399Y-101875160D01*
X127632775Y-101863311D01*
X127707202Y-101812947D01*
X127773614Y-101768612D01*
X127828039Y-101732916D01*
X127866506Y-101708471D01*
X127885042Y-101697889D01*
X127897743Y-101700315D01*
X127926579Y-101719110D01*
X127971143Y-101756330D01*
X128032670Y-101813020D01*
X128112398Y-101890227D01*
X128119532Y-101897255D01*
X128182796Y-101960222D01*
X128238990Y-102017268D01*
X128284677Y-102064817D01*
X128316414Y-102099297D01*
X128330764Y-102117131D01*
X128330810Y-102117217D01*
X128332633Y-102130795D01*
X128325910Y-102152820D01*
X128308946Y-102186304D01*
X128280044Y-102234261D01*
X128237508Y-102299704D01*
X128179644Y-102385645D01*
X128169783Y-102400151D01*
X128119913Y-102473635D01*
X128075905Y-102538687D01*
X128040380Y-102591417D01*
X128015959Y-102627936D01*
X128005264Y-102644356D01*
X128004458Y-102647834D01*
X128009518Y-102673785D01*
X128024677Y-102716159D01*
X128047463Y-102767728D01*
X128078429Y-102835170D01*
X128113004Y-102915195D01*
X128142366Y-102987629D01*
X128149645Y-103006377D01*
X128168710Y-103054246D01*
X128182715Y-103087596D01*
X128189041Y-103100114D01*
X128196025Y-103101050D01*
X128227413Y-103106461D01*
X128278787Y-103115806D01*
X128344802Y-103128069D01*
X128420113Y-103142232D01*
X128499375Y-103157280D01*
X128577243Y-103172195D01*
X128648370Y-103185961D01*
X128707412Y-103197562D01*
X128749022Y-103205980D01*
X128767857Y-103210199D01*
X128770980Y-103211389D01*
X128778591Y-103217805D01*
X128784254Y-103231465D01*
X128788251Y-103255999D01*
X128790866Y-103295038D01*
X128792384Y-103352213D01*
X128793086Y-103431154D01*
X128793257Y-103535492D01*
X128793257Y-103852799D01*
X128717057Y-103867839D01*
X128707840Y-103869642D01*
X128658891Y-103878980D01*
X128591205Y-103891669D01*
X128512478Y-103906273D01*
X128430400Y-103921355D01*
X128398078Y-103927422D01*
X128325855Y-103942181D01*
X128265666Y-103956137D01*
X128223040Y-103967952D01*
X128203510Y-103976287D01*
X128194660Y-103989905D01*
X128178548Y-104025938D01*
X128162065Y-104072572D01*
X128156263Y-104090034D01*
X128134906Y-104147358D01*
X128107359Y-104215201D01*
X128078107Y-104282355D01*
X128062463Y-104317430D01*
X128040174Y-104369822D01*
X128024857Y-104409058D01*
X128019162Y-104428563D01*
X128019478Y-104430036D01*
X128030281Y-104450729D01*
X128054638Y-104490665D01*
X128090081Y-104545972D01*
X128134136Y-104612781D01*
X128184332Y-104687220D01*
X128349501Y-104929623D01*
X128132503Y-105146983D01*
X128111516Y-105167899D01*
X128047342Y-105230505D01*
X127989990Y-105284495D01*
X127942820Y-105326826D01*
X127909192Y-105354457D01*
X127892467Y-105364343D01*
X127874303Y-105356821D01*
X127836265Y-105335227D01*
X127782726Y-105302151D01*
X127717884Y-105260191D01*
X127645940Y-105211943D01*
X127575275Y-105164291D01*
X127511526Y-105122328D01*
X127459513Y-105089165D01*
X127423279Y-105067378D01*
X127406867Y-105059543D01*
X127405905Y-105059614D01*
X127384103Y-105067338D01*
X127345440Y-105085323D01*
X127297612Y-105110013D01*
X127297110Y-105110284D01*
X127233587Y-105142099D01*
X127190060Y-105157642D01*
X127163052Y-105157685D01*
X127149090Y-105143000D01*
X127143180Y-105128544D01*
X127127229Y-105089831D01*
X127102660Y-105030316D01*
X127070779Y-104953165D01*
X127032893Y-104861541D01*
X126990310Y-104758607D01*
X126944337Y-104647526D01*
X126902667Y-104546472D01*
X126860268Y-104442780D01*
X126822756Y-104350119D01*
X126791388Y-104271642D01*
X126767425Y-104210500D01*
X126752123Y-104169843D01*
X126746743Y-104152825D01*
X126757018Y-104137219D01*
X126785563Y-104111162D01*
X126825971Y-104080887D01*
X126922979Y-104001684D01*
X127009793Y-103900475D01*
X127073322Y-103789116D01*
X127113177Y-103670893D01*
X127128965Y-103549095D01*
X127120296Y-103427010D01*
X127086778Y-103307925D01*
X127028021Y-103195129D01*
X126943632Y-103091911D01*
X126899631Y-103051713D01*
X126794211Y-102980638D01*
X126681410Y-102934301D01*
X126564525Y-102911599D01*
X126446853Y-102911428D01*
X126331690Y-102932687D01*
X126222335Y-102974270D01*
X126122083Y-103035076D01*
X126034233Y-103114001D01*
X125962080Y-103209941D01*
X125908922Y-103321795D01*
X125878057Y-103448457D01*
X125872392Y-103509507D01*
X125880185Y-103641776D01*
X125915284Y-103767266D01*
X125976649Y-103883759D01*
X126063243Y-103989039D01*
X126174029Y-104080887D01*
X126212931Y-104109930D01*
X126242104Y-104136272D01*
X126253257Y-104152800D01*
X126248810Y-104167209D01*
X126234378Y-104205815D01*
X126211173Y-104265201D01*
X126180452Y-104342215D01*
X126143474Y-104433703D01*
X126101496Y-104536516D01*
X126055778Y-104647502D01*
X126014178Y-104748072D01*
X125971222Y-104851947D01*
X125932829Y-104944819D01*
X125900305Y-105023525D01*
X125874958Y-105084899D01*
X125858095Y-105125779D01*
X125851025Y-105143000D01*
X125850943Y-105143204D01*
X125836798Y-105157745D01*
X125809659Y-105157579D01*
X125766023Y-105141927D01*
X125702388Y-105110013D01*
X125697379Y-105107326D01*
X125650125Y-105083150D01*
X125612811Y-105066037D01*
X125593133Y-105059543D01*
X125577005Y-105067218D01*
X125540959Y-105088871D01*
X125489092Y-105121928D01*
X125425445Y-105163810D01*
X125354060Y-105211943D01*
X125283724Y-105259131D01*
X125218670Y-105301267D01*
X125164820Y-105334578D01*
X125126374Y-105356469D01*
X125107534Y-105364343D01*
X125104325Y-105363343D01*
X125081954Y-105347584D01*
X125043733Y-105315033D01*
X124993021Y-105268733D01*
X124933181Y-105211726D01*
X124867571Y-105147058D01*
X124650648Y-104929772D01*
X124819601Y-104681253D01*
X124988553Y-104432733D01*
X124937183Y-104321595D01*
X124937031Y-104321266D01*
X124906183Y-104250418D01*
X124874661Y-104171523D01*
X124849266Y-104101600D01*
X124845423Y-104090322D01*
X124826047Y-104037967D01*
X124808574Y-103997283D01*
X124796388Y-103976287D01*
X124791426Y-103973322D01*
X124761634Y-103963375D01*
X124711047Y-103950505D01*
X124645194Y-103936053D01*
X124569600Y-103921355D01*
X124546957Y-103917210D01*
X124465038Y-103902116D01*
X124388600Y-103887899D01*
X124325337Y-103875995D01*
X124282943Y-103867839D01*
X124206743Y-103852799D01*
X124206743Y-103535492D01*
X124206760Y-103496476D01*
X124207082Y-103401292D01*
X124208033Y-103330255D01*
X124209896Y-103279734D01*
X124212955Y-103246098D01*
X124217494Y-103225718D01*
X124223795Y-103214962D01*
X124232143Y-103210199D01*
X124240224Y-103208270D01*
X124273172Y-103201445D01*
X124325736Y-103191022D01*
X124392569Y-103178018D01*
X124468328Y-103163449D01*
X124547665Y-103148333D01*
X124625237Y-103133685D01*
X124695698Y-103120523D01*
X124753702Y-103109863D01*
X124793904Y-103102721D01*
X124810959Y-103100114D01*
X124812112Y-103098541D01*
X124821385Y-103078119D01*
X124837432Y-103039045D01*
X124857635Y-102987629D01*
X124885672Y-102918353D01*
X124920186Y-102838290D01*
X124952538Y-102767728D01*
X124959952Y-102751889D01*
X124980755Y-102702293D01*
X124993219Y-102664038D01*
X124994863Y-102644356D01*
X124994015Y-102642962D01*
X124980548Y-102622420D01*
X124953850Y-102582516D01*
X124916539Y-102527140D01*
X124871234Y-102460177D01*
X124820552Y-102385517D01*
X124763445Y-102300692D01*
X124720607Y-102234800D01*
X124691460Y-102186478D01*
X124674317Y-102152733D01*
X124667495Y-102130572D01*
X124669306Y-102117002D01*
X124669915Y-102115984D01*
X124686297Y-102096210D01*
X124719695Y-102060175D01*
X124766671Y-102011451D01*
X124823786Y-101953612D01*
X124887603Y-101890227D01*
X124953802Y-101825905D01*
X125018648Y-101765447D01*
X125066299Y-101724655D01*
X125097990Y-101702484D01*
X125114958Y-101697889D01*
X125117175Y-101698921D01*
X125140524Y-101712837D01*
X125182912Y-101740030D01*
X125240369Y-101777889D01*
X125308923Y-101823803D01*
X125384601Y-101875160D01*
X125631298Y-102043626D01*
X125742706Y-101993062D01*
X125745943Y-101991597D01*
X125814343Y-101961965D01*
X125886907Y-101932493D01*
X125948457Y-101909358D01*
X125948729Y-101909262D01*
X125997595Y-101891367D01*
X126035212Y-101876253D01*
X126053457Y-101867184D01*
X126053752Y-101866855D01*
X126059946Y-101848282D01*
X126070139Y-101806045D01*
X126083348Y-101744696D01*
X126098590Y-101668789D01*
X126114881Y-101582875D01*
X126115449Y-101579796D01*
X126131713Y-101492128D01*
X126146608Y-101412741D01*
X126159171Y-101346701D01*
X126168438Y-101299079D01*
X126173444Y-101274943D01*
X126173764Y-101273605D01*
X126177060Y-101263273D01*
X126183738Y-101255506D01*
X126197462Y-101249940D01*
X126221895Y-101246207D01*
X126260702Y-101243942D01*
X126317546Y-101242778D01*
X126396090Y-101242348D01*
X126500000Y-101242286D01*
X126513056Y-101242286D01*
X126613933Y-101242371D01*
G37*
%TD*%
M02*
