M48
; DRILL file {KiCad 8.0.5+1} date 2024-10-02T06:07:52-0400
; FORMAT={-:-/ absolute / metric / decimal}
; #@! TF.CreationDate,2024-10-02T06:07:52-04:00
; #@! TF.GenerationSoftware,Kicad,Pcbnew,8.0.5+1
; #@! TF.FileFunction,Plated,1,2,PTH
FMAT,2
METRIC
; #@! TA.AperFunction,Plated,PTH,ViaDrill
T1C0.350
; #@! TA.AperFunction,Plated,PTH,ComponentDrill
T2C0.800
; #@! TA.AperFunction,Plated,PTH,ComponentDrill
T3C1.000
; #@! TA.AperFunction,Plated,PTH,ComponentDrill
T4C1.100
; #@! TA.AperFunction,Plated,PTH,ComponentDrill
T5C1.200
%
G90
G05
T1
X111.5Y-99.8
X119.4Y-99.8
X120.7Y-98.7
X121.7Y-104.1
X129.6Y-109.0
X135.5Y-100.2
T2
X113.5Y-101.9
X113.5Y-105.1
X114.5Y-94.0
X114.5Y-96.5
X116.0Y-101.9
X116.0Y-105.1
X116.5Y-94.0
X116.5Y-96.5
X118.5Y-94.0
X118.5Y-96.5
X118.5Y-101.9
X118.5Y-105.1
X122.5Y-94.0
X122.5Y-96.5
X130.5Y-94.0
X130.5Y-96.5
X132.5Y-94.0
X132.5Y-96.5
X134.5Y-94.0
X134.5Y-96.5
X138.5Y-94.0
X138.5Y-96.5
T4
X103.3Y-107.81
X103.3Y-117.97
X105.84Y-107.81
X105.84Y-117.97
X147.16Y-107.81
X147.16Y-117.97
X149.7Y-107.81
X149.7Y-117.97
T5
X112.4Y-95.25
X124.6Y-95.25
X128.4Y-95.25
X140.6Y-95.25
T3
G00X101.8Y-100.0
M15
G01X101.8Y-102.0
M16
G05
G00X107.75Y-98.0
M15
G01X105.25Y-98.0
M16
G05
G00X107.75Y-104.0
M15
G01X105.25Y-104.0
M16
G05
G00X141.8Y-100.0
M15
G01X141.8Y-102.0
M16
G05
G00X147.75Y-98.0
M15
G01X145.25Y-98.0
M16
G05
G00X147.75Y-104.0
M15
G01X145.25Y-104.0
M16
G05
M30
