%TF.GenerationSoftware,KiCad,Pcbnew,8.0.5-8.0.5-0~ubuntu24.04.1*%
%TF.CreationDate,2024-10-14T08:19:55-04:00*%
%TF.ProjectId,breadboard-power-supply,62726561-6462-46f6-9172-642d706f7765,rev?*%
%TF.SameCoordinates,Original*%
%TF.FileFunction,Legend,Top*%
%TF.FilePolarity,Positive*%
%FSLAX46Y46*%
G04 Gerber Fmt 4.6, Leading zero omitted, Abs format (unit mm)*
G04 Created by KiCad (PCBNEW 8.0.5-8.0.5-0~ubuntu24.04.1) date 2024-10-14 08:19:55*
%MOMM*%
%LPD*%
G01*
G04 APERTURE LIST*
%ADD10C,0.150000*%
%ADD11C,0.120000*%
%ADD12C,0.000000*%
%ADD13C,0.100000*%
%ADD14C,0.250000*%
G04 APERTURE END LIST*
D10*
X146660000Y-116000000D02*
X147660000Y-116000000D01*
X149200000Y-116000000D02*
X150200000Y-116000000D01*
X102800000Y-116000000D02*
X103800000Y-116000000D01*
X147160000Y-116500000D02*
X147160000Y-115500000D01*
X105340000Y-116000000D02*
X106340000Y-116000000D01*
X103300000Y-116500000D02*
X103300000Y-115500000D01*
X152369819Y-94896302D02*
X151369819Y-94896302D01*
X151369819Y-94896302D02*
X151369819Y-94658207D01*
X151369819Y-94658207D02*
X151417438Y-94515350D01*
X151417438Y-94515350D02*
X151512676Y-94420112D01*
X151512676Y-94420112D02*
X151607914Y-94372493D01*
X151607914Y-94372493D02*
X151798390Y-94324874D01*
X151798390Y-94324874D02*
X151941247Y-94324874D01*
X151941247Y-94324874D02*
X152131723Y-94372493D01*
X152131723Y-94372493D02*
X152226961Y-94420112D01*
X152226961Y-94420112D02*
X152322200Y-94515350D01*
X152322200Y-94515350D02*
X152369819Y-94658207D01*
X152369819Y-94658207D02*
X152369819Y-94896302D01*
X152274580Y-93324874D02*
X152322200Y-93372493D01*
X152322200Y-93372493D02*
X152369819Y-93515350D01*
X152369819Y-93515350D02*
X152369819Y-93610588D01*
X152369819Y-93610588D02*
X152322200Y-93753445D01*
X152322200Y-93753445D02*
X152226961Y-93848683D01*
X152226961Y-93848683D02*
X152131723Y-93896302D01*
X152131723Y-93896302D02*
X151941247Y-93943921D01*
X151941247Y-93943921D02*
X151798390Y-93943921D01*
X151798390Y-93943921D02*
X151607914Y-93896302D01*
X151607914Y-93896302D02*
X151512676Y-93848683D01*
X151512676Y-93848683D02*
X151417438Y-93753445D01*
X151417438Y-93753445D02*
X151369819Y-93610588D01*
X151369819Y-93610588D02*
X151369819Y-93515350D01*
X151369819Y-93515350D02*
X151417438Y-93372493D01*
X151417438Y-93372493D02*
X151465057Y-93324874D01*
X152369819Y-92134397D02*
X151369819Y-92134397D01*
X152369819Y-91658207D02*
X151369819Y-91658207D01*
X151369819Y-91658207D02*
X152369819Y-91086779D01*
X152369819Y-91086779D02*
X151369819Y-91086779D01*
X100630180Y-91086779D02*
X101630180Y-91086779D01*
X101630180Y-91086779D02*
X101630180Y-91324874D01*
X101630180Y-91324874D02*
X101582561Y-91467731D01*
X101582561Y-91467731D02*
X101487323Y-91562969D01*
X101487323Y-91562969D02*
X101392085Y-91610588D01*
X101392085Y-91610588D02*
X101201609Y-91658207D01*
X101201609Y-91658207D02*
X101058752Y-91658207D01*
X101058752Y-91658207D02*
X100868276Y-91610588D01*
X100868276Y-91610588D02*
X100773038Y-91562969D01*
X100773038Y-91562969D02*
X100677800Y-91467731D01*
X100677800Y-91467731D02*
X100630180Y-91324874D01*
X100630180Y-91324874D02*
X100630180Y-91086779D01*
X100725419Y-92658207D02*
X100677800Y-92610588D01*
X100677800Y-92610588D02*
X100630180Y-92467731D01*
X100630180Y-92467731D02*
X100630180Y-92372493D01*
X100630180Y-92372493D02*
X100677800Y-92229636D01*
X100677800Y-92229636D02*
X100773038Y-92134398D01*
X100773038Y-92134398D02*
X100868276Y-92086779D01*
X100868276Y-92086779D02*
X101058752Y-92039160D01*
X101058752Y-92039160D02*
X101201609Y-92039160D01*
X101201609Y-92039160D02*
X101392085Y-92086779D01*
X101392085Y-92086779D02*
X101487323Y-92134398D01*
X101487323Y-92134398D02*
X101582561Y-92229636D01*
X101582561Y-92229636D02*
X101630180Y-92372493D01*
X101630180Y-92372493D02*
X101630180Y-92467731D01*
X101630180Y-92467731D02*
X101582561Y-92610588D01*
X101582561Y-92610588D02*
X101534942Y-92658207D01*
X100630180Y-93848684D02*
X101630180Y-93848684D01*
X100630180Y-94324874D02*
X101630180Y-94324874D01*
X101630180Y-94324874D02*
X100630180Y-94896302D01*
X100630180Y-94896302D02*
X101630180Y-94896302D01*
X146620476Y-113954819D02*
X146953809Y-114954819D01*
X146953809Y-114954819D02*
X147287142Y-113954819D01*
X148191904Y-114859580D02*
X148144285Y-114907200D01*
X148144285Y-114907200D02*
X148001428Y-114954819D01*
X148001428Y-114954819D02*
X147906190Y-114954819D01*
X147906190Y-114954819D02*
X147763333Y-114907200D01*
X147763333Y-114907200D02*
X147668095Y-114811961D01*
X147668095Y-114811961D02*
X147620476Y-114716723D01*
X147620476Y-114716723D02*
X147572857Y-114526247D01*
X147572857Y-114526247D02*
X147572857Y-114383390D01*
X147572857Y-114383390D02*
X147620476Y-114192914D01*
X147620476Y-114192914D02*
X147668095Y-114097676D01*
X147668095Y-114097676D02*
X147763333Y-114002438D01*
X147763333Y-114002438D02*
X147906190Y-113954819D01*
X147906190Y-113954819D02*
X148001428Y-113954819D01*
X148001428Y-113954819D02*
X148144285Y-114002438D01*
X148144285Y-114002438D02*
X148191904Y-114050057D01*
X149191904Y-114859580D02*
X149144285Y-114907200D01*
X149144285Y-114907200D02*
X149001428Y-114954819D01*
X149001428Y-114954819D02*
X148906190Y-114954819D01*
X148906190Y-114954819D02*
X148763333Y-114907200D01*
X148763333Y-114907200D02*
X148668095Y-114811961D01*
X148668095Y-114811961D02*
X148620476Y-114716723D01*
X148620476Y-114716723D02*
X148572857Y-114526247D01*
X148572857Y-114526247D02*
X148572857Y-114383390D01*
X148572857Y-114383390D02*
X148620476Y-114192914D01*
X148620476Y-114192914D02*
X148668095Y-114097676D01*
X148668095Y-114097676D02*
X148763333Y-114002438D01*
X148763333Y-114002438D02*
X148906190Y-113954819D01*
X148906190Y-113954819D02*
X149001428Y-113954819D01*
X149001428Y-113954819D02*
X149144285Y-114002438D01*
X149144285Y-114002438D02*
X149191904Y-114050057D01*
X149572857Y-114050057D02*
X149620476Y-114002438D01*
X149620476Y-114002438D02*
X149715714Y-113954819D01*
X149715714Y-113954819D02*
X149953809Y-113954819D01*
X149953809Y-113954819D02*
X150049047Y-114002438D01*
X150049047Y-114002438D02*
X150096666Y-114050057D01*
X150096666Y-114050057D02*
X150144285Y-114145295D01*
X150144285Y-114145295D02*
X150144285Y-114240533D01*
X150144285Y-114240533D02*
X150096666Y-114383390D01*
X150096666Y-114383390D02*
X149525238Y-114954819D01*
X149525238Y-114954819D02*
X150144285Y-114954819D01*
X102760476Y-113954819D02*
X103093809Y-114954819D01*
X103093809Y-114954819D02*
X103427142Y-113954819D01*
X104331904Y-114859580D02*
X104284285Y-114907200D01*
X104284285Y-114907200D02*
X104141428Y-114954819D01*
X104141428Y-114954819D02*
X104046190Y-114954819D01*
X104046190Y-114954819D02*
X103903333Y-114907200D01*
X103903333Y-114907200D02*
X103808095Y-114811961D01*
X103808095Y-114811961D02*
X103760476Y-114716723D01*
X103760476Y-114716723D02*
X103712857Y-114526247D01*
X103712857Y-114526247D02*
X103712857Y-114383390D01*
X103712857Y-114383390D02*
X103760476Y-114192914D01*
X103760476Y-114192914D02*
X103808095Y-114097676D01*
X103808095Y-114097676D02*
X103903333Y-114002438D01*
X103903333Y-114002438D02*
X104046190Y-113954819D01*
X104046190Y-113954819D02*
X104141428Y-113954819D01*
X104141428Y-113954819D02*
X104284285Y-114002438D01*
X104284285Y-114002438D02*
X104331904Y-114050057D01*
X105331904Y-114859580D02*
X105284285Y-114907200D01*
X105284285Y-114907200D02*
X105141428Y-114954819D01*
X105141428Y-114954819D02*
X105046190Y-114954819D01*
X105046190Y-114954819D02*
X104903333Y-114907200D01*
X104903333Y-114907200D02*
X104808095Y-114811961D01*
X104808095Y-114811961D02*
X104760476Y-114716723D01*
X104760476Y-114716723D02*
X104712857Y-114526247D01*
X104712857Y-114526247D02*
X104712857Y-114383390D01*
X104712857Y-114383390D02*
X104760476Y-114192914D01*
X104760476Y-114192914D02*
X104808095Y-114097676D01*
X104808095Y-114097676D02*
X104903333Y-114002438D01*
X104903333Y-114002438D02*
X105046190Y-113954819D01*
X105046190Y-113954819D02*
X105141428Y-113954819D01*
X105141428Y-113954819D02*
X105284285Y-114002438D01*
X105284285Y-114002438D02*
X105331904Y-114050057D01*
X106284285Y-114954819D02*
X105712857Y-114954819D01*
X105998571Y-114954819D02*
X105998571Y-113954819D01*
X105998571Y-113954819D02*
X105903333Y-114097676D01*
X105903333Y-114097676D02*
X105808095Y-114192914D01*
X105808095Y-114192914D02*
X105712857Y-114240533D01*
D11*
X130196428Y-109240724D02*
X130196428Y-108490724D01*
X130196428Y-108490724D02*
X130374999Y-108490724D01*
X130374999Y-108490724D02*
X130482142Y-108526438D01*
X130482142Y-108526438D02*
X130553571Y-108597867D01*
X130553571Y-108597867D02*
X130589285Y-108669295D01*
X130589285Y-108669295D02*
X130624999Y-108812152D01*
X130624999Y-108812152D02*
X130624999Y-108919295D01*
X130624999Y-108919295D02*
X130589285Y-109062152D01*
X130589285Y-109062152D02*
X130553571Y-109133581D01*
X130553571Y-109133581D02*
X130482142Y-109205010D01*
X130482142Y-109205010D02*
X130374999Y-109240724D01*
X130374999Y-109240724D02*
X130196428Y-109240724D01*
X130910714Y-108562152D02*
X130946428Y-108526438D01*
X130946428Y-108526438D02*
X131017857Y-108490724D01*
X131017857Y-108490724D02*
X131196428Y-108490724D01*
X131196428Y-108490724D02*
X131267857Y-108526438D01*
X131267857Y-108526438D02*
X131303571Y-108562152D01*
X131303571Y-108562152D02*
X131339285Y-108633581D01*
X131339285Y-108633581D02*
X131339285Y-108705010D01*
X131339285Y-108705010D02*
X131303571Y-108812152D01*
X131303571Y-108812152D02*
X130874999Y-109240724D01*
X130874999Y-109240724D02*
X131339285Y-109240724D01*
X111505010Y-106299999D02*
X111540724Y-106192857D01*
X111540724Y-106192857D02*
X111540724Y-106014285D01*
X111540724Y-106014285D02*
X111505010Y-105942857D01*
X111505010Y-105942857D02*
X111469295Y-105907142D01*
X111469295Y-105907142D02*
X111397867Y-105871428D01*
X111397867Y-105871428D02*
X111326438Y-105871428D01*
X111326438Y-105871428D02*
X111255010Y-105907142D01*
X111255010Y-105907142D02*
X111219295Y-105942857D01*
X111219295Y-105942857D02*
X111183581Y-106014285D01*
X111183581Y-106014285D02*
X111147867Y-106157142D01*
X111147867Y-106157142D02*
X111112152Y-106228571D01*
X111112152Y-106228571D02*
X111076438Y-106264285D01*
X111076438Y-106264285D02*
X111005010Y-106299999D01*
X111005010Y-106299999D02*
X110933581Y-106299999D01*
X110933581Y-106299999D02*
X110862152Y-106264285D01*
X110862152Y-106264285D02*
X110826438Y-106228571D01*
X110826438Y-106228571D02*
X110790724Y-106157142D01*
X110790724Y-106157142D02*
X110790724Y-105978571D01*
X110790724Y-105978571D02*
X110826438Y-105871428D01*
X110790724Y-105621428D02*
X111540724Y-105442856D01*
X111540724Y-105442856D02*
X111005010Y-105299999D01*
X111005010Y-105299999D02*
X111540724Y-105157142D01*
X111540724Y-105157142D02*
X110790724Y-104978571D01*
X111540724Y-104299999D02*
X111540724Y-104728570D01*
X111540724Y-104514285D02*
X110790724Y-104514285D01*
X110790724Y-104514285D02*
X110897867Y-104585713D01*
X110897867Y-104585713D02*
X110969295Y-104657142D01*
X110969295Y-104657142D02*
X111005010Y-104728570D01*
X121574999Y-106519295D02*
X121539285Y-106555010D01*
X121539285Y-106555010D02*
X121432142Y-106590724D01*
X121432142Y-106590724D02*
X121360714Y-106590724D01*
X121360714Y-106590724D02*
X121253571Y-106555010D01*
X121253571Y-106555010D02*
X121182142Y-106483581D01*
X121182142Y-106483581D02*
X121146428Y-106412152D01*
X121146428Y-106412152D02*
X121110714Y-106269295D01*
X121110714Y-106269295D02*
X121110714Y-106162152D01*
X121110714Y-106162152D02*
X121146428Y-106019295D01*
X121146428Y-106019295D02*
X121182142Y-105947867D01*
X121182142Y-105947867D02*
X121253571Y-105876438D01*
X121253571Y-105876438D02*
X121360714Y-105840724D01*
X121360714Y-105840724D02*
X121432142Y-105840724D01*
X121432142Y-105840724D02*
X121539285Y-105876438D01*
X121539285Y-105876438D02*
X121574999Y-105912152D01*
X122289285Y-106590724D02*
X121860714Y-106590724D01*
X122074999Y-106590724D02*
X122074999Y-105840724D01*
X122074999Y-105840724D02*
X122003571Y-105947867D01*
X122003571Y-105947867D02*
X121932142Y-106019295D01*
X121932142Y-106019295D02*
X121860714Y-106055010D01*
X120840724Y-113353571D02*
X120090724Y-113353571D01*
X120090724Y-113353571D02*
X120090724Y-113175000D01*
X120090724Y-113175000D02*
X120126438Y-113067857D01*
X120126438Y-113067857D02*
X120197867Y-112996428D01*
X120197867Y-112996428D02*
X120269295Y-112960714D01*
X120269295Y-112960714D02*
X120412152Y-112925000D01*
X120412152Y-112925000D02*
X120519295Y-112925000D01*
X120519295Y-112925000D02*
X120662152Y-112960714D01*
X120662152Y-112960714D02*
X120733581Y-112996428D01*
X120733581Y-112996428D02*
X120805010Y-113067857D01*
X120805010Y-113067857D02*
X120840724Y-113175000D01*
X120840724Y-113175000D02*
X120840724Y-113353571D01*
X120840724Y-112210714D02*
X120840724Y-112639285D01*
X120840724Y-112425000D02*
X120090724Y-112425000D01*
X120090724Y-112425000D02*
X120197867Y-112496428D01*
X120197867Y-112496428D02*
X120269295Y-112567857D01*
X120269295Y-112567857D02*
X120305010Y-112639285D01*
X128171804Y-101505010D02*
X128278947Y-101540724D01*
X128278947Y-101540724D02*
X128457518Y-101540724D01*
X128457518Y-101540724D02*
X128528947Y-101505010D01*
X128528947Y-101505010D02*
X128564661Y-101469295D01*
X128564661Y-101469295D02*
X128600375Y-101397867D01*
X128600375Y-101397867D02*
X128600375Y-101326438D01*
X128600375Y-101326438D02*
X128564661Y-101255010D01*
X128564661Y-101255010D02*
X128528947Y-101219295D01*
X128528947Y-101219295D02*
X128457518Y-101183581D01*
X128457518Y-101183581D02*
X128314661Y-101147867D01*
X128314661Y-101147867D02*
X128243232Y-101112152D01*
X128243232Y-101112152D02*
X128207518Y-101076438D01*
X128207518Y-101076438D02*
X128171804Y-101005010D01*
X128171804Y-101005010D02*
X128171804Y-100933581D01*
X128171804Y-100933581D02*
X128207518Y-100862152D01*
X128207518Y-100862152D02*
X128243232Y-100826438D01*
X128243232Y-100826438D02*
X128314661Y-100790724D01*
X128314661Y-100790724D02*
X128493232Y-100790724D01*
X128493232Y-100790724D02*
X128600375Y-100826438D01*
X128850375Y-100790724D02*
X129028947Y-101540724D01*
X129028947Y-101540724D02*
X129171804Y-101005010D01*
X129171804Y-101005010D02*
X129314661Y-101540724D01*
X129314661Y-101540724D02*
X129493233Y-100790724D01*
X129707518Y-100790724D02*
X130171804Y-100790724D01*
X130171804Y-100790724D02*
X129921804Y-101076438D01*
X129921804Y-101076438D02*
X130028947Y-101076438D01*
X130028947Y-101076438D02*
X130100376Y-101112152D01*
X130100376Y-101112152D02*
X130136090Y-101147867D01*
X130136090Y-101147867D02*
X130171804Y-101219295D01*
X130171804Y-101219295D02*
X130171804Y-101397867D01*
X130171804Y-101397867D02*
X130136090Y-101469295D01*
X130136090Y-101469295D02*
X130100376Y-101505010D01*
X130100376Y-101505010D02*
X130028947Y-101540724D01*
X130028947Y-101540724D02*
X129814661Y-101540724D01*
X129814661Y-101540724D02*
X129743233Y-101505010D01*
X129743233Y-101505010D02*
X129707518Y-101469295D01*
X112140724Y-101725000D02*
X111783581Y-101975000D01*
X112140724Y-102153571D02*
X111390724Y-102153571D01*
X111390724Y-102153571D02*
X111390724Y-101867857D01*
X111390724Y-101867857D02*
X111426438Y-101796428D01*
X111426438Y-101796428D02*
X111462152Y-101760714D01*
X111462152Y-101760714D02*
X111533581Y-101725000D01*
X111533581Y-101725000D02*
X111640724Y-101725000D01*
X111640724Y-101725000D02*
X111712152Y-101760714D01*
X111712152Y-101760714D02*
X111747867Y-101796428D01*
X111747867Y-101796428D02*
X111783581Y-101867857D01*
X111783581Y-101867857D02*
X111783581Y-102153571D01*
X111462152Y-101439285D02*
X111426438Y-101403571D01*
X111426438Y-101403571D02*
X111390724Y-101332143D01*
X111390724Y-101332143D02*
X111390724Y-101153571D01*
X111390724Y-101153571D02*
X111426438Y-101082143D01*
X111426438Y-101082143D02*
X111462152Y-101046428D01*
X111462152Y-101046428D02*
X111533581Y-101010714D01*
X111533581Y-101010714D02*
X111605010Y-101010714D01*
X111605010Y-101010714D02*
X111712152Y-101046428D01*
X111712152Y-101046428D02*
X112140724Y-101475000D01*
X112140724Y-101475000D02*
X112140724Y-101010714D01*
X137269295Y-104175000D02*
X137305010Y-104210714D01*
X137305010Y-104210714D02*
X137340724Y-104317857D01*
X137340724Y-104317857D02*
X137340724Y-104389285D01*
X137340724Y-104389285D02*
X137305010Y-104496428D01*
X137305010Y-104496428D02*
X137233581Y-104567857D01*
X137233581Y-104567857D02*
X137162152Y-104603571D01*
X137162152Y-104603571D02*
X137019295Y-104639285D01*
X137019295Y-104639285D02*
X136912152Y-104639285D01*
X136912152Y-104639285D02*
X136769295Y-104603571D01*
X136769295Y-104603571D02*
X136697867Y-104567857D01*
X136697867Y-104567857D02*
X136626438Y-104496428D01*
X136626438Y-104496428D02*
X136590724Y-104389285D01*
X136590724Y-104389285D02*
X136590724Y-104317857D01*
X136590724Y-104317857D02*
X136626438Y-104210714D01*
X136626438Y-104210714D02*
X136662152Y-104175000D01*
X136590724Y-103925000D02*
X136590724Y-103460714D01*
X136590724Y-103460714D02*
X136876438Y-103710714D01*
X136876438Y-103710714D02*
X136876438Y-103603571D01*
X136876438Y-103603571D02*
X136912152Y-103532143D01*
X136912152Y-103532143D02*
X136947867Y-103496428D01*
X136947867Y-103496428D02*
X137019295Y-103460714D01*
X137019295Y-103460714D02*
X137197867Y-103460714D01*
X137197867Y-103460714D02*
X137269295Y-103496428D01*
X137269295Y-103496428D02*
X137305010Y-103532143D01*
X137305010Y-103532143D02*
X137340724Y-103603571D01*
X137340724Y-103603571D02*
X137340724Y-103817857D01*
X137340724Y-103817857D02*
X137305010Y-103889285D01*
X137305010Y-103889285D02*
X137269295Y-103925000D01*
X137340724Y-107575000D02*
X136983581Y-107825000D01*
X137340724Y-108003571D02*
X136590724Y-108003571D01*
X136590724Y-108003571D02*
X136590724Y-107717857D01*
X136590724Y-107717857D02*
X136626438Y-107646428D01*
X136626438Y-107646428D02*
X136662152Y-107610714D01*
X136662152Y-107610714D02*
X136733581Y-107575000D01*
X136733581Y-107575000D02*
X136840724Y-107575000D01*
X136840724Y-107575000D02*
X136912152Y-107610714D01*
X136912152Y-107610714D02*
X136947867Y-107646428D01*
X136947867Y-107646428D02*
X136983581Y-107717857D01*
X136983581Y-107717857D02*
X136983581Y-108003571D01*
X137340724Y-106860714D02*
X137340724Y-107289285D01*
X137340724Y-107075000D02*
X136590724Y-107075000D01*
X136590724Y-107075000D02*
X136697867Y-107146428D01*
X136697867Y-107146428D02*
X136769295Y-107217857D01*
X136769295Y-107217857D02*
X136805010Y-107289285D01*
X106250000Y-105590724D02*
X106250000Y-106126438D01*
X106250000Y-106126438D02*
X106214285Y-106233581D01*
X106214285Y-106233581D02*
X106142857Y-106305010D01*
X106142857Y-106305010D02*
X106035714Y-106340724D01*
X106035714Y-106340724D02*
X105964285Y-106340724D01*
X107000000Y-106340724D02*
X106571429Y-106340724D01*
X106785714Y-106340724D02*
X106785714Y-105590724D01*
X106785714Y-105590724D02*
X106714286Y-105697867D01*
X106714286Y-105697867D02*
X106642857Y-105769295D01*
X106642857Y-105769295D02*
X106571429Y-105805010D01*
X122828195Y-101505010D02*
X122935338Y-101540724D01*
X122935338Y-101540724D02*
X123113909Y-101540724D01*
X123113909Y-101540724D02*
X123185338Y-101505010D01*
X123185338Y-101505010D02*
X123221052Y-101469295D01*
X123221052Y-101469295D02*
X123256766Y-101397867D01*
X123256766Y-101397867D02*
X123256766Y-101326438D01*
X123256766Y-101326438D02*
X123221052Y-101255010D01*
X123221052Y-101255010D02*
X123185338Y-101219295D01*
X123185338Y-101219295D02*
X123113909Y-101183581D01*
X123113909Y-101183581D02*
X122971052Y-101147867D01*
X122971052Y-101147867D02*
X122899623Y-101112152D01*
X122899623Y-101112152D02*
X122863909Y-101076438D01*
X122863909Y-101076438D02*
X122828195Y-101005010D01*
X122828195Y-101005010D02*
X122828195Y-100933581D01*
X122828195Y-100933581D02*
X122863909Y-100862152D01*
X122863909Y-100862152D02*
X122899623Y-100826438D01*
X122899623Y-100826438D02*
X122971052Y-100790724D01*
X122971052Y-100790724D02*
X123149623Y-100790724D01*
X123149623Y-100790724D02*
X123256766Y-100826438D01*
X123506766Y-100790724D02*
X123685338Y-101540724D01*
X123685338Y-101540724D02*
X123828195Y-101005010D01*
X123828195Y-101005010D02*
X123971052Y-101540724D01*
X123971052Y-101540724D02*
X124149624Y-100790724D01*
X124399624Y-100862152D02*
X124435338Y-100826438D01*
X124435338Y-100826438D02*
X124506767Y-100790724D01*
X124506767Y-100790724D02*
X124685338Y-100790724D01*
X124685338Y-100790724D02*
X124756767Y-100826438D01*
X124756767Y-100826438D02*
X124792481Y-100862152D01*
X124792481Y-100862152D02*
X124828195Y-100933581D01*
X124828195Y-100933581D02*
X124828195Y-101005010D01*
X124828195Y-101005010D02*
X124792481Y-101112152D01*
X124792481Y-101112152D02*
X124363909Y-101540724D01*
X124363909Y-101540724D02*
X124828195Y-101540724D01*
X123178571Y-107990724D02*
X123178571Y-108597867D01*
X123178571Y-108597867D02*
X123214285Y-108669295D01*
X123214285Y-108669295D02*
X123250000Y-108705010D01*
X123250000Y-108705010D02*
X123321428Y-108740724D01*
X123321428Y-108740724D02*
X123464285Y-108740724D01*
X123464285Y-108740724D02*
X123535714Y-108705010D01*
X123535714Y-108705010D02*
X123571428Y-108669295D01*
X123571428Y-108669295D02*
X123607142Y-108597867D01*
X123607142Y-108597867D02*
X123607142Y-107990724D01*
X124357142Y-108740724D02*
X123928571Y-108740724D01*
X124142856Y-108740724D02*
X124142856Y-107990724D01*
X124142856Y-107990724D02*
X124071428Y-108097867D01*
X124071428Y-108097867D02*
X123999999Y-108169295D01*
X123999999Y-108169295D02*
X123928571Y-108205010D01*
X120200724Y-101725000D02*
X119843581Y-101975000D01*
X120200724Y-102153571D02*
X119450724Y-102153571D01*
X119450724Y-102153571D02*
X119450724Y-101867857D01*
X119450724Y-101867857D02*
X119486438Y-101796428D01*
X119486438Y-101796428D02*
X119522152Y-101760714D01*
X119522152Y-101760714D02*
X119593581Y-101725000D01*
X119593581Y-101725000D02*
X119700724Y-101725000D01*
X119700724Y-101725000D02*
X119772152Y-101760714D01*
X119772152Y-101760714D02*
X119807867Y-101796428D01*
X119807867Y-101796428D02*
X119843581Y-101867857D01*
X119843581Y-101867857D02*
X119843581Y-102153571D01*
X119450724Y-101475000D02*
X119450724Y-101010714D01*
X119450724Y-101010714D02*
X119736438Y-101260714D01*
X119736438Y-101260714D02*
X119736438Y-101153571D01*
X119736438Y-101153571D02*
X119772152Y-101082143D01*
X119772152Y-101082143D02*
X119807867Y-101046428D01*
X119807867Y-101046428D02*
X119879295Y-101010714D01*
X119879295Y-101010714D02*
X120057867Y-101010714D01*
X120057867Y-101010714D02*
X120129295Y-101046428D01*
X120129295Y-101046428D02*
X120165010Y-101082143D01*
X120165010Y-101082143D02*
X120200724Y-101153571D01*
X120200724Y-101153571D02*
X120200724Y-101367857D01*
X120200724Y-101367857D02*
X120165010Y-101439285D01*
X120165010Y-101439285D02*
X120129295Y-101475000D01*
X146250000Y-105590724D02*
X146250000Y-106126438D01*
X146250000Y-106126438D02*
X146214285Y-106233581D01*
X146214285Y-106233581D02*
X146142857Y-106305010D01*
X146142857Y-106305010D02*
X146035714Y-106340724D01*
X146035714Y-106340724D02*
X145964285Y-106340724D01*
X146571429Y-105662152D02*
X146607143Y-105626438D01*
X146607143Y-105626438D02*
X146678572Y-105590724D01*
X146678572Y-105590724D02*
X146857143Y-105590724D01*
X146857143Y-105590724D02*
X146928572Y-105626438D01*
X146928572Y-105626438D02*
X146964286Y-105662152D01*
X146964286Y-105662152D02*
X147000000Y-105733581D01*
X147000000Y-105733581D02*
X147000000Y-105805010D01*
X147000000Y-105805010D02*
X146964286Y-105912152D01*
X146964286Y-105912152D02*
X146535714Y-106340724D01*
X146535714Y-106340724D02*
X147000000Y-106340724D01*
X134269295Y-110925000D02*
X134305010Y-110960714D01*
X134305010Y-110960714D02*
X134340724Y-111067857D01*
X134340724Y-111067857D02*
X134340724Y-111139285D01*
X134340724Y-111139285D02*
X134305010Y-111246428D01*
X134305010Y-111246428D02*
X134233581Y-111317857D01*
X134233581Y-111317857D02*
X134162152Y-111353571D01*
X134162152Y-111353571D02*
X134019295Y-111389285D01*
X134019295Y-111389285D02*
X133912152Y-111389285D01*
X133912152Y-111389285D02*
X133769295Y-111353571D01*
X133769295Y-111353571D02*
X133697867Y-111317857D01*
X133697867Y-111317857D02*
X133626438Y-111246428D01*
X133626438Y-111246428D02*
X133590724Y-111139285D01*
X133590724Y-111139285D02*
X133590724Y-111067857D01*
X133590724Y-111067857D02*
X133626438Y-110960714D01*
X133626438Y-110960714D02*
X133662152Y-110925000D01*
X133662152Y-110639285D02*
X133626438Y-110603571D01*
X133626438Y-110603571D02*
X133590724Y-110532143D01*
X133590724Y-110532143D02*
X133590724Y-110353571D01*
X133590724Y-110353571D02*
X133626438Y-110282143D01*
X133626438Y-110282143D02*
X133662152Y-110246428D01*
X133662152Y-110246428D02*
X133733581Y-110210714D01*
X133733581Y-110210714D02*
X133805010Y-110210714D01*
X133805010Y-110210714D02*
X133912152Y-110246428D01*
X133912152Y-110246428D02*
X134340724Y-110675000D01*
X134340724Y-110675000D02*
X134340724Y-110210714D01*
X120840724Y-117353571D02*
X120090724Y-117353571D01*
X120090724Y-117353571D02*
X120090724Y-117175000D01*
X120090724Y-117175000D02*
X120126438Y-117067857D01*
X120126438Y-117067857D02*
X120197867Y-116996428D01*
X120197867Y-116996428D02*
X120269295Y-116960714D01*
X120269295Y-116960714D02*
X120412152Y-116925000D01*
X120412152Y-116925000D02*
X120519295Y-116925000D01*
X120519295Y-116925000D02*
X120662152Y-116960714D01*
X120662152Y-116960714D02*
X120733581Y-116996428D01*
X120733581Y-116996428D02*
X120805010Y-117067857D01*
X120805010Y-117067857D02*
X120840724Y-117175000D01*
X120840724Y-117175000D02*
X120840724Y-117353571D01*
X120090724Y-116675000D02*
X120090724Y-116210714D01*
X120090724Y-116210714D02*
X120376438Y-116460714D01*
X120376438Y-116460714D02*
X120376438Y-116353571D01*
X120376438Y-116353571D02*
X120412152Y-116282143D01*
X120412152Y-116282143D02*
X120447867Y-116246428D01*
X120447867Y-116246428D02*
X120519295Y-116210714D01*
X120519295Y-116210714D02*
X120697867Y-116210714D01*
X120697867Y-116210714D02*
X120769295Y-116246428D01*
X120769295Y-116246428D02*
X120805010Y-116282143D01*
X120805010Y-116282143D02*
X120840724Y-116353571D01*
X120840724Y-116353571D02*
X120840724Y-116567857D01*
X120840724Y-116567857D02*
X120805010Y-116639285D01*
X120805010Y-116639285D02*
X120769295Y-116675000D01*
D12*
%TO.C,kibuzzard-66FD9CBB*%
G36*
X128923973Y-90578767D02*
G01*
X129211644Y-90578767D01*
X130456849Y-90578767D01*
X131056849Y-90578767D01*
X131484932Y-90578767D01*
X132037671Y-90578767D01*
X131484932Y-92421233D01*
X131056849Y-92421233D01*
X128143151Y-92421233D01*
X127715068Y-92421233D01*
X127162329Y-92421233D01*
X127213699Y-92250000D01*
X128143151Y-92250000D01*
X128358904Y-92250000D01*
X128358904Y-91160959D01*
X128365068Y-91160959D01*
X128685616Y-92250000D01*
X128923973Y-92250000D01*
X128923973Y-90928767D01*
X129211644Y-90928767D01*
X129441781Y-90928767D01*
X129441781Y-92071233D01*
X129211644Y-92071233D01*
X129211644Y-92250000D01*
X129910274Y-92250000D01*
X130121918Y-92250000D01*
X130350000Y-92250000D01*
X130584247Y-90955479D01*
X130586301Y-90955479D01*
X130820548Y-92250000D01*
X131056849Y-92250000D01*
X130723973Y-90750000D01*
X130456849Y-90750000D01*
X130121918Y-92250000D01*
X129910274Y-92250000D01*
X129910274Y-92071233D01*
X129680137Y-92071233D01*
X129680137Y-90928767D01*
X129910274Y-90928767D01*
X129910274Y-90750000D01*
X129211644Y-90750000D01*
X129211644Y-90928767D01*
X128923973Y-90928767D01*
X128923973Y-90750000D01*
X128697945Y-90750000D01*
X128697945Y-91839041D01*
X128693836Y-91839041D01*
X128373288Y-90750000D01*
X128143151Y-90750000D01*
X128143151Y-92250000D01*
X127213699Y-92250000D01*
X127715068Y-90578767D01*
X128143151Y-90578767D01*
X128923973Y-90578767D01*
G37*
%TO.C,kibuzzard-66FD9C35*%
G36*
X118210274Y-90568493D02*
G01*
X119430822Y-90568493D01*
X119724658Y-90568493D01*
X120152740Y-90568493D01*
X120711644Y-90568493D01*
X120152740Y-92431507D01*
X119724658Y-92431507D01*
X117875342Y-92431507D01*
X117447260Y-92431507D01*
X116888356Y-92431507D01*
X116939726Y-92260274D01*
X117875342Y-92260274D01*
X118103425Y-92260274D01*
X118337671Y-90965753D01*
X118339726Y-90965753D01*
X118573973Y-92260274D01*
X118810274Y-92260274D01*
X118583188Y-91236986D01*
X118984932Y-91236986D01*
X118998082Y-91410822D01*
X119037534Y-91546027D01*
X119103288Y-91642603D01*
X119195342Y-91700548D01*
X119313699Y-91719863D01*
X119411301Y-91707021D01*
X119494521Y-91668493D01*
X119498630Y-91668493D01*
X119484247Y-92083562D01*
X119026027Y-92083562D01*
X119026027Y-92260274D01*
X119693836Y-92260274D01*
X119714384Y-91463014D01*
X119525342Y-91463014D01*
X119453938Y-91524658D01*
X119375342Y-91545205D01*
X119254110Y-91474315D01*
X119224829Y-91379538D01*
X119215068Y-91236986D01*
X119228938Y-91086729D01*
X119270548Y-90989384D01*
X119342466Y-90936216D01*
X119447260Y-90918493D01*
X119584418Y-90938014D01*
X119724658Y-90996575D01*
X119724658Y-90801370D01*
X119583390Y-90755137D01*
X119430822Y-90739726D01*
X119289954Y-90752511D01*
X119176941Y-90790868D01*
X119091781Y-90854795D01*
X119032420Y-90948402D01*
X118996804Y-91075799D01*
X118984932Y-91236986D01*
X118583188Y-91236986D01*
X118477397Y-90760274D01*
X118210274Y-90760274D01*
X117875342Y-92260274D01*
X116939726Y-92260274D01*
X117447260Y-90568493D01*
X117875342Y-90568493D01*
X118210274Y-90568493D01*
G37*
%TO.C,kibuzzard-66FD9CB0*%
G36*
X133024658Y-90558219D02*
G01*
X134052055Y-90558219D01*
X135046575Y-90558219D01*
X135646575Y-90558219D01*
X136074658Y-90558219D01*
X136639726Y-90558219D01*
X136074658Y-92441781D01*
X135646575Y-92441781D01*
X132753425Y-92441781D01*
X132325342Y-92441781D01*
X131760274Y-92441781D01*
X131964520Y-91760959D01*
X132753425Y-91760959D01*
X132753425Y-92225342D01*
X132884418Y-92259247D01*
X133030822Y-92270548D01*
X133151220Y-92258829D01*
X133255565Y-92223673D01*
X133343857Y-92165079D01*
X133416096Y-92083048D01*
X133472282Y-91977579D01*
X133512414Y-91848673D01*
X133526278Y-91760959D01*
X133780822Y-91760959D01*
X133780822Y-92225342D01*
X133911815Y-92259247D01*
X134058219Y-92270548D01*
X134178617Y-92258829D01*
X134204822Y-92250000D01*
X134711644Y-92250000D01*
X134939726Y-92250000D01*
X135173973Y-90955479D01*
X135176027Y-90955479D01*
X135410274Y-92250000D01*
X135646575Y-92250000D01*
X135313699Y-90750000D01*
X135046575Y-90750000D01*
X134711644Y-92250000D01*
X134204822Y-92250000D01*
X134282962Y-92223673D01*
X134371254Y-92165079D01*
X134443493Y-92083048D01*
X134499679Y-91977579D01*
X134539812Y-91848673D01*
X134563891Y-91696329D01*
X134571918Y-91520548D01*
X134563795Y-91335135D01*
X134539426Y-91174443D01*
X134498812Y-91038474D01*
X134441952Y-90927226D01*
X134368846Y-90840700D01*
X134279495Y-90778896D01*
X134173898Y-90741813D01*
X134052055Y-90729452D01*
X133914897Y-90742295D01*
X133791096Y-90780822D01*
X133791096Y-90969863D01*
X133908219Y-90922089D01*
X134017123Y-90906164D01*
X134117580Y-90923231D01*
X134199772Y-90974429D01*
X134263699Y-91059760D01*
X134309361Y-91179224D01*
X134336758Y-91332820D01*
X134345890Y-91520548D01*
X134337614Y-91694463D01*
X134312785Y-91836758D01*
X134271404Y-91947432D01*
X134213470Y-92026484D01*
X134138984Y-92073916D01*
X134047945Y-92089726D01*
X134000685Y-92081507D01*
X134000685Y-91760959D01*
X133780822Y-91760959D01*
X133526278Y-91760959D01*
X133536494Y-91696329D01*
X133544521Y-91520548D01*
X133536398Y-91335135D01*
X133512029Y-91174443D01*
X133471415Y-91038474D01*
X133414555Y-90927226D01*
X133341449Y-90840700D01*
X133252098Y-90778896D01*
X133146500Y-90741813D01*
X133024658Y-90729452D01*
X132887500Y-90742295D01*
X132763699Y-90780822D01*
X132763699Y-90969863D01*
X132880822Y-90922089D01*
X132989726Y-90906164D01*
X133090183Y-90923231D01*
X133172374Y-90974429D01*
X133236301Y-91059760D01*
X133281963Y-91179224D01*
X133309361Y-91332820D01*
X133318493Y-91520548D01*
X133310217Y-91694463D01*
X133285388Y-91836758D01*
X133244007Y-91947432D01*
X133186073Y-92026484D01*
X133111587Y-92073916D01*
X133020548Y-92089726D01*
X132973288Y-92081507D01*
X132973288Y-91760959D01*
X132753425Y-91760959D01*
X131964520Y-91760959D01*
X132325342Y-90558219D01*
X132753425Y-90558219D01*
X133024658Y-90558219D01*
G37*
%TO.C,kibuzzard-66FD9CA2*%
G36*
X139889555Y-90939812D02*
G01*
X139961986Y-91034589D01*
X139992808Y-91142466D01*
X140011301Y-91297603D01*
X140017466Y-91500000D01*
X140011301Y-91702397D01*
X139992808Y-91857534D01*
X139961986Y-91965411D01*
X139889555Y-92060188D01*
X139783219Y-92091781D01*
X139676884Y-92060188D01*
X139604452Y-91965411D01*
X139573630Y-91857534D01*
X139555137Y-91702397D01*
X139548973Y-91500000D01*
X139555137Y-91297603D01*
X139573630Y-91142466D01*
X139604452Y-91034589D01*
X139676884Y-90939812D01*
X139783219Y-90908219D01*
X139889555Y-90939812D01*
G37*
G36*
X137833219Y-90558219D02*
G01*
X138860616Y-90558219D01*
X139783219Y-90558219D01*
X140235274Y-90558219D01*
X140663356Y-90558219D01*
X141228425Y-90558219D01*
X140663356Y-92441781D01*
X140235274Y-92441781D01*
X137364726Y-92441781D01*
X136936644Y-92441781D01*
X136371575Y-92441781D01*
X136482739Y-92071233D01*
X137364726Y-92071233D01*
X137364726Y-92250000D01*
X138063356Y-92250000D01*
X138063356Y-92071233D01*
X138392123Y-92071233D01*
X138392123Y-92250000D01*
X139090753Y-92250000D01*
X139090753Y-91500000D01*
X139331164Y-91500000D01*
X139336758Y-91679909D01*
X139353539Y-91833333D01*
X139381507Y-91960274D01*
X139443408Y-92105651D01*
X139528425Y-92200685D01*
X139640411Y-92253082D01*
X139783219Y-92270548D01*
X139926027Y-92253082D01*
X140038014Y-92200685D01*
X140123031Y-92105651D01*
X140184932Y-91960274D01*
X140212900Y-91833333D01*
X140229680Y-91679909D01*
X140235274Y-91500000D01*
X140229680Y-91320091D01*
X140212900Y-91166667D01*
X140184932Y-91039726D01*
X140123031Y-90894349D01*
X140038014Y-90799315D01*
X139926027Y-90746918D01*
X139783219Y-90729452D01*
X139640411Y-90746918D01*
X139528425Y-90799315D01*
X139443408Y-90894349D01*
X139381507Y-91039726D01*
X139353539Y-91166667D01*
X139336758Y-91320091D01*
X139331164Y-91500000D01*
X139090753Y-91500000D01*
X139090753Y-90750000D01*
X138860616Y-90750000D01*
X138860616Y-91469178D01*
X138412671Y-91469178D01*
X138412671Y-91643836D01*
X138860616Y-91643836D01*
X138860616Y-92071233D01*
X138392123Y-92071233D01*
X138063356Y-92071233D01*
X138063356Y-90750000D01*
X137833219Y-90750000D01*
X137833219Y-91469178D01*
X137385274Y-91469178D01*
X137385274Y-91643836D01*
X137833219Y-91643836D01*
X137833219Y-92071233D01*
X137364726Y-92071233D01*
X136482739Y-92071233D01*
X136936644Y-90558219D01*
X137364726Y-90558219D01*
X137833219Y-90558219D01*
G37*
D13*
%TO.C,D2*%
X130980000Y-103440000D02*
X131390000Y-103440000D01*
X130980000Y-108160000D02*
X130980000Y-103440000D01*
X131390000Y-108160000D02*
X130980000Y-108160000D01*
D11*
X134020000Y-103440000D02*
X133610000Y-103440000D01*
X134020000Y-103440000D02*
X134020000Y-108160000D01*
X134020000Y-108160000D02*
X133610000Y-108160000D01*
D14*
X132625000Y-101600000D02*
G75*
G02*
X132375000Y-101600000I-125000J0D01*
G01*
X132375000Y-101600000D02*
G75*
G02*
X132625000Y-101600000I125000J0D01*
G01*
D11*
%TO.C,C1*%
X120787000Y-102162000D02*
X122613000Y-102162000D01*
X120787000Y-103221000D02*
X120787000Y-102162000D01*
X120787000Y-104279000D02*
X120787000Y-105338000D01*
X120787000Y-105338000D02*
X122613000Y-105338000D01*
X122613000Y-102162000D02*
X122613000Y-103221000D01*
X122613000Y-105338000D02*
X122613000Y-104279000D01*
D13*
%TO.C,D1*%
X122140000Y-111280000D02*
X126860000Y-111280000D01*
X122140000Y-111690000D02*
X122140000Y-111280000D01*
D11*
X122140000Y-114320000D02*
X122140000Y-113910000D01*
D13*
X126860000Y-111280000D02*
X126860000Y-111690000D01*
D11*
X126860000Y-114320000D02*
X122140000Y-114320000D01*
X126860000Y-114320000D02*
X126860000Y-113910000D01*
D14*
X128825000Y-112800000D02*
G75*
G02*
X128575000Y-112800000I-125000J0D01*
G01*
X128575000Y-112800000D02*
G75*
G02*
X128825000Y-112800000I125000J0D01*
G01*
D11*
%TO.C,R2*%
X114185000Y-100840000D02*
X113555000Y-100840000D01*
X114185000Y-102360000D02*
X113555000Y-102360000D01*
D12*
%TO.C,kibuzzard-66FD9C43*%
G36*
X113739384Y-90558219D02*
G01*
X114567466Y-90558219D01*
X115794178Y-90558219D01*
X116122945Y-90558219D01*
X116551027Y-90558219D01*
X117116096Y-90558219D01*
X116551027Y-92441781D01*
X116122945Y-92441781D01*
X113277055Y-92441781D01*
X112848973Y-92441781D01*
X112283904Y-92441781D01*
X112661986Y-91181507D01*
X113277055Y-91181507D01*
X113293750Y-91325856D01*
X113343836Y-91436301D01*
X113427312Y-91512842D01*
X113544178Y-91555479D01*
X113544178Y-91557534D01*
X113436301Y-91609803D01*
X113359247Y-91688527D01*
X113313014Y-91793707D01*
X113297603Y-91925342D01*
X113323288Y-92069949D01*
X113400342Y-92179110D01*
X113525171Y-92247688D01*
X113694178Y-92270548D01*
X113805594Y-92262557D01*
X113865866Y-92250000D01*
X114232534Y-92250000D01*
X114460616Y-92250000D01*
X114694863Y-90955479D01*
X114696918Y-90955479D01*
X114931164Y-92250000D01*
X115167466Y-92250000D01*
X114930348Y-91181507D01*
X115331849Y-91181507D01*
X115348545Y-91325856D01*
X115398630Y-91436301D01*
X115482106Y-91512842D01*
X115598973Y-91555479D01*
X115598973Y-91557534D01*
X115491096Y-91609803D01*
X115414041Y-91688527D01*
X115367808Y-91793707D01*
X115352397Y-91925342D01*
X115378082Y-92069949D01*
X115455137Y-92179110D01*
X115579966Y-92247688D01*
X115748973Y-92270548D01*
X115860388Y-92262557D01*
X115975457Y-92238584D01*
X116094178Y-92198630D01*
X116094178Y-92007534D01*
X115934932Y-92072260D01*
X115790068Y-92093836D01*
X115671347Y-92071918D01*
X115600114Y-92006164D01*
X115576370Y-91896575D01*
X115594863Y-91780993D01*
X115650342Y-91701370D01*
X115747432Y-91655137D01*
X115890753Y-91639726D01*
X115931849Y-91639726D01*
X115931849Y-91458904D01*
X115890753Y-91458904D01*
X115736644Y-91443236D01*
X115635959Y-91396233D01*
X115580479Y-91313784D01*
X115561986Y-91191781D01*
X115578168Y-91067723D01*
X115626712Y-90979110D01*
X115707620Y-90925942D01*
X115820890Y-90908219D01*
X115973459Y-90929281D01*
X116122945Y-90992466D01*
X116122945Y-90795205D01*
X115961644Y-90745890D01*
X115794178Y-90729452D01*
X115652911Y-90742009D01*
X115537329Y-90779680D01*
X115447432Y-90842466D01*
X115383219Y-90930365D01*
X115344692Y-91043379D01*
X115331849Y-91181507D01*
X114930348Y-91181507D01*
X114834589Y-90750000D01*
X114567466Y-90750000D01*
X114232534Y-92250000D01*
X113865866Y-92250000D01*
X113920662Y-92238584D01*
X114039384Y-92198630D01*
X114039384Y-92007534D01*
X113880137Y-92072260D01*
X113735274Y-92093836D01*
X113616553Y-92071918D01*
X113545320Y-92006164D01*
X113521575Y-91896575D01*
X113540068Y-91780993D01*
X113595548Y-91701370D01*
X113692637Y-91655137D01*
X113835959Y-91639726D01*
X113877055Y-91639726D01*
X113877055Y-91458904D01*
X113835959Y-91458904D01*
X113681849Y-91443236D01*
X113581164Y-91396233D01*
X113525685Y-91313784D01*
X113507192Y-91191781D01*
X113523373Y-91067723D01*
X113571918Y-90979110D01*
X113652825Y-90925942D01*
X113766096Y-90908219D01*
X113918664Y-90929281D01*
X114068151Y-90992466D01*
X114068151Y-90795205D01*
X113906849Y-90745890D01*
X113739384Y-90729452D01*
X113598116Y-90742009D01*
X113482534Y-90779680D01*
X113392637Y-90842466D01*
X113328425Y-90930365D01*
X113289897Y-91043379D01*
X113277055Y-91181507D01*
X112661986Y-91181507D01*
X112848973Y-90558219D01*
X113277055Y-90558219D01*
X113739384Y-90558219D01*
G37*
D11*
%TO.C,C3*%
X134587000Y-102462000D02*
X134587000Y-103521000D01*
X134587000Y-105638000D02*
X134587000Y-104579000D01*
X136413000Y-102462000D02*
X134587000Y-102462000D01*
X136413000Y-103521000D02*
X136413000Y-102462000D01*
X136413000Y-104579000D02*
X136413000Y-105638000D01*
X136413000Y-105638000D02*
X134587000Y-105638000D01*
%TO.C,R1*%
X134740000Y-107765000D02*
X134740000Y-107135000D01*
X136260000Y-107765000D02*
X136260000Y-107135000D01*
%TO.C,U1*%
X123090000Y-103900000D02*
X123440000Y-103900000D01*
X123090000Y-107710000D02*
X123090000Y-103900000D01*
X124500000Y-107710000D02*
X123090000Y-107710000D01*
X125800000Y-103890000D02*
X124900000Y-103890000D01*
X128100000Y-103890000D02*
X127200000Y-103890000D01*
X129910000Y-103890000D02*
X129560000Y-103890000D01*
X129910000Y-107700000D02*
X128500000Y-107700000D01*
X129910000Y-107700000D02*
X129910000Y-103890000D01*
D13*
X130250000Y-103400000D02*
X129750000Y-102900000D01*
X130250000Y-102400000D01*
X130250000Y-103400000D01*
G36*
X130250000Y-103400000D02*
G01*
X129750000Y-102900000D01*
X130250000Y-102400000D01*
X130250000Y-103400000D01*
G37*
D12*
%TO.C,kibuzzard-66FD9D64*%
G36*
X113323459Y-108539812D02*
G01*
X113395890Y-108634589D01*
X113426712Y-108742466D01*
X113445205Y-108897603D01*
X113451370Y-109100000D01*
X113445205Y-109302397D01*
X113426712Y-109457534D01*
X113395890Y-109565411D01*
X113323459Y-109660188D01*
X113217123Y-109691781D01*
X113110788Y-109660188D01*
X113038356Y-109565411D01*
X113007534Y-109457534D01*
X112989041Y-109302397D01*
X112982877Y-109100000D01*
X112989041Y-108897603D01*
X113007534Y-108742466D01*
X113038356Y-108634589D01*
X113110788Y-108539812D01*
X113217123Y-108508219D01*
X113323459Y-108539812D01*
G37*
G36*
X115063014Y-110041781D02*
G01*
X114634932Y-110041781D01*
X113854110Y-110041781D01*
X113217123Y-110041781D01*
X112765068Y-110041781D01*
X112336986Y-110041781D01*
X111771918Y-110041781D01*
X112054452Y-109100000D01*
X112765068Y-109100000D01*
X112770662Y-109279909D01*
X112787443Y-109433333D01*
X112815411Y-109560274D01*
X112877312Y-109705651D01*
X112962329Y-109800685D01*
X113074315Y-109853082D01*
X113217123Y-109870548D01*
X113359932Y-109853082D01*
X113366519Y-109850000D01*
X113854110Y-109850000D01*
X114080137Y-109850000D01*
X114080137Y-108760959D01*
X114084247Y-108760959D01*
X114404795Y-109850000D01*
X114634932Y-109850000D01*
X114634932Y-108350000D01*
X114419178Y-108350000D01*
X114419178Y-109439041D01*
X114413014Y-109439041D01*
X114092466Y-108350000D01*
X113854110Y-108350000D01*
X113854110Y-109850000D01*
X113366519Y-109850000D01*
X113471918Y-109800685D01*
X113556935Y-109705651D01*
X113618836Y-109560274D01*
X113646804Y-109433333D01*
X113663584Y-109279909D01*
X113669178Y-109100000D01*
X113663584Y-108920091D01*
X113646804Y-108766667D01*
X113618836Y-108639726D01*
X113556935Y-108494349D01*
X113471918Y-108399315D01*
X113359932Y-108346918D01*
X113217123Y-108329452D01*
X113074315Y-108346918D01*
X112962329Y-108399315D01*
X112877312Y-108494349D01*
X112815411Y-108639726D01*
X112787443Y-108766667D01*
X112770662Y-108920091D01*
X112765068Y-109100000D01*
X112054452Y-109100000D01*
X112336986Y-108158219D01*
X112765068Y-108158219D01*
X114634932Y-108158219D01*
X115063014Y-108158219D01*
X115628082Y-108158219D01*
X115063014Y-110041781D01*
G37*
D11*
%TO.C,R3*%
X117415000Y-100840000D02*
X118045000Y-100840000D01*
X117415000Y-102360000D02*
X118045000Y-102360000D01*
D12*
%TO.C,kibuzzard-66FD9C27*%
G36*
X122223973Y-90578767D02*
G01*
X122511644Y-90578767D01*
X123756849Y-90578767D01*
X124356849Y-90578767D01*
X124784932Y-90578767D01*
X125337671Y-90578767D01*
X124784932Y-92421233D01*
X124356849Y-92421233D01*
X121443151Y-92421233D01*
X121015068Y-92421233D01*
X120462329Y-92421233D01*
X120513699Y-92250000D01*
X121443151Y-92250000D01*
X121658904Y-92250000D01*
X121658904Y-91160959D01*
X121665068Y-91160959D01*
X121985616Y-92250000D01*
X122223973Y-92250000D01*
X122223973Y-90928767D01*
X122511644Y-90928767D01*
X122741781Y-90928767D01*
X122741781Y-92071233D01*
X122511644Y-92071233D01*
X122511644Y-92250000D01*
X123210274Y-92250000D01*
X123421918Y-92250000D01*
X123650000Y-92250000D01*
X123884247Y-90955479D01*
X123886301Y-90955479D01*
X124120548Y-92250000D01*
X124356849Y-92250000D01*
X124023973Y-90750000D01*
X123756849Y-90750000D01*
X123421918Y-92250000D01*
X123210274Y-92250000D01*
X123210274Y-92071233D01*
X122980137Y-92071233D01*
X122980137Y-90928767D01*
X123210274Y-90928767D01*
X123210274Y-90750000D01*
X122511644Y-90750000D01*
X122511644Y-90928767D01*
X122223973Y-90928767D01*
X122223973Y-90750000D01*
X121997945Y-90750000D01*
X121997945Y-91839041D01*
X121993836Y-91839041D01*
X121673288Y-90750000D01*
X121443151Y-90750000D01*
X121443151Y-92250000D01*
X120513699Y-92250000D01*
X121015068Y-90578767D01*
X121443151Y-90578767D01*
X122223973Y-90578767D01*
G37*
D11*
%TO.C,C2*%
X130062000Y-109887000D02*
X130062000Y-111713000D01*
X130062000Y-111713000D02*
X131121000Y-111713000D01*
X131121000Y-109887000D02*
X130062000Y-109887000D01*
X132179000Y-109887000D02*
X133238000Y-109887000D01*
X133238000Y-109887000D02*
X133238000Y-111713000D01*
X133238000Y-111713000D02*
X132179000Y-111713000D01*
D13*
%TO.C,D3*%
X122140000Y-115280000D02*
X126860000Y-115280000D01*
X122140000Y-115690000D02*
X122140000Y-115280000D01*
D11*
X122140000Y-118320000D02*
X122140000Y-117910000D01*
D13*
X126860000Y-115280000D02*
X126860000Y-115690000D01*
D11*
X126860000Y-118320000D02*
X122140000Y-118320000D01*
X126860000Y-118320000D02*
X126860000Y-117910000D01*
D14*
X128825000Y-116800000D02*
G75*
G02*
X128575000Y-116800000I-125000J0D01*
G01*
X128575000Y-116800000D02*
G75*
G02*
X128825000Y-116800000I125000J0D01*
G01*
D12*
%TO.C,kibuzzard-66FD9D69*%
G36*
X116923116Y-108539812D02*
G01*
X116995548Y-108634589D01*
X117026370Y-108742466D01*
X117044863Y-108897603D01*
X117051027Y-109100000D01*
X117044863Y-109302397D01*
X117026370Y-109457534D01*
X116995548Y-109565411D01*
X116923116Y-109660188D01*
X116816781Y-109691781D01*
X116710445Y-109660188D01*
X116638014Y-109565411D01*
X116607192Y-109457534D01*
X116588699Y-109302397D01*
X116582534Y-109100000D01*
X116588699Y-108897603D01*
X116607192Y-108742466D01*
X116638014Y-108634589D01*
X116710445Y-108539812D01*
X116816781Y-108508219D01*
X116923116Y-108539812D01*
G37*
G36*
X119663356Y-110041781D02*
G01*
X119235274Y-110041781D01*
X118766781Y-110041781D01*
X117739384Y-110041781D01*
X116816781Y-110041781D01*
X116364726Y-110041781D01*
X115936644Y-110041781D01*
X115371575Y-110041781D01*
X115654110Y-109100000D01*
X116364726Y-109100000D01*
X116370320Y-109279909D01*
X116387100Y-109433333D01*
X116415068Y-109560274D01*
X116476969Y-109705651D01*
X116561986Y-109800685D01*
X116673973Y-109853082D01*
X116816781Y-109870548D01*
X116959589Y-109853082D01*
X116966176Y-109850000D01*
X117509247Y-109850000D01*
X117739384Y-109850000D01*
X118536644Y-109850000D01*
X118766781Y-109850000D01*
X118766781Y-109130822D01*
X119214726Y-109130822D01*
X119214726Y-108956164D01*
X118766781Y-108956164D01*
X118766781Y-108528767D01*
X119235274Y-108528767D01*
X119235274Y-108350000D01*
X118536644Y-108350000D01*
X118536644Y-109850000D01*
X117739384Y-109850000D01*
X117739384Y-109130822D01*
X118187329Y-109130822D01*
X118187329Y-108956164D01*
X117739384Y-108956164D01*
X117739384Y-108528767D01*
X118207877Y-108528767D01*
X118207877Y-108350000D01*
X117509247Y-108350000D01*
X117509247Y-109850000D01*
X116966176Y-109850000D01*
X117071575Y-109800685D01*
X117156592Y-109705651D01*
X117218493Y-109560274D01*
X117246461Y-109433333D01*
X117263242Y-109279909D01*
X117268836Y-109100000D01*
X117263242Y-108920091D01*
X117246461Y-108766667D01*
X117218493Y-108639726D01*
X117156592Y-108494349D01*
X117071575Y-108399315D01*
X116959589Y-108346918D01*
X116816781Y-108329452D01*
X116673973Y-108346918D01*
X116561986Y-108399315D01*
X116476969Y-108494349D01*
X116415068Y-108639726D01*
X116387100Y-108766667D01*
X116370320Y-108920091D01*
X116364726Y-109100000D01*
X115654110Y-109100000D01*
X115936644Y-108158219D01*
X116364726Y-108158219D01*
X119235274Y-108158219D01*
X119663356Y-108158219D01*
X120228425Y-108158219D01*
X119663356Y-110041781D01*
G37*
%TD*%
M02*
