%TF.GenerationSoftware,KiCad,Pcbnew,8.0.5-8.0.5-0~ubuntu24.04.1*%
%TF.CreationDate,2024-10-14T08:19:55-04:00*%
%TF.ProjectId,breadboard-power-supply,62726561-6462-46f6-9172-642d706f7765,rev?*%
%TF.SameCoordinates,Original*%
%TF.FileFunction,Legend,Bot*%
%TF.FilePolarity,Positive*%
%FSLAX46Y46*%
G04 Gerber Fmt 4.6, Leading zero omitted, Abs format (unit mm)*
G04 Created by KiCad (PCBNEW 8.0.5-8.0.5-0~ubuntu24.04.1) date 2024-10-14 08:19:55*
%MOMM*%
%LPD*%
G01*
G04 APERTURE LIST*
%ADD10C,0.100000*%
%ADD11C,0.175000*%
%ADD12C,0.150000*%
%ADD13C,0.120000*%
%ADD14C,0.010000*%
G04 APERTURE END LIST*
D10*
X126500000Y-116500000D02*
X125000000Y-116500000D01*
X127000000Y-116500000D02*
X128000000Y-116500000D01*
X125000000Y-116500000D02*
G75*
G02*
X124000000Y-116500000I-500000J0D01*
G01*
X124000000Y-116500000D02*
G75*
G02*
X125000000Y-116500000I500000J0D01*
G01*
X128250000Y-116500000D02*
X128750000Y-116500000D01*
X126146447Y-116146447D02*
G75*
G02*
X126146447Y-116853553I353553J-353553D01*
G01*
X124250000Y-116500000D02*
X124750000Y-116500000D01*
X129000000Y-116500000D02*
G75*
G02*
X128000000Y-116500000I-500000J0D01*
G01*
X128000000Y-116500000D02*
G75*
G02*
X129000000Y-116500000I500000J0D01*
G01*
D11*
X126587500Y-116500000D02*
G75*
G02*
X126412500Y-116500000I-87500J0D01*
G01*
X126412500Y-116500000D02*
G75*
G02*
X126587500Y-116500000I87500J0D01*
G01*
D10*
X124500000Y-116250000D02*
X124500000Y-116750000D01*
D12*
X131357142Y-91135057D02*
X131309523Y-91087438D01*
X131309523Y-91087438D02*
X131214285Y-91039819D01*
X131214285Y-91039819D02*
X130976190Y-91039819D01*
X130976190Y-91039819D02*
X130880952Y-91087438D01*
X130880952Y-91087438D02*
X130833333Y-91135057D01*
X130833333Y-91135057D02*
X130785714Y-91230295D01*
X130785714Y-91230295D02*
X130785714Y-91325533D01*
X130785714Y-91325533D02*
X130833333Y-91468390D01*
X130833333Y-91468390D02*
X131404761Y-92039819D01*
X131404761Y-92039819D02*
X130785714Y-92039819D01*
X130166666Y-91039819D02*
X130071428Y-91039819D01*
X130071428Y-91039819D02*
X129976190Y-91087438D01*
X129976190Y-91087438D02*
X129928571Y-91135057D01*
X129928571Y-91135057D02*
X129880952Y-91230295D01*
X129880952Y-91230295D02*
X129833333Y-91420771D01*
X129833333Y-91420771D02*
X129833333Y-91658866D01*
X129833333Y-91658866D02*
X129880952Y-91849342D01*
X129880952Y-91849342D02*
X129928571Y-91944580D01*
X129928571Y-91944580D02*
X129976190Y-91992200D01*
X129976190Y-91992200D02*
X130071428Y-92039819D01*
X130071428Y-92039819D02*
X130166666Y-92039819D01*
X130166666Y-92039819D02*
X130261904Y-91992200D01*
X130261904Y-91992200D02*
X130309523Y-91944580D01*
X130309523Y-91944580D02*
X130357142Y-91849342D01*
X130357142Y-91849342D02*
X130404761Y-91658866D01*
X130404761Y-91658866D02*
X130404761Y-91420771D01*
X130404761Y-91420771D02*
X130357142Y-91230295D01*
X130357142Y-91230295D02*
X130309523Y-91135057D01*
X130309523Y-91135057D02*
X130261904Y-91087438D01*
X130261904Y-91087438D02*
X130166666Y-91039819D01*
X129452380Y-91135057D02*
X129404761Y-91087438D01*
X129404761Y-91087438D02*
X129309523Y-91039819D01*
X129309523Y-91039819D02*
X129071428Y-91039819D01*
X129071428Y-91039819D02*
X128976190Y-91087438D01*
X128976190Y-91087438D02*
X128928571Y-91135057D01*
X128928571Y-91135057D02*
X128880952Y-91230295D01*
X128880952Y-91230295D02*
X128880952Y-91325533D01*
X128880952Y-91325533D02*
X128928571Y-91468390D01*
X128928571Y-91468390D02*
X129499999Y-92039819D01*
X129499999Y-92039819D02*
X128880952Y-92039819D01*
X128023809Y-91373152D02*
X128023809Y-92039819D01*
X128261904Y-90992200D02*
X128499999Y-91706485D01*
X128499999Y-91706485D02*
X127880952Y-91706485D01*
X127499999Y-91658866D02*
X126738095Y-91658866D01*
X125738095Y-92039819D02*
X126309523Y-92039819D01*
X126023809Y-92039819D02*
X126023809Y-91039819D01*
X126023809Y-91039819D02*
X126119047Y-91182676D01*
X126119047Y-91182676D02*
X126214285Y-91277914D01*
X126214285Y-91277914D02*
X126309523Y-91325533D01*
X125119047Y-91039819D02*
X125023809Y-91039819D01*
X125023809Y-91039819D02*
X124928571Y-91087438D01*
X124928571Y-91087438D02*
X124880952Y-91135057D01*
X124880952Y-91135057D02*
X124833333Y-91230295D01*
X124833333Y-91230295D02*
X124785714Y-91420771D01*
X124785714Y-91420771D02*
X124785714Y-91658866D01*
X124785714Y-91658866D02*
X124833333Y-91849342D01*
X124833333Y-91849342D02*
X124880952Y-91944580D01*
X124880952Y-91944580D02*
X124928571Y-91992200D01*
X124928571Y-91992200D02*
X125023809Y-92039819D01*
X125023809Y-92039819D02*
X125119047Y-92039819D01*
X125119047Y-92039819D02*
X125214285Y-91992200D01*
X125214285Y-91992200D02*
X125261904Y-91944580D01*
X125261904Y-91944580D02*
X125309523Y-91849342D01*
X125309523Y-91849342D02*
X125357142Y-91658866D01*
X125357142Y-91658866D02*
X125357142Y-91420771D01*
X125357142Y-91420771D02*
X125309523Y-91230295D01*
X125309523Y-91230295D02*
X125261904Y-91135057D01*
X125261904Y-91135057D02*
X125214285Y-91087438D01*
X125214285Y-91087438D02*
X125119047Y-91039819D01*
X124357142Y-91658866D02*
X123595238Y-91658866D01*
X122595238Y-92039819D02*
X123166666Y-92039819D01*
X122880952Y-92039819D02*
X122880952Y-91039819D01*
X122880952Y-91039819D02*
X122976190Y-91182676D01*
X122976190Y-91182676D02*
X123071428Y-91277914D01*
X123071428Y-91277914D02*
X123166666Y-91325533D01*
X121738095Y-91373152D02*
X121738095Y-92039819D01*
X121976190Y-90992200D02*
X122214285Y-91706485D01*
X122214285Y-91706485D02*
X121595238Y-91706485D01*
D13*
X137017855Y-110344138D02*
X136767855Y-110344138D01*
X136660712Y-110736995D02*
X137017855Y-110736995D01*
X137017855Y-110736995D02*
X137017855Y-109986995D01*
X137017855Y-109986995D02*
X136660712Y-109986995D01*
X136339284Y-110736995D02*
X136339284Y-110236995D01*
X136339284Y-110308423D02*
X136303570Y-110272709D01*
X136303570Y-110272709D02*
X136232141Y-110236995D01*
X136232141Y-110236995D02*
X136124998Y-110236995D01*
X136124998Y-110236995D02*
X136053570Y-110272709D01*
X136053570Y-110272709D02*
X136017856Y-110344138D01*
X136017856Y-110344138D02*
X136017856Y-110736995D01*
X136017856Y-110344138D02*
X135982141Y-110272709D01*
X135982141Y-110272709D02*
X135910713Y-110236995D01*
X135910713Y-110236995D02*
X135803570Y-110236995D01*
X135803570Y-110236995D02*
X135732141Y-110272709D01*
X135732141Y-110272709D02*
X135696427Y-110344138D01*
X135696427Y-110344138D02*
X135696427Y-110736995D01*
X135339284Y-110736995D02*
X135339284Y-109986995D01*
X135339284Y-110272709D02*
X135267856Y-110236995D01*
X135267856Y-110236995D02*
X135124998Y-110236995D01*
X135124998Y-110236995D02*
X135053570Y-110272709D01*
X135053570Y-110272709D02*
X135017856Y-110308423D01*
X135017856Y-110308423D02*
X134982141Y-110379852D01*
X134982141Y-110379852D02*
X134982141Y-110594138D01*
X134982141Y-110594138D02*
X135017856Y-110665566D01*
X135017856Y-110665566D02*
X135053570Y-110701281D01*
X135053570Y-110701281D02*
X135124998Y-110736995D01*
X135124998Y-110736995D02*
X135267856Y-110736995D01*
X135267856Y-110736995D02*
X135339284Y-110701281D01*
X134660713Y-110736995D02*
X134660713Y-110236995D01*
X134660713Y-110379852D02*
X134624999Y-110308423D01*
X134624999Y-110308423D02*
X134589285Y-110272709D01*
X134589285Y-110272709D02*
X134517856Y-110236995D01*
X134517856Y-110236995D02*
X134446427Y-110236995D01*
X134267856Y-110236995D02*
X134089284Y-110736995D01*
X133910713Y-110236995D02*
X134089284Y-110736995D01*
X134089284Y-110736995D02*
X134160713Y-110915566D01*
X134160713Y-110915566D02*
X134196427Y-110951281D01*
X134196427Y-110951281D02*
X134267856Y-110986995D01*
X133624998Y-110451281D02*
X133053570Y-110451281D01*
X132267856Y-110736995D02*
X132517856Y-110379852D01*
X132696427Y-110736995D02*
X132696427Y-109986995D01*
X132696427Y-109986995D02*
X132410713Y-109986995D01*
X132410713Y-109986995D02*
X132339284Y-110022709D01*
X132339284Y-110022709D02*
X132303570Y-110058423D01*
X132303570Y-110058423D02*
X132267856Y-110129852D01*
X132267856Y-110129852D02*
X132267856Y-110236995D01*
X132267856Y-110236995D02*
X132303570Y-110308423D01*
X132303570Y-110308423D02*
X132339284Y-110344138D01*
X132339284Y-110344138D02*
X132410713Y-110379852D01*
X132410713Y-110379852D02*
X132696427Y-110379852D01*
X131946427Y-110736995D02*
X131946427Y-110236995D01*
X131946427Y-109986995D02*
X131982141Y-110022709D01*
X131982141Y-110022709D02*
X131946427Y-110058423D01*
X131946427Y-110058423D02*
X131910713Y-110022709D01*
X131910713Y-110022709D02*
X131946427Y-109986995D01*
X131946427Y-109986995D02*
X131946427Y-110058423D01*
X131267856Y-110736995D02*
X131267856Y-109986995D01*
X131267856Y-110701281D02*
X131339284Y-110736995D01*
X131339284Y-110736995D02*
X131482141Y-110736995D01*
X131482141Y-110736995D02*
X131553570Y-110701281D01*
X131553570Y-110701281D02*
X131589284Y-110665566D01*
X131589284Y-110665566D02*
X131624998Y-110594138D01*
X131624998Y-110594138D02*
X131624998Y-110379852D01*
X131624998Y-110379852D02*
X131589284Y-110308423D01*
X131589284Y-110308423D02*
X131553570Y-110272709D01*
X131553570Y-110272709D02*
X131482141Y-110236995D01*
X131482141Y-110236995D02*
X131339284Y-110236995D01*
X131339284Y-110236995D02*
X131267856Y-110272709D01*
X130589285Y-110736995D02*
X130589285Y-109986995D01*
X130589285Y-110701281D02*
X130660713Y-110736995D01*
X130660713Y-110736995D02*
X130803570Y-110736995D01*
X130803570Y-110736995D02*
X130874999Y-110701281D01*
X130874999Y-110701281D02*
X130910713Y-110665566D01*
X130910713Y-110665566D02*
X130946427Y-110594138D01*
X130946427Y-110594138D02*
X130946427Y-110379852D01*
X130946427Y-110379852D02*
X130910713Y-110308423D01*
X130910713Y-110308423D02*
X130874999Y-110272709D01*
X130874999Y-110272709D02*
X130803570Y-110236995D01*
X130803570Y-110236995D02*
X130660713Y-110236995D01*
X130660713Y-110236995D02*
X130589285Y-110272709D01*
X130124999Y-110736995D02*
X130196428Y-110701281D01*
X130196428Y-110701281D02*
X130232142Y-110629852D01*
X130232142Y-110629852D02*
X130232142Y-109986995D01*
X129553571Y-110701281D02*
X129624999Y-110736995D01*
X129624999Y-110736995D02*
X129767857Y-110736995D01*
X129767857Y-110736995D02*
X129839285Y-110701281D01*
X129839285Y-110701281D02*
X129874999Y-110629852D01*
X129874999Y-110629852D02*
X129874999Y-110344138D01*
X129874999Y-110344138D02*
X129839285Y-110272709D01*
X129839285Y-110272709D02*
X129767857Y-110236995D01*
X129767857Y-110236995D02*
X129624999Y-110236995D01*
X129624999Y-110236995D02*
X129553571Y-110272709D01*
X129553571Y-110272709D02*
X129517857Y-110344138D01*
X129517857Y-110344138D02*
X129517857Y-110415566D01*
X129517857Y-110415566D02*
X129874999Y-110486995D01*
X128660713Y-110522709D02*
X128303571Y-110522709D01*
X128732142Y-110736995D02*
X128482142Y-109986995D01*
X128482142Y-109986995D02*
X128232142Y-110736995D01*
X127696428Y-110701281D02*
X127767856Y-110736995D01*
X127767856Y-110736995D02*
X127910714Y-110736995D01*
X127910714Y-110736995D02*
X127982142Y-110701281D01*
X127982142Y-110701281D02*
X128017856Y-110629852D01*
X128017856Y-110629852D02*
X128017856Y-110344138D01*
X128017856Y-110344138D02*
X127982142Y-110272709D01*
X127982142Y-110272709D02*
X127910714Y-110236995D01*
X127910714Y-110236995D02*
X127767856Y-110236995D01*
X127767856Y-110236995D02*
X127696428Y-110272709D01*
X127696428Y-110272709D02*
X127660714Y-110344138D01*
X127660714Y-110344138D02*
X127660714Y-110415566D01*
X127660714Y-110415566D02*
X128017856Y-110486995D01*
X127339285Y-110736995D02*
X127339285Y-110236995D01*
X127339285Y-110379852D02*
X127303571Y-110308423D01*
X127303571Y-110308423D02*
X127267857Y-110272709D01*
X127267857Y-110272709D02*
X127196428Y-110236995D01*
X127196428Y-110236995D02*
X127124999Y-110236995D01*
X126767856Y-110736995D02*
X126839285Y-110701281D01*
X126839285Y-110701281D02*
X126874999Y-110665566D01*
X126874999Y-110665566D02*
X126910713Y-110594138D01*
X126910713Y-110594138D02*
X126910713Y-110379852D01*
X126910713Y-110379852D02*
X126874999Y-110308423D01*
X126874999Y-110308423D02*
X126839285Y-110272709D01*
X126839285Y-110272709D02*
X126767856Y-110236995D01*
X126767856Y-110236995D02*
X126660713Y-110236995D01*
X126660713Y-110236995D02*
X126589285Y-110272709D01*
X126589285Y-110272709D02*
X126553571Y-110308423D01*
X126553571Y-110308423D02*
X126517856Y-110379852D01*
X126517856Y-110379852D02*
X126517856Y-110594138D01*
X126517856Y-110594138D02*
X126553571Y-110665566D01*
X126553571Y-110665566D02*
X126589285Y-110701281D01*
X126589285Y-110701281D02*
X126660713Y-110736995D01*
X126660713Y-110736995D02*
X126767856Y-110736995D01*
X126196428Y-110236995D02*
X126196428Y-110736995D01*
X126196428Y-110308423D02*
X126160714Y-110272709D01*
X126160714Y-110272709D02*
X126089285Y-110236995D01*
X126089285Y-110236995D02*
X125982142Y-110236995D01*
X125982142Y-110236995D02*
X125910714Y-110272709D01*
X125910714Y-110272709D02*
X125875000Y-110344138D01*
X125875000Y-110344138D02*
X125875000Y-110736995D01*
X125196429Y-110736995D02*
X125196429Y-110344138D01*
X125196429Y-110344138D02*
X125232143Y-110272709D01*
X125232143Y-110272709D02*
X125303571Y-110236995D01*
X125303571Y-110236995D02*
X125446429Y-110236995D01*
X125446429Y-110236995D02*
X125517857Y-110272709D01*
X125196429Y-110701281D02*
X125267857Y-110736995D01*
X125267857Y-110736995D02*
X125446429Y-110736995D01*
X125446429Y-110736995D02*
X125517857Y-110701281D01*
X125517857Y-110701281D02*
X125553571Y-110629852D01*
X125553571Y-110629852D02*
X125553571Y-110558423D01*
X125553571Y-110558423D02*
X125517857Y-110486995D01*
X125517857Y-110486995D02*
X125446429Y-110451281D01*
X125446429Y-110451281D02*
X125267857Y-110451281D01*
X125267857Y-110451281D02*
X125196429Y-110415566D01*
X124517858Y-110236995D02*
X124517858Y-110736995D01*
X124839286Y-110236995D02*
X124839286Y-110629852D01*
X124839286Y-110629852D02*
X124803572Y-110701281D01*
X124803572Y-110701281D02*
X124732143Y-110736995D01*
X124732143Y-110736995D02*
X124625000Y-110736995D01*
X124625000Y-110736995D02*
X124553572Y-110701281D01*
X124553572Y-110701281D02*
X124517858Y-110665566D01*
X124267858Y-110236995D02*
X123982144Y-110236995D01*
X124160715Y-109986995D02*
X124160715Y-110629852D01*
X124160715Y-110629852D02*
X124125001Y-110701281D01*
X124125001Y-110701281D02*
X124053572Y-110736995D01*
X124053572Y-110736995D02*
X123982144Y-110736995D01*
X123732144Y-110736995D02*
X123732144Y-110236995D01*
X123732144Y-109986995D02*
X123767858Y-110022709D01*
X123767858Y-110022709D02*
X123732144Y-110058423D01*
X123732144Y-110058423D02*
X123696430Y-110022709D01*
X123696430Y-110022709D02*
X123732144Y-109986995D01*
X123732144Y-109986995D02*
X123732144Y-110058423D01*
X123053573Y-110701281D02*
X123125001Y-110736995D01*
X123125001Y-110736995D02*
X123267858Y-110736995D01*
X123267858Y-110736995D02*
X123339287Y-110701281D01*
X123339287Y-110701281D02*
X123375001Y-110665566D01*
X123375001Y-110665566D02*
X123410715Y-110594138D01*
X123410715Y-110594138D02*
X123410715Y-110379852D01*
X123410715Y-110379852D02*
X123375001Y-110308423D01*
X123375001Y-110308423D02*
X123339287Y-110272709D01*
X123339287Y-110272709D02*
X123267858Y-110236995D01*
X123267858Y-110236995D02*
X123125001Y-110236995D01*
X123125001Y-110236995D02*
X123053573Y-110272709D01*
X122410716Y-110736995D02*
X122410716Y-110344138D01*
X122410716Y-110344138D02*
X122446430Y-110272709D01*
X122446430Y-110272709D02*
X122517858Y-110236995D01*
X122517858Y-110236995D02*
X122660716Y-110236995D01*
X122660716Y-110236995D02*
X122732144Y-110272709D01*
X122410716Y-110701281D02*
X122482144Y-110736995D01*
X122482144Y-110736995D02*
X122660716Y-110736995D01*
X122660716Y-110736995D02*
X122732144Y-110701281D01*
X122732144Y-110701281D02*
X122767858Y-110629852D01*
X122767858Y-110629852D02*
X122767858Y-110558423D01*
X122767858Y-110558423D02*
X122732144Y-110486995D01*
X122732144Y-110486995D02*
X122660716Y-110451281D01*
X122660716Y-110451281D02*
X122482144Y-110451281D01*
X122482144Y-110451281D02*
X122410716Y-110415566D01*
X121946430Y-110736995D02*
X122017859Y-110701281D01*
X122017859Y-110701281D02*
X122053573Y-110629852D01*
X122053573Y-110629852D02*
X122053573Y-109986995D01*
X121089287Y-109986995D02*
X121089287Y-110594138D01*
X121089287Y-110594138D02*
X121053573Y-110665566D01*
X121053573Y-110665566D02*
X121017859Y-110701281D01*
X121017859Y-110701281D02*
X120946430Y-110736995D01*
X120946430Y-110736995D02*
X120803573Y-110736995D01*
X120803573Y-110736995D02*
X120732144Y-110701281D01*
X120732144Y-110701281D02*
X120696430Y-110665566D01*
X120696430Y-110665566D02*
X120660716Y-110594138D01*
X120660716Y-110594138D02*
X120660716Y-109986995D01*
X120303573Y-110236995D02*
X120303573Y-110736995D01*
X120303573Y-110308423D02*
X120267859Y-110272709D01*
X120267859Y-110272709D02*
X120196430Y-110236995D01*
X120196430Y-110236995D02*
X120089287Y-110236995D01*
X120089287Y-110236995D02*
X120017859Y-110272709D01*
X120017859Y-110272709D02*
X119982145Y-110344138D01*
X119982145Y-110344138D02*
X119982145Y-110736995D01*
X119625002Y-110736995D02*
X119625002Y-110236995D01*
X119625002Y-109986995D02*
X119660716Y-110022709D01*
X119660716Y-110022709D02*
X119625002Y-110058423D01*
X119625002Y-110058423D02*
X119589288Y-110022709D01*
X119589288Y-110022709D02*
X119625002Y-109986995D01*
X119625002Y-109986995D02*
X119625002Y-110058423D01*
X119339288Y-110236995D02*
X119160716Y-110736995D01*
X119160716Y-110736995D02*
X118982145Y-110236995D01*
X118410716Y-110701281D02*
X118482144Y-110736995D01*
X118482144Y-110736995D02*
X118625002Y-110736995D01*
X118625002Y-110736995D02*
X118696430Y-110701281D01*
X118696430Y-110701281D02*
X118732144Y-110629852D01*
X118732144Y-110629852D02*
X118732144Y-110344138D01*
X118732144Y-110344138D02*
X118696430Y-110272709D01*
X118696430Y-110272709D02*
X118625002Y-110236995D01*
X118625002Y-110236995D02*
X118482144Y-110236995D01*
X118482144Y-110236995D02*
X118410716Y-110272709D01*
X118410716Y-110272709D02*
X118375002Y-110344138D01*
X118375002Y-110344138D02*
X118375002Y-110415566D01*
X118375002Y-110415566D02*
X118732144Y-110486995D01*
X118053573Y-110736995D02*
X118053573Y-110236995D01*
X118053573Y-110379852D02*
X118017859Y-110308423D01*
X118017859Y-110308423D02*
X117982145Y-110272709D01*
X117982145Y-110272709D02*
X117910716Y-110236995D01*
X117910716Y-110236995D02*
X117839287Y-110236995D01*
X117625001Y-110701281D02*
X117553573Y-110736995D01*
X117553573Y-110736995D02*
X117410716Y-110736995D01*
X117410716Y-110736995D02*
X117339287Y-110701281D01*
X117339287Y-110701281D02*
X117303573Y-110629852D01*
X117303573Y-110629852D02*
X117303573Y-110594138D01*
X117303573Y-110594138D02*
X117339287Y-110522709D01*
X117339287Y-110522709D02*
X117410716Y-110486995D01*
X117410716Y-110486995D02*
X117517859Y-110486995D01*
X117517859Y-110486995D02*
X117589287Y-110451281D01*
X117589287Y-110451281D02*
X117625001Y-110379852D01*
X117625001Y-110379852D02*
X117625001Y-110344138D01*
X117625001Y-110344138D02*
X117589287Y-110272709D01*
X117589287Y-110272709D02*
X117517859Y-110236995D01*
X117517859Y-110236995D02*
X117410716Y-110236995D01*
X117410716Y-110236995D02*
X117339287Y-110272709D01*
X116982144Y-110736995D02*
X116982144Y-110236995D01*
X116982144Y-109986995D02*
X117017858Y-110022709D01*
X117017858Y-110022709D02*
X116982144Y-110058423D01*
X116982144Y-110058423D02*
X116946430Y-110022709D01*
X116946430Y-110022709D02*
X116982144Y-109986995D01*
X116982144Y-109986995D02*
X116982144Y-110058423D01*
X116732144Y-110236995D02*
X116446430Y-110236995D01*
X116625001Y-109986995D02*
X116625001Y-110629852D01*
X116625001Y-110629852D02*
X116589287Y-110701281D01*
X116589287Y-110701281D02*
X116517858Y-110736995D01*
X116517858Y-110736995D02*
X116446430Y-110736995D01*
X116267859Y-110236995D02*
X116089287Y-110736995D01*
X115910716Y-110236995D02*
X116089287Y-110736995D01*
X116089287Y-110736995D02*
X116160716Y-110915566D01*
X116160716Y-110915566D02*
X116196430Y-110951281D01*
X116196430Y-110951281D02*
X116267859Y-110986995D01*
X134892855Y-111944453D02*
X134892855Y-111194453D01*
X134892855Y-111194453D02*
X134607141Y-111194453D01*
X134607141Y-111194453D02*
X134535712Y-111230167D01*
X134535712Y-111230167D02*
X134499998Y-111265881D01*
X134499998Y-111265881D02*
X134464284Y-111337310D01*
X134464284Y-111337310D02*
X134464284Y-111444453D01*
X134464284Y-111444453D02*
X134499998Y-111515881D01*
X134499998Y-111515881D02*
X134535712Y-111551596D01*
X134535712Y-111551596D02*
X134607141Y-111587310D01*
X134607141Y-111587310D02*
X134892855Y-111587310D01*
X134142855Y-111944453D02*
X134142855Y-111194453D01*
X133821427Y-111944453D02*
X133821427Y-111551596D01*
X133821427Y-111551596D02*
X133857141Y-111480167D01*
X133857141Y-111480167D02*
X133928569Y-111444453D01*
X133928569Y-111444453D02*
X134035712Y-111444453D01*
X134035712Y-111444453D02*
X134107141Y-111480167D01*
X134107141Y-111480167D02*
X134142855Y-111515881D01*
X133535713Y-111444453D02*
X133357141Y-111944453D01*
X133178570Y-111444453D02*
X133357141Y-111944453D01*
X133357141Y-111944453D02*
X133428570Y-112123024D01*
X133428570Y-112123024D02*
X133464284Y-112158739D01*
X133464284Y-112158739D02*
X133535713Y-112194453D01*
X132928569Y-111908739D02*
X132857141Y-111944453D01*
X132857141Y-111944453D02*
X132714284Y-111944453D01*
X132714284Y-111944453D02*
X132642855Y-111908739D01*
X132642855Y-111908739D02*
X132607141Y-111837310D01*
X132607141Y-111837310D02*
X132607141Y-111801596D01*
X132607141Y-111801596D02*
X132642855Y-111730167D01*
X132642855Y-111730167D02*
X132714284Y-111694453D01*
X132714284Y-111694453D02*
X132821427Y-111694453D01*
X132821427Y-111694453D02*
X132892855Y-111658739D01*
X132892855Y-111658739D02*
X132928569Y-111587310D01*
X132928569Y-111587310D02*
X132928569Y-111551596D01*
X132928569Y-111551596D02*
X132892855Y-111480167D01*
X132892855Y-111480167D02*
X132821427Y-111444453D01*
X132821427Y-111444453D02*
X132714284Y-111444453D01*
X132714284Y-111444453D02*
X132642855Y-111480167D01*
X132285712Y-111944453D02*
X132285712Y-111444453D01*
X132285712Y-111194453D02*
X132321426Y-111230167D01*
X132321426Y-111230167D02*
X132285712Y-111265881D01*
X132285712Y-111265881D02*
X132249998Y-111230167D01*
X132249998Y-111230167D02*
X132285712Y-111194453D01*
X132285712Y-111194453D02*
X132285712Y-111265881D01*
X131607141Y-111908739D02*
X131678569Y-111944453D01*
X131678569Y-111944453D02*
X131821426Y-111944453D01*
X131821426Y-111944453D02*
X131892855Y-111908739D01*
X131892855Y-111908739D02*
X131928569Y-111873024D01*
X131928569Y-111873024D02*
X131964283Y-111801596D01*
X131964283Y-111801596D02*
X131964283Y-111587310D01*
X131964283Y-111587310D02*
X131928569Y-111515881D01*
X131928569Y-111515881D02*
X131892855Y-111480167D01*
X131892855Y-111480167D02*
X131821426Y-111444453D01*
X131821426Y-111444453D02*
X131678569Y-111444453D01*
X131678569Y-111444453D02*
X131607141Y-111480167D01*
X130964284Y-111944453D02*
X130964284Y-111551596D01*
X130964284Y-111551596D02*
X130999998Y-111480167D01*
X130999998Y-111480167D02*
X131071426Y-111444453D01*
X131071426Y-111444453D02*
X131214284Y-111444453D01*
X131214284Y-111444453D02*
X131285712Y-111480167D01*
X130964284Y-111908739D02*
X131035712Y-111944453D01*
X131035712Y-111944453D02*
X131214284Y-111944453D01*
X131214284Y-111944453D02*
X131285712Y-111908739D01*
X131285712Y-111908739D02*
X131321426Y-111837310D01*
X131321426Y-111837310D02*
X131321426Y-111765881D01*
X131321426Y-111765881D02*
X131285712Y-111694453D01*
X131285712Y-111694453D02*
X131214284Y-111658739D01*
X131214284Y-111658739D02*
X131035712Y-111658739D01*
X131035712Y-111658739D02*
X130964284Y-111623024D01*
X130499998Y-111944453D02*
X130571427Y-111908739D01*
X130571427Y-111908739D02*
X130607141Y-111837310D01*
X130607141Y-111837310D02*
X130607141Y-111194453D01*
X129678569Y-111908739D02*
X129571427Y-111944453D01*
X129571427Y-111944453D02*
X129392855Y-111944453D01*
X129392855Y-111944453D02*
X129321427Y-111908739D01*
X129321427Y-111908739D02*
X129285712Y-111873024D01*
X129285712Y-111873024D02*
X129249998Y-111801596D01*
X129249998Y-111801596D02*
X129249998Y-111730167D01*
X129249998Y-111730167D02*
X129285712Y-111658739D01*
X129285712Y-111658739D02*
X129321427Y-111623024D01*
X129321427Y-111623024D02*
X129392855Y-111587310D01*
X129392855Y-111587310D02*
X129535712Y-111551596D01*
X129535712Y-111551596D02*
X129607141Y-111515881D01*
X129607141Y-111515881D02*
X129642855Y-111480167D01*
X129642855Y-111480167D02*
X129678569Y-111408739D01*
X129678569Y-111408739D02*
X129678569Y-111337310D01*
X129678569Y-111337310D02*
X129642855Y-111265881D01*
X129642855Y-111265881D02*
X129607141Y-111230167D01*
X129607141Y-111230167D02*
X129535712Y-111194453D01*
X129535712Y-111194453D02*
X129357141Y-111194453D01*
X129357141Y-111194453D02*
X129249998Y-111230167D01*
X128607141Y-111908739D02*
X128678569Y-111944453D01*
X128678569Y-111944453D02*
X128821426Y-111944453D01*
X128821426Y-111944453D02*
X128892855Y-111908739D01*
X128892855Y-111908739D02*
X128928569Y-111873024D01*
X128928569Y-111873024D02*
X128964283Y-111801596D01*
X128964283Y-111801596D02*
X128964283Y-111587310D01*
X128964283Y-111587310D02*
X128928569Y-111515881D01*
X128928569Y-111515881D02*
X128892855Y-111480167D01*
X128892855Y-111480167D02*
X128821426Y-111444453D01*
X128821426Y-111444453D02*
X128678569Y-111444453D01*
X128678569Y-111444453D02*
X128607141Y-111480167D01*
X128285712Y-111944453D02*
X128285712Y-111444453D01*
X128285712Y-111194453D02*
X128321426Y-111230167D01*
X128321426Y-111230167D02*
X128285712Y-111265881D01*
X128285712Y-111265881D02*
X128249998Y-111230167D01*
X128249998Y-111230167D02*
X128285712Y-111194453D01*
X128285712Y-111194453D02*
X128285712Y-111265881D01*
X127642855Y-111908739D02*
X127714283Y-111944453D01*
X127714283Y-111944453D02*
X127857141Y-111944453D01*
X127857141Y-111944453D02*
X127928569Y-111908739D01*
X127928569Y-111908739D02*
X127964283Y-111837310D01*
X127964283Y-111837310D02*
X127964283Y-111551596D01*
X127964283Y-111551596D02*
X127928569Y-111480167D01*
X127928569Y-111480167D02*
X127857141Y-111444453D01*
X127857141Y-111444453D02*
X127714283Y-111444453D01*
X127714283Y-111444453D02*
X127642855Y-111480167D01*
X127642855Y-111480167D02*
X127607141Y-111551596D01*
X127607141Y-111551596D02*
X127607141Y-111623024D01*
X127607141Y-111623024D02*
X127964283Y-111694453D01*
X127285712Y-111444453D02*
X127285712Y-111944453D01*
X127285712Y-111515881D02*
X127249998Y-111480167D01*
X127249998Y-111480167D02*
X127178569Y-111444453D01*
X127178569Y-111444453D02*
X127071426Y-111444453D01*
X127071426Y-111444453D02*
X126999998Y-111480167D01*
X126999998Y-111480167D02*
X126964284Y-111551596D01*
X126964284Y-111551596D02*
X126964284Y-111944453D01*
X126285713Y-111908739D02*
X126357141Y-111944453D01*
X126357141Y-111944453D02*
X126499998Y-111944453D01*
X126499998Y-111944453D02*
X126571427Y-111908739D01*
X126571427Y-111908739D02*
X126607141Y-111873024D01*
X126607141Y-111873024D02*
X126642855Y-111801596D01*
X126642855Y-111801596D02*
X126642855Y-111587310D01*
X126642855Y-111587310D02*
X126607141Y-111515881D01*
X126607141Y-111515881D02*
X126571427Y-111480167D01*
X126571427Y-111480167D02*
X126499998Y-111444453D01*
X126499998Y-111444453D02*
X126357141Y-111444453D01*
X126357141Y-111444453D02*
X126285713Y-111480167D01*
X125678570Y-111908739D02*
X125749998Y-111944453D01*
X125749998Y-111944453D02*
X125892856Y-111944453D01*
X125892856Y-111944453D02*
X125964284Y-111908739D01*
X125964284Y-111908739D02*
X125999998Y-111837310D01*
X125999998Y-111837310D02*
X125999998Y-111551596D01*
X125999998Y-111551596D02*
X125964284Y-111480167D01*
X125964284Y-111480167D02*
X125892856Y-111444453D01*
X125892856Y-111444453D02*
X125749998Y-111444453D01*
X125749998Y-111444453D02*
X125678570Y-111480167D01*
X125678570Y-111480167D02*
X125642856Y-111551596D01*
X125642856Y-111551596D02*
X125642856Y-111623024D01*
X125642856Y-111623024D02*
X125999998Y-111694453D01*
X125357141Y-111908739D02*
X125285713Y-111944453D01*
X125285713Y-111944453D02*
X125142856Y-111944453D01*
X125142856Y-111944453D02*
X125071427Y-111908739D01*
X125071427Y-111908739D02*
X125035713Y-111837310D01*
X125035713Y-111837310D02*
X125035713Y-111801596D01*
X125035713Y-111801596D02*
X125071427Y-111730167D01*
X125071427Y-111730167D02*
X125142856Y-111694453D01*
X125142856Y-111694453D02*
X125249999Y-111694453D01*
X125249999Y-111694453D02*
X125321427Y-111658739D01*
X125321427Y-111658739D02*
X125357141Y-111587310D01*
X125357141Y-111587310D02*
X125357141Y-111551596D01*
X125357141Y-111551596D02*
X125321427Y-111480167D01*
X125321427Y-111480167D02*
X125249999Y-111444453D01*
X125249999Y-111444453D02*
X125142856Y-111444453D01*
X125142856Y-111444453D02*
X125071427Y-111480167D01*
X124142855Y-111944453D02*
X124142855Y-111194453D01*
X124142855Y-111194453D02*
X123964284Y-111194453D01*
X123964284Y-111194453D02*
X123857141Y-111230167D01*
X123857141Y-111230167D02*
X123785712Y-111301596D01*
X123785712Y-111301596D02*
X123749998Y-111373024D01*
X123749998Y-111373024D02*
X123714284Y-111515881D01*
X123714284Y-111515881D02*
X123714284Y-111623024D01*
X123714284Y-111623024D02*
X123749998Y-111765881D01*
X123749998Y-111765881D02*
X123785712Y-111837310D01*
X123785712Y-111837310D02*
X123857141Y-111908739D01*
X123857141Y-111908739D02*
X123964284Y-111944453D01*
X123964284Y-111944453D02*
X124142855Y-111944453D01*
X123107141Y-111908739D02*
X123178569Y-111944453D01*
X123178569Y-111944453D02*
X123321427Y-111944453D01*
X123321427Y-111944453D02*
X123392855Y-111908739D01*
X123392855Y-111908739D02*
X123428569Y-111837310D01*
X123428569Y-111837310D02*
X123428569Y-111551596D01*
X123428569Y-111551596D02*
X123392855Y-111480167D01*
X123392855Y-111480167D02*
X123321427Y-111444453D01*
X123321427Y-111444453D02*
X123178569Y-111444453D01*
X123178569Y-111444453D02*
X123107141Y-111480167D01*
X123107141Y-111480167D02*
X123071427Y-111551596D01*
X123071427Y-111551596D02*
X123071427Y-111623024D01*
X123071427Y-111623024D02*
X123428569Y-111694453D01*
X122749998Y-111444453D02*
X122749998Y-112194453D01*
X122749998Y-111480167D02*
X122678570Y-111444453D01*
X122678570Y-111444453D02*
X122535712Y-111444453D01*
X122535712Y-111444453D02*
X122464284Y-111480167D01*
X122464284Y-111480167D02*
X122428570Y-111515881D01*
X122428570Y-111515881D02*
X122392855Y-111587310D01*
X122392855Y-111587310D02*
X122392855Y-111801596D01*
X122392855Y-111801596D02*
X122428570Y-111873024D01*
X122428570Y-111873024D02*
X122464284Y-111908739D01*
X122464284Y-111908739D02*
X122535712Y-111944453D01*
X122535712Y-111944453D02*
X122678570Y-111944453D01*
X122678570Y-111944453D02*
X122749998Y-111908739D01*
X121749999Y-111944453D02*
X121749999Y-111551596D01*
X121749999Y-111551596D02*
X121785713Y-111480167D01*
X121785713Y-111480167D02*
X121857141Y-111444453D01*
X121857141Y-111444453D02*
X121999999Y-111444453D01*
X121999999Y-111444453D02*
X122071427Y-111480167D01*
X121749999Y-111908739D02*
X121821427Y-111944453D01*
X121821427Y-111944453D02*
X121999999Y-111944453D01*
X121999999Y-111944453D02*
X122071427Y-111908739D01*
X122071427Y-111908739D02*
X122107141Y-111837310D01*
X122107141Y-111837310D02*
X122107141Y-111765881D01*
X122107141Y-111765881D02*
X122071427Y-111694453D01*
X122071427Y-111694453D02*
X121999999Y-111658739D01*
X121999999Y-111658739D02*
X121821427Y-111658739D01*
X121821427Y-111658739D02*
X121749999Y-111623024D01*
X121392856Y-111944453D02*
X121392856Y-111444453D01*
X121392856Y-111587310D02*
X121357142Y-111515881D01*
X121357142Y-111515881D02*
X121321428Y-111480167D01*
X121321428Y-111480167D02*
X121249999Y-111444453D01*
X121249999Y-111444453D02*
X121178570Y-111444453D01*
X121035713Y-111444453D02*
X120749999Y-111444453D01*
X120928570Y-111194453D02*
X120928570Y-111837310D01*
X120928570Y-111837310D02*
X120892856Y-111908739D01*
X120892856Y-111908739D02*
X120821427Y-111944453D01*
X120821427Y-111944453D02*
X120749999Y-111944453D01*
X120499999Y-111944453D02*
X120499999Y-111444453D01*
X120499999Y-111515881D02*
X120464285Y-111480167D01*
X120464285Y-111480167D02*
X120392856Y-111444453D01*
X120392856Y-111444453D02*
X120285713Y-111444453D01*
X120285713Y-111444453D02*
X120214285Y-111480167D01*
X120214285Y-111480167D02*
X120178571Y-111551596D01*
X120178571Y-111551596D02*
X120178571Y-111944453D01*
X120178571Y-111551596D02*
X120142856Y-111480167D01*
X120142856Y-111480167D02*
X120071428Y-111444453D01*
X120071428Y-111444453D02*
X119964285Y-111444453D01*
X119964285Y-111444453D02*
X119892856Y-111480167D01*
X119892856Y-111480167D02*
X119857142Y-111551596D01*
X119857142Y-111551596D02*
X119857142Y-111944453D01*
X119214285Y-111908739D02*
X119285713Y-111944453D01*
X119285713Y-111944453D02*
X119428571Y-111944453D01*
X119428571Y-111944453D02*
X119499999Y-111908739D01*
X119499999Y-111908739D02*
X119535713Y-111837310D01*
X119535713Y-111837310D02*
X119535713Y-111551596D01*
X119535713Y-111551596D02*
X119499999Y-111480167D01*
X119499999Y-111480167D02*
X119428571Y-111444453D01*
X119428571Y-111444453D02*
X119285713Y-111444453D01*
X119285713Y-111444453D02*
X119214285Y-111480167D01*
X119214285Y-111480167D02*
X119178571Y-111551596D01*
X119178571Y-111551596D02*
X119178571Y-111623024D01*
X119178571Y-111623024D02*
X119535713Y-111694453D01*
X118857142Y-111444453D02*
X118857142Y-111944453D01*
X118857142Y-111515881D02*
X118821428Y-111480167D01*
X118821428Y-111480167D02*
X118749999Y-111444453D01*
X118749999Y-111444453D02*
X118642856Y-111444453D01*
X118642856Y-111444453D02*
X118571428Y-111480167D01*
X118571428Y-111480167D02*
X118535714Y-111551596D01*
X118535714Y-111551596D02*
X118535714Y-111944453D01*
X118285714Y-111444453D02*
X118000000Y-111444453D01*
X118178571Y-111194453D02*
X118178571Y-111837310D01*
X118178571Y-111837310D02*
X118142857Y-111908739D01*
X118142857Y-111908739D02*
X118071428Y-111944453D01*
X118071428Y-111944453D02*
X118000000Y-111944453D01*
D12*
X135642858Y-108431009D02*
X135500001Y-108478628D01*
X135500001Y-108478628D02*
X135452382Y-108526247D01*
X135452382Y-108526247D02*
X135404763Y-108621485D01*
X135404763Y-108621485D02*
X135404763Y-108764342D01*
X135404763Y-108764342D02*
X135452382Y-108859580D01*
X135452382Y-108859580D02*
X135500001Y-108907200D01*
X135500001Y-108907200D02*
X135595239Y-108954819D01*
X135595239Y-108954819D02*
X135976191Y-108954819D01*
X135976191Y-108954819D02*
X135976191Y-107954819D01*
X135976191Y-107954819D02*
X135642858Y-107954819D01*
X135642858Y-107954819D02*
X135547620Y-108002438D01*
X135547620Y-108002438D02*
X135500001Y-108050057D01*
X135500001Y-108050057D02*
X135452382Y-108145295D01*
X135452382Y-108145295D02*
X135452382Y-108240533D01*
X135452382Y-108240533D02*
X135500001Y-108335771D01*
X135500001Y-108335771D02*
X135547620Y-108383390D01*
X135547620Y-108383390D02*
X135642858Y-108431009D01*
X135642858Y-108431009D02*
X135976191Y-108431009D01*
X134976191Y-108954819D02*
X134976191Y-108288152D01*
X134976191Y-108478628D02*
X134928572Y-108383390D01*
X134928572Y-108383390D02*
X134880953Y-108335771D01*
X134880953Y-108335771D02*
X134785715Y-108288152D01*
X134785715Y-108288152D02*
X134690477Y-108288152D01*
X133976191Y-108907200D02*
X134071429Y-108954819D01*
X134071429Y-108954819D02*
X134261905Y-108954819D01*
X134261905Y-108954819D02*
X134357143Y-108907200D01*
X134357143Y-108907200D02*
X134404762Y-108811961D01*
X134404762Y-108811961D02*
X134404762Y-108431009D01*
X134404762Y-108431009D02*
X134357143Y-108335771D01*
X134357143Y-108335771D02*
X134261905Y-108288152D01*
X134261905Y-108288152D02*
X134071429Y-108288152D01*
X134071429Y-108288152D02*
X133976191Y-108335771D01*
X133976191Y-108335771D02*
X133928572Y-108431009D01*
X133928572Y-108431009D02*
X133928572Y-108526247D01*
X133928572Y-108526247D02*
X134404762Y-108621485D01*
X133071429Y-108954819D02*
X133071429Y-108431009D01*
X133071429Y-108431009D02*
X133119048Y-108335771D01*
X133119048Y-108335771D02*
X133214286Y-108288152D01*
X133214286Y-108288152D02*
X133404762Y-108288152D01*
X133404762Y-108288152D02*
X133500000Y-108335771D01*
X133071429Y-108907200D02*
X133166667Y-108954819D01*
X133166667Y-108954819D02*
X133404762Y-108954819D01*
X133404762Y-108954819D02*
X133500000Y-108907200D01*
X133500000Y-108907200D02*
X133547619Y-108811961D01*
X133547619Y-108811961D02*
X133547619Y-108716723D01*
X133547619Y-108716723D02*
X133500000Y-108621485D01*
X133500000Y-108621485D02*
X133404762Y-108573866D01*
X133404762Y-108573866D02*
X133166667Y-108573866D01*
X133166667Y-108573866D02*
X133071429Y-108526247D01*
X132166667Y-108954819D02*
X132166667Y-107954819D01*
X132166667Y-108907200D02*
X132261905Y-108954819D01*
X132261905Y-108954819D02*
X132452381Y-108954819D01*
X132452381Y-108954819D02*
X132547619Y-108907200D01*
X132547619Y-108907200D02*
X132595238Y-108859580D01*
X132595238Y-108859580D02*
X132642857Y-108764342D01*
X132642857Y-108764342D02*
X132642857Y-108478628D01*
X132642857Y-108478628D02*
X132595238Y-108383390D01*
X132595238Y-108383390D02*
X132547619Y-108335771D01*
X132547619Y-108335771D02*
X132452381Y-108288152D01*
X132452381Y-108288152D02*
X132261905Y-108288152D01*
X132261905Y-108288152D02*
X132166667Y-108335771D01*
X131690476Y-108954819D02*
X131690476Y-107954819D01*
X131690476Y-108335771D02*
X131595238Y-108288152D01*
X131595238Y-108288152D02*
X131404762Y-108288152D01*
X131404762Y-108288152D02*
X131309524Y-108335771D01*
X131309524Y-108335771D02*
X131261905Y-108383390D01*
X131261905Y-108383390D02*
X131214286Y-108478628D01*
X131214286Y-108478628D02*
X131214286Y-108764342D01*
X131214286Y-108764342D02*
X131261905Y-108859580D01*
X131261905Y-108859580D02*
X131309524Y-108907200D01*
X131309524Y-108907200D02*
X131404762Y-108954819D01*
X131404762Y-108954819D02*
X131595238Y-108954819D01*
X131595238Y-108954819D02*
X131690476Y-108907200D01*
X130642857Y-108954819D02*
X130738095Y-108907200D01*
X130738095Y-108907200D02*
X130785714Y-108859580D01*
X130785714Y-108859580D02*
X130833333Y-108764342D01*
X130833333Y-108764342D02*
X130833333Y-108478628D01*
X130833333Y-108478628D02*
X130785714Y-108383390D01*
X130785714Y-108383390D02*
X130738095Y-108335771D01*
X130738095Y-108335771D02*
X130642857Y-108288152D01*
X130642857Y-108288152D02*
X130500000Y-108288152D01*
X130500000Y-108288152D02*
X130404762Y-108335771D01*
X130404762Y-108335771D02*
X130357143Y-108383390D01*
X130357143Y-108383390D02*
X130309524Y-108478628D01*
X130309524Y-108478628D02*
X130309524Y-108764342D01*
X130309524Y-108764342D02*
X130357143Y-108859580D01*
X130357143Y-108859580D02*
X130404762Y-108907200D01*
X130404762Y-108907200D02*
X130500000Y-108954819D01*
X130500000Y-108954819D02*
X130642857Y-108954819D01*
X129452381Y-108954819D02*
X129452381Y-108431009D01*
X129452381Y-108431009D02*
X129500000Y-108335771D01*
X129500000Y-108335771D02*
X129595238Y-108288152D01*
X129595238Y-108288152D02*
X129785714Y-108288152D01*
X129785714Y-108288152D02*
X129880952Y-108335771D01*
X129452381Y-108907200D02*
X129547619Y-108954819D01*
X129547619Y-108954819D02*
X129785714Y-108954819D01*
X129785714Y-108954819D02*
X129880952Y-108907200D01*
X129880952Y-108907200D02*
X129928571Y-108811961D01*
X129928571Y-108811961D02*
X129928571Y-108716723D01*
X129928571Y-108716723D02*
X129880952Y-108621485D01*
X129880952Y-108621485D02*
X129785714Y-108573866D01*
X129785714Y-108573866D02*
X129547619Y-108573866D01*
X129547619Y-108573866D02*
X129452381Y-108526247D01*
X128976190Y-108954819D02*
X128976190Y-108288152D01*
X128976190Y-108478628D02*
X128928571Y-108383390D01*
X128928571Y-108383390D02*
X128880952Y-108335771D01*
X128880952Y-108335771D02*
X128785714Y-108288152D01*
X128785714Y-108288152D02*
X128690476Y-108288152D01*
X127928571Y-108954819D02*
X127928571Y-107954819D01*
X127928571Y-108907200D02*
X128023809Y-108954819D01*
X128023809Y-108954819D02*
X128214285Y-108954819D01*
X128214285Y-108954819D02*
X128309523Y-108907200D01*
X128309523Y-108907200D02*
X128357142Y-108859580D01*
X128357142Y-108859580D02*
X128404761Y-108764342D01*
X128404761Y-108764342D02*
X128404761Y-108478628D01*
X128404761Y-108478628D02*
X128357142Y-108383390D01*
X128357142Y-108383390D02*
X128309523Y-108335771D01*
X128309523Y-108335771D02*
X128214285Y-108288152D01*
X128214285Y-108288152D02*
X128023809Y-108288152D01*
X128023809Y-108288152D02*
X127928571Y-108335771D01*
X126690475Y-108954819D02*
X126690475Y-107954819D01*
X126690475Y-107954819D02*
X126309523Y-107954819D01*
X126309523Y-107954819D02*
X126214285Y-108002438D01*
X126214285Y-108002438D02*
X126166666Y-108050057D01*
X126166666Y-108050057D02*
X126119047Y-108145295D01*
X126119047Y-108145295D02*
X126119047Y-108288152D01*
X126119047Y-108288152D02*
X126166666Y-108383390D01*
X126166666Y-108383390D02*
X126214285Y-108431009D01*
X126214285Y-108431009D02*
X126309523Y-108478628D01*
X126309523Y-108478628D02*
X126690475Y-108478628D01*
X125547618Y-108954819D02*
X125642856Y-108907200D01*
X125642856Y-108907200D02*
X125690475Y-108859580D01*
X125690475Y-108859580D02*
X125738094Y-108764342D01*
X125738094Y-108764342D02*
X125738094Y-108478628D01*
X125738094Y-108478628D02*
X125690475Y-108383390D01*
X125690475Y-108383390D02*
X125642856Y-108335771D01*
X125642856Y-108335771D02*
X125547618Y-108288152D01*
X125547618Y-108288152D02*
X125404761Y-108288152D01*
X125404761Y-108288152D02*
X125309523Y-108335771D01*
X125309523Y-108335771D02*
X125261904Y-108383390D01*
X125261904Y-108383390D02*
X125214285Y-108478628D01*
X125214285Y-108478628D02*
X125214285Y-108764342D01*
X125214285Y-108764342D02*
X125261904Y-108859580D01*
X125261904Y-108859580D02*
X125309523Y-108907200D01*
X125309523Y-108907200D02*
X125404761Y-108954819D01*
X125404761Y-108954819D02*
X125547618Y-108954819D01*
X124880951Y-108288152D02*
X124690475Y-108954819D01*
X124690475Y-108954819D02*
X124499999Y-108478628D01*
X124499999Y-108478628D02*
X124309523Y-108954819D01*
X124309523Y-108954819D02*
X124119047Y-108288152D01*
X123357142Y-108907200D02*
X123452380Y-108954819D01*
X123452380Y-108954819D02*
X123642856Y-108954819D01*
X123642856Y-108954819D02*
X123738094Y-108907200D01*
X123738094Y-108907200D02*
X123785713Y-108811961D01*
X123785713Y-108811961D02*
X123785713Y-108431009D01*
X123785713Y-108431009D02*
X123738094Y-108335771D01*
X123738094Y-108335771D02*
X123642856Y-108288152D01*
X123642856Y-108288152D02*
X123452380Y-108288152D01*
X123452380Y-108288152D02*
X123357142Y-108335771D01*
X123357142Y-108335771D02*
X123309523Y-108431009D01*
X123309523Y-108431009D02*
X123309523Y-108526247D01*
X123309523Y-108526247D02*
X123785713Y-108621485D01*
X122880951Y-108954819D02*
X122880951Y-108288152D01*
X122880951Y-108478628D02*
X122833332Y-108383390D01*
X122833332Y-108383390D02*
X122785713Y-108335771D01*
X122785713Y-108335771D02*
X122690475Y-108288152D01*
X122690475Y-108288152D02*
X122595237Y-108288152D01*
X121547617Y-108907200D02*
X121404760Y-108954819D01*
X121404760Y-108954819D02*
X121166665Y-108954819D01*
X121166665Y-108954819D02*
X121071427Y-108907200D01*
X121071427Y-108907200D02*
X121023808Y-108859580D01*
X121023808Y-108859580D02*
X120976189Y-108764342D01*
X120976189Y-108764342D02*
X120976189Y-108669104D01*
X120976189Y-108669104D02*
X121023808Y-108573866D01*
X121023808Y-108573866D02*
X121071427Y-108526247D01*
X121071427Y-108526247D02*
X121166665Y-108478628D01*
X121166665Y-108478628D02*
X121357141Y-108431009D01*
X121357141Y-108431009D02*
X121452379Y-108383390D01*
X121452379Y-108383390D02*
X121499998Y-108335771D01*
X121499998Y-108335771D02*
X121547617Y-108240533D01*
X121547617Y-108240533D02*
X121547617Y-108145295D01*
X121547617Y-108145295D02*
X121499998Y-108050057D01*
X121499998Y-108050057D02*
X121452379Y-108002438D01*
X121452379Y-108002438D02*
X121357141Y-107954819D01*
X121357141Y-107954819D02*
X121119046Y-107954819D01*
X121119046Y-107954819D02*
X120976189Y-108002438D01*
X120119046Y-108288152D02*
X120119046Y-108954819D01*
X120547617Y-108288152D02*
X120547617Y-108811961D01*
X120547617Y-108811961D02*
X120499998Y-108907200D01*
X120499998Y-108907200D02*
X120404760Y-108954819D01*
X120404760Y-108954819D02*
X120261903Y-108954819D01*
X120261903Y-108954819D02*
X120166665Y-108907200D01*
X120166665Y-108907200D02*
X120119046Y-108859580D01*
X119642855Y-108288152D02*
X119642855Y-109288152D01*
X119642855Y-108335771D02*
X119547617Y-108288152D01*
X119547617Y-108288152D02*
X119357141Y-108288152D01*
X119357141Y-108288152D02*
X119261903Y-108335771D01*
X119261903Y-108335771D02*
X119214284Y-108383390D01*
X119214284Y-108383390D02*
X119166665Y-108478628D01*
X119166665Y-108478628D02*
X119166665Y-108764342D01*
X119166665Y-108764342D02*
X119214284Y-108859580D01*
X119214284Y-108859580D02*
X119261903Y-108907200D01*
X119261903Y-108907200D02*
X119357141Y-108954819D01*
X119357141Y-108954819D02*
X119547617Y-108954819D01*
X119547617Y-108954819D02*
X119642855Y-108907200D01*
X118738093Y-108288152D02*
X118738093Y-109288152D01*
X118738093Y-108335771D02*
X118642855Y-108288152D01*
X118642855Y-108288152D02*
X118452379Y-108288152D01*
X118452379Y-108288152D02*
X118357141Y-108335771D01*
X118357141Y-108335771D02*
X118309522Y-108383390D01*
X118309522Y-108383390D02*
X118261903Y-108478628D01*
X118261903Y-108478628D02*
X118261903Y-108764342D01*
X118261903Y-108764342D02*
X118309522Y-108859580D01*
X118309522Y-108859580D02*
X118357141Y-108907200D01*
X118357141Y-108907200D02*
X118452379Y-108954819D01*
X118452379Y-108954819D02*
X118642855Y-108954819D01*
X118642855Y-108954819D02*
X118738093Y-108907200D01*
X117690474Y-108954819D02*
X117785712Y-108907200D01*
X117785712Y-108907200D02*
X117833331Y-108811961D01*
X117833331Y-108811961D02*
X117833331Y-107954819D01*
X117404759Y-108288152D02*
X117166664Y-108954819D01*
X116928569Y-108288152D02*
X117166664Y-108954819D01*
X117166664Y-108954819D02*
X117261902Y-109192914D01*
X117261902Y-109192914D02*
X117309521Y-109240533D01*
X117309521Y-109240533D02*
X117404759Y-109288152D01*
D13*
X143964280Y-118840724D02*
X143964280Y-118090724D01*
X143642852Y-118840724D02*
X143642852Y-118447867D01*
X143642852Y-118447867D02*
X143678566Y-118376438D01*
X143678566Y-118376438D02*
X143749994Y-118340724D01*
X143749994Y-118340724D02*
X143857137Y-118340724D01*
X143857137Y-118340724D02*
X143928566Y-118376438D01*
X143928566Y-118376438D02*
X143964280Y-118412152D01*
X143392852Y-118340724D02*
X143107138Y-118340724D01*
X143285709Y-118090724D02*
X143285709Y-118733581D01*
X143285709Y-118733581D02*
X143249995Y-118805010D01*
X143249995Y-118805010D02*
X143178566Y-118840724D01*
X143178566Y-118840724D02*
X143107138Y-118840724D01*
X142964281Y-118340724D02*
X142678567Y-118340724D01*
X142857138Y-118090724D02*
X142857138Y-118733581D01*
X142857138Y-118733581D02*
X142821424Y-118805010D01*
X142821424Y-118805010D02*
X142749995Y-118840724D01*
X142749995Y-118840724D02*
X142678567Y-118840724D01*
X142428567Y-118340724D02*
X142428567Y-119090724D01*
X142428567Y-118376438D02*
X142357139Y-118340724D01*
X142357139Y-118340724D02*
X142214281Y-118340724D01*
X142214281Y-118340724D02*
X142142853Y-118376438D01*
X142142853Y-118376438D02*
X142107139Y-118412152D01*
X142107139Y-118412152D02*
X142071424Y-118483581D01*
X142071424Y-118483581D02*
X142071424Y-118697867D01*
X142071424Y-118697867D02*
X142107139Y-118769295D01*
X142107139Y-118769295D02*
X142142853Y-118805010D01*
X142142853Y-118805010D02*
X142214281Y-118840724D01*
X142214281Y-118840724D02*
X142357139Y-118840724D01*
X142357139Y-118840724D02*
X142428567Y-118805010D01*
X141785710Y-118805010D02*
X141714282Y-118840724D01*
X141714282Y-118840724D02*
X141571425Y-118840724D01*
X141571425Y-118840724D02*
X141499996Y-118805010D01*
X141499996Y-118805010D02*
X141464282Y-118733581D01*
X141464282Y-118733581D02*
X141464282Y-118697867D01*
X141464282Y-118697867D02*
X141499996Y-118626438D01*
X141499996Y-118626438D02*
X141571425Y-118590724D01*
X141571425Y-118590724D02*
X141678568Y-118590724D01*
X141678568Y-118590724D02*
X141749996Y-118555010D01*
X141749996Y-118555010D02*
X141785710Y-118483581D01*
X141785710Y-118483581D02*
X141785710Y-118447867D01*
X141785710Y-118447867D02*
X141749996Y-118376438D01*
X141749996Y-118376438D02*
X141678568Y-118340724D01*
X141678568Y-118340724D02*
X141571425Y-118340724D01*
X141571425Y-118340724D02*
X141499996Y-118376438D01*
X141142853Y-118769295D02*
X141107139Y-118805010D01*
X141107139Y-118805010D02*
X141142853Y-118840724D01*
X141142853Y-118840724D02*
X141178567Y-118805010D01*
X141178567Y-118805010D02*
X141142853Y-118769295D01*
X141142853Y-118769295D02*
X141142853Y-118840724D01*
X141142853Y-118376438D02*
X141107139Y-118412152D01*
X141107139Y-118412152D02*
X141142853Y-118447867D01*
X141142853Y-118447867D02*
X141178567Y-118412152D01*
X141178567Y-118412152D02*
X141142853Y-118376438D01*
X141142853Y-118376438D02*
X141142853Y-118447867D01*
X140249996Y-118055010D02*
X140892853Y-119019295D01*
X139464282Y-118055010D02*
X140107139Y-119019295D01*
X138892854Y-118340724D02*
X138892854Y-118947867D01*
X138892854Y-118947867D02*
X138928568Y-119019295D01*
X138928568Y-119019295D02*
X138964282Y-119055010D01*
X138964282Y-119055010D02*
X139035711Y-119090724D01*
X139035711Y-119090724D02*
X139142854Y-119090724D01*
X139142854Y-119090724D02*
X139214282Y-119055010D01*
X138892854Y-118805010D02*
X138964282Y-118840724D01*
X138964282Y-118840724D02*
X139107139Y-118840724D01*
X139107139Y-118840724D02*
X139178568Y-118805010D01*
X139178568Y-118805010D02*
X139214282Y-118769295D01*
X139214282Y-118769295D02*
X139249996Y-118697867D01*
X139249996Y-118697867D02*
X139249996Y-118483581D01*
X139249996Y-118483581D02*
X139214282Y-118412152D01*
X139214282Y-118412152D02*
X139178568Y-118376438D01*
X139178568Y-118376438D02*
X139107139Y-118340724D01*
X139107139Y-118340724D02*
X138964282Y-118340724D01*
X138964282Y-118340724D02*
X138892854Y-118376438D01*
X138535711Y-118840724D02*
X138535711Y-118340724D01*
X138535711Y-118090724D02*
X138571425Y-118126438D01*
X138571425Y-118126438D02*
X138535711Y-118162152D01*
X138535711Y-118162152D02*
X138499997Y-118126438D01*
X138499997Y-118126438D02*
X138535711Y-118090724D01*
X138535711Y-118090724D02*
X138535711Y-118162152D01*
X138285711Y-118340724D02*
X137999997Y-118340724D01*
X138178568Y-118090724D02*
X138178568Y-118733581D01*
X138178568Y-118733581D02*
X138142854Y-118805010D01*
X138142854Y-118805010D02*
X138071425Y-118840724D01*
X138071425Y-118840724D02*
X137999997Y-118840724D01*
X137749997Y-118840724D02*
X137749997Y-118090724D01*
X137428569Y-118840724D02*
X137428569Y-118447867D01*
X137428569Y-118447867D02*
X137464283Y-118376438D01*
X137464283Y-118376438D02*
X137535711Y-118340724D01*
X137535711Y-118340724D02*
X137642854Y-118340724D01*
X137642854Y-118340724D02*
X137714283Y-118376438D01*
X137714283Y-118376438D02*
X137749997Y-118412152D01*
X136749998Y-118340724D02*
X136749998Y-118840724D01*
X137071426Y-118340724D02*
X137071426Y-118733581D01*
X137071426Y-118733581D02*
X137035712Y-118805010D01*
X137035712Y-118805010D02*
X136964283Y-118840724D01*
X136964283Y-118840724D02*
X136857140Y-118840724D01*
X136857140Y-118840724D02*
X136785712Y-118805010D01*
X136785712Y-118805010D02*
X136749998Y-118769295D01*
X136392855Y-118840724D02*
X136392855Y-118090724D01*
X136392855Y-118376438D02*
X136321427Y-118340724D01*
X136321427Y-118340724D02*
X136178569Y-118340724D01*
X136178569Y-118340724D02*
X136107141Y-118376438D01*
X136107141Y-118376438D02*
X136071427Y-118412152D01*
X136071427Y-118412152D02*
X136035712Y-118483581D01*
X136035712Y-118483581D02*
X136035712Y-118697867D01*
X136035712Y-118697867D02*
X136071427Y-118769295D01*
X136071427Y-118769295D02*
X136107141Y-118805010D01*
X136107141Y-118805010D02*
X136178569Y-118840724D01*
X136178569Y-118840724D02*
X136321427Y-118840724D01*
X136321427Y-118840724D02*
X136392855Y-118805010D01*
X135714284Y-118769295D02*
X135678570Y-118805010D01*
X135678570Y-118805010D02*
X135714284Y-118840724D01*
X135714284Y-118840724D02*
X135749998Y-118805010D01*
X135749998Y-118805010D02*
X135714284Y-118769295D01*
X135714284Y-118769295D02*
X135714284Y-118840724D01*
X135035713Y-118805010D02*
X135107141Y-118840724D01*
X135107141Y-118840724D02*
X135249998Y-118840724D01*
X135249998Y-118840724D02*
X135321427Y-118805010D01*
X135321427Y-118805010D02*
X135357141Y-118769295D01*
X135357141Y-118769295D02*
X135392855Y-118697867D01*
X135392855Y-118697867D02*
X135392855Y-118483581D01*
X135392855Y-118483581D02*
X135357141Y-118412152D01*
X135357141Y-118412152D02*
X135321427Y-118376438D01*
X135321427Y-118376438D02*
X135249998Y-118340724D01*
X135249998Y-118340724D02*
X135107141Y-118340724D01*
X135107141Y-118340724D02*
X135035713Y-118376438D01*
X134607141Y-118840724D02*
X134678570Y-118805010D01*
X134678570Y-118805010D02*
X134714284Y-118769295D01*
X134714284Y-118769295D02*
X134749998Y-118697867D01*
X134749998Y-118697867D02*
X134749998Y-118483581D01*
X134749998Y-118483581D02*
X134714284Y-118412152D01*
X134714284Y-118412152D02*
X134678570Y-118376438D01*
X134678570Y-118376438D02*
X134607141Y-118340724D01*
X134607141Y-118340724D02*
X134499998Y-118340724D01*
X134499998Y-118340724D02*
X134428570Y-118376438D01*
X134428570Y-118376438D02*
X134392856Y-118412152D01*
X134392856Y-118412152D02*
X134357141Y-118483581D01*
X134357141Y-118483581D02*
X134357141Y-118697867D01*
X134357141Y-118697867D02*
X134392856Y-118769295D01*
X134392856Y-118769295D02*
X134428570Y-118805010D01*
X134428570Y-118805010D02*
X134499998Y-118840724D01*
X134499998Y-118840724D02*
X134607141Y-118840724D01*
X134035713Y-118840724D02*
X134035713Y-118340724D01*
X134035713Y-118412152D02*
X133999999Y-118376438D01*
X133999999Y-118376438D02*
X133928570Y-118340724D01*
X133928570Y-118340724D02*
X133821427Y-118340724D01*
X133821427Y-118340724D02*
X133749999Y-118376438D01*
X133749999Y-118376438D02*
X133714285Y-118447867D01*
X133714285Y-118447867D02*
X133714285Y-118840724D01*
X133714285Y-118447867D02*
X133678570Y-118376438D01*
X133678570Y-118376438D02*
X133607142Y-118340724D01*
X133607142Y-118340724D02*
X133499999Y-118340724D01*
X133499999Y-118340724D02*
X133428570Y-118376438D01*
X133428570Y-118376438D02*
X133392856Y-118447867D01*
X133392856Y-118447867D02*
X133392856Y-118840724D01*
X132499999Y-118055010D02*
X133142856Y-119019295D01*
X132249999Y-118840724D02*
X132249999Y-118090724D01*
X132249999Y-118090724D02*
X132071428Y-118090724D01*
X132071428Y-118090724D02*
X131964285Y-118126438D01*
X131964285Y-118126438D02*
X131892856Y-118197867D01*
X131892856Y-118197867D02*
X131857142Y-118269295D01*
X131857142Y-118269295D02*
X131821428Y-118412152D01*
X131821428Y-118412152D02*
X131821428Y-118519295D01*
X131821428Y-118519295D02*
X131857142Y-118662152D01*
X131857142Y-118662152D02*
X131892856Y-118733581D01*
X131892856Y-118733581D02*
X131964285Y-118805010D01*
X131964285Y-118805010D02*
X132071428Y-118840724D01*
X132071428Y-118840724D02*
X132249999Y-118840724D01*
X131214285Y-118805010D02*
X131285713Y-118840724D01*
X131285713Y-118840724D02*
X131428571Y-118840724D01*
X131428571Y-118840724D02*
X131499999Y-118805010D01*
X131499999Y-118805010D02*
X131535713Y-118733581D01*
X131535713Y-118733581D02*
X131535713Y-118447867D01*
X131535713Y-118447867D02*
X131499999Y-118376438D01*
X131499999Y-118376438D02*
X131428571Y-118340724D01*
X131428571Y-118340724D02*
X131285713Y-118340724D01*
X131285713Y-118340724D02*
X131214285Y-118376438D01*
X131214285Y-118376438D02*
X131178571Y-118447867D01*
X131178571Y-118447867D02*
X131178571Y-118519295D01*
X131178571Y-118519295D02*
X131535713Y-118590724D01*
X130571428Y-118805010D02*
X130642856Y-118840724D01*
X130642856Y-118840724D02*
X130785714Y-118840724D01*
X130785714Y-118840724D02*
X130857142Y-118805010D01*
X130857142Y-118805010D02*
X130892856Y-118733581D01*
X130892856Y-118733581D02*
X130892856Y-118447867D01*
X130892856Y-118447867D02*
X130857142Y-118376438D01*
X130857142Y-118376438D02*
X130785714Y-118340724D01*
X130785714Y-118340724D02*
X130642856Y-118340724D01*
X130642856Y-118340724D02*
X130571428Y-118376438D01*
X130571428Y-118376438D02*
X130535714Y-118447867D01*
X130535714Y-118447867D02*
X130535714Y-118519295D01*
X130535714Y-118519295D02*
X130892856Y-118590724D01*
X130214285Y-118340724D02*
X130214285Y-119090724D01*
X130214285Y-118376438D02*
X130142857Y-118340724D01*
X130142857Y-118340724D02*
X129999999Y-118340724D01*
X129999999Y-118340724D02*
X129928571Y-118376438D01*
X129928571Y-118376438D02*
X129892857Y-118412152D01*
X129892857Y-118412152D02*
X129857142Y-118483581D01*
X129857142Y-118483581D02*
X129857142Y-118697867D01*
X129857142Y-118697867D02*
X129892857Y-118769295D01*
X129892857Y-118769295D02*
X129928571Y-118805010D01*
X129928571Y-118805010D02*
X129999999Y-118840724D01*
X129999999Y-118840724D02*
X130142857Y-118840724D01*
X130142857Y-118840724D02*
X130214285Y-118805010D01*
X129571428Y-118805010D02*
X129464286Y-118840724D01*
X129464286Y-118840724D02*
X129285714Y-118840724D01*
X129285714Y-118840724D02*
X129214286Y-118805010D01*
X129214286Y-118805010D02*
X129178571Y-118769295D01*
X129178571Y-118769295D02*
X129142857Y-118697867D01*
X129142857Y-118697867D02*
X129142857Y-118626438D01*
X129142857Y-118626438D02*
X129178571Y-118555010D01*
X129178571Y-118555010D02*
X129214286Y-118519295D01*
X129214286Y-118519295D02*
X129285714Y-118483581D01*
X129285714Y-118483581D02*
X129428571Y-118447867D01*
X129428571Y-118447867D02*
X129500000Y-118412152D01*
X129500000Y-118412152D02*
X129535714Y-118376438D01*
X129535714Y-118376438D02*
X129571428Y-118305010D01*
X129571428Y-118305010D02*
X129571428Y-118233581D01*
X129571428Y-118233581D02*
X129535714Y-118162152D01*
X129535714Y-118162152D02*
X129500000Y-118126438D01*
X129500000Y-118126438D02*
X129428571Y-118090724D01*
X129428571Y-118090724D02*
X129250000Y-118090724D01*
X129250000Y-118090724D02*
X129142857Y-118126438D01*
X128821428Y-118340724D02*
X128821428Y-119090724D01*
X128821428Y-118376438D02*
X128750000Y-118340724D01*
X128750000Y-118340724D02*
X128607142Y-118340724D01*
X128607142Y-118340724D02*
X128535714Y-118376438D01*
X128535714Y-118376438D02*
X128500000Y-118412152D01*
X128500000Y-118412152D02*
X128464285Y-118483581D01*
X128464285Y-118483581D02*
X128464285Y-118697867D01*
X128464285Y-118697867D02*
X128500000Y-118769295D01*
X128500000Y-118769295D02*
X128535714Y-118805010D01*
X128535714Y-118805010D02*
X128607142Y-118840724D01*
X128607142Y-118840724D02*
X128750000Y-118840724D01*
X128750000Y-118840724D02*
X128821428Y-118805010D01*
X127821429Y-118840724D02*
X127821429Y-118447867D01*
X127821429Y-118447867D02*
X127857143Y-118376438D01*
X127857143Y-118376438D02*
X127928571Y-118340724D01*
X127928571Y-118340724D02*
X128071429Y-118340724D01*
X128071429Y-118340724D02*
X128142857Y-118376438D01*
X127821429Y-118805010D02*
X127892857Y-118840724D01*
X127892857Y-118840724D02*
X128071429Y-118840724D01*
X128071429Y-118840724D02*
X128142857Y-118805010D01*
X128142857Y-118805010D02*
X128178571Y-118733581D01*
X128178571Y-118733581D02*
X128178571Y-118662152D01*
X128178571Y-118662152D02*
X128142857Y-118590724D01*
X128142857Y-118590724D02*
X128071429Y-118555010D01*
X128071429Y-118555010D02*
X127892857Y-118555010D01*
X127892857Y-118555010D02*
X127821429Y-118519295D01*
X127142858Y-118805010D02*
X127214286Y-118840724D01*
X127214286Y-118840724D02*
X127357143Y-118840724D01*
X127357143Y-118840724D02*
X127428572Y-118805010D01*
X127428572Y-118805010D02*
X127464286Y-118769295D01*
X127464286Y-118769295D02*
X127500000Y-118697867D01*
X127500000Y-118697867D02*
X127500000Y-118483581D01*
X127500000Y-118483581D02*
X127464286Y-118412152D01*
X127464286Y-118412152D02*
X127428572Y-118376438D01*
X127428572Y-118376438D02*
X127357143Y-118340724D01*
X127357143Y-118340724D02*
X127214286Y-118340724D01*
X127214286Y-118340724D02*
X127142858Y-118376438D01*
X126535715Y-118805010D02*
X126607143Y-118840724D01*
X126607143Y-118840724D02*
X126750001Y-118840724D01*
X126750001Y-118840724D02*
X126821429Y-118805010D01*
X126821429Y-118805010D02*
X126857143Y-118733581D01*
X126857143Y-118733581D02*
X126857143Y-118447867D01*
X126857143Y-118447867D02*
X126821429Y-118376438D01*
X126821429Y-118376438D02*
X126750001Y-118340724D01*
X126750001Y-118340724D02*
X126607143Y-118340724D01*
X126607143Y-118340724D02*
X126535715Y-118376438D01*
X126535715Y-118376438D02*
X126500001Y-118447867D01*
X126500001Y-118447867D02*
X126500001Y-118519295D01*
X126500001Y-118519295D02*
X126857143Y-118590724D01*
X126035715Y-118090724D02*
X125964286Y-118090724D01*
X125964286Y-118090724D02*
X125892858Y-118126438D01*
X125892858Y-118126438D02*
X125857144Y-118162152D01*
X125857144Y-118162152D02*
X125821429Y-118233581D01*
X125821429Y-118233581D02*
X125785715Y-118376438D01*
X125785715Y-118376438D02*
X125785715Y-118555010D01*
X125785715Y-118555010D02*
X125821429Y-118697867D01*
X125821429Y-118697867D02*
X125857144Y-118769295D01*
X125857144Y-118769295D02*
X125892858Y-118805010D01*
X125892858Y-118805010D02*
X125964286Y-118840724D01*
X125964286Y-118840724D02*
X126035715Y-118840724D01*
X126035715Y-118840724D02*
X126107144Y-118805010D01*
X126107144Y-118805010D02*
X126142858Y-118769295D01*
X126142858Y-118769295D02*
X126178572Y-118697867D01*
X126178572Y-118697867D02*
X126214286Y-118555010D01*
X126214286Y-118555010D02*
X126214286Y-118376438D01*
X126214286Y-118376438D02*
X126178572Y-118233581D01*
X126178572Y-118233581D02*
X126142858Y-118162152D01*
X126142858Y-118162152D02*
X126107144Y-118126438D01*
X126107144Y-118126438D02*
X126035715Y-118090724D01*
X125321429Y-118090724D02*
X125250000Y-118090724D01*
X125250000Y-118090724D02*
X125178572Y-118126438D01*
X125178572Y-118126438D02*
X125142858Y-118162152D01*
X125142858Y-118162152D02*
X125107143Y-118233581D01*
X125107143Y-118233581D02*
X125071429Y-118376438D01*
X125071429Y-118376438D02*
X125071429Y-118555010D01*
X125071429Y-118555010D02*
X125107143Y-118697867D01*
X125107143Y-118697867D02*
X125142858Y-118769295D01*
X125142858Y-118769295D02*
X125178572Y-118805010D01*
X125178572Y-118805010D02*
X125250000Y-118840724D01*
X125250000Y-118840724D02*
X125321429Y-118840724D01*
X125321429Y-118840724D02*
X125392858Y-118805010D01*
X125392858Y-118805010D02*
X125428572Y-118769295D01*
X125428572Y-118769295D02*
X125464286Y-118697867D01*
X125464286Y-118697867D02*
X125500000Y-118555010D01*
X125500000Y-118555010D02*
X125500000Y-118376438D01*
X125500000Y-118376438D02*
X125464286Y-118233581D01*
X125464286Y-118233581D02*
X125428572Y-118162152D01*
X125428572Y-118162152D02*
X125392858Y-118126438D01*
X125392858Y-118126438D02*
X125321429Y-118090724D01*
X124214286Y-118055010D02*
X124857143Y-119019295D01*
X123714286Y-118447867D02*
X123607143Y-118483581D01*
X123607143Y-118483581D02*
X123571429Y-118519295D01*
X123571429Y-118519295D02*
X123535715Y-118590724D01*
X123535715Y-118590724D02*
X123535715Y-118697867D01*
X123535715Y-118697867D02*
X123571429Y-118769295D01*
X123571429Y-118769295D02*
X123607143Y-118805010D01*
X123607143Y-118805010D02*
X123678572Y-118840724D01*
X123678572Y-118840724D02*
X123964286Y-118840724D01*
X123964286Y-118840724D02*
X123964286Y-118090724D01*
X123964286Y-118090724D02*
X123714286Y-118090724D01*
X123714286Y-118090724D02*
X123642858Y-118126438D01*
X123642858Y-118126438D02*
X123607143Y-118162152D01*
X123607143Y-118162152D02*
X123571429Y-118233581D01*
X123571429Y-118233581D02*
X123571429Y-118305010D01*
X123571429Y-118305010D02*
X123607143Y-118376438D01*
X123607143Y-118376438D02*
X123642858Y-118412152D01*
X123642858Y-118412152D02*
X123714286Y-118447867D01*
X123714286Y-118447867D02*
X123964286Y-118447867D01*
X123214286Y-118840724D02*
X123214286Y-118340724D01*
X123214286Y-118483581D02*
X123178572Y-118412152D01*
X123178572Y-118412152D02*
X123142858Y-118376438D01*
X123142858Y-118376438D02*
X123071429Y-118340724D01*
X123071429Y-118340724D02*
X123000000Y-118340724D01*
X122464286Y-118805010D02*
X122535714Y-118840724D01*
X122535714Y-118840724D02*
X122678572Y-118840724D01*
X122678572Y-118840724D02*
X122750000Y-118805010D01*
X122750000Y-118805010D02*
X122785714Y-118733581D01*
X122785714Y-118733581D02*
X122785714Y-118447867D01*
X122785714Y-118447867D02*
X122750000Y-118376438D01*
X122750000Y-118376438D02*
X122678572Y-118340724D01*
X122678572Y-118340724D02*
X122535714Y-118340724D01*
X122535714Y-118340724D02*
X122464286Y-118376438D01*
X122464286Y-118376438D02*
X122428572Y-118447867D01*
X122428572Y-118447867D02*
X122428572Y-118519295D01*
X122428572Y-118519295D02*
X122785714Y-118590724D01*
X121785715Y-118840724D02*
X121785715Y-118447867D01*
X121785715Y-118447867D02*
X121821429Y-118376438D01*
X121821429Y-118376438D02*
X121892857Y-118340724D01*
X121892857Y-118340724D02*
X122035715Y-118340724D01*
X122035715Y-118340724D02*
X122107143Y-118376438D01*
X121785715Y-118805010D02*
X121857143Y-118840724D01*
X121857143Y-118840724D02*
X122035715Y-118840724D01*
X122035715Y-118840724D02*
X122107143Y-118805010D01*
X122107143Y-118805010D02*
X122142857Y-118733581D01*
X122142857Y-118733581D02*
X122142857Y-118662152D01*
X122142857Y-118662152D02*
X122107143Y-118590724D01*
X122107143Y-118590724D02*
X122035715Y-118555010D01*
X122035715Y-118555010D02*
X121857143Y-118555010D01*
X121857143Y-118555010D02*
X121785715Y-118519295D01*
X121107144Y-118840724D02*
X121107144Y-118090724D01*
X121107144Y-118805010D02*
X121178572Y-118840724D01*
X121178572Y-118840724D02*
X121321429Y-118840724D01*
X121321429Y-118840724D02*
X121392858Y-118805010D01*
X121392858Y-118805010D02*
X121428572Y-118769295D01*
X121428572Y-118769295D02*
X121464286Y-118697867D01*
X121464286Y-118697867D02*
X121464286Y-118483581D01*
X121464286Y-118483581D02*
X121428572Y-118412152D01*
X121428572Y-118412152D02*
X121392858Y-118376438D01*
X121392858Y-118376438D02*
X121321429Y-118340724D01*
X121321429Y-118340724D02*
X121178572Y-118340724D01*
X121178572Y-118340724D02*
X121107144Y-118376438D01*
X120750001Y-118840724D02*
X120750001Y-118090724D01*
X120750001Y-118376438D02*
X120678573Y-118340724D01*
X120678573Y-118340724D02*
X120535715Y-118340724D01*
X120535715Y-118340724D02*
X120464287Y-118376438D01*
X120464287Y-118376438D02*
X120428573Y-118412152D01*
X120428573Y-118412152D02*
X120392858Y-118483581D01*
X120392858Y-118483581D02*
X120392858Y-118697867D01*
X120392858Y-118697867D02*
X120428573Y-118769295D01*
X120428573Y-118769295D02*
X120464287Y-118805010D01*
X120464287Y-118805010D02*
X120535715Y-118840724D01*
X120535715Y-118840724D02*
X120678573Y-118840724D01*
X120678573Y-118840724D02*
X120750001Y-118805010D01*
X119964287Y-118840724D02*
X120035716Y-118805010D01*
X120035716Y-118805010D02*
X120071430Y-118769295D01*
X120071430Y-118769295D02*
X120107144Y-118697867D01*
X120107144Y-118697867D02*
X120107144Y-118483581D01*
X120107144Y-118483581D02*
X120071430Y-118412152D01*
X120071430Y-118412152D02*
X120035716Y-118376438D01*
X120035716Y-118376438D02*
X119964287Y-118340724D01*
X119964287Y-118340724D02*
X119857144Y-118340724D01*
X119857144Y-118340724D02*
X119785716Y-118376438D01*
X119785716Y-118376438D02*
X119750002Y-118412152D01*
X119750002Y-118412152D02*
X119714287Y-118483581D01*
X119714287Y-118483581D02*
X119714287Y-118697867D01*
X119714287Y-118697867D02*
X119750002Y-118769295D01*
X119750002Y-118769295D02*
X119785716Y-118805010D01*
X119785716Y-118805010D02*
X119857144Y-118840724D01*
X119857144Y-118840724D02*
X119964287Y-118840724D01*
X119071431Y-118840724D02*
X119071431Y-118447867D01*
X119071431Y-118447867D02*
X119107145Y-118376438D01*
X119107145Y-118376438D02*
X119178573Y-118340724D01*
X119178573Y-118340724D02*
X119321431Y-118340724D01*
X119321431Y-118340724D02*
X119392859Y-118376438D01*
X119071431Y-118805010D02*
X119142859Y-118840724D01*
X119142859Y-118840724D02*
X119321431Y-118840724D01*
X119321431Y-118840724D02*
X119392859Y-118805010D01*
X119392859Y-118805010D02*
X119428573Y-118733581D01*
X119428573Y-118733581D02*
X119428573Y-118662152D01*
X119428573Y-118662152D02*
X119392859Y-118590724D01*
X119392859Y-118590724D02*
X119321431Y-118555010D01*
X119321431Y-118555010D02*
X119142859Y-118555010D01*
X119142859Y-118555010D02*
X119071431Y-118519295D01*
X118714288Y-118840724D02*
X118714288Y-118340724D01*
X118714288Y-118483581D02*
X118678574Y-118412152D01*
X118678574Y-118412152D02*
X118642860Y-118376438D01*
X118642860Y-118376438D02*
X118571431Y-118340724D01*
X118571431Y-118340724D02*
X118500002Y-118340724D01*
X117928574Y-118840724D02*
X117928574Y-118090724D01*
X117928574Y-118805010D02*
X118000002Y-118840724D01*
X118000002Y-118840724D02*
X118142859Y-118840724D01*
X118142859Y-118840724D02*
X118214288Y-118805010D01*
X118214288Y-118805010D02*
X118250002Y-118769295D01*
X118250002Y-118769295D02*
X118285716Y-118697867D01*
X118285716Y-118697867D02*
X118285716Y-118483581D01*
X118285716Y-118483581D02*
X118250002Y-118412152D01*
X118250002Y-118412152D02*
X118214288Y-118376438D01*
X118214288Y-118376438D02*
X118142859Y-118340724D01*
X118142859Y-118340724D02*
X118000002Y-118340724D01*
X118000002Y-118340724D02*
X117928574Y-118376438D01*
X117571431Y-118555010D02*
X117000003Y-118555010D01*
X116642860Y-118840724D02*
X116642860Y-118090724D01*
X116642860Y-118090724D02*
X116357146Y-118090724D01*
X116357146Y-118090724D02*
X116285717Y-118126438D01*
X116285717Y-118126438D02*
X116250003Y-118162152D01*
X116250003Y-118162152D02*
X116214289Y-118233581D01*
X116214289Y-118233581D02*
X116214289Y-118340724D01*
X116214289Y-118340724D02*
X116250003Y-118412152D01*
X116250003Y-118412152D02*
X116285717Y-118447867D01*
X116285717Y-118447867D02*
X116357146Y-118483581D01*
X116357146Y-118483581D02*
X116642860Y-118483581D01*
X115785717Y-118840724D02*
X115857146Y-118805010D01*
X115857146Y-118805010D02*
X115892860Y-118769295D01*
X115892860Y-118769295D02*
X115928574Y-118697867D01*
X115928574Y-118697867D02*
X115928574Y-118483581D01*
X115928574Y-118483581D02*
X115892860Y-118412152D01*
X115892860Y-118412152D02*
X115857146Y-118376438D01*
X115857146Y-118376438D02*
X115785717Y-118340724D01*
X115785717Y-118340724D02*
X115678574Y-118340724D01*
X115678574Y-118340724D02*
X115607146Y-118376438D01*
X115607146Y-118376438D02*
X115571432Y-118412152D01*
X115571432Y-118412152D02*
X115535717Y-118483581D01*
X115535717Y-118483581D02*
X115535717Y-118697867D01*
X115535717Y-118697867D02*
X115571432Y-118769295D01*
X115571432Y-118769295D02*
X115607146Y-118805010D01*
X115607146Y-118805010D02*
X115678574Y-118840724D01*
X115678574Y-118840724D02*
X115785717Y-118840724D01*
X115285718Y-118340724D02*
X115142861Y-118840724D01*
X115142861Y-118840724D02*
X115000003Y-118483581D01*
X115000003Y-118483581D02*
X114857146Y-118840724D01*
X114857146Y-118840724D02*
X114714289Y-118340724D01*
X114142861Y-118805010D02*
X114214289Y-118840724D01*
X114214289Y-118840724D02*
X114357147Y-118840724D01*
X114357147Y-118840724D02*
X114428575Y-118805010D01*
X114428575Y-118805010D02*
X114464289Y-118733581D01*
X114464289Y-118733581D02*
X114464289Y-118447867D01*
X114464289Y-118447867D02*
X114428575Y-118376438D01*
X114428575Y-118376438D02*
X114357147Y-118340724D01*
X114357147Y-118340724D02*
X114214289Y-118340724D01*
X114214289Y-118340724D02*
X114142861Y-118376438D01*
X114142861Y-118376438D02*
X114107147Y-118447867D01*
X114107147Y-118447867D02*
X114107147Y-118519295D01*
X114107147Y-118519295D02*
X114464289Y-118590724D01*
X113785718Y-118840724D02*
X113785718Y-118340724D01*
X113785718Y-118483581D02*
X113750004Y-118412152D01*
X113750004Y-118412152D02*
X113714290Y-118376438D01*
X113714290Y-118376438D02*
X113642861Y-118340724D01*
X113642861Y-118340724D02*
X113571432Y-118340724D01*
X113321432Y-118555010D02*
X112750004Y-118555010D01*
X112428575Y-118805010D02*
X112321433Y-118840724D01*
X112321433Y-118840724D02*
X112142861Y-118840724D01*
X112142861Y-118840724D02*
X112071433Y-118805010D01*
X112071433Y-118805010D02*
X112035718Y-118769295D01*
X112035718Y-118769295D02*
X112000004Y-118697867D01*
X112000004Y-118697867D02*
X112000004Y-118626438D01*
X112000004Y-118626438D02*
X112035718Y-118555010D01*
X112035718Y-118555010D02*
X112071433Y-118519295D01*
X112071433Y-118519295D02*
X112142861Y-118483581D01*
X112142861Y-118483581D02*
X112285718Y-118447867D01*
X112285718Y-118447867D02*
X112357147Y-118412152D01*
X112357147Y-118412152D02*
X112392861Y-118376438D01*
X112392861Y-118376438D02*
X112428575Y-118305010D01*
X112428575Y-118305010D02*
X112428575Y-118233581D01*
X112428575Y-118233581D02*
X112392861Y-118162152D01*
X112392861Y-118162152D02*
X112357147Y-118126438D01*
X112357147Y-118126438D02*
X112285718Y-118090724D01*
X112285718Y-118090724D02*
X112107147Y-118090724D01*
X112107147Y-118090724D02*
X112000004Y-118126438D01*
X111357147Y-118340724D02*
X111357147Y-118840724D01*
X111678575Y-118340724D02*
X111678575Y-118733581D01*
X111678575Y-118733581D02*
X111642861Y-118805010D01*
X111642861Y-118805010D02*
X111571432Y-118840724D01*
X111571432Y-118840724D02*
X111464289Y-118840724D01*
X111464289Y-118840724D02*
X111392861Y-118805010D01*
X111392861Y-118805010D02*
X111357147Y-118769295D01*
X111000004Y-118340724D02*
X111000004Y-119090724D01*
X111000004Y-118376438D02*
X110928576Y-118340724D01*
X110928576Y-118340724D02*
X110785718Y-118340724D01*
X110785718Y-118340724D02*
X110714290Y-118376438D01*
X110714290Y-118376438D02*
X110678576Y-118412152D01*
X110678576Y-118412152D02*
X110642861Y-118483581D01*
X110642861Y-118483581D02*
X110642861Y-118697867D01*
X110642861Y-118697867D02*
X110678576Y-118769295D01*
X110678576Y-118769295D02*
X110714290Y-118805010D01*
X110714290Y-118805010D02*
X110785718Y-118840724D01*
X110785718Y-118840724D02*
X110928576Y-118840724D01*
X110928576Y-118840724D02*
X111000004Y-118805010D01*
X110321433Y-118340724D02*
X110321433Y-119090724D01*
X110321433Y-118376438D02*
X110250005Y-118340724D01*
X110250005Y-118340724D02*
X110107147Y-118340724D01*
X110107147Y-118340724D02*
X110035719Y-118376438D01*
X110035719Y-118376438D02*
X110000005Y-118412152D01*
X110000005Y-118412152D02*
X109964290Y-118483581D01*
X109964290Y-118483581D02*
X109964290Y-118697867D01*
X109964290Y-118697867D02*
X110000005Y-118769295D01*
X110000005Y-118769295D02*
X110035719Y-118805010D01*
X110035719Y-118805010D02*
X110107147Y-118840724D01*
X110107147Y-118840724D02*
X110250005Y-118840724D01*
X110250005Y-118840724D02*
X110321433Y-118805010D01*
X109535719Y-118840724D02*
X109607148Y-118805010D01*
X109607148Y-118805010D02*
X109642862Y-118733581D01*
X109642862Y-118733581D02*
X109642862Y-118090724D01*
X109321434Y-118340724D02*
X109142862Y-118840724D01*
X108964291Y-118340724D02*
X109142862Y-118840724D01*
X109142862Y-118840724D02*
X109214291Y-119019295D01*
X109214291Y-119019295D02*
X109250005Y-119055010D01*
X109250005Y-119055010D02*
X109321434Y-119090724D01*
G36*
X124893030Y-114279479D02*
G01*
X124914972Y-114301421D01*
X124943387Y-114358251D01*
X124975713Y-114487551D01*
X124975713Y-114651354D01*
X124943387Y-114780653D01*
X124914972Y-114837483D01*
X124893028Y-114859427D01*
X124842977Y-114884453D01*
X124799878Y-114884453D01*
X124749826Y-114859427D01*
X124727881Y-114837482D01*
X124699468Y-114780657D01*
X124667142Y-114651351D01*
X124667142Y-114487554D01*
X124699468Y-114358248D01*
X124727881Y-114301422D01*
X124749825Y-114279479D01*
X124799878Y-114254453D01*
X124842977Y-114254453D01*
X124893030Y-114279479D01*
G37*
G36*
X125607316Y-114279479D02*
G01*
X125629258Y-114301421D01*
X125657673Y-114358251D01*
X125689999Y-114487551D01*
X125689999Y-114651354D01*
X125657673Y-114780653D01*
X125629258Y-114837483D01*
X125607314Y-114859427D01*
X125557263Y-114884453D01*
X125514164Y-114884453D01*
X125464112Y-114859427D01*
X125442167Y-114837482D01*
X125413754Y-114780657D01*
X125381428Y-114651351D01*
X125381428Y-114487554D01*
X125413754Y-114358248D01*
X125442167Y-114301422D01*
X125464111Y-114279479D01*
X125514164Y-114254453D01*
X125557263Y-114254453D01*
X125607316Y-114279479D01*
G37*
G36*
X128388603Y-114718588D02*
G01*
X128389909Y-114718152D01*
X128392857Y-114718739D01*
X128557264Y-114718739D01*
X128598135Y-114739174D01*
X128618571Y-114780046D01*
X128618571Y-114823145D01*
X128598135Y-114864017D01*
X128557264Y-114884453D01*
X128407022Y-114884453D01*
X128381429Y-114871656D01*
X128381429Y-114716623D01*
X128388603Y-114718588D01*
G37*
G36*
X123238182Y-114670167D02*
G01*
X123047530Y-114670167D01*
X123142856Y-114384189D01*
X123238182Y-114670167D01*
G37*
G36*
X124071600Y-113393448D02*
G01*
X124093543Y-113415392D01*
X124118570Y-113465445D01*
X124118570Y-113579973D01*
X124093543Y-113630025D01*
X124071599Y-113651969D01*
X124021548Y-113676995D01*
X123907021Y-113676995D01*
X123856968Y-113651968D01*
X123835025Y-113630026D01*
X123809999Y-113579973D01*
X123809999Y-113465445D01*
X123835024Y-113415394D01*
X123856970Y-113393448D01*
X123907021Y-113368423D01*
X124021550Y-113368423D01*
X124071600Y-113393448D01*
G37*
G36*
X124071601Y-113072021D02*
G01*
X124093543Y-113093963D01*
X124118570Y-113144016D01*
X124118570Y-113151401D01*
X124093543Y-113201454D01*
X124071601Y-113223396D01*
X124021548Y-113248423D01*
X123907021Y-113248423D01*
X123856968Y-113223396D01*
X123835024Y-113201452D01*
X123809999Y-113151401D01*
X123809999Y-113144016D01*
X123835024Y-113093965D01*
X123856968Y-113072021D01*
X123907021Y-113046995D01*
X124021548Y-113046995D01*
X124071601Y-113072021D01*
G37*
G36*
X127071600Y-113393448D02*
G01*
X127093543Y-113415392D01*
X127118570Y-113465445D01*
X127118570Y-113579973D01*
X127093543Y-113630025D01*
X127071599Y-113651969D01*
X127021548Y-113676995D01*
X126907021Y-113676995D01*
X126856968Y-113651968D01*
X126835025Y-113630026D01*
X126809999Y-113579973D01*
X126809999Y-113465445D01*
X126835024Y-113415394D01*
X126856970Y-113393448D01*
X126907021Y-113368423D01*
X127021550Y-113368423D01*
X127071600Y-113393448D01*
G37*
G36*
X127071601Y-113072021D02*
G01*
X127093543Y-113093963D01*
X127118570Y-113144016D01*
X127118570Y-113151401D01*
X127093543Y-113201454D01*
X127071601Y-113223396D01*
X127021548Y-113248423D01*
X126907021Y-113248423D01*
X126856968Y-113223396D01*
X126835024Y-113201452D01*
X126809999Y-113151401D01*
X126809999Y-113144016D01*
X126835024Y-113093965D01*
X126856968Y-113072021D01*
X126907021Y-113046995D01*
X127021548Y-113046995D01*
X127071601Y-113072021D01*
G37*
G36*
X130143333Y-115087786D02*
G01*
X122749674Y-115087786D01*
X122749674Y-114948706D01*
X122833007Y-114948706D01*
X122853544Y-114989780D01*
X122897109Y-115004302D01*
X122938183Y-114983765D01*
X122949777Y-114963427D01*
X123007530Y-114790167D01*
X123278182Y-114790167D01*
X123335935Y-114963426D01*
X123347528Y-114983765D01*
X123388603Y-115004302D01*
X123432168Y-114989780D01*
X123452705Y-114948706D01*
X123449777Y-114925479D01*
X123325149Y-114551596D01*
X123582856Y-114551596D01*
X123582856Y-114944453D01*
X123587423Y-114967414D01*
X123619895Y-114999886D01*
X123665817Y-114999886D01*
X123698289Y-114967414D01*
X123702856Y-114944453D01*
X123702856Y-114565760D01*
X123723291Y-114524888D01*
X123764164Y-114504453D01*
X123842977Y-114504453D01*
X123883849Y-114524889D01*
X123904285Y-114565760D01*
X123904285Y-114944453D01*
X123908852Y-114967414D01*
X123941324Y-114999886D01*
X123987246Y-114999886D01*
X124019718Y-114967414D01*
X124024285Y-114944453D01*
X124024285Y-114565760D01*
X124044720Y-114524888D01*
X124085592Y-114504453D01*
X124164405Y-114504453D01*
X124214458Y-114529479D01*
X124225713Y-114540733D01*
X124225713Y-114944453D01*
X124230280Y-114967414D01*
X124262752Y-114999886D01*
X124308674Y-114999886D01*
X124341146Y-114967414D01*
X124345713Y-114944453D01*
X124345713Y-114480167D01*
X124547142Y-114480167D01*
X124547142Y-114658739D01*
X124548575Y-114665946D01*
X124548933Y-114673291D01*
X124584648Y-114816148D01*
X124587454Y-114822090D01*
X124589191Y-114828429D01*
X124624905Y-114899857D01*
X124630802Y-114907455D01*
X124636144Y-114915450D01*
X124671858Y-114951165D01*
X124679856Y-114956509D01*
X124687452Y-114962405D01*
X124758880Y-114998119D01*
X124761778Y-114998912D01*
X124762752Y-114999886D01*
X124772184Y-115001762D01*
X124781460Y-115004302D01*
X124782765Y-115003866D01*
X124785713Y-115004453D01*
X124857142Y-115004453D01*
X124860089Y-115003866D01*
X124861395Y-115004302D01*
X124870670Y-115001762D01*
X124880103Y-114999886D01*
X124881076Y-114998912D01*
X124883975Y-114998119D01*
X124955404Y-114962405D01*
X124962999Y-114956509D01*
X124970998Y-114951165D01*
X125006712Y-114915450D01*
X125012053Y-114907455D01*
X125017951Y-114899857D01*
X125053665Y-114828429D01*
X125055400Y-114822090D01*
X125058208Y-114816148D01*
X125093922Y-114673291D01*
X125094279Y-114665946D01*
X125095713Y-114658739D01*
X125095713Y-114480167D01*
X125261428Y-114480167D01*
X125261428Y-114658739D01*
X125262861Y-114665946D01*
X125263219Y-114673291D01*
X125298934Y-114816148D01*
X125301740Y-114822090D01*
X125303477Y-114828429D01*
X125339191Y-114899857D01*
X125345088Y-114907455D01*
X125350430Y-114915450D01*
X125386144Y-114951165D01*
X125394142Y-114956509D01*
X125401738Y-114962405D01*
X125473166Y-114998119D01*
X125476064Y-114998912D01*
X125477038Y-114999886D01*
X125486470Y-115001762D01*
X125495746Y-115004302D01*
X125497051Y-115003866D01*
X125499999Y-115004453D01*
X125571428Y-115004453D01*
X125574375Y-115003866D01*
X125575681Y-115004302D01*
X125584956Y-115001762D01*
X125594389Y-114999886D01*
X125595362Y-114998912D01*
X125598261Y-114998119D01*
X125669690Y-114962405D01*
X125677285Y-114956509D01*
X125685284Y-114951165D01*
X125720998Y-114915450D01*
X125726339Y-114907455D01*
X125732237Y-114899857D01*
X125767951Y-114828429D01*
X125769686Y-114822090D01*
X125772494Y-114816148D01*
X125808208Y-114673291D01*
X125808565Y-114665946D01*
X125809999Y-114658739D01*
X125809999Y-114480167D01*
X125808565Y-114472959D01*
X125808208Y-114465615D01*
X125776132Y-114337310D01*
X125975714Y-114337310D01*
X125975714Y-114408739D01*
X125977590Y-114418172D01*
X125978793Y-114427713D01*
X126014507Y-114534855D01*
X126015995Y-114537465D01*
X126015995Y-114538842D01*
X126021335Y-114546834D01*
X126026101Y-114555194D01*
X126027333Y-114555810D01*
X126029002Y-114558307D01*
X126355147Y-114884453D01*
X126035714Y-114884453D01*
X126012753Y-114889020D01*
X125980281Y-114921492D01*
X125980281Y-114967414D01*
X126012753Y-114999886D01*
X126035714Y-115004453D01*
X126500000Y-115004453D01*
X126522961Y-114999886D01*
X126555433Y-114967414D01*
X126555433Y-114921492D01*
X126542426Y-114902026D01*
X126526178Y-114885778D01*
X127265996Y-114885778D01*
X127265996Y-114885779D01*
X127265996Y-114931701D01*
X127265998Y-114931703D01*
X127279003Y-114951165D01*
X127314716Y-114986879D01*
X127334182Y-114999886D01*
X127380104Y-114999886D01*
X127399569Y-114986879D01*
X127435283Y-114951166D01*
X127448287Y-114931703D01*
X127448290Y-114931701D01*
X127448290Y-114885779D01*
X127448290Y-114885778D01*
X127448287Y-114885775D01*
X127435284Y-114866313D01*
X127399570Y-114830598D01*
X127380105Y-114817591D01*
X127380104Y-114817591D01*
X127380103Y-114817591D01*
X127334181Y-114817591D01*
X127314716Y-114830598D01*
X127279002Y-114866313D01*
X127265998Y-114885775D01*
X127265996Y-114885778D01*
X126526178Y-114885778D01*
X126133318Y-114492919D01*
X127265996Y-114492919D01*
X127265996Y-114492920D01*
X127265996Y-114538842D01*
X127265998Y-114538844D01*
X127279002Y-114558307D01*
X127314716Y-114594022D01*
X127334181Y-114607029D01*
X127334182Y-114607029D01*
X127334183Y-114607029D01*
X127380105Y-114607029D01*
X127399570Y-114594022D01*
X127435284Y-114558307D01*
X127448287Y-114538844D01*
X127448290Y-114538842D01*
X127448290Y-114492920D01*
X127448290Y-114492919D01*
X127448287Y-114492916D01*
X127435283Y-114473454D01*
X127422475Y-114460646D01*
X127585084Y-114460646D01*
X127595679Y-114481522D01*
X127762981Y-114694453D01*
X127595679Y-114907384D01*
X127585084Y-114928260D01*
X127590556Y-114973855D01*
X127626665Y-115002227D01*
X127672260Y-114996755D01*
X127690037Y-114981522D01*
X127839286Y-114791568D01*
X127988536Y-114981523D01*
X128006313Y-114996756D01*
X128051908Y-115002227D01*
X128088018Y-114973855D01*
X128093489Y-114928260D01*
X128082894Y-114907384D01*
X127915591Y-114694453D01*
X128027836Y-114551596D01*
X128261429Y-114551596D01*
X128261429Y-114944453D01*
X128265996Y-114967414D01*
X128298468Y-114999886D01*
X128344390Y-114999886D01*
X128352779Y-114991496D01*
X128366024Y-114998119D01*
X128368922Y-114998912D01*
X128369896Y-114999886D01*
X128379328Y-115001762D01*
X128388604Y-115004302D01*
X128389909Y-115003866D01*
X128392857Y-115004453D01*
X128571429Y-115004453D01*
X128574376Y-115003866D01*
X128575682Y-115004302D01*
X128584957Y-115001762D01*
X128594390Y-114999886D01*
X128595363Y-114998912D01*
X128598262Y-114998119D01*
X128669690Y-114962405D01*
X128679127Y-114955080D01*
X128682170Y-114954066D01*
X128684799Y-114950677D01*
X128688184Y-114948051D01*
X128689197Y-114945011D01*
X128696523Y-114935572D01*
X128732237Y-114864142D01*
X128733030Y-114861244D01*
X128734004Y-114860271D01*
X128735880Y-114850836D01*
X128738420Y-114841563D01*
X128737984Y-114840257D01*
X128738571Y-114837310D01*
X128738571Y-114765881D01*
X128737984Y-114762933D01*
X128738420Y-114761628D01*
X128735880Y-114752352D01*
X128734004Y-114742920D01*
X128733030Y-114741946D01*
X128732237Y-114739048D01*
X128696523Y-114667620D01*
X128689197Y-114658181D01*
X128688184Y-114655141D01*
X128684797Y-114652512D01*
X128682169Y-114649126D01*
X128679128Y-114648112D01*
X128669690Y-114640787D01*
X128598262Y-114605073D01*
X128595363Y-114604279D01*
X128594390Y-114603306D01*
X128584957Y-114601429D01*
X128575682Y-114598890D01*
X128574376Y-114599325D01*
X128571429Y-114598739D01*
X128407022Y-114598739D01*
X128381429Y-114585942D01*
X128381429Y-114565760D01*
X128388511Y-114551596D01*
X128940000Y-114551596D01*
X128940000Y-114944453D01*
X128944567Y-114967414D01*
X128977039Y-114999886D01*
X129022961Y-114999886D01*
X129055433Y-114967414D01*
X129060000Y-114944453D01*
X129060000Y-114565760D01*
X129080435Y-114524888D01*
X129121308Y-114504453D01*
X129200121Y-114504453D01*
X129240993Y-114524889D01*
X129261429Y-114565760D01*
X129261429Y-114944453D01*
X129265996Y-114967414D01*
X129298468Y-114999886D01*
X129344390Y-114999886D01*
X129376862Y-114967414D01*
X129381429Y-114944453D01*
X129381429Y-114565760D01*
X129401864Y-114524888D01*
X129442736Y-114504453D01*
X129521549Y-114504453D01*
X129571602Y-114529479D01*
X129582857Y-114540733D01*
X129582857Y-114944453D01*
X129587424Y-114967414D01*
X129619896Y-114999886D01*
X129665818Y-114999886D01*
X129698290Y-114967414D01*
X129702857Y-114944453D01*
X129702857Y-114444453D01*
X129698290Y-114421492D01*
X129665818Y-114389020D01*
X129619896Y-114389020D01*
X129599601Y-114409314D01*
X129562547Y-114390787D01*
X129559648Y-114389993D01*
X129558675Y-114389020D01*
X129549242Y-114387143D01*
X129539967Y-114384604D01*
X129538661Y-114385039D01*
X129535714Y-114384453D01*
X129428571Y-114384453D01*
X129425623Y-114385039D01*
X129424318Y-114384604D01*
X129415042Y-114387143D01*
X129405610Y-114389020D01*
X129404636Y-114389993D01*
X129401738Y-114390787D01*
X129330310Y-114426501D01*
X129321428Y-114433394D01*
X129312547Y-114426501D01*
X129241119Y-114390787D01*
X129238220Y-114389993D01*
X129237247Y-114389020D01*
X129227814Y-114387143D01*
X129218539Y-114384604D01*
X129217233Y-114385039D01*
X129214286Y-114384453D01*
X129107143Y-114384453D01*
X129104195Y-114385039D01*
X129102890Y-114384604D01*
X129093616Y-114387143D01*
X129084182Y-114389020D01*
X129083208Y-114389993D01*
X129080311Y-114390787D01*
X129008881Y-114426501D01*
X128999441Y-114433826D01*
X128996402Y-114434840D01*
X128993775Y-114438224D01*
X128990387Y-114440854D01*
X128989372Y-114443896D01*
X128982048Y-114453334D01*
X128946334Y-114524763D01*
X128945540Y-114527661D01*
X128944567Y-114528635D01*
X128942690Y-114538067D01*
X128940151Y-114547343D01*
X128940586Y-114548648D01*
X128940000Y-114551596D01*
X128388511Y-114551596D01*
X128401864Y-114524888D01*
X128442736Y-114504453D01*
X128557264Y-114504453D01*
X128616024Y-114533833D01*
X128638604Y-114540016D01*
X128682169Y-114525494D01*
X128702706Y-114484420D01*
X128688184Y-114440855D01*
X128669690Y-114426501D01*
X128598262Y-114390787D01*
X128595363Y-114389993D01*
X128594390Y-114389020D01*
X128584957Y-114387143D01*
X128575682Y-114384604D01*
X128574376Y-114385039D01*
X128571429Y-114384453D01*
X128428571Y-114384453D01*
X128425623Y-114385039D01*
X128424318Y-114384604D01*
X128415042Y-114387143D01*
X128405610Y-114389020D01*
X128404636Y-114389993D01*
X128401738Y-114390787D01*
X128330310Y-114426501D01*
X128320871Y-114433826D01*
X128317831Y-114434840D01*
X128315202Y-114438226D01*
X128311816Y-114440855D01*
X128310802Y-114443895D01*
X128303477Y-114453334D01*
X128267763Y-114524763D01*
X128266969Y-114527661D01*
X128265996Y-114528635D01*
X128264119Y-114538067D01*
X128261580Y-114547343D01*
X128262015Y-114548648D01*
X128261429Y-114551596D01*
X128027836Y-114551596D01*
X128082894Y-114481522D01*
X128093489Y-114460646D01*
X128088018Y-114415051D01*
X128051908Y-114386679D01*
X128006313Y-114392150D01*
X127988536Y-114407383D01*
X127839286Y-114597337D01*
X127690037Y-114407384D01*
X127672260Y-114392151D01*
X127626665Y-114386679D01*
X127590556Y-114415051D01*
X127585084Y-114460646D01*
X127422475Y-114460646D01*
X127399569Y-114437741D01*
X127380104Y-114424734D01*
X127334182Y-114424734D01*
X127314716Y-114437741D01*
X127279003Y-114473455D01*
X127265998Y-114492916D01*
X127265996Y-114492919D01*
X126133318Y-114492919D01*
X126123870Y-114483471D01*
X126095714Y-114399002D01*
X126095714Y-114351474D01*
X126120739Y-114301423D01*
X126142683Y-114279479D01*
X126192736Y-114254453D01*
X126342978Y-114254453D01*
X126393031Y-114279479D01*
X126421858Y-114308307D01*
X126441324Y-114321314D01*
X126487246Y-114321314D01*
X126519718Y-114288842D01*
X126519718Y-114242920D01*
X126506711Y-114223454D01*
X126477709Y-114194453D01*
X129940000Y-114194453D01*
X129940000Y-114944453D01*
X129944567Y-114967414D01*
X129977039Y-114999886D01*
X130022961Y-114999886D01*
X130055433Y-114967414D01*
X130060000Y-114944453D01*
X130060000Y-114194453D01*
X130055433Y-114171492D01*
X130022961Y-114139020D01*
X129977039Y-114139020D01*
X129944567Y-114171492D01*
X129940000Y-114194453D01*
X126477709Y-114194453D01*
X126470997Y-114187741D01*
X126463005Y-114182401D01*
X126455404Y-114176501D01*
X126383976Y-114140787D01*
X126381077Y-114139993D01*
X126380104Y-114139020D01*
X126370671Y-114137143D01*
X126361396Y-114134604D01*
X126360090Y-114135039D01*
X126357143Y-114134453D01*
X126178571Y-114134453D01*
X126175623Y-114135039D01*
X126174318Y-114134604D01*
X126165042Y-114137143D01*
X126155610Y-114139020D01*
X126154636Y-114139993D01*
X126151738Y-114140787D01*
X126080310Y-114176501D01*
X126072711Y-114182398D01*
X126064717Y-114187740D01*
X126029002Y-114223454D01*
X126023657Y-114231452D01*
X126017762Y-114239048D01*
X125982048Y-114310477D01*
X125981254Y-114313375D01*
X125980281Y-114314349D01*
X125978404Y-114323781D01*
X125975865Y-114333057D01*
X125976300Y-114334362D01*
X125975714Y-114337310D01*
X125776132Y-114337310D01*
X125772494Y-114322758D01*
X125769686Y-114316814D01*
X125767951Y-114310478D01*
X125732237Y-114239048D01*
X125726337Y-114231446D01*
X125720997Y-114223454D01*
X125685283Y-114187741D01*
X125677291Y-114182401D01*
X125669690Y-114176501D01*
X125598261Y-114140787D01*
X125595362Y-114139993D01*
X125594389Y-114139020D01*
X125584956Y-114137143D01*
X125575681Y-114134604D01*
X125574375Y-114135039D01*
X125571428Y-114134453D01*
X125499999Y-114134453D01*
X125497051Y-114135039D01*
X125495746Y-114134604D01*
X125486470Y-114137143D01*
X125477038Y-114139020D01*
X125476064Y-114139993D01*
X125473166Y-114140787D01*
X125401738Y-114176501D01*
X125394139Y-114182398D01*
X125386144Y-114187741D01*
X125350431Y-114223455D01*
X125345091Y-114231446D01*
X125339191Y-114239048D01*
X125303477Y-114310477D01*
X125301740Y-114316815D01*
X125298934Y-114322758D01*
X125263219Y-114465615D01*
X125262861Y-114472959D01*
X125261428Y-114480167D01*
X125095713Y-114480167D01*
X125094279Y-114472959D01*
X125093922Y-114465615D01*
X125058208Y-114322758D01*
X125055400Y-114316814D01*
X125053665Y-114310478D01*
X125017951Y-114239048D01*
X125012051Y-114231446D01*
X125006711Y-114223454D01*
X124970997Y-114187741D01*
X124963005Y-114182401D01*
X124955404Y-114176501D01*
X124883975Y-114140787D01*
X124881076Y-114139993D01*
X124880103Y-114139020D01*
X124870670Y-114137143D01*
X124861395Y-114134604D01*
X124860089Y-114135039D01*
X124857142Y-114134453D01*
X124785713Y-114134453D01*
X124782765Y-114135039D01*
X124781460Y-114134604D01*
X124772184Y-114137143D01*
X124762752Y-114139020D01*
X124761778Y-114139993D01*
X124758880Y-114140787D01*
X124687452Y-114176501D01*
X124679853Y-114182398D01*
X124671858Y-114187741D01*
X124636145Y-114223455D01*
X124630805Y-114231446D01*
X124624905Y-114239048D01*
X124589191Y-114310477D01*
X124587454Y-114316815D01*
X124584648Y-114322758D01*
X124548933Y-114465615D01*
X124548575Y-114472959D01*
X124547142Y-114480167D01*
X124345713Y-114480167D01*
X124345713Y-114444453D01*
X124341146Y-114421492D01*
X124308674Y-114389020D01*
X124262752Y-114389020D01*
X124242457Y-114409314D01*
X124205403Y-114390787D01*
X124202504Y-114389993D01*
X124201531Y-114389020D01*
X124192098Y-114387143D01*
X124182823Y-114384604D01*
X124181517Y-114385039D01*
X124178570Y-114384453D01*
X124071427Y-114384453D01*
X124068479Y-114385039D01*
X124067174Y-114384604D01*
X124057898Y-114387143D01*
X124048466Y-114389020D01*
X124047492Y-114389993D01*
X124044594Y-114390787D01*
X123973166Y-114426501D01*
X123964284Y-114433394D01*
X123955403Y-114426501D01*
X123883975Y-114390787D01*
X123881076Y-114389993D01*
X123880103Y-114389020D01*
X123870670Y-114387143D01*
X123861395Y-114384604D01*
X123860089Y-114385039D01*
X123857142Y-114384453D01*
X123749999Y-114384453D01*
X123747051Y-114385039D01*
X123745746Y-114384604D01*
X123736472Y-114387143D01*
X123727038Y-114389020D01*
X123726064Y-114389993D01*
X123723167Y-114390787D01*
X123651737Y-114426501D01*
X123642297Y-114433826D01*
X123639258Y-114434840D01*
X123636631Y-114438224D01*
X123633243Y-114440854D01*
X123632228Y-114443896D01*
X123624904Y-114453334D01*
X123589190Y-114524763D01*
X123588396Y-114527661D01*
X123587423Y-114528635D01*
X123585546Y-114538067D01*
X123583007Y-114547343D01*
X123583442Y-114548648D01*
X123582856Y-114551596D01*
X123325149Y-114551596D01*
X123199777Y-114175479D01*
X123188183Y-114155141D01*
X123184173Y-114153136D01*
X123182168Y-114149126D01*
X123164122Y-114143110D01*
X123147109Y-114134604D01*
X123142856Y-114136021D01*
X123138603Y-114134604D01*
X123121588Y-114143111D01*
X123103544Y-114149126D01*
X123101539Y-114153135D01*
X123097528Y-114155141D01*
X123085935Y-114175480D01*
X122835935Y-114925479D01*
X122833007Y-114948706D01*
X122749674Y-114948706D01*
X122749674Y-112982742D01*
X122975864Y-112982742D01*
X122978792Y-113005969D01*
X123228792Y-113755968D01*
X123240385Y-113776307D01*
X123244396Y-113778312D01*
X123246401Y-113782322D01*
X123264445Y-113788336D01*
X123281460Y-113796844D01*
X123285713Y-113795426D01*
X123289966Y-113796844D01*
X123306979Y-113788337D01*
X123325025Y-113782322D01*
X123327030Y-113778312D01*
X123331040Y-113776307D01*
X123342634Y-113755969D01*
X123551340Y-113129852D01*
X123689999Y-113129852D01*
X123689999Y-113165566D01*
X123690585Y-113168513D01*
X123690150Y-113169819D01*
X123692689Y-113179094D01*
X123694566Y-113188527D01*
X123695539Y-113189500D01*
X123696333Y-113192399D01*
X123732047Y-113263828D01*
X123737942Y-113271423D01*
X123743287Y-113279422D01*
X123772289Y-113308423D01*
X123743287Y-113337425D01*
X123737942Y-113345423D01*
X123732047Y-113353019D01*
X123696333Y-113424448D01*
X123695539Y-113427346D01*
X123694566Y-113428320D01*
X123692689Y-113437752D01*
X123690150Y-113447028D01*
X123690585Y-113448333D01*
X123689999Y-113451281D01*
X123689999Y-113594138D01*
X123690585Y-113597085D01*
X123690150Y-113598391D01*
X123692689Y-113607666D01*
X123694566Y-113617099D01*
X123695539Y-113618072D01*
X123696333Y-113620971D01*
X123732047Y-113692399D01*
X123737947Y-113700000D01*
X123743287Y-113707992D01*
X123779002Y-113743708D01*
X123786998Y-113749051D01*
X123794595Y-113754947D01*
X123866023Y-113790661D01*
X123868921Y-113791454D01*
X123869895Y-113792428D01*
X123879327Y-113794304D01*
X123888603Y-113796844D01*
X123889908Y-113796408D01*
X123892856Y-113796995D01*
X124035713Y-113796995D01*
X124038660Y-113796408D01*
X124039966Y-113796844D01*
X124049241Y-113794304D01*
X124058674Y-113792428D01*
X124059647Y-113791454D01*
X124062546Y-113790661D01*
X124133975Y-113754947D01*
X124141570Y-113749051D01*
X124149569Y-113743707D01*
X124179241Y-113714034D01*
X124408852Y-113714034D01*
X124408852Y-113759956D01*
X124441324Y-113792428D01*
X124464285Y-113796995D01*
X124892856Y-113796995D01*
X124915817Y-113792428D01*
X124948289Y-113759956D01*
X124948289Y-113714034D01*
X124915817Y-113681562D01*
X124892856Y-113676995D01*
X124738571Y-113676995D01*
X124738571Y-113428320D01*
X125158852Y-113428320D01*
X125158852Y-113474242D01*
X125191324Y-113506714D01*
X125214285Y-113511281D01*
X125785713Y-113511281D01*
X125808674Y-113506714D01*
X125841146Y-113474242D01*
X125841146Y-113428320D01*
X125808674Y-113395848D01*
X125785713Y-113391281D01*
X125214285Y-113391281D01*
X125191324Y-113395848D01*
X125158852Y-113428320D01*
X124738571Y-113428320D01*
X124738571Y-113167562D01*
X124779002Y-113207993D01*
X124787001Y-113213337D01*
X124794595Y-113219231D01*
X124866022Y-113254946D01*
X124888602Y-113261130D01*
X124932167Y-113246609D01*
X124952705Y-113205535D01*
X124938183Y-113161969D01*
X124919689Y-113147615D01*
X124856970Y-113116255D01*
X124796625Y-113055911D01*
X124747846Y-112982742D01*
X125975864Y-112982742D01*
X125978792Y-113005969D01*
X126228792Y-113755968D01*
X126240385Y-113776307D01*
X126244396Y-113778312D01*
X126246401Y-113782322D01*
X126264445Y-113788336D01*
X126281460Y-113796844D01*
X126285713Y-113795426D01*
X126289966Y-113796844D01*
X126306979Y-113788337D01*
X126325025Y-113782322D01*
X126327030Y-113778312D01*
X126331040Y-113776307D01*
X126342634Y-113755969D01*
X126551340Y-113129852D01*
X126689999Y-113129852D01*
X126689999Y-113165566D01*
X126690585Y-113168513D01*
X126690150Y-113169819D01*
X126692689Y-113179094D01*
X126694566Y-113188527D01*
X126695539Y-113189500D01*
X126696333Y-113192399D01*
X126732047Y-113263828D01*
X126737942Y-113271423D01*
X126743287Y-113279422D01*
X126772289Y-113308423D01*
X126743287Y-113337425D01*
X126737942Y-113345423D01*
X126732047Y-113353019D01*
X126696333Y-113424448D01*
X126695539Y-113427346D01*
X126694566Y-113428320D01*
X126692689Y-113437752D01*
X126690150Y-113447028D01*
X126690585Y-113448333D01*
X126689999Y-113451281D01*
X126689999Y-113594138D01*
X126690585Y-113597085D01*
X126690150Y-113598391D01*
X126692689Y-113607666D01*
X126694566Y-113617099D01*
X126695539Y-113618072D01*
X126696333Y-113620971D01*
X126732047Y-113692399D01*
X126737947Y-113700000D01*
X126743287Y-113707992D01*
X126779002Y-113743708D01*
X126786998Y-113749051D01*
X126794595Y-113754947D01*
X126866023Y-113790661D01*
X126868921Y-113791454D01*
X126869895Y-113792428D01*
X126879327Y-113794304D01*
X126888603Y-113796844D01*
X126889908Y-113796408D01*
X126892856Y-113796995D01*
X127035713Y-113796995D01*
X127038660Y-113796408D01*
X127039966Y-113796844D01*
X127049241Y-113794304D01*
X127058674Y-113792428D01*
X127059647Y-113791454D01*
X127062546Y-113790661D01*
X127133975Y-113754947D01*
X127141570Y-113749051D01*
X127149569Y-113743707D01*
X127185283Y-113707992D01*
X127190624Y-113699997D01*
X127196522Y-113692399D01*
X127203562Y-113678320D01*
X127980281Y-113678320D01*
X127980281Y-113678321D01*
X127980281Y-113724243D01*
X127980283Y-113724245D01*
X127993288Y-113743707D01*
X128029001Y-113779421D01*
X128048467Y-113792428D01*
X128094389Y-113792428D01*
X128113854Y-113779421D01*
X128149568Y-113743708D01*
X128162572Y-113724245D01*
X128162575Y-113724243D01*
X128162575Y-113678321D01*
X128162575Y-113678320D01*
X128162572Y-113678317D01*
X128149569Y-113658855D01*
X128113855Y-113623140D01*
X128094390Y-113610133D01*
X128094389Y-113610133D01*
X128094388Y-113610133D01*
X128048466Y-113610133D01*
X128029001Y-113623140D01*
X127993287Y-113658855D01*
X127980283Y-113678317D01*
X127980281Y-113678320D01*
X127203562Y-113678320D01*
X127232236Y-113620971D01*
X127233029Y-113618072D01*
X127234003Y-113617099D01*
X127235879Y-113607666D01*
X127238419Y-113598391D01*
X127237983Y-113597085D01*
X127238570Y-113594138D01*
X127238570Y-113451281D01*
X127237983Y-113448333D01*
X127238419Y-113447028D01*
X127235879Y-113437754D01*
X127234003Y-113428320D01*
X127233029Y-113427346D01*
X127232236Y-113424449D01*
X127196522Y-113353019D01*
X127190622Y-113345417D01*
X127185282Y-113337425D01*
X127156279Y-113308423D01*
X127179243Y-113285461D01*
X127980281Y-113285461D01*
X127980281Y-113285462D01*
X127980281Y-113331384D01*
X127980283Y-113331386D01*
X127993287Y-113350849D01*
X128029001Y-113386564D01*
X128048466Y-113399571D01*
X128048467Y-113399571D01*
X128048468Y-113399571D01*
X128094390Y-113399571D01*
X128113855Y-113386564D01*
X128149569Y-113350849D01*
X128162572Y-113331386D01*
X128162575Y-113331384D01*
X128162575Y-113285462D01*
X128162575Y-113285461D01*
X128162572Y-113285458D01*
X128149568Y-113265996D01*
X128113854Y-113230283D01*
X128094389Y-113217276D01*
X128048467Y-113217276D01*
X128029001Y-113230283D01*
X127993288Y-113265997D01*
X127980283Y-113285458D01*
X127980281Y-113285461D01*
X127179243Y-113285461D01*
X127185282Y-113279422D01*
X127190622Y-113271429D01*
X127196522Y-113263828D01*
X127232236Y-113192398D01*
X127233029Y-113189500D01*
X127234003Y-113188527D01*
X127235879Y-113179092D01*
X127238419Y-113169819D01*
X127237983Y-113168513D01*
X127238570Y-113165566D01*
X127238570Y-113129852D01*
X127237983Y-113126904D01*
X127238419Y-113125599D01*
X127235879Y-113116325D01*
X127234003Y-113106891D01*
X127233029Y-113105917D01*
X127232236Y-113103020D01*
X127196522Y-113031590D01*
X127190622Y-113023988D01*
X127185282Y-113015996D01*
X127156280Y-112986995D01*
X128368571Y-112986995D01*
X128368571Y-113736995D01*
X128373138Y-113759956D01*
X128378965Y-113765783D01*
X128381133Y-113773732D01*
X128394622Y-113781440D01*
X128405610Y-113792428D01*
X128413850Y-113792428D01*
X128421004Y-113796516D01*
X128435993Y-113792428D01*
X128451532Y-113792428D01*
X128457359Y-113786600D01*
X128465308Y-113784433D01*
X128480666Y-113766763D01*
X128797142Y-113212929D01*
X128797142Y-113736995D01*
X128801709Y-113759956D01*
X128834181Y-113792428D01*
X128880103Y-113792428D01*
X128912575Y-113759956D01*
X128917142Y-113736995D01*
X128917142Y-112986995D01*
X129154285Y-112986995D01*
X129154285Y-113736995D01*
X129158852Y-113759956D01*
X129191324Y-113792428D01*
X129237246Y-113792428D01*
X129269718Y-113759956D01*
X129274285Y-113736995D01*
X129274285Y-112986995D01*
X129273439Y-112982742D01*
X129404436Y-112982742D01*
X129407364Y-113005969D01*
X129657364Y-113755968D01*
X129668957Y-113776307D01*
X129672968Y-113778312D01*
X129674973Y-113782322D01*
X129693017Y-113788336D01*
X129710032Y-113796844D01*
X129714285Y-113795426D01*
X129718538Y-113796844D01*
X129735551Y-113788337D01*
X129753597Y-113782322D01*
X129755602Y-113778312D01*
X129759612Y-113776307D01*
X129771206Y-113755969D01*
X130021206Y-113005969D01*
X130024134Y-112982742D01*
X130003597Y-112941668D01*
X129960032Y-112927146D01*
X129918957Y-112947683D01*
X129907364Y-112968022D01*
X129714285Y-113547258D01*
X129521206Y-112968021D01*
X129509612Y-112947683D01*
X129468538Y-112927146D01*
X129424973Y-112941668D01*
X129404436Y-112982742D01*
X129273439Y-112982742D01*
X129269718Y-112964034D01*
X129237246Y-112931562D01*
X129191324Y-112931562D01*
X129158852Y-112964034D01*
X129154285Y-112986995D01*
X128917142Y-112986995D01*
X128912575Y-112964034D01*
X128906747Y-112958206D01*
X128904580Y-112950258D01*
X128891090Y-112942549D01*
X128880103Y-112931562D01*
X128871863Y-112931562D01*
X128864709Y-112927474D01*
X128849719Y-112931562D01*
X128834181Y-112931562D01*
X128828354Y-112937388D01*
X128820404Y-112939557D01*
X128805047Y-112957227D01*
X128488571Y-113511060D01*
X128488571Y-112986995D01*
X128484004Y-112964034D01*
X128451532Y-112931562D01*
X128405610Y-112931562D01*
X128373138Y-112964034D01*
X128368571Y-112986995D01*
X127156280Y-112986995D01*
X127149568Y-112980283D01*
X127141576Y-112974943D01*
X127133975Y-112969043D01*
X127062546Y-112933329D01*
X127059647Y-112932535D01*
X127058674Y-112931562D01*
X127049241Y-112929685D01*
X127039966Y-112927146D01*
X127038660Y-112927581D01*
X127035713Y-112926995D01*
X126892856Y-112926995D01*
X126889908Y-112927581D01*
X126888603Y-112927146D01*
X126879327Y-112929685D01*
X126869895Y-112931562D01*
X126868921Y-112932535D01*
X126866023Y-112933329D01*
X126794595Y-112969043D01*
X126786996Y-112974940D01*
X126779002Y-112980282D01*
X126743287Y-113015996D01*
X126737942Y-113023994D01*
X126732047Y-113031590D01*
X126696333Y-113103019D01*
X126695539Y-113105917D01*
X126694566Y-113106891D01*
X126692689Y-113116323D01*
X126690150Y-113125599D01*
X126690585Y-113126904D01*
X126689999Y-113129852D01*
X126551340Y-113129852D01*
X126592634Y-113005969D01*
X126595562Y-112982742D01*
X126575025Y-112941668D01*
X126531460Y-112927146D01*
X126490385Y-112947683D01*
X126478792Y-112968022D01*
X126285713Y-113547258D01*
X126092634Y-112968021D01*
X126081040Y-112947683D01*
X126039966Y-112927146D01*
X125996401Y-112941668D01*
X125975864Y-112982742D01*
X124747846Y-112982742D01*
X124728494Y-112953713D01*
X124711958Y-112937142D01*
X124705900Y-112935930D01*
X124701532Y-112931562D01*
X124684060Y-112931562D01*
X124666927Y-112928135D01*
X124661787Y-112931562D01*
X124655610Y-112931562D01*
X124643256Y-112943915D01*
X124628718Y-112953608D01*
X124627506Y-112959665D01*
X124623138Y-112964034D01*
X124618571Y-112986995D01*
X124618571Y-113676995D01*
X124464285Y-113676995D01*
X124441324Y-113681562D01*
X124408852Y-113714034D01*
X124179241Y-113714034D01*
X124185283Y-113707992D01*
X124190624Y-113699997D01*
X124196522Y-113692399D01*
X124232236Y-113620971D01*
X124233029Y-113618072D01*
X124234003Y-113617099D01*
X124235879Y-113607666D01*
X124238419Y-113598391D01*
X124237983Y-113597085D01*
X124238570Y-113594138D01*
X124238570Y-113451281D01*
X124237983Y-113448333D01*
X124238419Y-113447028D01*
X124235879Y-113437754D01*
X124234003Y-113428320D01*
X124233029Y-113427346D01*
X124232236Y-113424449D01*
X124196522Y-113353019D01*
X124190622Y-113345417D01*
X124185282Y-113337425D01*
X124156279Y-113308423D01*
X124185282Y-113279422D01*
X124190622Y-113271429D01*
X124196522Y-113263828D01*
X124232236Y-113192398D01*
X124233029Y-113189500D01*
X124234003Y-113188527D01*
X124235879Y-113179092D01*
X124238419Y-113169819D01*
X124237983Y-113168513D01*
X124238570Y-113165566D01*
X124238570Y-113129852D01*
X124237983Y-113126904D01*
X124238419Y-113125599D01*
X124235879Y-113116325D01*
X124234003Y-113106891D01*
X124233029Y-113105917D01*
X124232236Y-113103020D01*
X124196522Y-113031590D01*
X124190622Y-113023988D01*
X124185282Y-113015996D01*
X124149568Y-112980283D01*
X124141576Y-112974943D01*
X124133975Y-112969043D01*
X124062546Y-112933329D01*
X124059647Y-112932535D01*
X124058674Y-112931562D01*
X124049241Y-112929685D01*
X124039966Y-112927146D01*
X124038660Y-112927581D01*
X124035713Y-112926995D01*
X123892856Y-112926995D01*
X123889908Y-112927581D01*
X123888603Y-112927146D01*
X123879327Y-112929685D01*
X123869895Y-112931562D01*
X123868921Y-112932535D01*
X123866023Y-112933329D01*
X123794595Y-112969043D01*
X123786996Y-112974940D01*
X123779002Y-112980282D01*
X123743287Y-113015996D01*
X123737942Y-113023994D01*
X123732047Y-113031590D01*
X123696333Y-113103019D01*
X123695539Y-113105917D01*
X123694566Y-113106891D01*
X123692689Y-113116323D01*
X123690150Y-113125599D01*
X123690585Y-113126904D01*
X123689999Y-113129852D01*
X123551340Y-113129852D01*
X123592634Y-113005969D01*
X123595562Y-112982742D01*
X123575025Y-112941668D01*
X123531460Y-112927146D01*
X123490385Y-112947683D01*
X123478792Y-112968022D01*
X123285713Y-113547258D01*
X123092634Y-112968021D01*
X123081040Y-112947683D01*
X123039966Y-112927146D01*
X122996401Y-112941668D01*
X122975864Y-112982742D01*
X122749674Y-112982742D01*
X122749674Y-112843662D01*
X130143333Y-112843662D01*
X130143333Y-115087786D01*
G37*
D14*
%TO.C,REF\u002A\u002A\u002A*%
X123982829Y-105951097D02*
X124042753Y-105973355D01*
X124067673Y-105990080D01*
X124092910Y-106014043D01*
X124110912Y-106044526D01*
X124122858Y-106086023D01*
X124129930Y-106143032D01*
X124133308Y-106220047D01*
X124134171Y-106321565D01*
X124134002Y-106374027D01*
X124133153Y-106445715D01*
X124131711Y-106502925D01*
X124129814Y-106540809D01*
X124127597Y-106554514D01*
X124113172Y-106549981D01*
X124084054Y-106537670D01*
X124083181Y-106537272D01*
X124068060Y-106529356D01*
X124057891Y-106518495D01*
X124051691Y-106499471D01*
X124048478Y-106467069D01*
X124047270Y-106416071D01*
X124047086Y-106341261D01*
X124046714Y-106293804D01*
X124042750Y-106204615D01*
X124033673Y-106139287D01*
X124018524Y-106094393D01*
X123996345Y-106066507D01*
X123966175Y-106052203D01*
X123961990Y-106051206D01*
X123905480Y-106050427D01*
X123861410Y-106075744D01*
X123830972Y-106126502D01*
X123825544Y-106141175D01*
X123813171Y-106173649D01*
X123806905Y-106188572D01*
X123794036Y-106186516D01*
X123765933Y-106175357D01*
X123739721Y-106156927D01*
X123727771Y-106122098D01*
X123731336Y-106097151D01*
X123753235Y-106046547D01*
X123788644Y-105999128D01*
X123830052Y-105966334D01*
X123847400Y-105958752D01*
X123913089Y-105946076D01*
X123982829Y-105951097D01*
G36*
X123982829Y-105951097D02*
G01*
X124042753Y-105973355D01*
X124067673Y-105990080D01*
X124092910Y-106014043D01*
X124110912Y-106044526D01*
X124122858Y-106086023D01*
X124129930Y-106143032D01*
X124133308Y-106220047D01*
X124134171Y-106321565D01*
X124134002Y-106374027D01*
X124133153Y-106445715D01*
X124131711Y-106502925D01*
X124129814Y-106540809D01*
X124127597Y-106554514D01*
X124113172Y-106549981D01*
X124084054Y-106537670D01*
X124083181Y-106537272D01*
X124068060Y-106529356D01*
X124057891Y-106518495D01*
X124051691Y-106499471D01*
X124048478Y-106467069D01*
X124047270Y-106416071D01*
X124047086Y-106341261D01*
X124046714Y-106293804D01*
X124042750Y-106204615D01*
X124033673Y-106139287D01*
X124018524Y-106094393D01*
X123996345Y-106066507D01*
X123966175Y-106052203D01*
X123961990Y-106051206D01*
X123905480Y-106050427D01*
X123861410Y-106075744D01*
X123830972Y-106126502D01*
X123825544Y-106141175D01*
X123813171Y-106173649D01*
X123806905Y-106188572D01*
X123794036Y-106186516D01*
X123765933Y-106175357D01*
X123739721Y-106156927D01*
X123727771Y-106122098D01*
X123731336Y-106097151D01*
X123753235Y-106046547D01*
X123788644Y-105999128D01*
X123830052Y-105966334D01*
X123847400Y-105958752D01*
X123913089Y-105946076D01*
X123982829Y-105951097D01*
G37*
X127931020Y-105917822D02*
X127998810Y-105949680D01*
X128054366Y-106004770D01*
X128065881Y-106022016D01*
X128075432Y-106041562D01*
X128082206Y-106066198D01*
X128086819Y-106100711D01*
X128089888Y-106149889D01*
X128092029Y-106218519D01*
X128093859Y-106311389D01*
X128098404Y-106569007D01*
X128060225Y-106554491D01*
X128025268Y-106541156D01*
X127999097Y-106528323D01*
X127982013Y-106511780D01*
X127972086Y-106486465D01*
X127967386Y-106447316D01*
X127965982Y-106389268D01*
X127965943Y-106307261D01*
X127965744Y-106241895D01*
X127964559Y-106179173D01*
X127961729Y-106136334D01*
X127956609Y-106108220D01*
X127948553Y-106089675D01*
X127936914Y-106075543D01*
X127908303Y-106055600D01*
X127860239Y-106048083D01*
X127812688Y-106067079D01*
X127809550Y-106069511D01*
X127799769Y-106080748D01*
X127792553Y-106098770D01*
X127787299Y-106128026D01*
X127783402Y-106172962D01*
X127780256Y-106238028D01*
X127777257Y-106327670D01*
X127770000Y-106567697D01*
X127708314Y-106540044D01*
X127646629Y-106512391D01*
X127646629Y-106293246D01*
X127646884Y-106233711D01*
X127649086Y-106150892D01*
X127654661Y-106089227D01*
X127664941Y-106043748D01*
X127681258Y-106009484D01*
X127704943Y-105981466D01*
X127737328Y-105954723D01*
X127783907Y-105927780D01*
X127857287Y-105910191D01*
X127931020Y-105917822D01*
G36*
X127931020Y-105917822D02*
G01*
X127998810Y-105949680D01*
X128054366Y-106004770D01*
X128065881Y-106022016D01*
X128075432Y-106041562D01*
X128082206Y-106066198D01*
X128086819Y-106100711D01*
X128089888Y-106149889D01*
X128092029Y-106218519D01*
X128093859Y-106311389D01*
X128098404Y-106569007D01*
X128060225Y-106554491D01*
X128025268Y-106541156D01*
X127999097Y-106528323D01*
X127982013Y-106511780D01*
X127972086Y-106486465D01*
X127967386Y-106447316D01*
X127965982Y-106389268D01*
X127965943Y-106307261D01*
X127965744Y-106241895D01*
X127964559Y-106179173D01*
X127961729Y-106136334D01*
X127956609Y-106108220D01*
X127948553Y-106089675D01*
X127936914Y-106075543D01*
X127908303Y-106055600D01*
X127860239Y-106048083D01*
X127812688Y-106067079D01*
X127809550Y-106069511D01*
X127799769Y-106080748D01*
X127792553Y-106098770D01*
X127787299Y-106128026D01*
X127783402Y-106172962D01*
X127780256Y-106238028D01*
X127777257Y-106327670D01*
X127770000Y-106567697D01*
X127708314Y-106540044D01*
X127646629Y-106512391D01*
X127646629Y-106293246D01*
X127646884Y-106233711D01*
X127649086Y-106150892D01*
X127654661Y-106089227D01*
X127664941Y-106043748D01*
X127681258Y-106009484D01*
X127704943Y-105981466D01*
X127737328Y-105954723D01*
X127783907Y-105927780D01*
X127857287Y-105910191D01*
X127931020Y-105917822D01*
G37*
X126107691Y-105966467D02*
X126112273Y-105969003D01*
X126149704Y-105998057D01*
X126183170Y-106035410D01*
X126189007Y-106043852D01*
X126200165Y-106063553D01*
X126208136Y-106086935D01*
X126213618Y-106119067D01*
X126217307Y-106165019D01*
X126219899Y-106229859D01*
X126222092Y-106318657D01*
X126222402Y-106333669D01*
X126223400Y-106430999D01*
X126221994Y-106499934D01*
X126218164Y-106540948D01*
X126211889Y-106554514D01*
X126192898Y-106550452D01*
X126160638Y-106538144D01*
X126153041Y-106534545D01*
X126141176Y-106526398D01*
X126132994Y-106513004D01*
X126127643Y-106489608D01*
X126124269Y-106451455D01*
X126122019Y-106393790D01*
X126120040Y-106311857D01*
X126119498Y-106287907D01*
X126117403Y-106212266D01*
X126114683Y-106159328D01*
X126110515Y-106124075D01*
X126104079Y-106101487D01*
X126094550Y-106086544D01*
X126081106Y-106074227D01*
X126041305Y-106052634D01*
X125992341Y-106048476D01*
X125948529Y-106064999D01*
X125917008Y-106099210D01*
X125904914Y-106148114D01*
X125904578Y-106161407D01*
X125897972Y-106185472D01*
X125878470Y-106189144D01*
X125840283Y-106174813D01*
X125831438Y-106170217D01*
X125807534Y-106143186D01*
X125807061Y-106102994D01*
X125829836Y-106047409D01*
X125850727Y-106017117D01*
X125904142Y-105974084D01*
X125970074Y-105949755D01*
X126040574Y-105946443D01*
X126107691Y-105966467D01*
G36*
X126107691Y-105966467D02*
G01*
X126112273Y-105969003D01*
X126149704Y-105998057D01*
X126183170Y-106035410D01*
X126189007Y-106043852D01*
X126200165Y-106063553D01*
X126208136Y-106086935D01*
X126213618Y-106119067D01*
X126217307Y-106165019D01*
X126219899Y-106229859D01*
X126222092Y-106318657D01*
X126222402Y-106333669D01*
X126223400Y-106430999D01*
X126221994Y-106499934D01*
X126218164Y-106540948D01*
X126211889Y-106554514D01*
X126192898Y-106550452D01*
X126160638Y-106538144D01*
X126153041Y-106534545D01*
X126141176Y-106526398D01*
X126132994Y-106513004D01*
X126127643Y-106489608D01*
X126124269Y-106451455D01*
X126122019Y-106393790D01*
X126120040Y-106311857D01*
X126119498Y-106287907D01*
X126117403Y-106212266D01*
X126114683Y-106159328D01*
X126110515Y-106124075D01*
X126104079Y-106101487D01*
X126094550Y-106086544D01*
X126081106Y-106074227D01*
X126041305Y-106052634D01*
X125992341Y-106048476D01*
X125948529Y-106064999D01*
X125917008Y-106099210D01*
X125904914Y-106148114D01*
X125904578Y-106161407D01*
X125897972Y-106185472D01*
X125878470Y-106189144D01*
X125840283Y-106174813D01*
X125831438Y-106170217D01*
X125807534Y-106143186D01*
X125807061Y-106102994D01*
X125829836Y-106047409D01*
X125850727Y-106017117D01*
X125904142Y-105974084D01*
X125970074Y-105949755D01*
X126040574Y-105946443D01*
X126107691Y-105966467D01*
G37*
X125153941Y-105949282D02*
X125185774Y-105961758D01*
X125222743Y-105978602D01*
X125222743Y-106465196D01*
X125176812Y-106511127D01*
X125166320Y-106521427D01*
X125137255Y-106544320D01*
X125107943Y-106551735D01*
X125064326Y-106548321D01*
X125046568Y-106546114D01*
X125000767Y-106541445D01*
X124968743Y-106539585D01*
X124959244Y-106539869D01*
X124920274Y-106542948D01*
X124873160Y-106548321D01*
X124858085Y-106550168D01*
X124820110Y-106550893D01*
X124792325Y-106539429D01*
X124760674Y-106511127D01*
X124714743Y-106465196D01*
X124714743Y-106205055D01*
X124715101Y-106128180D01*
X124716216Y-106054886D01*
X124717952Y-105996850D01*
X124720167Y-105958663D01*
X124722721Y-105944914D01*
X124723256Y-105944951D01*
X124741808Y-105951793D01*
X124773153Y-105966868D01*
X124815608Y-105988822D01*
X124819604Y-106217240D01*
X124823600Y-106445657D01*
X124910686Y-106445657D01*
X124914657Y-106195286D01*
X124915916Y-106127227D01*
X124917718Y-106054482D01*
X124919671Y-105996730D01*
X124921612Y-105958648D01*
X124923377Y-105944914D01*
X124923885Y-105944962D01*
X124941482Y-105950015D01*
X124973834Y-105960849D01*
X125019543Y-105976783D01*
X125019765Y-106196706D01*
X125019988Y-106234909D01*
X125021531Y-106309146D01*
X125024292Y-106371145D01*
X125027977Y-106415308D01*
X125032292Y-106436041D01*
X125047732Y-106447131D01*
X125079241Y-106450556D01*
X125113886Y-106445657D01*
X125117857Y-106195286D01*
X125119278Y-106131663D01*
X125122225Y-106056356D01*
X125126079Y-105997286D01*
X125130542Y-105958718D01*
X125135317Y-105944914D01*
X125153941Y-105949282D01*
G36*
X125153941Y-105949282D02*
G01*
X125185774Y-105961758D01*
X125222743Y-105978602D01*
X125222743Y-106465196D01*
X125176812Y-106511127D01*
X125166320Y-106521427D01*
X125137255Y-106544320D01*
X125107943Y-106551735D01*
X125064326Y-106548321D01*
X125046568Y-106546114D01*
X125000767Y-106541445D01*
X124968743Y-106539585D01*
X124959244Y-106539869D01*
X124920274Y-106542948D01*
X124873160Y-106548321D01*
X124858085Y-106550168D01*
X124820110Y-106550893D01*
X124792325Y-106539429D01*
X124760674Y-106511127D01*
X124714743Y-106465196D01*
X124714743Y-106205055D01*
X124715101Y-106128180D01*
X124716216Y-106054886D01*
X124717952Y-105996850D01*
X124720167Y-105958663D01*
X124722721Y-105944914D01*
X124723256Y-105944951D01*
X124741808Y-105951793D01*
X124773153Y-105966868D01*
X124815608Y-105988822D01*
X124819604Y-106217240D01*
X124823600Y-106445657D01*
X124910686Y-106445657D01*
X124914657Y-106195286D01*
X124915916Y-106127227D01*
X124917718Y-106054482D01*
X124919671Y-105996730D01*
X124921612Y-105958648D01*
X124923377Y-105944914D01*
X124923885Y-105944962D01*
X124941482Y-105950015D01*
X124973834Y-105960849D01*
X125019543Y-105976783D01*
X125019765Y-106196706D01*
X125019988Y-106234909D01*
X125021531Y-106309146D01*
X125024292Y-106371145D01*
X125027977Y-106415308D01*
X125032292Y-106436041D01*
X125047732Y-106447131D01*
X125079241Y-106450556D01*
X125113886Y-106445657D01*
X125117857Y-106195286D01*
X125119278Y-106131663D01*
X125122225Y-106056356D01*
X125126079Y-105997286D01*
X125130542Y-105958718D01*
X125135317Y-105944914D01*
X125153941Y-105949282D01*
G37*
X127178543Y-105749444D02*
X127225714Y-105769342D01*
X127225714Y-106166509D01*
X127225519Y-106269498D01*
X127224998Y-106362141D01*
X127224199Y-106440700D01*
X127223172Y-106501439D01*
X127221963Y-106540623D01*
X127220623Y-106554514D01*
X127220099Y-106554468D01*
X127202287Y-106549420D01*
X127169823Y-106538580D01*
X127124114Y-106522646D01*
X127124114Y-106318173D01*
X127123824Y-106237832D01*
X127122474Y-106179562D01*
X127119369Y-106139909D01*
X127113812Y-106113618D01*
X127105107Y-106095436D01*
X127092556Y-106080107D01*
X127083999Y-106071955D01*
X127037728Y-106049375D01*
X126986728Y-106051375D01*
X126939993Y-106078073D01*
X126933189Y-106084698D01*
X126922293Y-106098456D01*
X126914836Y-106116642D01*
X126910169Y-106144177D01*
X126907642Y-106185981D01*
X126906602Y-106246973D01*
X126906400Y-106332073D01*
X126906303Y-106375234D01*
X126905674Y-106446224D01*
X126904556Y-106503076D01*
X126903063Y-106540828D01*
X126901309Y-106554514D01*
X126900785Y-106554468D01*
X126882973Y-106549420D01*
X126850509Y-106538580D01*
X126804800Y-106522646D01*
X126804823Y-106317237D01*
X126804857Y-106298951D01*
X126806778Y-106203626D01*
X126812678Y-106131543D01*
X126824001Y-106077813D01*
X126842187Y-106037549D01*
X126868679Y-106005861D01*
X126904918Y-105977861D01*
X126940263Y-105960333D01*
X126996773Y-105946785D01*
X127052356Y-105946015D01*
X127095086Y-105959195D01*
X127098298Y-105961015D01*
X127108205Y-105960820D01*
X127114975Y-105945572D01*
X127119861Y-105910613D01*
X127124114Y-105851289D01*
X127131371Y-105729547D01*
X127178543Y-105749444D01*
G36*
X127178543Y-105749444D02*
G01*
X127225714Y-105769342D01*
X127225714Y-106166509D01*
X127225519Y-106269498D01*
X127224998Y-106362141D01*
X127224199Y-106440700D01*
X127223172Y-106501439D01*
X127221963Y-106540623D01*
X127220623Y-106554514D01*
X127220099Y-106554468D01*
X127202287Y-106549420D01*
X127169823Y-106538580D01*
X127124114Y-106522646D01*
X127124114Y-106318173D01*
X127123824Y-106237832D01*
X127122474Y-106179562D01*
X127119369Y-106139909D01*
X127113812Y-106113618D01*
X127105107Y-106095436D01*
X127092556Y-106080107D01*
X127083999Y-106071955D01*
X127037728Y-106049375D01*
X126986728Y-106051375D01*
X126939993Y-106078073D01*
X126933189Y-106084698D01*
X126922293Y-106098456D01*
X126914836Y-106116642D01*
X126910169Y-106144177D01*
X126907642Y-106185981D01*
X126906602Y-106246973D01*
X126906400Y-106332073D01*
X126906303Y-106375234D01*
X126905674Y-106446224D01*
X126904556Y-106503076D01*
X126903063Y-106540828D01*
X126901309Y-106554514D01*
X126900785Y-106554468D01*
X126882973Y-106549420D01*
X126850509Y-106538580D01*
X126804800Y-106522646D01*
X126804823Y-106317237D01*
X126804857Y-106298951D01*
X126806778Y-106203626D01*
X126812678Y-106131543D01*
X126824001Y-106077813D01*
X126842187Y-106037549D01*
X126868679Y-106005861D01*
X126904918Y-105977861D01*
X126940263Y-105960333D01*
X126996773Y-105946785D01*
X127052356Y-105946015D01*
X127095086Y-105959195D01*
X127098298Y-105961015D01*
X127108205Y-105960820D01*
X127114975Y-105945572D01*
X127119861Y-105910613D01*
X127124114Y-105851289D01*
X127131371Y-105729547D01*
X127178543Y-105749444D01*
G37*
X129765714Y-106235200D02*
X129765701Y-106250935D01*
X129764914Y-106321119D01*
X129762210Y-106370022D01*
X129756606Y-106404178D01*
X129747119Y-106430124D01*
X129732768Y-106454397D01*
X129729237Y-106459433D01*
X129691878Y-106499143D01*
X129649311Y-106529092D01*
X129627452Y-106538810D01*
X129548908Y-106555020D01*
X129471231Y-106544535D01*
X129399645Y-106508707D01*
X129339374Y-106448887D01*
X129334286Y-106440873D01*
X129317730Y-106394342D01*
X129306573Y-106329552D01*
X129301160Y-106254727D01*
X129301768Y-106185513D01*
X129448248Y-106185513D01*
X129449402Y-106281399D01*
X129449866Y-106287569D01*
X129456629Y-106340478D01*
X129468671Y-106374029D01*
X129489005Y-106397016D01*
X129523097Y-106418548D01*
X129556814Y-106419680D01*
X129591543Y-106394857D01*
X129597584Y-106388325D01*
X129609417Y-106368779D01*
X129616404Y-106340386D01*
X129619727Y-106296430D01*
X129620571Y-106230192D01*
X129619125Y-106168150D01*
X129611907Y-106109042D01*
X129597006Y-106071686D01*
X129572636Y-106052152D01*
X129537008Y-106046514D01*
X129523440Y-106047635D01*
X129485430Y-106068194D01*
X129460312Y-106114299D01*
X129448248Y-106185513D01*
X129301768Y-106185513D01*
X129301833Y-106178096D01*
X129308937Y-106107882D01*
X129322815Y-106052312D01*
X129340649Y-106015301D01*
X129390855Y-105957733D01*
X129458885Y-105921962D01*
X129542158Y-105909665D01*
X129564398Y-105910331D01*
X129629891Y-105923947D01*
X129683687Y-105958249D01*
X129733057Y-106017338D01*
X129735995Y-106021722D01*
X129749287Y-106045299D01*
X129757932Y-106071949D01*
X129762904Y-106108159D01*
X129765174Y-106160413D01*
X129765678Y-106230192D01*
X129765714Y-106235200D01*
G36*
X129765714Y-106235200D02*
G01*
X129765701Y-106250935D01*
X129764914Y-106321119D01*
X129762210Y-106370022D01*
X129756606Y-106404178D01*
X129747119Y-106430124D01*
X129732768Y-106454397D01*
X129729237Y-106459433D01*
X129691878Y-106499143D01*
X129649311Y-106529092D01*
X129627452Y-106538810D01*
X129548908Y-106555020D01*
X129471231Y-106544535D01*
X129399645Y-106508707D01*
X129339374Y-106448887D01*
X129334286Y-106440873D01*
X129317730Y-106394342D01*
X129306573Y-106329552D01*
X129301160Y-106254727D01*
X129301768Y-106185513D01*
X129448248Y-106185513D01*
X129449402Y-106281399D01*
X129449866Y-106287569D01*
X129456629Y-106340478D01*
X129468671Y-106374029D01*
X129489005Y-106397016D01*
X129523097Y-106418548D01*
X129556814Y-106419680D01*
X129591543Y-106394857D01*
X129597584Y-106388325D01*
X129609417Y-106368779D01*
X129616404Y-106340386D01*
X129619727Y-106296430D01*
X129620571Y-106230192D01*
X129619125Y-106168150D01*
X129611907Y-106109042D01*
X129597006Y-106071686D01*
X129572636Y-106052152D01*
X129537008Y-106046514D01*
X129523440Y-106047635D01*
X129485430Y-106068194D01*
X129460312Y-106114299D01*
X129448248Y-106185513D01*
X129301768Y-106185513D01*
X129301833Y-106178096D01*
X129308937Y-106107882D01*
X129322815Y-106052312D01*
X129340649Y-106015301D01*
X129390855Y-105957733D01*
X129458885Y-105921962D01*
X129542158Y-105909665D01*
X129564398Y-105910331D01*
X129629891Y-105923947D01*
X129683687Y-105958249D01*
X129733057Y-106017338D01*
X129735995Y-106021722D01*
X129749287Y-106045299D01*
X129757932Y-106071949D01*
X129762904Y-106108159D01*
X129765174Y-106160413D01*
X129765678Y-106230192D01*
X129765714Y-106235200D01*
G37*
X123640590Y-106252622D02*
X123640307Y-106291305D01*
X123636762Y-106367521D01*
X123627483Y-106423294D01*
X123610375Y-106464613D01*
X123583344Y-106497467D01*
X123544292Y-106527846D01*
X123519445Y-106541660D01*
X123479615Y-106550965D01*
X123423665Y-106550230D01*
X123392385Y-106547283D01*
X123354653Y-106538283D01*
X123324494Y-106518720D01*
X123289408Y-106482267D01*
X123284720Y-106476943D01*
X123253177Y-106435969D01*
X123238128Y-106400283D01*
X123234286Y-106357966D01*
X123234286Y-106295779D01*
X123277742Y-106312182D01*
X123309424Y-106331356D01*
X123336962Y-106376347D01*
X123342711Y-106390752D01*
X123374855Y-106431546D01*
X123418611Y-106452081D01*
X123466254Y-106450235D01*
X123510057Y-106423886D01*
X123525111Y-106407455D01*
X123538763Y-106382667D01*
X123534493Y-106360144D01*
X123509916Y-106336964D01*
X123462651Y-106310202D01*
X123390314Y-106276934D01*
X123241543Y-106211816D01*
X123237595Y-106147308D01*
X123239079Y-106106220D01*
X123336010Y-106106220D01*
X123343368Y-106131657D01*
X123376848Y-106158814D01*
X123437614Y-106189714D01*
X123447669Y-106194190D01*
X123495751Y-106215017D01*
X123531726Y-106229665D01*
X123548444Y-106235200D01*
X123550977Y-106231126D01*
X123551993Y-106206247D01*
X123548369Y-106166257D01*
X123539242Y-106127152D01*
X123510773Y-106077884D01*
X123469678Y-106050122D01*
X123420590Y-106046364D01*
X123368144Y-106069109D01*
X123353609Y-106080481D01*
X123336010Y-106106220D01*
X123239079Y-106106220D01*
X123239338Y-106099064D01*
X123261281Y-106038096D01*
X123288979Y-106004497D01*
X123346405Y-105966966D01*
X123414527Y-105948006D01*
X123484947Y-105949507D01*
X123549267Y-105973355D01*
X123563426Y-105982513D01*
X123595904Y-106010849D01*
X123618116Y-106046695D01*
X123631804Y-106095384D01*
X123638715Y-106162249D01*
X123639628Y-106206247D01*
X123640590Y-106252622D01*
G36*
X123640590Y-106252622D02*
G01*
X123640307Y-106291305D01*
X123636762Y-106367521D01*
X123627483Y-106423294D01*
X123610375Y-106464613D01*
X123583344Y-106497467D01*
X123544292Y-106527846D01*
X123519445Y-106541660D01*
X123479615Y-106550965D01*
X123423665Y-106550230D01*
X123392385Y-106547283D01*
X123354653Y-106538283D01*
X123324494Y-106518720D01*
X123289408Y-106482267D01*
X123284720Y-106476943D01*
X123253177Y-106435969D01*
X123238128Y-106400283D01*
X123234286Y-106357966D01*
X123234286Y-106295779D01*
X123277742Y-106312182D01*
X123309424Y-106331356D01*
X123336962Y-106376347D01*
X123342711Y-106390752D01*
X123374855Y-106431546D01*
X123418611Y-106452081D01*
X123466254Y-106450235D01*
X123510057Y-106423886D01*
X123525111Y-106407455D01*
X123538763Y-106382667D01*
X123534493Y-106360144D01*
X123509916Y-106336964D01*
X123462651Y-106310202D01*
X123390314Y-106276934D01*
X123241543Y-106211816D01*
X123237595Y-106147308D01*
X123239079Y-106106220D01*
X123336010Y-106106220D01*
X123343368Y-106131657D01*
X123376848Y-106158814D01*
X123437614Y-106189714D01*
X123447669Y-106194190D01*
X123495751Y-106215017D01*
X123531726Y-106229665D01*
X123548444Y-106235200D01*
X123550977Y-106231126D01*
X123551993Y-106206247D01*
X123548369Y-106166257D01*
X123539242Y-106127152D01*
X123510773Y-106077884D01*
X123469678Y-106050122D01*
X123420590Y-106046364D01*
X123368144Y-106069109D01*
X123353609Y-106080481D01*
X123336010Y-106106220D01*
X123239079Y-106106220D01*
X123239338Y-106099064D01*
X123261281Y-106038096D01*
X123288979Y-106004497D01*
X123346405Y-105966966D01*
X123414527Y-105948006D01*
X123484947Y-105949507D01*
X123549267Y-105973355D01*
X123563426Y-105982513D01*
X123595904Y-106010849D01*
X123618116Y-106046695D01*
X123631804Y-106095384D01*
X123638715Y-106162249D01*
X123639628Y-106206247D01*
X123640590Y-106252622D01*
G37*
X125730698Y-106249714D02*
X125729537Y-106306313D01*
X125721345Y-106383462D01*
X125703519Y-106441276D01*
X125673975Y-106485422D01*
X125630625Y-106521568D01*
X125589332Y-106542463D01*
X125519987Y-106554090D01*
X125450736Y-106541377D01*
X125388145Y-106505945D01*
X125338779Y-106449418D01*
X125332818Y-106438995D01*
X125324945Y-106420733D01*
X125319106Y-106397429D01*
X125314999Y-106365085D01*
X125312325Y-106319704D01*
X125310781Y-106257287D01*
X125310734Y-106251748D01*
X125411429Y-106251748D01*
X125411772Y-106304577D01*
X125413942Y-106352362D01*
X125419307Y-106383209D01*
X125429217Y-106403935D01*
X125445021Y-106421356D01*
X125448724Y-106424705D01*
X125496299Y-106449419D01*
X125546635Y-106446890D01*
X125593517Y-106417288D01*
X125607477Y-106401953D01*
X125619160Y-106381622D01*
X125625686Y-106353514D01*
X125628524Y-106310550D01*
X125629143Y-106245647D01*
X125628837Y-106196122D01*
X125626722Y-106147782D01*
X125621390Y-106116587D01*
X125611460Y-106095647D01*
X125595550Y-106078073D01*
X125586204Y-106070159D01*
X125537776Y-106048843D01*
X125487040Y-106052198D01*
X125442987Y-106080107D01*
X125433504Y-106091173D01*
X125421939Y-106112009D01*
X125415252Y-106141106D01*
X125412173Y-106185381D01*
X125411429Y-106251748D01*
X125310734Y-106251748D01*
X125310067Y-106173837D01*
X125309883Y-106065358D01*
X125309829Y-105728601D01*
X125357000Y-105748362D01*
X125369472Y-105753770D01*
X125389324Y-105765985D01*
X125400687Y-105784482D01*
X125406933Y-105816829D01*
X125411429Y-105870593D01*
X125415535Y-105918866D01*
X125420963Y-105950557D01*
X125428739Y-105962383D01*
X125440457Y-105959212D01*
X125470318Y-105948067D01*
X125523684Y-105945304D01*
X125581093Y-105955625D01*
X125630625Y-105977861D01*
X125657876Y-105998443D01*
X125692865Y-106038600D01*
X125715274Y-106090086D01*
X125727190Y-106158568D01*
X125730542Y-106245647D01*
X125730698Y-106249714D01*
G36*
X125730698Y-106249714D02*
G01*
X125729537Y-106306313D01*
X125721345Y-106383462D01*
X125703519Y-106441276D01*
X125673975Y-106485422D01*
X125630625Y-106521568D01*
X125589332Y-106542463D01*
X125519987Y-106554090D01*
X125450736Y-106541377D01*
X125388145Y-106505945D01*
X125338779Y-106449418D01*
X125332818Y-106438995D01*
X125324945Y-106420733D01*
X125319106Y-106397429D01*
X125314999Y-106365085D01*
X125312325Y-106319704D01*
X125310781Y-106257287D01*
X125310734Y-106251748D01*
X125411429Y-106251748D01*
X125411772Y-106304577D01*
X125413942Y-106352362D01*
X125419307Y-106383209D01*
X125429217Y-106403935D01*
X125445021Y-106421356D01*
X125448724Y-106424705D01*
X125496299Y-106449419D01*
X125546635Y-106446890D01*
X125593517Y-106417288D01*
X125607477Y-106401953D01*
X125619160Y-106381622D01*
X125625686Y-106353514D01*
X125628524Y-106310550D01*
X125629143Y-106245647D01*
X125628837Y-106196122D01*
X125626722Y-106147782D01*
X125621390Y-106116587D01*
X125611460Y-106095647D01*
X125595550Y-106078073D01*
X125586204Y-106070159D01*
X125537776Y-106048843D01*
X125487040Y-106052198D01*
X125442987Y-106080107D01*
X125433504Y-106091173D01*
X125421939Y-106112009D01*
X125415252Y-106141106D01*
X125412173Y-106185381D01*
X125411429Y-106251748D01*
X125310734Y-106251748D01*
X125310067Y-106173837D01*
X125309883Y-106065358D01*
X125309829Y-105728601D01*
X125357000Y-105748362D01*
X125369472Y-105753770D01*
X125389324Y-105765985D01*
X125400687Y-105784482D01*
X125406933Y-105816829D01*
X125411429Y-105870593D01*
X125415535Y-105918866D01*
X125420963Y-105950557D01*
X125428739Y-105962383D01*
X125440457Y-105959212D01*
X125470318Y-105948067D01*
X125523684Y-105945304D01*
X125581093Y-105955625D01*
X125630625Y-105977861D01*
X125657876Y-105998443D01*
X125692865Y-106038600D01*
X125715274Y-106090086D01*
X125727190Y-106158568D01*
X125730542Y-106245647D01*
X125730698Y-106249714D01*
G37*
X128662299Y-106194055D02*
X128657684Y-106304078D01*
X128655078Y-106327387D01*
X128635660Y-106410352D01*
X128600573Y-106473448D01*
X128547212Y-106521808D01*
X128544196Y-106523804D01*
X128476362Y-106552185D01*
X128405535Y-106554711D01*
X128337289Y-106533097D01*
X128277196Y-106489062D01*
X128230829Y-106424322D01*
X128230050Y-106422761D01*
X128214643Y-106382558D01*
X128203357Y-106336866D01*
X128197370Y-106293972D01*
X128197861Y-106262160D01*
X128206007Y-106249714D01*
X128213244Y-106250471D01*
X128247851Y-106264235D01*
X128287078Y-106289546D01*
X128320448Y-106318845D01*
X128337483Y-106344572D01*
X128355192Y-106379471D01*
X128391485Y-106411212D01*
X128433630Y-106423886D01*
X128449077Y-106420221D01*
X128479569Y-106401774D01*
X128506128Y-106376166D01*
X128517486Y-106352934D01*
X128517482Y-106352848D01*
X128504596Y-106342179D01*
X128470241Y-106322933D01*
X128419593Y-106297813D01*
X128357829Y-106269524D01*
X128357489Y-106269374D01*
X128290388Y-106239498D01*
X128245411Y-106217973D01*
X128218145Y-106201437D01*
X128204178Y-106186531D01*
X128199097Y-106169893D01*
X128198490Y-106148162D01*
X128202712Y-106107013D01*
X128346000Y-106107013D01*
X128360791Y-106119949D01*
X128397644Y-106139333D01*
X128398725Y-106139881D01*
X128442205Y-106160587D01*
X128481102Y-106177105D01*
X128505778Y-106184093D01*
X128515676Y-106174753D01*
X128517486Y-106142748D01*
X128509966Y-106102915D01*
X128483897Y-106066717D01*
X128446154Y-106047950D01*
X128404077Y-106049845D01*
X128365005Y-106075632D01*
X128349647Y-106093451D01*
X128346000Y-106107013D01*
X128202712Y-106107013D01*
X128203833Y-106096086D01*
X128230251Y-106025335D01*
X128274473Y-105969735D01*
X128331697Y-105931239D01*
X128397120Y-105911797D01*
X128465937Y-105913359D01*
X128533347Y-105937878D01*
X128594544Y-105987302D01*
X128628450Y-106036212D01*
X128652806Y-106106027D01*
X128656767Y-106142748D01*
X128662299Y-106194055D01*
G36*
X128662299Y-106194055D02*
G01*
X128657684Y-106304078D01*
X128655078Y-106327387D01*
X128635660Y-106410352D01*
X128600573Y-106473448D01*
X128547212Y-106521808D01*
X128544196Y-106523804D01*
X128476362Y-106552185D01*
X128405535Y-106554711D01*
X128337289Y-106533097D01*
X128277196Y-106489062D01*
X128230829Y-106424322D01*
X128230050Y-106422761D01*
X128214643Y-106382558D01*
X128203357Y-106336866D01*
X128197370Y-106293972D01*
X128197861Y-106262160D01*
X128206007Y-106249714D01*
X128213244Y-106250471D01*
X128247851Y-106264235D01*
X128287078Y-106289546D01*
X128320448Y-106318845D01*
X128337483Y-106344572D01*
X128355192Y-106379471D01*
X128391485Y-106411212D01*
X128433630Y-106423886D01*
X128449077Y-106420221D01*
X128479569Y-106401774D01*
X128506128Y-106376166D01*
X128517486Y-106352934D01*
X128517482Y-106352848D01*
X128504596Y-106342179D01*
X128470241Y-106322933D01*
X128419593Y-106297813D01*
X128357829Y-106269524D01*
X128357489Y-106269374D01*
X128290388Y-106239498D01*
X128245411Y-106217973D01*
X128218145Y-106201437D01*
X128204178Y-106186531D01*
X128199097Y-106169893D01*
X128198490Y-106148162D01*
X128202712Y-106107013D01*
X128346000Y-106107013D01*
X128360791Y-106119949D01*
X128397644Y-106139333D01*
X128398725Y-106139881D01*
X128442205Y-106160587D01*
X128481102Y-106177105D01*
X128505778Y-106184093D01*
X128515676Y-106174753D01*
X128517486Y-106142748D01*
X128509966Y-106102915D01*
X128483897Y-106066717D01*
X128446154Y-106047950D01*
X128404077Y-106049845D01*
X128365005Y-106075632D01*
X128349647Y-106093451D01*
X128346000Y-106107013D01*
X128202712Y-106107013D01*
X128203833Y-106096086D01*
X128230251Y-106025335D01*
X128274473Y-105969735D01*
X128331697Y-105931239D01*
X128397120Y-105911797D01*
X128465937Y-105913359D01*
X128533347Y-105937878D01*
X128594544Y-105987302D01*
X128628450Y-106036212D01*
X128652806Y-106106027D01*
X128656767Y-106142748D01*
X128662299Y-106194055D01*
G37*
X126589483Y-105960569D02*
X126639376Y-105989661D01*
X126661325Y-106012327D01*
X126703504Y-106080082D01*
X126717714Y-106153950D01*
X126717714Y-106204770D01*
X126670999Y-106185128D01*
X126638692Y-106165308D01*
X126613231Y-106124160D01*
X126610616Y-106115675D01*
X126582478Y-106072451D01*
X126540067Y-106049103D01*
X126491370Y-106048100D01*
X126444373Y-106071914D01*
X126437357Y-106078056D01*
X126413893Y-106104745D01*
X126410019Y-106128014D01*
X126427768Y-106150862D01*
X126469179Y-106176287D01*
X126536286Y-106207288D01*
X126540824Y-106209252D01*
X126615322Y-106243990D01*
X126666203Y-106274763D01*
X126697525Y-106305488D01*
X126713343Y-106340082D01*
X126717714Y-106382462D01*
X126711986Y-106429446D01*
X126683062Y-106489585D01*
X126632178Y-106532788D01*
X126595374Y-106545759D01*
X126543434Y-106552856D01*
X126492999Y-106551340D01*
X126456983Y-106540632D01*
X126453158Y-106537966D01*
X126442998Y-106519337D01*
X126450048Y-106486505D01*
X126462297Y-106460735D01*
X126481939Y-106450006D01*
X126519191Y-106450539D01*
X126570908Y-106447462D01*
X126604701Y-106426212D01*
X126616114Y-106386877D01*
X126616104Y-106385747D01*
X126609187Y-106362913D01*
X126585659Y-106341963D01*
X126539914Y-106317815D01*
X126477704Y-106288741D01*
X126436499Y-106272925D01*
X126412712Y-106273944D01*
X126401597Y-106294837D01*
X126398408Y-106338641D01*
X126398400Y-106408393D01*
X126398044Y-106451452D01*
X126396413Y-106504626D01*
X126393761Y-106541022D01*
X126390422Y-106554514D01*
X126389530Y-106554423D01*
X126370237Y-106547110D01*
X126338284Y-106531678D01*
X126294124Y-106508842D01*
X126299371Y-106303078D01*
X126299736Y-106289432D01*
X126303904Y-106193651D01*
X126311268Y-106121462D01*
X126323330Y-106068058D01*
X126341593Y-106028633D01*
X126367560Y-105998380D01*
X126402733Y-105972493D01*
X126403384Y-105972087D01*
X126460256Y-105950968D01*
X126526033Y-105947400D01*
X126589483Y-105960569D01*
G36*
X126589483Y-105960569D02*
G01*
X126639376Y-105989661D01*
X126661325Y-106012327D01*
X126703504Y-106080082D01*
X126717714Y-106153950D01*
X126717714Y-106204770D01*
X126670999Y-106185128D01*
X126638692Y-106165308D01*
X126613231Y-106124160D01*
X126610616Y-106115675D01*
X126582478Y-106072451D01*
X126540067Y-106049103D01*
X126491370Y-106048100D01*
X126444373Y-106071914D01*
X126437357Y-106078056D01*
X126413893Y-106104745D01*
X126410019Y-106128014D01*
X126427768Y-106150862D01*
X126469179Y-106176287D01*
X126536286Y-106207288D01*
X126540824Y-106209252D01*
X126615322Y-106243990D01*
X126666203Y-106274763D01*
X126697525Y-106305488D01*
X126713343Y-106340082D01*
X126717714Y-106382462D01*
X126711986Y-106429446D01*
X126683062Y-106489585D01*
X126632178Y-106532788D01*
X126595374Y-106545759D01*
X126543434Y-106552856D01*
X126492999Y-106551340D01*
X126456983Y-106540632D01*
X126453158Y-106537966D01*
X126442998Y-106519337D01*
X126450048Y-106486505D01*
X126462297Y-106460735D01*
X126481939Y-106450006D01*
X126519191Y-106450539D01*
X126570908Y-106447462D01*
X126604701Y-106426212D01*
X126616114Y-106386877D01*
X126616104Y-106385747D01*
X126609187Y-106362913D01*
X126585659Y-106341963D01*
X126539914Y-106317815D01*
X126477704Y-106288741D01*
X126436499Y-106272925D01*
X126412712Y-106273944D01*
X126401597Y-106294837D01*
X126398408Y-106338641D01*
X126398400Y-106408393D01*
X126398044Y-106451452D01*
X126396413Y-106504626D01*
X126393761Y-106541022D01*
X126390422Y-106554514D01*
X126389530Y-106554423D01*
X126370237Y-106547110D01*
X126338284Y-106531678D01*
X126294124Y-106508842D01*
X126299371Y-106303078D01*
X126299736Y-106289432D01*
X126303904Y-106193651D01*
X126311268Y-106121462D01*
X126323330Y-106068058D01*
X126341593Y-106028633D01*
X126367560Y-105998380D01*
X126402733Y-105972493D01*
X126403384Y-105972087D01*
X126460256Y-105950968D01*
X126526033Y-105947400D01*
X126589483Y-105960569D01*
G37*
X124467495Y-105946220D02*
X124498599Y-105954121D01*
X124527559Y-105973817D01*
X124564831Y-106010484D01*
X124588801Y-106036378D01*
X124613770Y-106069997D01*
X124625031Y-106101506D01*
X124627657Y-106141485D01*
X124627657Y-106206917D01*
X124583035Y-106183842D01*
X124547673Y-106155724D01*
X124523451Y-106117848D01*
X124519291Y-106107551D01*
X124487594Y-106067637D01*
X124443554Y-106047624D01*
X124395531Y-106049572D01*
X124351886Y-106075543D01*
X124333420Y-106096635D01*
X124322663Y-106123619D01*
X124334178Y-106147634D01*
X124369981Y-106171791D01*
X124432090Y-106199199D01*
X124441515Y-106202985D01*
X124498058Y-106227759D01*
X124546580Y-106252189D01*
X124577451Y-106271486D01*
X124608371Y-106305953D01*
X124628927Y-106360957D01*
X124626744Y-106419983D01*
X124602424Y-106475845D01*
X124556568Y-106521355D01*
X124519438Y-106540727D01*
X124447711Y-106554292D01*
X124407852Y-106552462D01*
X124370953Y-106542568D01*
X124356797Y-106521806D01*
X124362091Y-106487613D01*
X124363631Y-106483092D01*
X124375842Y-106459116D01*
X124396174Y-106450042D01*
X124434908Y-106450649D01*
X124462257Y-106451474D01*
X124494257Y-106444392D01*
X124516182Y-106423219D01*
X124528670Y-106397152D01*
X124530062Y-106369845D01*
X124529998Y-106369685D01*
X124513807Y-106354930D01*
X124479155Y-106333457D01*
X124434321Y-106309458D01*
X124387582Y-106287125D01*
X124347217Y-106270652D01*
X124321504Y-106264229D01*
X124317679Y-106270518D01*
X124312864Y-106300115D01*
X124309566Y-106348447D01*
X124308343Y-106409372D01*
X124308058Y-106451542D01*
X124306718Y-106504653D01*
X124304528Y-106541025D01*
X124301769Y-106554514D01*
X124287344Y-106549981D01*
X124258226Y-106537670D01*
X124221257Y-106520826D01*
X124221257Y-106304721D01*
X124221493Y-106249327D01*
X124223729Y-106165207D01*
X124229423Y-106102800D01*
X124239903Y-106057358D01*
X124256497Y-106024133D01*
X124280531Y-105998378D01*
X124313333Y-105975344D01*
X124355124Y-105956335D01*
X124432287Y-105944914D01*
X124467495Y-105946220D01*
G36*
X124467495Y-105946220D02*
G01*
X124498599Y-105954121D01*
X124527559Y-105973817D01*
X124564831Y-106010484D01*
X124588801Y-106036378D01*
X124613770Y-106069997D01*
X124625031Y-106101506D01*
X124627657Y-106141485D01*
X124627657Y-106206917D01*
X124583035Y-106183842D01*
X124547673Y-106155724D01*
X124523451Y-106117848D01*
X124519291Y-106107551D01*
X124487594Y-106067637D01*
X124443554Y-106047624D01*
X124395531Y-106049572D01*
X124351886Y-106075543D01*
X124333420Y-106096635D01*
X124322663Y-106123619D01*
X124334178Y-106147634D01*
X124369981Y-106171791D01*
X124432090Y-106199199D01*
X124441515Y-106202985D01*
X124498058Y-106227759D01*
X124546580Y-106252189D01*
X124577451Y-106271486D01*
X124608371Y-106305953D01*
X124628927Y-106360957D01*
X124626744Y-106419983D01*
X124602424Y-106475845D01*
X124556568Y-106521355D01*
X124519438Y-106540727D01*
X124447711Y-106554292D01*
X124407852Y-106552462D01*
X124370953Y-106542568D01*
X124356797Y-106521806D01*
X124362091Y-106487613D01*
X124363631Y-106483092D01*
X124375842Y-106459116D01*
X124396174Y-106450042D01*
X124434908Y-106450649D01*
X124462257Y-106451474D01*
X124494257Y-106444392D01*
X124516182Y-106423219D01*
X124528670Y-106397152D01*
X124530062Y-106369845D01*
X124529998Y-106369685D01*
X124513807Y-106354930D01*
X124479155Y-106333457D01*
X124434321Y-106309458D01*
X124387582Y-106287125D01*
X124347217Y-106270652D01*
X124321504Y-106264229D01*
X124317679Y-106270518D01*
X124312864Y-106300115D01*
X124309566Y-106348447D01*
X124308343Y-106409372D01*
X124308058Y-106451542D01*
X124306718Y-106504653D01*
X124304528Y-106541025D01*
X124301769Y-106554514D01*
X124287344Y-106549981D01*
X124258226Y-106537670D01*
X124221257Y-106520826D01*
X124221257Y-106304721D01*
X124221493Y-106249327D01*
X124223729Y-106165207D01*
X124229423Y-106102800D01*
X124239903Y-106057358D01*
X124256497Y-106024133D01*
X124280531Y-105998378D01*
X124313333Y-105975344D01*
X124355124Y-105956335D01*
X124432287Y-105944914D01*
X124467495Y-105946220D01*
G37*
X129209815Y-106301524D02*
X129211252Y-106413000D01*
X129211651Y-106445339D01*
X129212929Y-106553455D01*
X129213185Y-106636186D01*
X129211634Y-106696426D01*
X129207490Y-106737073D01*
X129199964Y-106761023D01*
X129188271Y-106771171D01*
X129171624Y-106770414D01*
X129149236Y-106761648D01*
X129120321Y-106747769D01*
X129114142Y-106744808D01*
X129088413Y-106730311D01*
X129074976Y-106713065D01*
X129069834Y-106684308D01*
X129068990Y-106635283D01*
X129068952Y-106547257D01*
X128978276Y-106547257D01*
X128922498Y-106544815D01*
X128878640Y-106534908D01*
X128842218Y-106514886D01*
X128839503Y-106512929D01*
X128802546Y-106479869D01*
X128776826Y-106439931D01*
X128760606Y-106387657D01*
X128752148Y-106317588D01*
X128750083Y-106238430D01*
X128894857Y-106238430D01*
X128894882Y-106251697D01*
X128896261Y-106311584D01*
X128900687Y-106350732D01*
X128909461Y-106376153D01*
X128923886Y-106394857D01*
X128924784Y-106395750D01*
X128960237Y-106419952D01*
X128994596Y-106417567D01*
X129033403Y-106388260D01*
X129042895Y-106378244D01*
X129056876Y-106357708D01*
X129064760Y-106330997D01*
X129068245Y-106290499D01*
X129069029Y-106228603D01*
X129068350Y-106191130D01*
X129060983Y-106122980D01*
X129044168Y-106078330D01*
X129016234Y-106053926D01*
X128975509Y-106046514D01*
X128958350Y-106048094D01*
X128928660Y-106063766D01*
X128909031Y-106098691D01*
X128898188Y-106155901D01*
X128894857Y-106238430D01*
X128750083Y-106238430D01*
X128749714Y-106224267D01*
X128750253Y-106156169D01*
X128752707Y-106104587D01*
X128758158Y-106068816D01*
X128767686Y-106042015D01*
X128782371Y-106017338D01*
X128795852Y-105998480D01*
X128844799Y-105947568D01*
X128900256Y-105919918D01*
X128969928Y-105911165D01*
X129049664Y-105919890D01*
X129118595Y-105951185D01*
X129173113Y-106006381D01*
X129177223Y-106012224D01*
X129186808Y-106027753D01*
X129194151Y-106045498D01*
X129199612Y-106069290D01*
X129203550Y-106102958D01*
X129206323Y-106150333D01*
X129208292Y-106215245D01*
X129208528Y-106228603D01*
X129209815Y-106301524D01*
G36*
X129209815Y-106301524D02*
G01*
X129211252Y-106413000D01*
X129211651Y-106445339D01*
X129212929Y-106553455D01*
X129213185Y-106636186D01*
X129211634Y-106696426D01*
X129207490Y-106737073D01*
X129199964Y-106761023D01*
X129188271Y-106771171D01*
X129171624Y-106770414D01*
X129149236Y-106761648D01*
X129120321Y-106747769D01*
X129114142Y-106744808D01*
X129088413Y-106730311D01*
X129074976Y-106713065D01*
X129069834Y-106684308D01*
X129068990Y-106635283D01*
X129068952Y-106547257D01*
X128978276Y-106547257D01*
X128922498Y-106544815D01*
X128878640Y-106534908D01*
X128842218Y-106514886D01*
X128839503Y-106512929D01*
X128802546Y-106479869D01*
X128776826Y-106439931D01*
X128760606Y-106387657D01*
X128752148Y-106317588D01*
X128750083Y-106238430D01*
X128894857Y-106238430D01*
X128894882Y-106251697D01*
X128896261Y-106311584D01*
X128900687Y-106350732D01*
X128909461Y-106376153D01*
X128923886Y-106394857D01*
X128924784Y-106395750D01*
X128960237Y-106419952D01*
X128994596Y-106417567D01*
X129033403Y-106388260D01*
X129042895Y-106378244D01*
X129056876Y-106357708D01*
X129064760Y-106330997D01*
X129068245Y-106290499D01*
X129069029Y-106228603D01*
X129068350Y-106191130D01*
X129060983Y-106122980D01*
X129044168Y-106078330D01*
X129016234Y-106053926D01*
X128975509Y-106046514D01*
X128958350Y-106048094D01*
X128928660Y-106063766D01*
X128909031Y-106098691D01*
X128898188Y-106155901D01*
X128894857Y-106238430D01*
X128750083Y-106238430D01*
X128749714Y-106224267D01*
X128750253Y-106156169D01*
X128752707Y-106104587D01*
X128758158Y-106068816D01*
X128767686Y-106042015D01*
X128782371Y-106017338D01*
X128795852Y-105998480D01*
X128844799Y-105947568D01*
X128900256Y-105919918D01*
X128969928Y-105911165D01*
X129049664Y-105919890D01*
X129118595Y-105951185D01*
X129173113Y-106006381D01*
X129177223Y-106012224D01*
X129186808Y-106027753D01*
X129194151Y-106045498D01*
X129199612Y-106069290D01*
X129203550Y-106102958D01*
X129206323Y-106150333D01*
X129208292Y-106215245D01*
X129208528Y-106228603D01*
X129209815Y-106301524D01*
G37*
X126613933Y-101242371D02*
X126689856Y-101242865D01*
X126744491Y-101244135D01*
X126781500Y-101246547D01*
X126804547Y-101250467D01*
X126817296Y-101256262D01*
X126823411Y-101264299D01*
X126826556Y-101274943D01*
X126826646Y-101275325D01*
X126831814Y-101300347D01*
X126841209Y-101348681D01*
X126853867Y-101415260D01*
X126868825Y-101495014D01*
X126885119Y-101582875D01*
X126886448Y-101590064D01*
X126902691Y-101675340D01*
X126917805Y-101750242D01*
X126930808Y-101810219D01*
X126940715Y-101850717D01*
X126946544Y-101867184D01*
X126946575Y-101867210D01*
X126964943Y-101876320D01*
X127002640Y-101891457D01*
X127051543Y-101909358D01*
X127054297Y-101910330D01*
X127116817Y-101933959D01*
X127189543Y-101963595D01*
X127257294Y-101993062D01*
X127368703Y-102043626D01*
X127615399Y-101875160D01*
X127632775Y-101863311D01*
X127707202Y-101812947D01*
X127773614Y-101768612D01*
X127828039Y-101732916D01*
X127866506Y-101708471D01*
X127885042Y-101697889D01*
X127897743Y-101700315D01*
X127926579Y-101719110D01*
X127971143Y-101756330D01*
X128032670Y-101813020D01*
X128112398Y-101890227D01*
X128119532Y-101897255D01*
X128182796Y-101960222D01*
X128238990Y-102017268D01*
X128284677Y-102064817D01*
X128316414Y-102099297D01*
X128330764Y-102117131D01*
X128330810Y-102117217D01*
X128332633Y-102130795D01*
X128325910Y-102152820D01*
X128308946Y-102186304D01*
X128280044Y-102234261D01*
X128237508Y-102299704D01*
X128179644Y-102385645D01*
X128169783Y-102400151D01*
X128119913Y-102473635D01*
X128075905Y-102538687D01*
X128040380Y-102591417D01*
X128015959Y-102627936D01*
X128005264Y-102644356D01*
X128004458Y-102647834D01*
X128009518Y-102673785D01*
X128024677Y-102716159D01*
X128047463Y-102767728D01*
X128078429Y-102835170D01*
X128113004Y-102915195D01*
X128142366Y-102987629D01*
X128149645Y-103006377D01*
X128168710Y-103054246D01*
X128182715Y-103087596D01*
X128189041Y-103100114D01*
X128196025Y-103101050D01*
X128227413Y-103106461D01*
X128278787Y-103115806D01*
X128344802Y-103128069D01*
X128420113Y-103142232D01*
X128499375Y-103157280D01*
X128577243Y-103172195D01*
X128648370Y-103185961D01*
X128707412Y-103197562D01*
X128749022Y-103205980D01*
X128767857Y-103210199D01*
X128770980Y-103211389D01*
X128778591Y-103217805D01*
X128784254Y-103231465D01*
X128788251Y-103255999D01*
X128790866Y-103295038D01*
X128792384Y-103352213D01*
X128793086Y-103431154D01*
X128793257Y-103535492D01*
X128793257Y-103852799D01*
X128717057Y-103867839D01*
X128707840Y-103869642D01*
X128658891Y-103878980D01*
X128591205Y-103891669D01*
X128512478Y-103906273D01*
X128430400Y-103921355D01*
X128398078Y-103927422D01*
X128325855Y-103942181D01*
X128265666Y-103956137D01*
X128223040Y-103967952D01*
X128203510Y-103976287D01*
X128194660Y-103989905D01*
X128178548Y-104025938D01*
X128162065Y-104072572D01*
X128156263Y-104090034D01*
X128134906Y-104147358D01*
X128107359Y-104215201D01*
X128078107Y-104282355D01*
X128062463Y-104317430D01*
X128040174Y-104369822D01*
X128024857Y-104409058D01*
X128019162Y-104428563D01*
X128019478Y-104430036D01*
X128030281Y-104450729D01*
X128054638Y-104490665D01*
X128090081Y-104545972D01*
X128134136Y-104612781D01*
X128184332Y-104687220D01*
X128349501Y-104929623D01*
X128132503Y-105146983D01*
X128111516Y-105167899D01*
X128047342Y-105230505D01*
X127989990Y-105284495D01*
X127942820Y-105326826D01*
X127909192Y-105354457D01*
X127892467Y-105364343D01*
X127874303Y-105356821D01*
X127836265Y-105335227D01*
X127782726Y-105302151D01*
X127717884Y-105260191D01*
X127645940Y-105211943D01*
X127575275Y-105164291D01*
X127511526Y-105122328D01*
X127459513Y-105089165D01*
X127423279Y-105067378D01*
X127406867Y-105059543D01*
X127405905Y-105059614D01*
X127384103Y-105067338D01*
X127345440Y-105085323D01*
X127297612Y-105110013D01*
X127297110Y-105110284D01*
X127233587Y-105142099D01*
X127190060Y-105157642D01*
X127163052Y-105157685D01*
X127149090Y-105143000D01*
X127143180Y-105128544D01*
X127127229Y-105089831D01*
X127102660Y-105030316D01*
X127070779Y-104953165D01*
X127032893Y-104861541D01*
X126990310Y-104758607D01*
X126944337Y-104647526D01*
X126902667Y-104546472D01*
X126860268Y-104442780D01*
X126822756Y-104350119D01*
X126791388Y-104271642D01*
X126767425Y-104210500D01*
X126752123Y-104169843D01*
X126746743Y-104152825D01*
X126757018Y-104137219D01*
X126785563Y-104111162D01*
X126825971Y-104080887D01*
X126922979Y-104001684D01*
X127009793Y-103900475D01*
X127073322Y-103789116D01*
X127113177Y-103670893D01*
X127128965Y-103549095D01*
X127120296Y-103427010D01*
X127086778Y-103307925D01*
X127028021Y-103195129D01*
X126943632Y-103091911D01*
X126899631Y-103051713D01*
X126794211Y-102980638D01*
X126681410Y-102934301D01*
X126564525Y-102911599D01*
X126446853Y-102911428D01*
X126331690Y-102932687D01*
X126222335Y-102974270D01*
X126122083Y-103035076D01*
X126034233Y-103114001D01*
X125962080Y-103209941D01*
X125908922Y-103321795D01*
X125878057Y-103448457D01*
X125872392Y-103509507D01*
X125880185Y-103641776D01*
X125915284Y-103767266D01*
X125976649Y-103883759D01*
X126063243Y-103989039D01*
X126174029Y-104080887D01*
X126212931Y-104109930D01*
X126242104Y-104136272D01*
X126253257Y-104152800D01*
X126248810Y-104167209D01*
X126234378Y-104205815D01*
X126211173Y-104265201D01*
X126180452Y-104342215D01*
X126143474Y-104433703D01*
X126101496Y-104536516D01*
X126055778Y-104647502D01*
X126014178Y-104748072D01*
X125971222Y-104851947D01*
X125932829Y-104944819D01*
X125900305Y-105023525D01*
X125874958Y-105084899D01*
X125858095Y-105125779D01*
X125851025Y-105143000D01*
X125850943Y-105143204D01*
X125836798Y-105157745D01*
X125809659Y-105157579D01*
X125766023Y-105141927D01*
X125702388Y-105110013D01*
X125697379Y-105107326D01*
X125650125Y-105083150D01*
X125612811Y-105066037D01*
X125593133Y-105059543D01*
X125577005Y-105067218D01*
X125540959Y-105088871D01*
X125489092Y-105121928D01*
X125425445Y-105163810D01*
X125354060Y-105211943D01*
X125283724Y-105259131D01*
X125218670Y-105301267D01*
X125164820Y-105334578D01*
X125126374Y-105356469D01*
X125107534Y-105364343D01*
X125104325Y-105363343D01*
X125081954Y-105347584D01*
X125043733Y-105315033D01*
X124993021Y-105268733D01*
X124933181Y-105211726D01*
X124867571Y-105147058D01*
X124650648Y-104929772D01*
X124819601Y-104681253D01*
X124988553Y-104432733D01*
X124937183Y-104321595D01*
X124937031Y-104321266D01*
X124906183Y-104250418D01*
X124874661Y-104171523D01*
X124849266Y-104101600D01*
X124845423Y-104090322D01*
X124826047Y-104037967D01*
X124808574Y-103997283D01*
X124796388Y-103976287D01*
X124791426Y-103973322D01*
X124761634Y-103963375D01*
X124711047Y-103950505D01*
X124645194Y-103936053D01*
X124569600Y-103921355D01*
X124546957Y-103917210D01*
X124465038Y-103902116D01*
X124388600Y-103887899D01*
X124325337Y-103875995D01*
X124282943Y-103867839D01*
X124206743Y-103852799D01*
X124206743Y-103535492D01*
X124206760Y-103496476D01*
X124207082Y-103401292D01*
X124208033Y-103330255D01*
X124209896Y-103279734D01*
X124212955Y-103246098D01*
X124217494Y-103225718D01*
X124223795Y-103214962D01*
X124232143Y-103210199D01*
X124240224Y-103208270D01*
X124273172Y-103201445D01*
X124325736Y-103191022D01*
X124392569Y-103178018D01*
X124468328Y-103163449D01*
X124547665Y-103148333D01*
X124625237Y-103133685D01*
X124695698Y-103120523D01*
X124753702Y-103109863D01*
X124793904Y-103102721D01*
X124810959Y-103100114D01*
X124812112Y-103098541D01*
X124821385Y-103078119D01*
X124837432Y-103039045D01*
X124857635Y-102987629D01*
X124885672Y-102918353D01*
X124920186Y-102838290D01*
X124952538Y-102767728D01*
X124959952Y-102751889D01*
X124980755Y-102702293D01*
X124993219Y-102664038D01*
X124994863Y-102644356D01*
X124994015Y-102642962D01*
X124980548Y-102622420D01*
X124953850Y-102582516D01*
X124916539Y-102527140D01*
X124871234Y-102460177D01*
X124820552Y-102385517D01*
X124763445Y-102300692D01*
X124720607Y-102234800D01*
X124691460Y-102186478D01*
X124674317Y-102152733D01*
X124667495Y-102130572D01*
X124669306Y-102117002D01*
X124669915Y-102115984D01*
X124686297Y-102096210D01*
X124719695Y-102060175D01*
X124766671Y-102011451D01*
X124823786Y-101953612D01*
X124887603Y-101890227D01*
X124953802Y-101825905D01*
X125018648Y-101765447D01*
X125066299Y-101724655D01*
X125097990Y-101702484D01*
X125114958Y-101697889D01*
X125117175Y-101698921D01*
X125140524Y-101712837D01*
X125182912Y-101740030D01*
X125240369Y-101777889D01*
X125308923Y-101823803D01*
X125384601Y-101875160D01*
X125631298Y-102043626D01*
X125742706Y-101993062D01*
X125745943Y-101991597D01*
X125814343Y-101961965D01*
X125886907Y-101932493D01*
X125948457Y-101909358D01*
X125948729Y-101909262D01*
X125997595Y-101891367D01*
X126035212Y-101876253D01*
X126053457Y-101867184D01*
X126053752Y-101866855D01*
X126059946Y-101848282D01*
X126070139Y-101806045D01*
X126083348Y-101744696D01*
X126098590Y-101668789D01*
X126114881Y-101582875D01*
X126115449Y-101579796D01*
X126131713Y-101492128D01*
X126146608Y-101412741D01*
X126159171Y-101346701D01*
X126168438Y-101299079D01*
X126173444Y-101274943D01*
X126173764Y-101273605D01*
X126177060Y-101263273D01*
X126183738Y-101255506D01*
X126197462Y-101249940D01*
X126221895Y-101246207D01*
X126260702Y-101243942D01*
X126317546Y-101242778D01*
X126396090Y-101242348D01*
X126500000Y-101242286D01*
X126513056Y-101242286D01*
X126613933Y-101242371D01*
G36*
X126613933Y-101242371D02*
G01*
X126689856Y-101242865D01*
X126744491Y-101244135D01*
X126781500Y-101246547D01*
X126804547Y-101250467D01*
X126817296Y-101256262D01*
X126823411Y-101264299D01*
X126826556Y-101274943D01*
X126826646Y-101275325D01*
X126831814Y-101300347D01*
X126841209Y-101348681D01*
X126853867Y-101415260D01*
X126868825Y-101495014D01*
X126885119Y-101582875D01*
X126886448Y-101590064D01*
X126902691Y-101675340D01*
X126917805Y-101750242D01*
X126930808Y-101810219D01*
X126940715Y-101850717D01*
X126946544Y-101867184D01*
X126946575Y-101867210D01*
X126964943Y-101876320D01*
X127002640Y-101891457D01*
X127051543Y-101909358D01*
X127054297Y-101910330D01*
X127116817Y-101933959D01*
X127189543Y-101963595D01*
X127257294Y-101993062D01*
X127368703Y-102043626D01*
X127615399Y-101875160D01*
X127632775Y-101863311D01*
X127707202Y-101812947D01*
X127773614Y-101768612D01*
X127828039Y-101732916D01*
X127866506Y-101708471D01*
X127885042Y-101697889D01*
X127897743Y-101700315D01*
X127926579Y-101719110D01*
X127971143Y-101756330D01*
X128032670Y-101813020D01*
X128112398Y-101890227D01*
X128119532Y-101897255D01*
X128182796Y-101960222D01*
X128238990Y-102017268D01*
X128284677Y-102064817D01*
X128316414Y-102099297D01*
X128330764Y-102117131D01*
X128330810Y-102117217D01*
X128332633Y-102130795D01*
X128325910Y-102152820D01*
X128308946Y-102186304D01*
X128280044Y-102234261D01*
X128237508Y-102299704D01*
X128179644Y-102385645D01*
X128169783Y-102400151D01*
X128119913Y-102473635D01*
X128075905Y-102538687D01*
X128040380Y-102591417D01*
X128015959Y-102627936D01*
X128005264Y-102644356D01*
X128004458Y-102647834D01*
X128009518Y-102673785D01*
X128024677Y-102716159D01*
X128047463Y-102767728D01*
X128078429Y-102835170D01*
X128113004Y-102915195D01*
X128142366Y-102987629D01*
X128149645Y-103006377D01*
X128168710Y-103054246D01*
X128182715Y-103087596D01*
X128189041Y-103100114D01*
X128196025Y-103101050D01*
X128227413Y-103106461D01*
X128278787Y-103115806D01*
X128344802Y-103128069D01*
X128420113Y-103142232D01*
X128499375Y-103157280D01*
X128577243Y-103172195D01*
X128648370Y-103185961D01*
X128707412Y-103197562D01*
X128749022Y-103205980D01*
X128767857Y-103210199D01*
X128770980Y-103211389D01*
X128778591Y-103217805D01*
X128784254Y-103231465D01*
X128788251Y-103255999D01*
X128790866Y-103295038D01*
X128792384Y-103352213D01*
X128793086Y-103431154D01*
X128793257Y-103535492D01*
X128793257Y-103852799D01*
X128717057Y-103867839D01*
X128707840Y-103869642D01*
X128658891Y-103878980D01*
X128591205Y-103891669D01*
X128512478Y-103906273D01*
X128430400Y-103921355D01*
X128398078Y-103927422D01*
X128325855Y-103942181D01*
X128265666Y-103956137D01*
X128223040Y-103967952D01*
X128203510Y-103976287D01*
X128194660Y-103989905D01*
X128178548Y-104025938D01*
X128162065Y-104072572D01*
X128156263Y-104090034D01*
X128134906Y-104147358D01*
X128107359Y-104215201D01*
X128078107Y-104282355D01*
X128062463Y-104317430D01*
X128040174Y-104369822D01*
X128024857Y-104409058D01*
X128019162Y-104428563D01*
X128019478Y-104430036D01*
X128030281Y-104450729D01*
X128054638Y-104490665D01*
X128090081Y-104545972D01*
X128134136Y-104612781D01*
X128184332Y-104687220D01*
X128349501Y-104929623D01*
X128132503Y-105146983D01*
X128111516Y-105167899D01*
X128047342Y-105230505D01*
X127989990Y-105284495D01*
X127942820Y-105326826D01*
X127909192Y-105354457D01*
X127892467Y-105364343D01*
X127874303Y-105356821D01*
X127836265Y-105335227D01*
X127782726Y-105302151D01*
X127717884Y-105260191D01*
X127645940Y-105211943D01*
X127575275Y-105164291D01*
X127511526Y-105122328D01*
X127459513Y-105089165D01*
X127423279Y-105067378D01*
X127406867Y-105059543D01*
X127405905Y-105059614D01*
X127384103Y-105067338D01*
X127345440Y-105085323D01*
X127297612Y-105110013D01*
X127297110Y-105110284D01*
X127233587Y-105142099D01*
X127190060Y-105157642D01*
X127163052Y-105157685D01*
X127149090Y-105143000D01*
X127143180Y-105128544D01*
X127127229Y-105089831D01*
X127102660Y-105030316D01*
X127070779Y-104953165D01*
X127032893Y-104861541D01*
X126990310Y-104758607D01*
X126944337Y-104647526D01*
X126902667Y-104546472D01*
X126860268Y-104442780D01*
X126822756Y-104350119D01*
X126791388Y-104271642D01*
X126767425Y-104210500D01*
X126752123Y-104169843D01*
X126746743Y-104152825D01*
X126757018Y-104137219D01*
X126785563Y-104111162D01*
X126825971Y-104080887D01*
X126922979Y-104001684D01*
X127009793Y-103900475D01*
X127073322Y-103789116D01*
X127113177Y-103670893D01*
X127128965Y-103549095D01*
X127120296Y-103427010D01*
X127086778Y-103307925D01*
X127028021Y-103195129D01*
X126943632Y-103091911D01*
X126899631Y-103051713D01*
X126794211Y-102980638D01*
X126681410Y-102934301D01*
X126564525Y-102911599D01*
X126446853Y-102911428D01*
X126331690Y-102932687D01*
X126222335Y-102974270D01*
X126122083Y-103035076D01*
X126034233Y-103114001D01*
X125962080Y-103209941D01*
X125908922Y-103321795D01*
X125878057Y-103448457D01*
X125872392Y-103509507D01*
X125880185Y-103641776D01*
X125915284Y-103767266D01*
X125976649Y-103883759D01*
X126063243Y-103989039D01*
X126174029Y-104080887D01*
X126212931Y-104109930D01*
X126242104Y-104136272D01*
X126253257Y-104152800D01*
X126248810Y-104167209D01*
X126234378Y-104205815D01*
X126211173Y-104265201D01*
X126180452Y-104342215D01*
X126143474Y-104433703D01*
X126101496Y-104536516D01*
X126055778Y-104647502D01*
X126014178Y-104748072D01*
X125971222Y-104851947D01*
X125932829Y-104944819D01*
X125900305Y-105023525D01*
X125874958Y-105084899D01*
X125858095Y-105125779D01*
X125851025Y-105143000D01*
X125850943Y-105143204D01*
X125836798Y-105157745D01*
X125809659Y-105157579D01*
X125766023Y-105141927D01*
X125702388Y-105110013D01*
X125697379Y-105107326D01*
X125650125Y-105083150D01*
X125612811Y-105066037D01*
X125593133Y-105059543D01*
X125577005Y-105067218D01*
X125540959Y-105088871D01*
X125489092Y-105121928D01*
X125425445Y-105163810D01*
X125354060Y-105211943D01*
X125283724Y-105259131D01*
X125218670Y-105301267D01*
X125164820Y-105334578D01*
X125126374Y-105356469D01*
X125107534Y-105364343D01*
X125104325Y-105363343D01*
X125081954Y-105347584D01*
X125043733Y-105315033D01*
X124993021Y-105268733D01*
X124933181Y-105211726D01*
X124867571Y-105147058D01*
X124650648Y-104929772D01*
X124819601Y-104681253D01*
X124988553Y-104432733D01*
X124937183Y-104321595D01*
X124937031Y-104321266D01*
X124906183Y-104250418D01*
X124874661Y-104171523D01*
X124849266Y-104101600D01*
X124845423Y-104090322D01*
X124826047Y-104037967D01*
X124808574Y-103997283D01*
X124796388Y-103976287D01*
X124791426Y-103973322D01*
X124761634Y-103963375D01*
X124711047Y-103950505D01*
X124645194Y-103936053D01*
X124569600Y-103921355D01*
X124546957Y-103917210D01*
X124465038Y-103902116D01*
X124388600Y-103887899D01*
X124325337Y-103875995D01*
X124282943Y-103867839D01*
X124206743Y-103852799D01*
X124206743Y-103535492D01*
X124206760Y-103496476D01*
X124207082Y-103401292D01*
X124208033Y-103330255D01*
X124209896Y-103279734D01*
X124212955Y-103246098D01*
X124217494Y-103225718D01*
X124223795Y-103214962D01*
X124232143Y-103210199D01*
X124240224Y-103208270D01*
X124273172Y-103201445D01*
X124325736Y-103191022D01*
X124392569Y-103178018D01*
X124468328Y-103163449D01*
X124547665Y-103148333D01*
X124625237Y-103133685D01*
X124695698Y-103120523D01*
X124753702Y-103109863D01*
X124793904Y-103102721D01*
X124810959Y-103100114D01*
X124812112Y-103098541D01*
X124821385Y-103078119D01*
X124837432Y-103039045D01*
X124857635Y-102987629D01*
X124885672Y-102918353D01*
X124920186Y-102838290D01*
X124952538Y-102767728D01*
X124959952Y-102751889D01*
X124980755Y-102702293D01*
X124993219Y-102664038D01*
X124994863Y-102644356D01*
X124994015Y-102642962D01*
X124980548Y-102622420D01*
X124953850Y-102582516D01*
X124916539Y-102527140D01*
X124871234Y-102460177D01*
X124820552Y-102385517D01*
X124763445Y-102300692D01*
X124720607Y-102234800D01*
X124691460Y-102186478D01*
X124674317Y-102152733D01*
X124667495Y-102130572D01*
X124669306Y-102117002D01*
X124669915Y-102115984D01*
X124686297Y-102096210D01*
X124719695Y-102060175D01*
X124766671Y-102011451D01*
X124823786Y-101953612D01*
X124887603Y-101890227D01*
X124953802Y-101825905D01*
X125018648Y-101765447D01*
X125066299Y-101724655D01*
X125097990Y-101702484D01*
X125114958Y-101697889D01*
X125117175Y-101698921D01*
X125140524Y-101712837D01*
X125182912Y-101740030D01*
X125240369Y-101777889D01*
X125308923Y-101823803D01*
X125384601Y-101875160D01*
X125631298Y-102043626D01*
X125742706Y-101993062D01*
X125745943Y-101991597D01*
X125814343Y-101961965D01*
X125886907Y-101932493D01*
X125948457Y-101909358D01*
X125948729Y-101909262D01*
X125997595Y-101891367D01*
X126035212Y-101876253D01*
X126053457Y-101867184D01*
X126053752Y-101866855D01*
X126059946Y-101848282D01*
X126070139Y-101806045D01*
X126083348Y-101744696D01*
X126098590Y-101668789D01*
X126114881Y-101582875D01*
X126115449Y-101579796D01*
X126131713Y-101492128D01*
X126146608Y-101412741D01*
X126159171Y-101346701D01*
X126168438Y-101299079D01*
X126173444Y-101274943D01*
X126173764Y-101273605D01*
X126177060Y-101263273D01*
X126183738Y-101255506D01*
X126197462Y-101249940D01*
X126221895Y-101246207D01*
X126260702Y-101243942D01*
X126317546Y-101242778D01*
X126396090Y-101242348D01*
X126500000Y-101242286D01*
X126513056Y-101242286D01*
X126613933Y-101242371D01*
G37*
%TD*%
M02*
