M48
; DRILL file {KiCad 8.0.5-8.0.5-0~ubuntu24.04.1} date 2024-10-14T08:19:58-0400
; FORMAT={-:-/ absolute / inch / decimal}
; #@! TF.CreationDate,2024-10-14T08:19:58-04:00
; #@! TF.GenerationSoftware,Kicad,Pcbnew,8.0.5-8.0.5-0~ubuntu24.04.1
; #@! TF.FileFunction,Plated,1,2,PTH
FMAT,2
INCH
; #@! TA.AperFunction,Plated,PTH,ViaDrill
T1C0.0138
; #@! TA.AperFunction,Plated,PTH,ComponentDrill
T2C0.0315
; #@! TA.AperFunction,Plated,PTH,ComponentDrill
T3C0.0394
; #@! TA.AperFunction,Plated,PTH,ComponentDrill
T4C0.0433
; #@! TA.AperFunction,Plated,PTH,ComponentDrill
T5C0.0472
%
G90
G05
T1
X4.4Y-4.0
X4.6732Y-3.9528
X4.7638Y-3.9567
X4.7913Y-4.1693
X5.1024Y-4.3622
X5.3346Y-4.0157
T2
X4.4685Y-4.0827
X4.4685Y-4.2087
X4.5197Y-3.7717
X4.5197Y-3.8701
X4.5669Y-4.0827
X4.5669Y-4.2087
X4.5984Y-3.7717
X4.5984Y-3.8701
X4.6654Y-4.0827
X4.6654Y-4.2087
X4.6772Y-3.7717
X4.6772Y-3.8701
X4.8346Y-3.7717
X4.8346Y-3.8701
X5.126Y-3.7717
X5.126Y-3.8701
X5.2047Y-3.7717
X5.2047Y-3.8701
X5.2835Y-3.7717
X5.2835Y-3.8701
X5.4409Y-3.7717
X5.4409Y-3.8701
T4
X4.0669Y-4.2445
X4.0669Y-4.6445
X4.1669Y-4.2445
X4.1669Y-4.6445
X5.7937Y-4.2445
X5.7937Y-4.6445
X5.8937Y-4.2445
X5.8937Y-4.6445
T5
X4.437Y-3.8209
X4.9173Y-3.8209
X5.0433Y-3.8209
X5.5236Y-3.8209
T3
G00X4.0079Y-3.937
M15
G01X4.0079Y-4.0157
M16
G05
G00X4.2421Y-3.8583
M15
G01X4.1437Y-3.8583
M16
G05
G00X4.2421Y-4.0945
M15
G01X4.1437Y-4.0945
M16
G05
G00X5.5827Y-3.937
M15
G01X5.5827Y-4.0157
M16
G05
G00X5.8169Y-3.8583
M15
G01X5.7185Y-3.8583
M16
G05
G00X5.8169Y-4.0945
M15
G01X5.7185Y-4.0945
M16
G05
M30
